<svg xmlns="http://www.w3.org/2000/svg" width="190" height="90.216" viewBox="0 0 190 90.216">
  <g id="Grupo_148524" data-name="Grupo 148524" transform="translate(-180 -425)">
    <rect id="Rect치ngulo_41430" data-name="Rect치ngulo 41430" width="85" height="28" rx="14" transform="translate(285 425.216)" fill="#feca2e" opacity="0.2"/>
    <rect id="Rect치ngulo_41431" data-name="Rect치ngulo 41431" width="85" height="28" rx="14" transform="translate(180 486.216)" fill="#4dd0e1" opacity="0.2"/>
    <g id="Grupo_148489" data-name="Grupo 148489" transform="translate(233.09 425)">
      <path id="Trazado_205941" data-name="Trazado 205941" d="M64.278,2937.589a16.345,16.345,0,0,0-6.344-12.926,14.282,14.282,0,0,0-12.752-16.182,16.4,16.4,0,0,0-16.344-14.966c-4.3,0-7.231,1.734-8.726,5.151-1.327-3-3.862-5.151-8.718-5.151a16.387,16.387,0,0,0-16.352,15.325,14.315,14.315,0,0,0-7.376,4.552,14.26,14.26,0,0,0-3.448,9.295,14.441,14.441,0,0,0,.239,2.622,16.387,16.387,0,0,0-8.525,14.348,16.346,16.346,0,0,0,6.343,12.926,14.412,14.412,0,0,0-.137,1.975,14.292,14.292,0,0,0,12.888,14.206A16.414,16.414,0,0,0,11.4,2983.731c4.855,0,7.39-2.153,8.718-5.151,1.495,3.416,4.428,5.151,8.726,5.151A16.381,16.381,0,0,0,45.179,2968.4a14.287,14.287,0,0,0,10.574-16.468A16.388,16.388,0,0,0,64.278,2937.589Zm-9.364,11.5a12.078,12.078,0,0,0-5.611-5.919,5.505,5.505,0,0,0-4.327-5.361,1.442,1.442,0,0,0-.613,2.817,2.615,2.615,0,1,1-1.111,5.11,1.442,1.442,0,0,0-.613,2.818,5.493,5.493,0,0,0,5.868-2.523,8.875,8.875,0,0,1,4.174,5.4c0,.023.014.044.019.067s0,.027.007.041a11.391,11.391,0,0,1-7.716,13.923,12.821,12.821,0,0,0-3.183-6.7,5.508,5.508,0,0,0-.986-6.433,1.442,1.442,0,0,0-2.039,2.039,2.615,2.615,0,0,1-3.7,3.7,1.442,1.442,0,0,0-2.039,2.039,5.5,5.5,0,0,0,6.8.773c2.349,2.507,2.474,6.482,2.475,6.543,0,.026.007.05.009.074a13.488,13.488,0,0,1-13.486,13.355c-5.085,0-6.705-2.619-7.134-8.692a3.809,3.809,0,0,1,2.148-1.535,5.6,5.6,0,0,1,4.392.708,1.442,1.442,0,0,0,1.543-2.435,8.441,8.441,0,0,0-6.728-1.045,7.031,7.031,0,0,0-1.484.619c0-.352-.005-.709-.005-1.078V2962a1.442,1.442,0,1,0-2.884,0v4.073c-5.749-.795-8.76,2.255-9.58,4.125a1.442,1.442,0,1,0,2.641,1.157c.015-.035,1.523-3.3,6.928-2.368-.124,8.34-1.366,11.862-7.279,11.862a13.515,13.515,0,0,1-13.541-13.459c0-.032-.007-.063-.01-.094s0-.055,0-.083a8.736,8.736,0,0,1,2.5-6.623,5.508,5.508,0,0,0,6.773.225,1.442,1.442,0,1,0-1.7-2.329,2.615,2.615,0,1,1-3.084-4.224,1.442,1.442,0,1,0-1.7-2.329,5.507,5.507,0,0,0-1.953,6.239,11.776,11.776,0,0,0-3.7,7.682,11.4,11.4,0,0,1-9.951-11.3,11.488,11.488,0,0,1,.237-2.32c.008-.037.01-.074.015-.111,0-.018.008-.034.01-.052a9.29,9.29,0,0,1,4.494-6.472,7.937,7.937,0,0,0,3.32,2.441,1.447,1.447,0,0,0,.56.114,1.442,1.442,0,0,0,1.329-.882,1.442,1.442,0,0,0-.768-1.889A4.321,4.321,0,0,1-8.4,2943a5.048,5.048,0,0,1,.4-3.573,1.442,1.442,0,0,0-.569-1.953,1.441,1.441,0,0,0-1.959.565,8.328,8.328,0,0,0-.852,4.894,12.436,12.436,0,0,0-5.6,6.483,13.455,13.455,0,0,1-4.2-9.761,13.492,13.492,0,0,1,6.474-11.491,11.25,11.25,0,0,0,8.118,6.7,1.458,1.458,0,0,0,.318.035,1.443,1.443,0,0,0,1.405-1.126,1.442,1.442,0,0,0-1.091-1.723,8.494,8.494,0,0,1-6.511-6.239c0-.017-.01-.031-.014-.047s0-.036-.01-.053a11.421,11.421,0,0,1-.4-3.023A11.326,11.326,0,0,1-4.811,2911.8c.475,2.745,2.011,6.283,5.666,7.58a6.316,6.316,0,0,0,.79,4.141,1.442,1.442,0,1,0,2.506-1.427,3.245,3.245,0,0,1-.115-3.281,2.969,2.969,0,0,1,2.109-1.623,1.442,1.442,0,0,0-.206-2.876,5.606,5.606,0,0,0-3.981,2.4c-4-1.29-4.061-6.615-4.062-6.855v0A13.5,13.5,0,0,1,11.4,2896.4c6.278,0,7.291,3.968,7.291,13.459v5.045a1.442,1.442,0,0,0,2.884,0v-2.986c.193-.38,1.984-3.512,7.722-2.166a1.442,1.442,0,1,0,.659-2.807c-3.783-.889-6.529-.192-8.363.947.156-8.074,1.444-11.493,7.25-11.493a13.5,13.5,0,0,1,13.518,13.459c0,.017,0,.033,0,.051s0,.038,0,.057A8.208,8.208,0,0,1,39.54,2916a7.85,7.85,0,0,0-4.086-1.514,1.441,1.441,0,1,0-.328,2.864c1.628.187,2.7.706,3.182,1.544a4.658,4.658,0,0,1-.095,3.637,1.442,1.442,0,0,0,2.636,1.169,8.168,8.168,0,0,0,.369-5.32,11.691,11.691,0,0,0,3.926-7,11.394,11.394,0,0,1,9.807,13.627c-.008.037-.01.074-.015.111,0,.018-.009.034-.01.052a9.058,9.058,0,0,1-2.992,5.359,7.7,7.7,0,0,0-5.139-2.076,1.441,1.441,0,0,0,.008,2.883h.009a4.55,4.55,0,0,1,3.231,1.409c.737.964.829,2.468.272,4.467a1.442,1.442,0,1,0,2.778.773,9.532,9.532,0,0,0,.248-4.875,12.363,12.363,0,0,0,3.848-5.287,13.435,13.435,0,0,1-2.273,21.26Z" transform="translate(24.066 -2893.515)" fill="#0f2771"/>
      <path id="Trazado_205942" data-name="Trazado 205942" d="M34.675,2970.739H50.7a1.442,1.442,0,0,0,1.442-1.442V2953.27a1.442,1.442,0,0,0-1.442-1.442H34.675a1.442,1.442,0,0,0-1.442,1.442V2969.3A1.442,1.442,0,0,0,34.675,2970.739Zm1.442-16.027H49.26v13.144H36.117Z" transform="translate(1.625 -2916.354)" fill="#0f2771"/>
      <path id="Trazado_205943" data-name="Trazado 205943" d="M54.644,2949.7a1.442,1.442,0,0,0,0-2.883H50.006v-5.052a1.442,1.442,0,0,0-1.442-1.442H43.782v-4.367a1.441,1.441,0,1,0-2.883,0v4.367H37.247v-4.367a1.442,1.442,0,1,0-2.884,0v4.367H30.9v-4.367a1.441,1.441,0,1,0-2.883,0v4.367H23.092a1.442,1.442,0,0,0-1.442,1.442v5.052H17.159a1.442,1.442,0,1,0,0,2.883H21.65v3.653H17.159a1.442,1.442,0,1,0,0,2.883H21.65v3.46H17.159a1.442,1.442,0,1,0,0,2.883H21.65v4.658a1.441,1.441,0,0,0,1.442,1.441H28.02v4.762a1.441,1.441,0,1,0,2.883,0v-4.762h3.46v4.762a1.442,1.442,0,1,0,2.884,0v-4.762H40.9v4.762a1.441,1.441,0,1,0,2.883,0v-4.762h4.782a1.441,1.441,0,0,0,1.442-1.441v-4.658h4.638a1.442,1.442,0,0,0,0-2.883H50.006v-3.46h4.638a1.442,1.442,0,0,0,0-2.883H50.006V2949.7Zm-7.522,16.1H24.534v-22.588H47.122Z" transform="translate(8.485 -2909.573)" fill="#0f2771"/>
    </g>
  </g>
</svg>
