<svg xmlns="http://www.w3.org/2000/svg" width="190" height="89" viewBox="0 0 190 89">
  <g id="Grupo_148546" data-name="Grupo 148546" transform="translate(-180 -6891)">
    <rect id="Rect치ngulo_41430" data-name="Rect치ngulo 41430" width="85" height="28" rx="14" transform="translate(285 6891)" fill="#feca2e" opacity="0.2"/>
    <rect id="Rect치ngulo_41431" data-name="Rect치ngulo 41431" width="85" height="28" rx="14" transform="translate(180 6952)" fill="#4dd0e1" opacity="0.2"/>
    <g id="Grupo_148494" data-name="Grupo 148494" transform="translate(1881.682 3259.238)">
      <path id="Trazado_205944" data-name="Trazado 205944" d="M-1565.017,3656.967h-89.821a1.709,1.709,0,0,0-1.709,1.709v67.076a1.709,1.709,0,0,0,1.709,1.709h89.821a1.708,1.708,0,0,0,1.708-1.709v-67.076A1.708,1.708,0,0,0-1565.017,3656.967Zm-1.709,67.077h-86.4v-63.66h86.4Z" transform="translate(0 -6.699)" fill="#0f2771"/>
      <path id="Trazado_205945" data-name="Trazado 205945" d="M-1641.844,3681.329h70.759a1.709,1.709,0,0,0,1.709-1.709,1.709,1.709,0,0,0-1.709-1.708h-70.759a1.708,1.708,0,0,0-1.708,1.708A1.708,1.708,0,0,0-1641.844,3681.329Z" transform="translate(-3.68 -12.63)" fill="#0f2771"/>
      <path id="Trazado_205946" data-name="Trazado 205946" d="M-1640.721,3671.02a1.964,1.964,0,0,0,1.964-1.965,1.964,1.964,0,0,0-1.964-1.964,1.964,1.964,0,0,0-1.965,1.964A1.965,1.965,0,0,0-1640.721,3671.02Z" transform="translate(-3.925 -9.566)" fill="#0f2771"/>
      <circle id="Elipse_6074" data-name="Elipse 6074" cx="1.964" cy="1.964" r="1.964" transform="translate(-1639.174 3657.665)" fill="#0f2771"/>
      <circle id="Elipse_6075" data-name="Elipse 6075" cx="1.964" cy="1.964" r="1.964" transform="translate(-1631.737 3657.805)" fill="#0f2771"/>
      <path id="Trazado_205947" data-name="Trazado 205947" d="M-1641.469,3699.243h5.032a1.709,1.709,0,0,0,1.708-1.708,1.708,1.708,0,0,0-1.708-1.708h-5.032a1.708,1.708,0,0,0-1.708,1.708A1.708,1.708,0,0,0-1641.469,3699.243Z" transform="translate(-3.786 -17.703)" fill="#0f2771"/>
      <path id="Trazado_205948" data-name="Trazado 205948" d="M-1604.909,3695.826h-12.383a1.708,1.708,0,0,0-1.708,1.708,1.709,1.709,0,0,0,1.708,1.708h12.383a1.709,1.709,0,0,0,1.708-1.708A1.708,1.708,0,0,0-1604.909,3695.826Z" transform="translate(-10.632 -17.703)" fill="#0f2771"/>
      <path id="Trazado_205949" data-name="Trazado 205949" d="M-1627.385,3698.483a1.588,1.588,0,0,0,.212.26,1.726,1.726,0,0,0,1.207.5,1.647,1.647,0,0,0,.335-.034,1.7,1.7,0,0,0,.319-.1,1.75,1.75,0,0,0,.3-.157,1.793,1.793,0,0,0,.26-.212,1.754,1.754,0,0,0,.212-.26,1.75,1.75,0,0,0,.157-.3,1.709,1.709,0,0,0,.1-.319,1.841,1.841,0,0,0,.032-.333,1.855,1.855,0,0,0-.032-.335,1.726,1.726,0,0,0-.1-.319,1.759,1.759,0,0,0-.157-.3,1.793,1.793,0,0,0-.212-.26,1.809,1.809,0,0,0-.26-.212,1.907,1.907,0,0,0-.3-.157,1.755,1.755,0,0,0-.319-.1,1.726,1.726,0,0,0-1.542.467,1.62,1.62,0,0,0-.212.26,1.742,1.742,0,0,0-.157.3,1.708,1.708,0,0,0-.1.319,1.644,1.644,0,0,0-.034.335,1.631,1.631,0,0,0,.034.333,1.691,1.691,0,0,0,.1.319A1.732,1.732,0,0,0-1627.385,3698.483Z" transform="translate(-8.176 -17.703)" fill="#0f2771"/>
      <path id="Trazado_205950" data-name="Trazado 205950" d="M-1641.469,3711.759h14.4a1.708,1.708,0,0,0,1.708-1.708,1.708,1.708,0,0,0-1.708-1.709h-14.4a1.708,1.708,0,0,0-1.708,1.709A1.708,1.708,0,0,0-1641.469,3711.759Z" transform="translate(-3.786 -21.247)" fill="#0f2771"/>
      <path id="Trazado_205951" data-name="Trazado 205951" d="M-1606.027,3710.051a1.708,1.708,0,0,0,1.708,1.708h15.1a1.709,1.709,0,0,0,1.709-1.708,1.708,1.708,0,0,0-1.709-1.709h-15.1A1.708,1.708,0,0,0-1606.027,3710.051Z" transform="translate(-14.306 -21.247)" fill="#0f2771"/>
      <path id="Trazado_205952" data-name="Trazado 205952" d="M-1613.308,3708.342a1.708,1.708,0,0,0-1.708,1.709,1.708,1.708,0,0,0,1.708,1.708h.227a1.708,1.708,0,0,0,1.708-1.708,1.708,1.708,0,0,0-1.708-1.709Z" transform="translate(-11.76 -21.247)" fill="#0f2771"/>
      <path id="Trazado_205953" data-name="Trazado 205953" d="M-1572.753,3708.342h-2.268a1.708,1.708,0,0,0-1.708,1.709,1.708,1.708,0,0,0,1.708,1.708h2.268a1.709,1.709,0,0,0,1.709-1.708A1.709,1.709,0,0,0-1572.753,3708.342Z" transform="translate(-22.602 -21.247)" fill="#0f2771"/>
      <path id="Trazado_205954" data-name="Trazado 205954" d="M-1641.469,3724.276h25.971a1.708,1.708,0,0,0,1.709-1.708,1.708,1.708,0,0,0-1.709-1.708h-25.971a1.708,1.708,0,0,0-1.708,1.708A1.708,1.708,0,0,0-1641.469,3724.276Z" transform="translate(-3.786 -24.792)" fill="#0f2771"/>
      <path id="Trazado_205955" data-name="Trazado 205955" d="M-1575.823,3720.86h-9.64a1.708,1.708,0,0,0-1.708,1.708,1.708,1.708,0,0,0,1.708,1.708h9.64a1.708,1.708,0,0,0,1.709-1.708A1.709,1.709,0,0,0-1575.823,3720.86Z" transform="translate(-19.645 -24.792)" fill="#0f2771"/>
      <path id="Trazado_205956" data-name="Trazado 205956" d="M-1560.794,3720.86h-2.836a1.708,1.708,0,0,0-1.708,1.708,1.708,1.708,0,0,0,1.708,1.708h2.836a1.708,1.708,0,0,0,1.708-1.708A1.708,1.708,0,0,0-1560.794,3720.86Z" transform="translate(-25.827 -24.792)" fill="#0f2771"/>
      <path id="Trazado_205957" data-name="Trazado 205957" d="M-1594.82,3720.86h-1.588a1.708,1.708,0,0,0-1.709,1.708,1.708,1.708,0,0,0,1.709,1.708h1.588a1.708,1.708,0,0,0,1.708-1.708A1.708,1.708,0,0,0-1594.82,3720.86Z" transform="translate(-16.545 -24.792)" fill="#0f2771"/>
      <path id="Trazado_205958" data-name="Trazado 205958" d="M-1632.648,3733.377h-8.821a1.708,1.708,0,0,0-1.708,1.708,1.708,1.708,0,0,0,1.708,1.708h8.821a1.709,1.709,0,0,0,1.709-1.708A1.708,1.708,0,0,0-1632.648,3733.377Z" transform="translate(-3.786 -28.336)" fill="#0f2771"/>
      <path id="Trazado_205959" data-name="Trazado 205959" d="M-1598.6,3733.377h-9.64a1.708,1.708,0,0,0-1.708,1.708,1.708,1.708,0,0,0,1.708,1.708h9.64a1.708,1.708,0,0,0,1.708-1.708A1.708,1.708,0,0,0-1598.6,3733.377Z" transform="translate(-13.194 -28.336)" fill="#0f2771"/>
      <path id="Trazado_205960" data-name="Trazado 205960" d="M-1618.364,3733.377h-1.588a1.708,1.708,0,0,0-1.709,1.708,1.709,1.709,0,0,0,1.709,1.708h1.588a1.708,1.708,0,0,0,1.708-1.708A1.708,1.708,0,0,0-1618.364,3733.377Z" transform="translate(-9.879 -28.336)" fill="#0f2771"/>
      <path id="Trazado_205961" data-name="Trazado 205961" d="M-1553.246,3644.9h-89.821a1.708,1.708,0,0,0-1.708,1.709,1.709,1.709,0,0,0,1.708,1.708h88.113v65.368a1.708,1.708,0,0,0,1.708,1.709,1.708,1.708,0,0,0,1.709-1.709V3646.6A1.708,1.708,0,0,0-1553.246,3644.9Z" transform="translate(-3.333 -3.281)" fill="#0f2771"/>
      <path id="Trazado_205962" data-name="Trazado 205962" d="M-1541.358,3633.308h-89.821a1.709,1.709,0,0,0-1.709,1.709,1.709,1.709,0,0,0,1.709,1.708h88.113v65.368a1.708,1.708,0,0,0,1.709,1.708,1.708,1.708,0,0,0,1.708-1.708v-67.076A1.708,1.708,0,0,0-1541.358,3633.308Z" transform="translate(-6.699)" fill="#0f2771"/>
    </g>
  </g>
</svg>
