<svg xmlns="http://www.w3.org/2000/svg" width="190" height="89" viewBox="0 0 190 89">
  <g id="Grupo_148562" data-name="Grupo 148562" transform="translate(-180 -414.607)">
    <rect id="Rect치ngulo_41430" data-name="Rect치ngulo 41430" width="85" height="28" rx="14" transform="translate(285 414.607)" fill="#feca2e" opacity="0.2"/>
    <rect id="Rect치ngulo_41431" data-name="Rect치ngulo 41431" width="85" height="28" rx="14" transform="translate(180 475.607)" fill="#4dd0e1" opacity="0.2"/>
    <g id="Grupo_148498" data-name="Grupo 148498" transform="translate(406.882 -3593.64)">
      <path id="Trazado_205963" data-name="Trazado 205963" d="M-79.607,4085.876a4.878,4.878,0,0,0-3.136-2.227,4.887,4.887,0,0,0-3.788.716l-19.087,12.948a1.03,1.03,0,0,1-.194.065c-.02,0-.041.008-.061.013h-.005a1.281,1.281,0,0,1-.24.04l-21.06.265h-.007a1.044,1.044,0,0,1-1.044-1.037,1.046,1.046,0,0,1,1.037-1.05l7.26-.044,6.57-.061a5.574,5.574,0,0,0,4.026-1.753,5.575,5.575,0,0,0,1.533-4.117,5.715,5.715,0,0,0-5.71-5.36h-.053l-17.7.162a5.615,5.615,0,0,0-1.814.322c-3.712.914-15.248,7.78-21.83,11.814a13.9,13.9,0,0,0-3.316,2.835l-13,15.24a1.388,1.388,0,0,0,.155,1.957,1.387,1.387,0,0,0,1.956-.155l13-15.24a11.11,11.11,0,0,1,2.655-2.27c10.72-6.57,18.8-10.975,21.086-11.5a1.269,1.269,0,0,0,.174-.052,2.84,2.84,0,0,1,.96-.179l17.7-.163h.028a2.916,2.916,0,0,1,2.937,2.709,2.823,2.823,0,0,1-.775,2.084,2.82,2.82,0,0,1-2.036.887l-6.565.061-7.257.044a3.825,3.825,0,0,0-3.794,3.843,3.825,3.825,0,0,0,3.827,3.795h.025l21.059-.267a3.722,3.722,0,0,0,.828-.106,3.6,3.6,0,0,0,1.114-.43l.05-.032,19.117-12.968a2.126,2.126,0,0,1,1.646-.31,2.13,2.13,0,0,1,1.367.972,2.2,2.2,0,0,1-.709,2.951c-.033.022-.064.045-.095.07l-19.1,15.184a4.71,4.71,0,0,1-1.567.719c-14.366,3.624-24.171,6.044-24.98,6.166-.992.139-10.885.066-16.887-.013h-.018a1.386,1.386,0,0,0-1.138.595l-8.519,12.219a1.388,1.388,0,0,0,.345,1.932,1.377,1.377,0,0,0,.792.25,1.386,1.386,0,0,0,1.14-.594l8.1-11.617c3.759.047,15.2.171,16.579-.024,1.261-.18,18.09-4.411,25.267-6.222a7.5,7.5,0,0,0,2.529-1.171c.019-.013.038-.028.057-.043l19.086-15.175A4.94,4.94,0,0,0-79.607,4085.876Z" transform="translate(0 -30.155)" fill="#0f2771"/>
      <path id="Trazado_205964" data-name="Trazado 205964" d="M-116.318,4041.754a1.407,1.407,0,0,0-.223.25,26.838,26.838,0,0,0-6.857,17.936,1.387,1.387,0,0,0,1.387,1.388,1.388,1.388,0,0,0,1.388-1.388,24.382,24.382,0,0,1,.131-2.514h9.825c-.038.828-.061,1.665-.061,2.514a1.388,1.388,0,0,0,1.388,1.388,1.388,1.388,0,0,0,1.388-1.388q0-1.271.065-2.514h10.052v2.514a1.388,1.388,0,0,0,1.388,1.388,1.388,1.388,0,0,0,1.388-1.388v-2.514h10.052q.065,1.242.066,2.514a1.388,1.388,0,0,0,1.388,1.388,1.387,1.387,0,0,0,1.387-1.388c0-.85-.022-1.687-.061-2.514H-72.4a24.385,24.385,0,0,1,.131,2.514,1.388,1.388,0,0,0,1.388,1.388,1.388,1.388,0,0,0,1.388-1.388A26.838,26.838,0,0,0-76.354,4042a1.388,1.388,0,0,0-.223-.251,26.885,26.885,0,0,0-19.87-8.764A26.883,26.883,0,0,0-116.318,4041.754Zm-3.715,12.9a24.109,24.109,0,0,1,4.96-10.106,33.264,33.264,0,0,0,6.1,2.277,44.37,44.37,0,0,0-1.485,7.83Zm22.2-9.013a46.66,46.66,0,0,1-7.513-.812c1.848-4.761,4.524-8.075,7.513-8.87Zm8.973-8.647a24.188,24.188,0,0,1,9.047,5.431,31.59,31.59,0,0,1-4.978,1.767A24,24,0,0,0-88.861,4036.99Zm1.315,7.835a46.667,46.667,0,0,1-7.513.813v-9.682C-92.07,4036.75-89.394,4040.064-87.546,4044.825Zm-20.557-.638a31.59,31.59,0,0,1-4.978-1.767,24.186,24.186,0,0,1,9.048-5.431A24.011,24.011,0,0,0-108.1,4044.187Zm.444,10.463a42,42,0,0,1,1.413-7.181,49.166,49.166,0,0,0,8.411.945v6.236Zm12.6,0v-6.236a49.173,49.173,0,0,0,8.411-.945,42.055,42.055,0,0,1,1.413,7.181Zm12.627,0a44.371,44.371,0,0,0-1.485-7.83,33.258,33.258,0,0,0,6.1-2.277,24.109,24.109,0,0,1,4.96,10.106Z" transform="translate(-19.305 -9.894)" fill="#0f2771"/>
      <path id="Trazado_205965" data-name="Trazado 205965" d="M-139.25,4045.974a1.387,1.387,0,0,0-1.387-1.388,1.387,1.387,0,0,0-1.388,1.388v1.378a1.387,1.387,0,0,0,1.388,1.388,1.387,1.387,0,0,0,1.387-1.388Z" transform="translate(-11.837 -14.543)" fill="#0f2771"/>
      <path id="Trazado_205966" data-name="Trazado 205966" d="M-140.637,4059.212a1.387,1.387,0,0,0-1.388,1.388v1.378a1.387,1.387,0,0,0,1.388,1.388,1.387,1.387,0,0,0,1.387-1.388V4060.6A1.387,1.387,0,0,0-140.637,4059.212Z" transform="translate(-11.837 -20.405)" fill="#0f2771"/>
      <path id="Trazado_205967" data-name="Trazado 205967" d="M-149.1,4055.824h1.378a1.387,1.387,0,0,0,1.388-1.387,1.388,1.388,0,0,0-1.388-1.388H-149.1a1.388,1.388,0,0,0-1.388,1.388A1.387,1.387,0,0,0-149.1,4055.824Z" transform="translate(-8.445 -17.935)" fill="#0f2771"/>
      <path id="Trazado_205968" data-name="Trazado 205968" d="M-134.475,4055.824h1.378a1.387,1.387,0,0,0,1.388-1.387,1.388,1.388,0,0,0-1.388-1.388h-1.378a1.388,1.388,0,0,0-1.388,1.388A1.387,1.387,0,0,0-134.475,4055.824Z" transform="translate(-14.307 -17.935)" fill="#0f2771"/>
      <path id="Trazado_205969" data-name="Trazado 205969" d="M-117.159,4012.461a1.388,1.388,0,0,0,1.388-1.388v-1.378a1.388,1.388,0,0,0-1.388-1.388,1.388,1.388,0,0,0-1.388,1.388v1.378A1.388,1.388,0,0,0-117.159,4012.461Z" transform="translate(-21.249)" fill="#0f2771"/>
      <path id="Trazado_205970" data-name="Trazado 205970" d="M-117.159,4027.085a1.387,1.387,0,0,0,1.388-1.387v-1.378a1.388,1.388,0,0,0-1.388-1.388,1.388,1.388,0,0,0-1.388,1.388v1.378A1.388,1.388,0,0,0-117.159,4027.085Z" transform="translate(-21.249 -5.863)" fill="#0f2771"/>
      <path id="Trazado_205971" data-name="Trazado 205971" d="M-125.621,4019.545h1.378a1.388,1.388,0,0,0,1.388-1.388,1.388,1.388,0,0,0-1.388-1.388h-1.378a1.388,1.388,0,0,0-1.388,1.388A1.388,1.388,0,0,0-125.621,4019.545Z" transform="translate(-17.857 -3.392)" fill="#0f2771"/>
      <path id="Trazado_205972" data-name="Trazado 205972" d="M-111,4019.545h1.378a1.388,1.388,0,0,0,1.388-1.388,1.388,1.388,0,0,0-1.388-1.388H-111a1.388,1.388,0,0,0-1.388,1.388A1.388,1.388,0,0,0-111,4019.545Z" transform="translate(-23.719 -3.392)" fill="#0f2771"/>
      <path id="Trazado_205973" data-name="Trazado 205973" d="M-32.135,4026.182a1.388,1.388,0,0,0,1.388-1.388v-1.379a1.388,1.388,0,0,0-1.388-1.388,1.388,1.388,0,0,0-1.388,1.388v1.379A1.388,1.388,0,0,0-32.135,4026.182Z" transform="translate(-55.331 -5.5)" fill="#0f2771"/>
      <path id="Trazado_205974" data-name="Trazado 205974" d="M-32.135,4040.807a1.388,1.388,0,0,0,1.388-1.388v-1.379a1.387,1.387,0,0,0-1.388-1.387,1.387,1.387,0,0,0-1.388,1.387v1.379A1.388,1.388,0,0,0-32.135,4040.807Z" transform="translate(-55.331 -11.363)" fill="#0f2771"/>
      <path id="Trazado_205975" data-name="Trazado 205975" d="M-40.6,4033.266h1.379a1.388,1.388,0,0,0,1.388-1.388,1.388,1.388,0,0,0-1.388-1.388H-40.6a1.387,1.387,0,0,0-1.387,1.388A1.387,1.387,0,0,0-40.6,4033.266Z" transform="translate(-51.939 -8.892)" fill="#0f2771"/>
      <path id="Trazado_205976" data-name="Trazado 205976" d="M-25.973,4033.266h1.379a1.388,1.388,0,0,0,1.388-1.388,1.388,1.388,0,0,0-1.388-1.388h-1.379a1.388,1.388,0,0,0-1.387,1.388A1.388,1.388,0,0,0-25.973,4033.266Z" transform="translate(-57.802 -8.892)" fill="#0f2771"/>
      <circle id="Elipse_6076" data-name="Elipse 6076" cx="1.489" cy="1.489" r="1.489" transform="translate(-125.532 4015.479)" fill="#0f2771"/>
      <path id="Trazado_205977" data-name="Trazado 205977" d="M-47.76,4013.416a1.489,1.489,0,0,0,1.489-1.489,1.489,1.489,0,0,0-1.489-1.49,1.489,1.489,0,0,0-1.489,1.49A1.489,1.489,0,0,0-47.76,4013.416Z" transform="translate(-49.027 -0.854)" fill="#0f2771"/>
      <circle id="Elipse_6077" data-name="Elipse 6077" cx="1.489" cy="1.489" r="1.489" transform="translate(-83.885 4038.705)" fill="#0f2771"/>
      <path id="Trazado_205978" data-name="Trazado 205978" d="M-140.706,4028.041a1.489,1.489,0,0,0,1.489-1.489,1.489,1.489,0,0,0-1.489-1.49,1.49,1.49,0,0,0-1.489,1.49A1.489,1.489,0,0,0-140.706,4028.041Z" transform="translate(-11.769 -6.716)" fill="#0f2771"/>
    </g>
  </g>
</svg>
