<svg xmlns="http://www.w3.org/2000/svg" xmlns:xlink="http://www.w3.org/1999/xlink" width="473.485" height="453.102" viewBox="0 0 473.485 453.102">
  <defs>
    <clipPath id="clip-path">
      <path id="Trazado_202823" data-name="Trazado 202823" d="M3478.408,8138.927l.964,7.462s-18.055,9.388-26.239,13-9.869,5.055-11.073,11.313-8.425,63.55-8.906,71.492,2.166,10.833,7.944,11.555,10.11-4.333,10.11-4.333l-2.166,31.293h80.879l-9.869-29.366s7.7-26.479,14.684-46.218,10.591-34.9,6.259-39.718-34.9-18.776-37.071-20.461-2.166-23.108-2.166-23.108Z" transform="translate(-3433.099 -8121.836)" fill="#4dd0e1" stroke="#000" stroke-miterlimit="10" stroke-width="1"/>
    </clipPath>
    <clipPath id="clip-path-2">
      <path id="Trazado_202829" data-name="Trazado 202829" d="M3497.653,8121.836l-23.349,17.091.964,7.462s-3.344,1.738-7.8,4.006c.059,6.09,1.8,19.961,16.467,19.584,11.648-.3,19.587-11.991,23.938-20.827-4.236-2.111-7.407-3.706-8.052-4.207C3497.653,8143.26,3497.653,8121.836,3497.653,8121.836Z" transform="translate(-3467.466 -8121.836)" fill="#ffbf9d" stroke="#000" stroke-width="1"/>
    </clipPath>
    <clipPath id="clip-path-3">
      <path id="Trazado_202837" data-name="Trazado 202837" d="M3457.247,8079.4a18.325,18.325,0,0,1-1.685-12.757c1.685-7.222,9.628-4.334,13-7.222s1.685-9.628,7.22-13.479,11.555-2.167,13.962,2.166,6.981,5.536,11.313,1.686,15.406-.241,17.331,5.055-1.685,13.479,2.649,14.924,13,1.686,13.72,10.111-4.814,8.424-1.685,12.757,6.018,6.5,4.093,11.794-8.906,6.019-8.425,10.111-.964,9.388-5.3,10.109-6.259-4.093-8.906-.963-6.5,6.5-10.832,5.055-5.056-6.98-5.778-15.646-2.888-22.866-15.887-27.682-23.35-3.129-23.35-3.129Z" transform="translate(-3455.091 -8043.794)" fill="#1a2e35" stroke="#1a2e35" stroke-linecap="round" stroke-linejoin="round" stroke-width="1"/>
    </clipPath>
    <clipPath id="clip-path-4">
      <path id="Trazado_202841" data-name="Trazado 202841" d="M3463.232,8070.525s-9.147,3.13-10.35,21.183-3.371,21.665,1.444,34.9,13.479,21.665,19.016,21.184,23.59-9.629,27.2-15.166a42.414,42.414,0,0,0,4.574-8.425s5.055-12.035-.24-27.682-12.589-19.85-20.991-23.631C3472.389,8067.718,3463.232,8070.525,3463.232,8070.525Z" transform="translate(-3451.339 -8069.765)" fill="#ffbf9d" stroke="#000" stroke-width="1"/>
    </clipPath>
    <clipPath id="clip-path-5">
      <path id="Trazado_202861" data-name="Trazado 202861" d="M3256.538,8233.235c-2.194,4.786-18.1,37.173-23.495,48.135h110.889c-3.936-10.077-14.544-38.072-12.773-42.6,2.166-5.537,14.187-14.721,14.668-24.35s1.94-51.717-.708-57.976-22.832-8.5-26.925-13.8-.756-20.623-.756-20.623-19.5-12.035-23.831-6.257c0,0,.722,11.794-1.925,18.293s-12.035,10.351-21.665,13.721-23.348,6.5-23.589,13.48S3259.186,8227.459,3256.538,8233.235Z" transform="translate(-3233.043 -8114.199)" fill="#0f2771" stroke="#000" stroke-width="1"/>
    </clipPath>
    <clipPath id="clip-path-6">
      <path id="Trazado_202866" data-name="Trazado 202866" d="M3341.952,8156.447c-2.647-6.257-22.832-8.5-26.925-13.8s-.756-20.623-.756-20.623-19.5-12.035-23.831-6.257c0,0,.722,11.794-1.925,18.293s-12.036,10.351-21.665,13.721c-2.278.8-4.786,1.583-7.289,2.407,3.959,7.8,18.536,31.791,47.007,29.367,20.5-1.744,30.8-13.056,35.757-21.744A7.415,7.415,0,0,0,3341.952,8156.447Z" transform="translate(-3259.561 -8114.199)" fill="#ffbf9d"/>
    </clipPath>
    <clipPath id="clip-path-7">
      <path id="Trazado_202871" data-name="Trazado 202871" d="M3242.065,8152.37s-7.222,4.814-3.851,27.923,19.979,76.306,26.719,80.4,78.472,22.146,82.083,25.035,9.63,8.425,12.759,9.146,15.646,2.889,16.85,3.129,1.444-.722-.481-2.647l-1.926-1.926s7.944,1.2,10.11-.24a25.455,25.455,0,0,0,7.221-9.146c1.2-3.13.24-6.019-1.2-5.537s-2.166.963-10.592-.241-13.72-4.092-19.257-3.609-6.74.722-10.11.481-11.313-1.2-33.941-14.685-34.662-22.387-34.662-22.387-8.906-47.66-12.759-58.252-5.054-15.165-5.054-15.165" transform="translate(-3237.318 -8152.37)" fill="#374368"/>
    </clipPath>
    <clipPath id="clip-path-8">
      <path id="Trazado_202887" data-name="Trazado 202887" d="M3320.386,8074.1s-16.85,17.331-26.719,22.868-12.758,7.943-12.758,7.943,4.815,15.888,11.074,27.923,16.369,16.609,26,13.24,15.4-28.646,15.887-35.627,1.685-17.089,1.685-17.089S3323.515,8085.9,3320.386,8074.1Z" transform="translate(-3280.909 -8074.1)" fill="#ffbf9d"/>
    </clipPath>
    <clipPath id="clip-path-9">
      <path id="Trazado_202899" data-name="Trazado 202899" d="M3530.631,8175.722s-5.778,5.3-5.536,18.776,3.851,60.179,3.851,60.179l-65.474,26.237s-14.442-2.406-20.942-4.093-13.48-2.887-16.609-.48-17.812,14.2-16.85,15.888a2.08,2.08,0,0,0,2.407,1.2s.241,2.166,1.444,2.647a4.709,4.709,0,0,0,2.408.24s.241,1.686,1.444,1.926a15.817,15.817,0,0,0,2.647.242s1.685,1.685,3.371.722,9.629-6.74,9.629-6.74,11.794,4.092,19.5,2.166a80.941,80.941,0,0,0,12.035-3.851s58.975-8.426,70.289-12.519,16.127-7.462,17.331-10.108,4.332-58.494,4.332-80.639-3.851-22.628-10.11-25.275-8.666-3.852-8.666-3.852" transform="translate(-3409.025 -8158.391)" fill="#4dd0e1" stroke="#000" stroke-miterlimit="10" stroke-width="1"/>
    </clipPath>
    <clipPath id="clip-path-10">
      <path id="Trazado_202913" data-name="Trazado 202913" d="M3366.442,8164.005s-22.868-15.887-24.072-15.646-1.2,1.685-2.889,5.295-16.849,19.979-42.847,16.368-29.366-26.237-29.366-26.237c-9.869-1.2-31.534,5.3-31.534,5.3s-6.687.871-5.785,2.676.9,6.916,4.215,8.12c4.923,1.789,8.069,1.8,6.161,8.112-.644,2.13-1.343,4.547-.228,6.473.919,1.589,2.823,2.328,4.636,2.614a35.367,35.367,0,0,1,5.436.812c3.592,1.163,4.122,5.41,5.714,8.37,1.942,3.61,4.486,7.1,8.044,9.264a15.517,15.517,0,0,0,8.988,2.336c3.638-.251,7.244-2.485,10.817-.533,3.743,2.044,5.838,6.636,10.255,7.6,7.7,1.686,11.8-4.091,16.609-5.535s5.056,3.369,12.518,3.369,6.739-6.018,10.35-8.665,4.092.962,9.147.481,4.814-4.091,7.221-8.184,4.814-2.647,8.666-3.61,2.888-4.814,3.129-8.425,1.2-3.129,3.129-5.3A7.4,7.4,0,0,0,3366.442,8164.005Z" transform="translate(-3229.865 -8143.636)" fill="#374368"/>
    </clipPath>
  </defs>
  <g id="Grupo_148563" data-name="Grupo 148563" transform="translate(-864.521 -593.86)">
    <path id="Trazado_202795" data-name="Trazado 202795" d="M3294.641,8055.092a49.321,49.321,0,0,0-23.764,18.748c-13.72,20.219-4.092,28.645-13.479,39.235s-17.813,6.018-19.98,18.054,5.056,18.776-.963,23.59-22.626,6.74-17.812,20.461,14.925,11.313,8.184,20.46-3.61,22.868,13.24,27.44,60.9,17.572,83.527,5.056,41.4-41.4,40.2-56.568-11.313-18.294-11.072-26.479,8.184-8.906,7.221-17.571-11.555-6.5-10.592-14.685,15.647-4.812,11.8-23.107c-2.563-12.177-12.867-22.953-22.971-29.5a48.768,48.768,0,0,0-21-7.82A49.368,49.368,0,0,0,3294.641,8055.092Z" transform="translate(-2282.253 -7281.129)" fill="#1a2e35" stroke="#1a2e35" stroke-linecap="round" stroke-linejoin="round" stroke-width="1"/>
    <g id="Grupo_144934" data-name="Grupo 144934" transform="translate(1031.178 594.389)">
      <g id="Grupo_144932" data-name="Grupo 144932">
        <path id="Trazado_202796" data-name="Trazado 202796" d="M3419.309,8175.644c-.28-5.041-1.12-17.643.56-22.122s1.68-2.24,8.681-11.481,24.643-27.162,35-39.484,9.241-18.762,18.762-35,20.442-29.4,28-38.926,7-12.32-1.96-14.84-14.282.56-21.282,4.479-15.962,14-23.523,24.643-15.122,15.682-18.481,17.082a7.074,7.074,0,0,1-5.6.279s-8.961-18.2-10.642-23.8-2.8-20.442-2.52-22.963,1.96-12.881,3.92-26.6,3.64-38.645,3.92-47.045,2.52-27.163-1.96-33.6-14-4.76-16.242.279-4.76,24.923-5.32,38.364-8.961,57.687-10.082,59.646-5.881-.279-7.281-1.68,0-5.321.281-14.843,0-30.8-.561-43.124a316.1,316.1,0,0,0-4.76-38.364c-1.4-6.439-3.92-11.2-8.4-12.04s-11.2,2.24-11.2,8.12-.84,43.964-.84,57.126.84,39.2.56,41.444-3.359,2.52-4.76,1.681-2.52-7.562-3.081-19.043-5.881-32.762-6.44-52.645-2.24-21-8.961-21.562-10.361,2.8-11.481,10.921.841,33.883.841,49.564,5.6,42,5.6,42l-5.88,3.36s-7.28-26.884-8.96-35.844-4.2-30.8-7.841-35-11.481-1.4-13.161,5.042-.841,13.721-.281,30.522,7.842,47.044,7.842,47.044-3.081,16.521.28,44.524,12.041,62.446,17.082,72.527,8.68,10.082,9.521,16.242.56,16.521.56,16.521" transform="translate(-3303.225 -7894.36)" fill="none" stroke="#1a2e35" stroke-linecap="round" stroke-linejoin="round" stroke-width="1"/>
        <path id="Trazado_202797" data-name="Trazado 202797" d="M3315.618,8043.066s29.4-2.24,47.325-9.521,25.2-16.242,25.2-16.242" transform="translate(-3301.745 -7879.673)" fill="none" stroke="#1a2e35" stroke-linecap="round" stroke-linejoin="round" stroke-width="1"/>
        <path id="Trazado_202798" data-name="Trazado 202798" d="M3421.195,8023.058s-26.323.84-38.364,10.36-28.843,30.243-34.443,36.4" transform="translate(-3297.83 -7878.987)" fill="none" stroke="#1a2e35" stroke-linecap="round" stroke-linejoin="round" stroke-width="1"/>
        <path id="Trazado_202799" data-name="Trazado 202799" d="M3396.534,8028.561s-15.682,16.241-22.683,36.124a111.323,111.323,0,0,0-4.21,15.106" transform="translate(-3295.292 -7878.329)" fill="none" stroke="#1a2e35" stroke-linecap="round" stroke-linejoin="round" stroke-width="1"/>
        <path id="Trazado_202800" data-name="Trazado 202800" d="M3333.129,7964.138s11.481-5.88,19.042-2.239" transform="translate(-3299.653 -7886.434)" fill="none" stroke="#1a2e35" stroke-linecap="round" stroke-linejoin="round" stroke-width="1"/>
        <path id="Trazado_202801" data-name="Trazado 202801" d="M3331.378,7935.859s8.68-5.6,15.961-2.24" transform="translate(-3299.862 -7889.798)" fill="none" stroke="#1a2e35" stroke-linecap="round" stroke-linejoin="round" stroke-width="1"/>
        <path id="Trazado_202802" data-name="Trazado 202802" d="M3364.647,7919.178s8.4-3.641,15.122-.28" transform="translate(-3295.888 -7891.599)" fill="none" stroke="#1a2e35" stroke-linecap="round" stroke-linejoin="round" stroke-width="1"/>
        <path id="Trazado_202803" data-name="Trazado 202803" d="M3363.9,7950.1s14.842-2.24,19.881.84" transform="translate(-3295.978 -7887.796)" fill="none" stroke="#1a2e35" stroke-linecap="round" stroke-linejoin="round" stroke-width="1"/>
        <path id="Trazado_202804" data-name="Trazado 202804" d="M3402.92,7932.766s11.2-1.12,16.241,3.64" transform="translate(-3291.316 -7889.786)" fill="none" stroke="#1a2e35" stroke-linecap="round" stroke-linejoin="round" stroke-width="1"/>
        <path id="Trazado_202805" data-name="Trazado 202805" d="M3398.167,7960.021s13.721-.28,18.482,3.359" transform="translate(-3291.884 -7886.517)" fill="none" stroke="#1a2e35" stroke-linecap="round" stroke-linejoin="round" stroke-width="1"/>
        <path id="Trazado_202806" data-name="Trazado 202806" d="M3306.113,7963.587s8.12-5.04,13.441-1.96" transform="translate(-3302.88 -7886.443)" fill="none" stroke="#1a2e35" stroke-linecap="round" stroke-linejoin="round" stroke-width="1"/>
        <path id="Trazado_202807" data-name="Trazado 202807" d="M3306.113,7986.62s10.921-7.281,16.8-5.041" transform="translate(-3302.88 -7883.992)" fill="none" stroke="#1a2e35" stroke-linecap="round" stroke-linejoin="round" stroke-width="1"/>
        <path id="Trazado_202808" data-name="Trazado 202808" d="M3452.449,8023.058s9.521,7.561,16.241,8.68" transform="translate(-3285.4 -7878.987)" fill="none" stroke="#1a2e35" stroke-linecap="round" stroke-linejoin="round" stroke-width="1"/>
        <path id="Trazado_202809" data-name="Trazado 202809" d="M3317.62,8011.386s7.561-1.96,10.081-4.2,3.92-3.641,3.92-3.641" transform="translate(-3301.506 -7881.317)" fill="none" stroke="#1a2e35" stroke-linecap="round" stroke-linejoin="round" stroke-width="1"/>
        <path id="Trazado_202810" data-name="Trazado 202810" d="M3396.666,7994.291s12.322,2.8,15.122,5.88" transform="translate(-3292.063 -7882.423)" fill="none" stroke="#1a2e35" stroke-linecap="round" stroke-linejoin="round" stroke-width="1"/>
        <path id="Trazado_202811" data-name="Trazado 202811" d="M3426.786,8044.122s-3.921-1.96-9.8-7.561-7.561-7-7.561-7" transform="translate(-3290.54 -7878.209)" fill="none" stroke="#1a2e35" stroke-linecap="round" stroke-linejoin="round" stroke-width="1"/>
        <path id="Trazado_202812" data-name="Trazado 202812" d="M3426.64,8044.073s-6.44-2.52-16.242-6.72-11.481-5.041-11.481-5.041" transform="translate(-3291.795 -7877.881)" fill="none" stroke="#1a2e35" stroke-linecap="round" stroke-linejoin="round" stroke-width="1"/>
      </g>
      <g id="Grupo_144933" data-name="Grupo 144933" transform="translate(43.491 179.669)">
        <path id="Trazado_202813" data-name="Trazado 202813" d="M3347.078,8082.043s9.811-19.056,25.2-22.4,33.883,22.331,33.883,22.331S3377.041,8103.045,3347.078,8082.043Z" transform="translate(-3341.477 -8054.321)" fill="none" stroke="#1a2e35" stroke-linecap="round" stroke-linejoin="round" stroke-width="1.5"/>
        <circle id="Elipse_6003" data-name="Elipse 6003" cx="15.392" cy="15.392" r="15.392" transform="matrix(0.159, -0.987, 0.987, 0.159, 16.72, 33.699)" fill="#1a2e35" stroke="#1a2e35" stroke-linecap="round" stroke-linejoin="round" stroke-width="1.5"/>
        <line id="Línea_340" data-name="Línea 340" x1="5.601" y1="1.4" transform="translate(0 26.322)" fill="none" stroke="#1a2e35" stroke-linecap="round" stroke-linejoin="round" stroke-width="1.5"/>
        <path id="Trazado_202814" data-name="Trazado 202814" d="M3344.326,8073.368c1.68.56,5.6,1.96,5.6,1.96" transform="translate(-3341.806 -8052.645)" fill="none" stroke="#1a2e35" stroke-linecap="round" stroke-linejoin="round" stroke-width="1.5"/>
        <line id="Línea_341" data-name="Línea 341" x2="3.36" y2="2.24" transform="translate(10.081 13.721)" fill="none" stroke="#1a2e35" stroke-linecap="round" stroke-linejoin="round" stroke-width="1.5"/>
        <line id="Línea_342" data-name="Línea 342" x2="4.48" y2="3.92" transform="translate(15.682 5.88)" fill="none" stroke="#1a2e35" stroke-linecap="round" stroke-linejoin="round" stroke-width="1.5"/>
        <line id="Línea_343" data-name="Línea 343" x2="1.68" y2="4.201" transform="translate(26.323 1.96)" fill="none" stroke="#1a2e35" stroke-linecap="round" stroke-linejoin="round" stroke-width="1.5"/>
        <line id="Línea_344" data-name="Línea 344" y2="4.76" transform="translate(36.684)" fill="none" stroke="#1a2e35" stroke-linecap="round" stroke-linejoin="round" stroke-width="1.5"/>
        <line id="Línea_345" data-name="Línea 345" x1="1.96" y2="4.48" transform="translate(45.084 3.64)" fill="none" stroke="#1a2e35" stroke-linecap="round" stroke-linejoin="round" stroke-width="1.5"/>
        <line id="Línea_346" data-name="Línea 346" x1="4.2" y2="5.881" transform="translate(52.925 8.681)" fill="none" stroke="#1a2e35" stroke-linecap="round" stroke-linejoin="round" stroke-width="1.5"/>
        <line id="Línea_347" data-name="Línea 347" x1="3.64" y2="3.92" transform="translate(59.086 17.081)" fill="none" stroke="#1a2e35" stroke-linecap="round" stroke-linejoin="round" stroke-width="1.5"/>
        <line id="Línea_348" data-name="Línea 348" y1="1.889" x2="5.601" transform="translate(64.687 25.763)" fill="none" stroke="#1a2e35" stroke-linecap="round" stroke-linejoin="round" stroke-width="1.5"/>
        <line id="Línea_349" data-name="Línea 349" x1="2.24" y2="5.041" transform="translate(7.281 30.803)" fill="none" stroke="#1a2e35" stroke-linecap="round" stroke-linejoin="round" stroke-width="1.5"/>
        <line id="Línea_350" data-name="Línea 350" x1="0.84" y2="5.041" transform="translate(16.242 34.443)" fill="none" stroke="#1a2e35" stroke-linecap="round" stroke-linejoin="round" stroke-width="1.5"/>
        <line id="Línea_351" data-name="Línea 351" y2="8.401" transform="translate(25.763 36.124)" fill="none" stroke="#1a2e35" stroke-linecap="round" stroke-linejoin="round" stroke-width="1.5"/>
        <line id="Línea_352" data-name="Línea 352" x2="0.56" y2="20.827" transform="translate(37.244 37.523)" fill="none" stroke="#1a2e35" stroke-linecap="round" stroke-linejoin="round" stroke-width="1.5"/>
        <line id="Línea_353" data-name="Línea 353" x2="2.8" y2="7.001" transform="translate(47.325 35.843)" fill="none" stroke="#1a2e35" stroke-linecap="round" stroke-linejoin="round" stroke-width="1.5"/>
        <line id="Línea_354" data-name="Línea 354" x2="3.36" y2="5.881" transform="translate(56.846 32.483)" fill="none" stroke="#1a2e35" stroke-linecap="round" stroke-linejoin="round" stroke-width="1.5"/>
      </g>
    </g>
    <g id="Grupo_144935" data-name="Grupo 144935" transform="translate(962.439 630.664)">
      <path id="Trazado_202815" data-name="Trazado 202815" d="M3451.843,7933.835l5.464,10.105,11.3,2.073-7.922,8.319,1.519,11.386-10.36-4.963-10.36,4.963,1.519-11.386-7.922-8.319,11.3-2.073Z" transform="translate(-3218.736 -7925.919)" fill="none" stroke="#1a2e35" stroke-miterlimit="10" stroke-width="1"/>
      <path id="Trazado_202816" data-name="Trazado 202816" d="M3428.132,8120.861l2.416,4.469,5,.917-3.5,3.679.672,5.035-4.581-2.194-4.581,2.194.672-5.035-3.5-3.679,5-.917Z" transform="translate(-3220.451 -7903.58)" fill="none" stroke="#1a2e35" stroke-miterlimit="10" stroke-width="1"/>
      <path id="Trazado_202817" data-name="Trazado 202817" d="M3249.233,8030.764l2.416,4.469,5,.917-3.5,3.679.672,5.035-4.582-2.194-4.581,2.194.672-5.035-3.5-3.679,5-.917Z" transform="translate(-3241.821 -7914.341)" fill="none" stroke="#1a2e35" stroke-miterlimit="10" stroke-width="1"/>
      <path id="Trazado_202818" data-name="Trazado 202818" d="M3282.219,7926.764l2.416,4.469,5,.917-3.5,3.679.672,5.035-4.581-2.194-4.582,2.194.672-5.035-3.5-3.679,5-.917Z" transform="translate(-3237.881 -7926.764)" fill="none" stroke="#1a2e35" stroke-miterlimit="10" stroke-width="1"/>
      <path id="Trazado_202819" data-name="Trazado 202819" d="M3475.111,7959.737a17.7,17.7,0,0,1-27.541,18.707,17.7,17.7,0,1,0,27.541-18.707Z" transform="translate(-3217.244 -7922.826)" fill="none" stroke="#1a2e35" stroke-miterlimit="10" stroke-width="1"/>
      <path id="Trazado_202820" data-name="Trazado 202820" d="M3277.783,7989.489a11.367,11.367,0,0,1-17.688,12.015,11.368,11.368,0,1,0,17.688-12.015Z" transform="translate(-3239.638 -7919.271)" fill="none" stroke="#1a2e35" stroke-miterlimit="10" stroke-width="1"/>
    </g>
    <g id="Grupo_144973" data-name="Grupo 144973" transform="translate(866.565 761.674)">
      <g id="Grupo_144938" data-name="Grupo 144938" transform="translate(310.001 87.364)">
        <g id="Grupo_144937" data-name="Grupo 144937">
          <path id="Trazado_202821" data-name="Trazado 202821" d="M3478.408,8138.927l.964,7.462s-18.055,9.388-26.239,13-9.869,5.055-11.073,11.313-8.425,63.55-8.906,71.492,2.166,10.833,7.944,11.555,10.11-4.333,10.11-4.333l-2.166,31.293h80.879l-9.869-29.366s7.7-26.479,14.684-46.218,10.591-34.9,6.259-39.718-34.9-18.776-37.071-20.461-2.166-23.108-2.166-23.108Z" transform="translate(-3433.099 -8121.836)" fill="#4dd0e1"/>
          <g id="Grupo_144936" data-name="Grupo 144936" clip-path="url(#clip-path)">
            <path id="Trazado_202822" data-name="Trazado 202822" d="M3520.677,8189.164s-.934,27.083-9.338,33.621-32.685-5.6-38.754-8.405-21.946,3.735-21.946,7.937,9.338.936,22.879,8.405,18.21,10.739,24.28,10.271l6.07-.467s-1.867,17.743.935,28.016a12.123,12.123,0,0,0,2.21,4.124h20.814l-9.869-29.366s5.9-20.283,12.053-38.579Z" transform="translate(-3431.004 -8113.793)" opacity="0.3"/>
          </g>
          <path id="Trazado_202824" data-name="Trazado 202824" d="M3478.408,8138.927l.964,7.462s-18.055,9.388-26.239,13-9.869,5.055-11.073,11.313-8.425,63.55-8.906,71.492,2.166,10.833,7.944,11.555,10.11-4.333,10.11-4.333l-2.166,31.293h80.879l-9.869-29.366s7.7-26.479,14.684-46.218,10.591-34.9,6.259-39.718-34.9-18.776-37.071-20.461-2.166-23.108-2.166-23.108Z" transform="translate(-3433.099 -8121.836)" fill="none" stroke="#000" stroke-miterlimit="10" stroke-width="1"/>
        </g>
        <path id="Trazado_202825" data-name="Trazado 202825" d="M3471.412,8215.432a39.335,39.335,0,0,0,27.693,14.982" transform="translate(-3428.523 -8110.655)" fill="none" stroke="#1a2e35" stroke-linecap="round" stroke-linejoin="round" stroke-width="1"/>
        <path id="Trazado_202826" data-name="Trazado 202826" d="M3447.049,8185.485s-6.74,16.127-5.055,23.589,7.7,19.98,7.7,19.98l.481,12.757" transform="translate(-3432.069 -8114.233)" fill="none" stroke="#1a2e35" stroke-linecap="round" stroke-linejoin="round" stroke-width="1"/>
      </g>
      <g id="Grupo_144941" data-name="Grupo 144941" transform="translate(348.473 87.364)">
        <g id="Grupo_144940" data-name="Grupo 144940">
          <path id="Trazado_202827" data-name="Trazado 202827" d="M3497.653,8121.836l-23.349,17.091.964,7.462s-3.344,1.738-7.8,4.006c.059,6.09,1.8,19.961,16.467,19.584,11.648-.3,19.587-11.991,23.938-20.827-4.236-2.111-7.407-3.706-8.052-4.207C3497.653,8143.26,3497.653,8121.836,3497.653,8121.836Z" transform="translate(-3467.466 -8121.836)" fill="#ffbf9d"/>
          <g id="Grupo_144939" data-name="Grupo 144939" clip-path="url(#clip-path-2)">
            <path id="Trazado_202828" data-name="Trazado 202828" d="M3489.113,8144.444c1.852,1.993,7.576,4.857,14.931,8.164.665-1.179,1.271-2.341,1.821-3.457-4.236-2.111-7.407-3.706-8.052-4.207-2.166-1.685-2.166-23.108-2.166-23.108l-11.393,8.34C3484.771,8135.227,3486.049,8141.144,3489.113,8144.444Z" transform="translate(-3465.46 -8121.836)" opacity="0.3"/>
          </g>
          <path id="Trazado_202830" data-name="Trazado 202830" d="M3497.653,8121.836l-23.349,17.091.964,7.462s-3.344,1.738-7.8,4.006c.059,6.09,1.8,19.961,16.467,19.584,11.648-.3,19.587-11.991,23.938-20.827-4.236-2.111-7.407-3.706-8.052-4.207C3497.653,8143.26,3497.653,8121.836,3497.653,8121.836Z" transform="translate(-3467.466 -8121.836)" fill="none" stroke="#000" stroke-width="1"/>
        </g>
        <path id="Trazado_202831" data-name="Trazado 202831" d="M3496.923,8121.836l-23.349,17.091.644,4.989c4.185-.44,12.562-2.454,22.991-10.87C3496.925,8127.378,3496.923,8121.836,3496.923,8121.836Z" transform="translate(-3466.736 -8121.836)" fill="#1a2e35" stroke="#1a2e35" stroke-linecap="round" stroke-linejoin="round" stroke-width="1"/>
      </g>
      <g id="Grupo_144948" data-name="Grupo 144948" transform="translate(330.419)">
        <g id="Grupo_144943" data-name="Grupo 144943" transform="translate(4.2)">
          <path id="Trazado_202832" data-name="Trazado 202832" d="M3457.247,8079.4a18.325,18.325,0,0,1-1.685-12.757c1.685-7.222,9.628-4.334,13-7.222s1.685-9.628,7.22-13.479,11.555-2.167,13.962,2.166,6.981,5.536,11.313,1.686,15.406-.241,17.331,5.055-1.685,13.479,2.649,14.924,13,1.686,13.72,10.111-4.814,8.424-1.685,12.757,6.018,6.5,4.093,11.794-8.906,6.019-8.425,10.111-.964,9.388-5.3,10.109-6.259-4.093-8.906-.963-6.5,6.5-10.832,5.055-5.056-6.98-5.778-15.646-2.888-22.866-15.887-27.682-23.35-3.129-23.35-3.129Z" transform="translate(-3455.091 -8043.794)" fill="#1a2e35"/>
          <g id="Grupo_144942" data-name="Grupo 144942" clip-path="url(#clip-path-3)">
            <path id="Trazado_202833" data-name="Trazado 202833" d="M3473.013,8075.47s-1.573-9.829,3.145-15.335,8.257,4.325,15.729,2.359,7.078-5.112,8.651-12.583,17.3-.393,17.3-.393" transform="translate(-3452.98 -8043.472)" fill="none" stroke="#616161" stroke-linecap="round" stroke-linejoin="round" stroke-width="1"/>
            <path id="Trazado_202834" data-name="Trazado 202834" d="M3489.5,8078.257s4.718-6.685,9.83-8.651,4.719,6.686,11.01,6.686-.786-9.831,7.077-12.582,16.123.785,16.123.785" transform="translate(-3450.981 -8041.541)" fill="none" stroke="#616161" stroke-linecap="round" stroke-linejoin="round" stroke-width="1"/>
            <path id="Trazado_202835" data-name="Trazado 202835" d="M3496.169,8093.112s7.47-11.4,14.156-9.831,3.931,6.292,11.009,6.292,8.651-6.292,15.728-3.932" transform="translate(-3450.184 -8039.095)" fill="none" stroke="#616161" stroke-linecap="round" stroke-linejoin="round" stroke-width="1"/>
            <path id="Trazado_202836" data-name="Trazado 202836" d="M3496.871,8098.752s2.753-1.966,9.044,4.325,6.684,6.685,14.941,5.506,11.01,6.684,11.01,6.684" transform="translate(-3450.1 -8037.264)" fill="none" stroke="#616161" stroke-linecap="round" stroke-linejoin="round" stroke-width="1"/>
          </g>
          <path id="Trazado_202838" data-name="Trazado 202838" d="M3457.247,8079.4a18.325,18.325,0,0,1-1.685-12.757c1.685-7.222,9.628-4.334,13-7.222s1.685-9.628,7.22-13.479,11.555-2.167,13.962,2.166,6.981,5.536,11.313,1.686,15.406-.241,17.331,5.055-1.685,13.479,2.649,14.924,13,1.686,13.72,10.111-4.814,8.424-1.685,12.757,6.018,6.5,4.093,11.794-8.906,6.019-8.425,10.111-.964,9.388-5.3,10.109-6.259-4.093-8.906-.963-6.5,6.5-10.832,5.055-5.056-6.98-5.778-15.646-2.888-22.866-15.887-27.682-23.35-3.129-23.35-3.129Z" transform="translate(-3455.091 -8043.794)" fill="none" stroke="#1a2e35" stroke-linecap="round" stroke-linejoin="round" stroke-width="1"/>
        </g>
        <g id="Grupo_144946" data-name="Grupo 144946" transform="translate(0 28.916)">
          <g id="Grupo_144945" data-name="Grupo 144945" transform="translate(0 0.157)">
            <path id="Trazado_202839" data-name="Trazado 202839" d="M3463.232,8070.525s-9.147,3.13-10.35,21.183-3.371,21.665,1.444,34.9,13.479,21.665,19.016,21.184,23.59-9.629,27.2-15.166a42.414,42.414,0,0,0,4.574-8.425s5.055-12.035-.24-27.682-12.589-19.85-20.991-23.631C3472.389,8067.718,3463.232,8070.525,3463.232,8070.525Z" transform="translate(-3451.339 -8069.765)" fill="#ffbf9d"/>
            <g id="Grupo_144944" data-name="Grupo 144944" clip-path="url(#clip-path-4)">
              <path id="Trazado_202840" data-name="Trazado 202840" d="M3496.747,8082.027c-.724,5.054-2.609,19.108-2.985,30.753-.467,14.475-8.871,24.746-17.276,28.481a27.33,27.33,0,0,1-11.6,2.325c2.467,1.928,4.855,2.916,6.84,2.744,5.537-.481,23.59-9.629,27.2-15.166a42.414,42.414,0,0,0,4.574-8.425s5.055-12.035-.24-27.682A45.628,45.628,0,0,0,3496.747,8082.027Z" transform="translate(-3449.721 -8068.301)" opacity="0.3"/>
            </g>
            <path id="Trazado_202842" data-name="Trazado 202842" d="M3463.232,8070.525s-9.147,3.13-10.35,21.183-3.371,21.665,1.444,34.9,13.479,21.665,19.016,21.184,23.59-9.629,27.2-15.166a42.414,42.414,0,0,0,4.574-8.425s5.055-12.035-.24-27.682-12.589-19.85-20.991-23.631C3472.389,8067.718,3463.232,8070.525,3463.232,8070.525Z" transform="translate(-3451.339 -8069.765)" fill="none" stroke="#000" stroke-width="1"/>
          </g>
          <path id="Trazado_202843" data-name="Trazado 202843" d="M3504.627,8096.54c-5.3-15.646-11.693-20.215-20.129-23.918-11.782-5.173-21.515-2.079-21.515-2.079s-7.019,2.4-9.569,15.134a30.263,30.263,0,0,1,26.9.994c16.541,8.63,26.633,25.134,26.716,25.269A45.063,45.063,0,0,0,3504.627,8096.54Z" transform="translate(-3451.091 -8069.625)" fill="#4dd0e1" stroke="#000" stroke-miterlimit="10" stroke-width="1"/>
          <path id="Trazado_202844" data-name="Trazado 202844" d="M3464.421,8100.119a8.782,8.782,0,0,1-.241,7.7c-2.166,3.851-4.573,8.184-.24,9.869s5.537-.481,5.537-.481" transform="translate(-3450.121 -8065.982)" fill="none" stroke="#1a2e35" stroke-linecap="round" stroke-linejoin="round" stroke-width="1"/>
          <path id="Trazado_202845" data-name="Trazado 202845" d="M3463.9,8122.051a15.254,15.254,0,0,0,7.944.481" transform="translate(-3449.838 -8063.362)" fill="none" stroke="#1a2e35" stroke-linecap="round" stroke-linejoin="round" stroke-width="1"/>
          <path id="Trazado_202846" data-name="Trazado 202846" d="M3476.215,8106.755c0,1.724-.717,3.12-1.6,3.12s-1.6-1.4-1.6-3.12.717-3.118,1.6-3.118S3476.215,8105.032,3476.215,8106.755Z" transform="translate(-3448.75 -8065.562)" fill="#1a2e35"/>
          <ellipse id="Elipse_6004" data-name="Elipse 6004" cx="1.602" cy="3.119" rx="1.602" ry="3.119" transform="translate(7.647 37.403)" fill="#1a2e35"/>
          <path id="Trazado_202847" data-name="Trazado 202847" d="M3470.382,8097.59s5.706-4.2,11.413,2.852" transform="translate(-3449.064 -8066.433)" fill="none" stroke="#1a2e35" stroke-linecap="round" stroke-linejoin="round" stroke-width="1"/>
          <path id="Trazado_202848" data-name="Trazado 202848" d="M3454.941,8098.067s4.364-6.042,8.894-.672" transform="translate(-3450.909 -8066.574)" fill="none" stroke="#1a2e35" stroke-linecap="round" stroke-linejoin="round" stroke-width="1"/>
        </g>
        <g id="Grupo_144947" data-name="Grupo 144947" transform="translate(51.129 64.451)">
          <path id="Trazado_202849" data-name="Trazado 202849" d="M3497.012,8110.32s2.889-10.832,7.7-8.666,3.13,9.869,0,14.685-7.22,2.647-7.22,2.647" transform="translate(-3497.012 -8101.368)" fill="#ffbf9d"/>
          <path id="Trazado_202850" data-name="Trazado 202850" d="M3497.012,8110.32s2.889-10.832,7.7-8.666,3.13,9.869,0,14.685-7.22,2.647-7.22,2.647" transform="translate(-3497.012 -8101.368)" fill="none" stroke="#000" stroke-width="1"/>
        </g>
      </g>
      <g id="Grupo_144949" data-name="Grupo 144949" transform="translate(77.404 16.37)">
        <path id="Trazado_202851" data-name="Trazado 202851" d="M3318.888,8067.85s-19.9,23.961-39.8,35.333-12.183,10.56-12.589,19.494-13.4,10.56-14.215,16.652,13,7.716,6.092,19.9-23.962,19.494-18.276,27.616,15.434,15.027,8.123,22.336-10.559,5.28-10.559,5.28" transform="translate(-3223.847 -8057.292)" fill="none" stroke="#616161" stroke-linecap="round" stroke-linejoin="round" stroke-width="1"/>
        <path id="Trazado_202852" data-name="Trazado 202852" d="M3275.829,8083.127c-5.522,10.248-5.685,16.581-11.106,23.916-6.9,9.342-24.368,14.215-24.368,19.9s5.686,16.245,3.655,22.744-19.088,8.121-18.682,18.682,19.494,26.4,10.154,33.709" transform="translate(-3225.322 -8055.466)" fill="none" stroke="#616161" stroke-linecap="round" stroke-linejoin="round" stroke-width="1"/>
        <path id="Trazado_202853" data-name="Trazado 202853" d="M3309.011,8058.418s-21.119,2.03-32.9,18.274c-1.266,1.747-2.377,3.394-3.36,4.955" transform="translate(-3219.655 -8058.418)" fill="none" stroke="#616161" stroke-linecap="round" stroke-linejoin="round" stroke-width="1"/>
        <path id="Trazado_202854" data-name="Trazado 202854" d="M3330.273,8074.43c6.962,6.547,14.657,15.58,11.831,21.47-4.874,10.152-13.4,15.839-6.9,21.118s1.624,15.026-4.468,21.931,4.874,8.935,7.311,22.743,0,17.058,0,17.058" transform="translate(-3212.947 -8056.505)" fill="none" stroke="#616161" stroke-linecap="round" stroke-linejoin="round" stroke-width="1"/>
        <path id="Trazado_202855" data-name="Trazado 202855" d="M3321.468,8067.125s1.644,1.213,4.036,3.193" transform="translate(-3213.836 -8057.378)" fill="none" stroke="#616161" stroke-linecap="round" stroke-linejoin="round" stroke-width="1"/>
      </g>
      <g id="Grupo_144951" data-name="Grupo 144951" transform="translate(185.127 133.034)">
        <path id="Trazado_202856" data-name="Trazado 202856" d="M3344.9,8171.364l1.686,48.624s20.7,6.259,20.219,12.518-5.778,8.665-8.906,9.387-13,2.648-20.7,1.686-11.072-3.128-11.313-11.072-.24-15.646-.24-15.646-4.092-35.626-4.092-43.81S3340.084,8155.236,3344.9,8171.364Z" transform="translate(-3321.55 -8162.632)" fill="#ffbf9d" stroke="#000" stroke-width="1"/>
        <g id="Grupo_144950" data-name="Grupo 144950">
          <path id="Trazado_202857" data-name="Trazado 202857" d="M3356.674,8223.81a92.53,92.53,0,0,0-10.09-3.821l-1.686-48.624c-4.814-16.128-23.348-6.5-23.348,1.686s4.092,43.81,4.092,43.81,0,7.7.24,15.646,3.611,10.109,11.313,11.072a53.839,53.839,0,0,0,12.947-.322c-2.425-1.812-4.22-4.974-3.8-10.027C3346.858,8227.043,3353.121,8224.668,3356.674,8223.81Z" transform="translate(-3321.55 -8162.632)" fill="#374368"/>
        </g>
        <path id="Trazado_202858" data-name="Trazado 202858" d="M3345.4,8213.9s-10.111-2.647-13.962,8.666" transform="translate(-3320.369 -8156.541)" fill="none" stroke="#1a2e35" stroke-linecap="round" stroke-linejoin="round" stroke-width="1"/>
      </g>
      <g id="Grupo_144953" data-name="Grupo 144953" transform="translate(86.048 78.815)">
        <path id="Trazado_202859" data-name="Trazado 202859" d="M3256.538,8233.235c-2.194,4.786-18.1,37.173-23.495,48.135h110.889c-3.936-10.077-14.544-38.072-12.773-42.6,2.166-5.537,14.187-14.721,14.668-24.35s1.94-51.717-.708-57.976-22.832-8.5-26.925-13.8-.756-20.623-.756-20.623-19.5-12.035-23.831-6.257c0,0,.722,11.794-1.925,18.293s-12.035,10.351-21.665,13.721-23.348,6.5-23.589,13.48S3259.186,8227.459,3256.538,8233.235Z" transform="translate(-3233.043 -8114.199)" fill="#0f2771"/>
        <g id="Grupo_144952" data-name="Grupo 144952" clip-path="url(#clip-path-5)">
          <path id="Trazado_202860" data-name="Trazado 202860" d="M3302.023,8203.189a24.509,24.509,0,0,1-2.821-.321c-3.351-.6-20.271-5.66-20.983.739-.742,6.688,16.719,16.72,32.695,10.4,8.065-3.189,7.253-8.021-.72-10.058C3307.465,8203.256,3304.758,8203.364,3302.023,8203.189Z" transform="translate(-3227.649 -8103.902)" fill="#1d3f93"/>
        </g>
        <path id="Trazado_202862" data-name="Trazado 202862" d="M3256.538,8233.235c-2.194,4.786-18.1,37.173-23.495,48.135h110.889c-3.936-10.077-14.544-38.072-12.773-42.6,2.166-5.537,14.187-14.721,14.668-24.35s1.94-51.717-.708-57.976-22.832-8.5-26.925-13.8-.756-20.623-.756-20.623-19.5-12.035-23.831-6.257c0,0,.722,11.794-1.925,18.293s-12.035,10.351-21.665,13.721-23.348,6.5-23.589,13.48S3259.186,8227.459,3256.538,8233.235Z" transform="translate(-3233.043 -8114.199)" fill="none" stroke="#000" stroke-width="1"/>
      </g>
      <line id="Línea_355" data-name="Línea 355" x2="470.94" transform="translate(0 246.235)" fill="none" stroke="#1a2e35" stroke-linecap="round" stroke-linejoin="round" stroke-width="1"/>
      <path id="Trazado_202863" data-name="Trazado 202863" d="M3328.4,8100.375s4.573-1.927,4.091,2.888-5.777,11.795-5.777,11.795Z" transform="translate(-3135.807 -8037.082)" fill="#ffbf9d" stroke="#000" stroke-width="1"/>
      <ellipse id="Elipse_6005" data-name="Elipse 6005" cx="4.861" cy="4.935" rx="4.861" ry="4.935" transform="translate(131.401 92.419)" fill="#fff" stroke="#1a2e35" stroke-linecap="round" stroke-linejoin="round" stroke-width="1"/>
      <g id="Grupo_144956" data-name="Grupo 144956" transform="translate(115.733 78.815)">
        <g id="Grupo_144955" data-name="Grupo 144955">
          <path id="Trazado_202864" data-name="Trazado 202864" d="M3341.952,8156.447c-2.647-6.257-22.832-8.5-26.925-13.8s-.756-20.623-.756-20.623-19.5-12.035-23.831-6.257c0,0,.722,11.794-1.925,18.293s-12.036,10.351-21.665,13.721c-2.278.8-4.786,1.583-7.289,2.407,3.959,7.8,18.536,31.791,47.007,29.367,20.5-1.744,30.8-13.056,35.757-21.744A7.415,7.415,0,0,0,3341.952,8156.447Z" transform="translate(-3259.561 -8114.199)" fill="#ffbf9d"/>
          <g id="Grupo_144954" data-name="Grupo 144954" clip-path="url(#clip-path-6)">
            <path id="Trazado_202865" data-name="Trazado 202865" d="M3336.978,8154.821c-2.647-6.257-22.832-8.5-26.925-13.8-2.185-2.829-2.251-8.519-1.839-13.206l-3.4,2.429s-3.608,11.377-3.608,18.593.833,8.046,7.492,10.821c6.431,2.68,18.542-2.382,26.614-.234.762-1.1,1.442-2.19,2.039-3.238A7.4,7.4,0,0,0,3336.978,8154.821Z" transform="translate(-3254.586 -8112.573)" fill="#ffbf9d" opacity="0.3"/>
          </g>
        </g>
        <path id="Trazado_202867" data-name="Trazado 202867" d="M3310.644,8140.507c-2.268-6.418.354-18.481.354-18.481s-19.5-12.035-23.831-6.257a73.683,73.683,0,0,1-.21,10.269c.862,1.909,1.766,3.8,2.7,5.6,4.829,9.289,11.955,14.1,19.381,14.271Z" transform="translate(-3256.288 -8114.199)" fill="#1a2e35" stroke="#1a2e35" stroke-linecap="round" stroke-linejoin="round" stroke-width="1"/>
        <path id="Trazado_202868" data-name="Trazado 202868" d="M3308.045,8139.253a70.84,70.84,0,0,0-2.407,13.479" transform="translate(-3254.057 -8111.206)" fill="none" stroke="#1a2e35" stroke-linecap="round" stroke-linejoin="round" stroke-width="1"/>
      </g>
      <g id="Grupo_144961" data-name="Grupo 144961" transform="translate(90.833 121.545)">
        <g id="Grupo_144958" data-name="Grupo 144958">
          <path id="Trazado_202869" data-name="Trazado 202869" d="M3242.065,8152.37s-7.222,4.814-3.851,27.923,19.979,76.306,26.719,80.4,78.472,22.146,82.083,25.035,9.63,8.425,12.759,9.146,15.646,2.889,16.85,3.129,1.444-.722-.481-2.647l-1.926-1.926s7.944,1.2,10.11-.24a25.455,25.455,0,0,0,7.221-9.146c1.2-3.13.24-6.019-1.2-5.537s-2.166.963-10.592-.241-13.72-4.092-19.257-3.609-6.74.722-10.11.481-11.313-1.2-33.941-14.685-34.662-22.387-34.662-22.387-8.906-47.66-12.759-58.252-5.054-15.165-5.054-15.165" transform="translate(-3237.318 -8152.37)" fill="#374368"/>
          <g id="Grupo_144957" data-name="Grupo 144957" clip-path="url(#clip-path-7)">
            <path id="Trazado_202870" data-name="Trazado 202870" d="M3315.17,8259.353c-22.627-13.48-34.662-22.387-34.662-22.387s-8.906-47.661-12.759-58.252-5.054-15.165-5.054-15.165l-3.543-1.985L3248,8175.746s1.317,11.579,10.189,18.583,15.875,36.888,16.81,38.755-6.285,5.407-1.4,7,34.545,20.539,49.489,23.811C3320.67,8262.568,3318.039,8261.063,3315.17,8259.353Z" transform="translate(-3236.042 -8151.272)" opacity="0.3"/>
          </g>
        </g>
        <g id="Grupo_144960" data-name="Grupo 144960" transform="translate(64.077 103.82)">
          <g id="Grupo_144959" data-name="Grupo 144959">
            <path id="Trazado_202872" data-name="Trazado 202872" d="M3383.507,8267.426c-1.444.48-2.166.963-10.592-.241s-13.72-4.092-19.257-3.609-6.74.722-10.11.481-11.313-1.2-33.941-14.685c-2.486-1.481-4.82-2.9-7.049-4.26-2.531,2.969-5.66,7.93-8,15.855,21.05,5.915,43.636,12.091,45.621,13.68,3.612,2.888,9.63,8.425,12.759,9.146s15.646,2.889,16.85,3.129,1.444-.722-.481-2.647l-1.926-1.926s7.944,1.2,10.11-.24a25.455,25.455,0,0,0,7.221-9.146C3385.915,8269.833,3384.952,8266.944,3383.507,8267.426Z" transform="translate(-3294.558 -8245.112)" fill="#ffbf9d" stroke="#000" stroke-width="1"/>
            <path id="Trazado_202873" data-name="Trazado 202873" d="M3372.409,8270.366l-4.3,4.689s-5.081.586-12.7-1.955" transform="translate(-3287.289 -8242.096)" fill="none" stroke="#1a2e35" stroke-linecap="round" stroke-linejoin="round" stroke-width="1"/>
            <path id="Trazado_202874" data-name="Trazado 202874" d="M3345.31,8272a3.421,3.421,0,0,1,3.711.874,22.974,22.974,0,0,0,7.422,4.366,51.164,51.164,0,0,1,4.875,1.926" transform="translate(-3288.496 -8241.926)" fill="none" stroke="#1a2e35" stroke-linecap="round" stroke-linejoin="round" stroke-width="1"/>
          </g>
          <path id="Trazado_202875" data-name="Trazado 202875" d="M3322.428,8268.572c-2.257,3.809-5.839,5.828-8.651,4.793a5.758,5.758,0,0,1-3.346-4.215,12.919,12.919,0,0,1,.56-7.645c1.939-5.258,6.343-8.494,9.817-7.213a5.316,5.316,0,0,1,2.915,3.049c.8.381,1.688.773,2.6,1.166a1.324,1.324,0,0,0,.273-1.266,8.24,8.24,0,0,0-4.854-5.48c-4.868-1.791-10.826,2.158-13.278,8.813a15.633,15.633,0,0,0-.638,9.266,8.364,8.364,0,0,0,5.022,6.055,7.217,7.217,0,0,0,2.511.445c3.557,0,7.266-2.521,9.635-6.785a1.345,1.345,0,0,0,.058-.184Z" transform="translate(-3293.025 -8244.368)" fill="#4dd0e1" stroke="#000" stroke-miterlimit="10" stroke-width="1"/>
          <path id="Trazado_202876" data-name="Trazado 202876" d="M3329.027,8270.452a1.34,1.34,0,0,0-.765.62c-2.239,4.031-5.962,6.187-8.857,5.12-3.475-1.281-4.726-6.6-2.786-11.86s6.344-8.494,9.816-7.215a5.091,5.091,0,0,1,2.681,2.5c1.171.473,2.247.894,3.1,1.22a1.3,1.3,0,0,0,.009-.764,8.227,8.227,0,0,0-4.854-5.481c-4.866-1.788-10.826,2.158-13.278,8.813s-.486,13.524,4.384,15.321a7.215,7.215,0,0,0,2.51.445c3.559,0,7.268-2.522,9.636-6.787a1.343,1.343,0,0,0-.112-1.476Z" transform="translate(-3292.351 -8244.032)" fill="#1a2e35" stroke="#1a2e35" stroke-linecap="round" stroke-linejoin="round" stroke-width="1"/>
        </g>
      </g>
      <g id="Grupo_144962" data-name="Grupo 144962" transform="translate(211.104 203.147)">
        <path id="Trazado_202877" data-name="Trazado 202877" d="M3446.649,8225.265a58.739,58.739,0,0,0-9.389,7.944c-4.573,4.813-27.682,16.609-35.866,19.016a52.919,52.919,0,0,1-13.479,2.407s-12.759-.723-16.128-.723-5.777,1.686-9.388,2.408-8.906,0-11.073.963-.241,3.369,2.649,4.091,9.628.723,9.628.723a38.75,38.75,0,0,1-7.462,4.574c-3.129,1.2-10.832,2.407-6.5,5.054s11.314,6.019,17.332,5.537,18.775-8.906,20.943-9.628,21.182-1.926,35.625-4.574,33.218-8.425,35.866-11.313l1.444-1.2s.722-14.685.481-16.851" transform="translate(-3344.326 -8225.265)" fill="#4dd0e1" stroke="#000" stroke-miterlimit="10" stroke-width="1"/>
        <path id="Trazado_202878" data-name="Trazado 202878" d="M3423.54,8261.377c2.844-.522,5.857-1.165,8.882-1.885,0-.176.024-.343.024-.522,0-10.88-3.673-16.659-6.919-19.646-8.52,4.755-19.121,9.747-24.133,11.221a52.919,52.919,0,0,1-13.479,2.407s-12.759-.723-16.128-.723-5.777,1.686-9.388,2.408-8.906,0-11.072.963-.242,3.369,2.647,4.091,9.628.723,9.628.723a38.75,38.75,0,0,1-7.462,4.574c-3.129,1.2-10.832,2.407-6.5,5.054s11.314,6.019,17.332,5.537,18.776-8.906,20.943-9.628S3409.1,8264.025,3423.54,8261.377Z" transform="translate(-3344.326 -8223.585)" fill="#ffbf9d" stroke="#000" stroke-width="1"/>
        <path id="Trazado_202879" data-name="Trazado 202879" d="M3355.366,8263.109s-4.093,1.926-5.537.481-4.814-4.093-5.055-1.2,1.685,4.332,5.536,6.017,3.852,2.408,6.259,1.927" transform="translate(-3344.755 -8220.983)" fill="#ffbf9d" stroke="#000" stroke-width="1"/>
        <path id="Trazado_202880" data-name="Trazado 202880" d="M3358.057,8271.931s-6.017-2.166-8.666-6.74.722-3.851,3.13-1.685,8.185,7.7,8.185,7.7S3360.224,8273.375,3358.057,8271.931Z" transform="translate(-3344.317 -8220.899)" fill="#ffbf9d" stroke="#000" stroke-width="1"/>
        <path id="Trazado_202881" data-name="Trazado 202881" d="M3364.828,8273.357s-5.295.722-8.425-2.889-2.647-7.944-.24-6.018,4.093,5.295,6.74,6.018S3366.272,8272.875,3364.828,8273.357Z" transform="translate(-3343.626 -8220.641)" fill="#ffbf9d" stroke="#000" stroke-width="1"/>
        <path id="Trazado_202882" data-name="Trazado 202882" d="M3377.1,8261.493c-2.847.873-10.428,8.018-10.428,8.018s-4.363-5.075-6.514-4.721,3.1,8.515,3.1,8.515.746,1.993,5.2-.41,12.25-7.01,12.25-7.01" transform="translate(-3342.977 -8220.936)" fill="#ffbf9d" stroke="#000" stroke-width="1"/>
      </g>
      <g id="Grupo_144965" data-name="Grupo 144965" transform="translate(128.318 33.926)">
        <path id="Trazado_202883" data-name="Trazado 202883" d="M3334,8119.149a7.945,7.945,0,1,1-7.944-8.064A8,8,0,0,1,3334,8119.149Z" transform="translate(-3265.152 -8069.682)" fill="#fff" stroke="#1a2e35" stroke-linecap="round" stroke-linejoin="round" stroke-width="1"/>
        <ellipse id="Elipse_6006" data-name="Elipse 6006" cx="4.861" cy="4.935" rx="4.861" ry="4.935" transform="translate(56.04 56.808)" fill="#fff" stroke="#1a2e35" stroke-linecap="round" stroke-linejoin="round" stroke-width="1"/>
        <g id="Grupo_144964" data-name="Grupo 144964" transform="translate(11.313)">
          <path id="Trazado_202884" data-name="Trazado 202884" d="M3320.386,8074.1s-16.85,17.331-26.719,22.868-12.758,7.943-12.758,7.943,4.815,15.888,11.074,27.923,16.369,16.609,26,13.24,15.4-28.646,15.887-35.627,1.685-17.089,1.685-17.089S3323.515,8085.9,3320.386,8074.1Z" transform="translate(-3280.909 -8074.1)" fill="#ffbf9d"/>
          <g id="Grupo_144963" data-name="Grupo 144963" clip-path="url(#clip-path-8)">
            <path id="Trazado_202885" data-name="Trazado 202885" d="M3320.219,8097.018a10.613,10.613,0,0,0-3.885,8.046c-.277,5.551,2.775,16.649.833,18.314s-5.55-1.942-5.55-1.942,2.775-2.5,2.775-8.047S3313.282,8097.849,3320.219,8097.018Z" transform="translate(-3277.241 -8071.362)" opacity="0.3"/>
            <path id="Trazado_202886" data-name="Trazado 202886" d="M3325.519,8092.263c6.1,4.718,4.162,18.037,1.942,29.414s-7.493,21.089-14.152,23.031c-4.972,1.451-10.872.271-13.542-.42a18.2,18.2,0,0,0,15.96,1.786c9.628-3.371,15.4-28.646,15.887-35.627s1.685-17.091,1.685-17.091-12.036-7.461-15.165-19.257C3318.134,8074.1,3319.415,8087.545,3325.519,8092.263Z" transform="translate(-3278.656 -8074.1)" opacity="0.3"/>
          </g>
        </g>
        <path id="Trazado_202888" data-name="Trazado 202888" d="M3316.243,8099.258s-1.685,1.686-1.685,9.629.963,14.442-3.371,12.517-3.61-4.333-3.61-4.333" transform="translate(-3266.415 -8071.094)" fill="none" stroke="#1a2e35" stroke-linecap="round" stroke-linejoin="round" stroke-width="1"/>
        <path id="Trazado_202889" data-name="Trazado 202889" d="M3316.658,8097.84s5.133-3.347,10.1-.087" transform="translate(-3265.326 -8071.445)" fill="none" stroke="#1a2e35" stroke-linecap="round" stroke-linejoin="round" stroke-width="2"/>
        <path id="Trazado_202890" data-name="Trazado 202890" d="M3308.774,8096.924s-10.2-3.4-14.167,2.963" transform="translate(-3267.959 -8071.482)" fill="none" stroke="#1a2e35" stroke-linecap="round" stroke-linejoin="round" stroke-width="2"/>
        <path id="Trazado_202891" data-name="Trazado 202891" d="M3322.262,8106.354c0,1.661-.593,3.009-1.324,3.009s-1.324-1.348-1.324-3.009.594-3.01,1.324-3.01S3322.262,8104.69,3322.262,8106.354Z" transform="translate(-3264.972 -8070.606)" fill="#1a2e35"/>
        <path id="Trazado_202892" data-name="Trazado 202892" d="M3303.984,8107.212c0,1.661-.592,3.01-1.323,3.01s-1.324-1.349-1.324-3.01.593-3.009,1.324-3.009S3303.984,8105.551,3303.984,8107.212Z" transform="translate(-3267.156 -8070.503)" fill="#1a2e35"/>
        <path id="Trazado_202893" data-name="Trazado 202893" d="M3299.832,8089.735a51.913,51.913,0,0,0,28.645-1.443" transform="translate(-3267.335 -8072.405)" fill="none" stroke="#1a2e35" stroke-linecap="round" stroke-linejoin="round" stroke-width="1"/>
        <circle id="Elipse_6007" data-name="Elipse 6007" cx="3.37" cy="3.37" r="3.37" transform="translate(43.81 15.165)" fill="#fff" stroke="#1a2e35" stroke-linecap="round" stroke-linejoin="round" stroke-width="1"/>
        <path id="Trazado_202894" data-name="Trazado 202894" d="M3281.757,8101.666s-7.7-2.166-7.944,3.61,4.333,11.555,7.7,12.277a3.978,3.978,0,0,0,4.574-2.408Z" transform="translate(-3270.444 -8070.854)" fill="#ffbf9d" stroke="#000" stroke-width="1"/>
        <path id="Trazado_202895" data-name="Trazado 202895" d="M3286.69,8120.654a7.945,7.945,0,1,1-7.944-8.064A8,8,0,0,1,3286.69,8120.654Z" transform="translate(-3270.803 -8069.502)" fill="#fff" stroke="#1a2e35" stroke-linecap="round" stroke-linejoin="round" stroke-width="1"/>
        <path id="Trazado_202896" data-name="Trazado 202896" d="M3303.39,8122.455s3.37,5.392,11.458,3.033" transform="translate(-3266.91 -8068.324)" fill="none" stroke="#1a2e35" stroke-linecap="round" stroke-linejoin="round" stroke-width="1"/>
      </g>
      <g id="Grupo_144968" data-name="Grupo 144968" transform="translate(283.051 128.285)">
        <g id="Grupo_144967" data-name="Grupo 144967">
          <path id="Trazado_202897" data-name="Trazado 202897" d="M3530.631,8175.722s-5.778,5.3-5.536,18.776,3.851,60.179,3.851,60.179l-65.474,26.237s-14.442-2.406-20.942-4.093-13.48-2.887-16.609-.48-17.812,14.2-16.85,15.888a2.08,2.08,0,0,0,2.407,1.2s.241,2.166,1.444,2.647a4.709,4.709,0,0,0,2.408.24s.241,1.686,1.444,1.926a15.817,15.817,0,0,0,2.647.242s1.685,1.685,3.371.722,9.629-6.74,9.629-6.74,11.794,4.092,19.5,2.166a80.941,80.941,0,0,0,12.035-3.851s58.975-8.426,70.289-12.519,16.127-7.462,17.331-10.108,4.332-58.494,4.332-80.639-3.851-22.628-10.11-25.275-8.666-3.852-8.666-3.852" transform="translate(-3409.025 -8158.391)" fill="#4dd0e1"/>
          <g id="Grupo_144966" data-name="Grupo 144966" clip-path="url(#clip-path-9)">
            <path id="Trazado_202898" data-name="Trazado 202898" d="M3536.446,8161.907c-.588-.249-1.129-.48-1.65-.7a60.23,60.23,0,0,1,6.717,24.764c.467,14.007-2.8,70.039-7.471,77.51-3.1,4.952-29.373,15.442-46.74,21.954,15.644-2.556,32.143-5.53,37.591-7.5,11.313-4.091,16.127-7.462,17.331-10.108s4.332-58.494,4.332-80.639S3542.7,8164.554,3536.446,8161.907Z" transform="translate(-3399.675 -8158.055)" opacity="0.3"/>
          </g>
          <path id="Trazado_202900" data-name="Trazado 202900" d="M3530.631,8175.722s-5.778,5.3-5.536,18.776,3.851,60.179,3.851,60.179l-65.474,26.237s-14.442-2.406-20.942-4.093-13.48-2.887-16.609-.48-17.812,14.2-16.85,15.888a2.08,2.08,0,0,0,2.407,1.2s.241,2.166,1.444,2.647a4.709,4.709,0,0,0,2.408.24s.241,1.686,1.444,1.926a15.817,15.817,0,0,0,2.647.242s1.685,1.685,3.371.722,9.629-6.74,9.629-6.74,11.794,4.092,19.5,2.166a80.941,80.941,0,0,0,12.035-3.851s58.975-8.426,70.289-12.519,16.127-7.462,17.331-10.108,4.332-58.494,4.332-80.639-3.851-22.628-10.11-25.275-8.666-3.852-8.666-3.852" transform="translate(-3409.025 -8158.391)" fill="none" stroke="#000" stroke-miterlimit="10" stroke-width="1"/>
        </g>
        <path id="Trazado_202901" data-name="Trazado 202901" d="M3498.884,8255.164l-35.413,14.19s-14.442-2.406-20.942-4.093-13.48-2.887-16.609-.48-17.812,14.2-16.85,15.888a2.08,2.08,0,0,0,2.407,1.2s.241,2.166,1.445,2.647a4.706,4.706,0,0,0,2.407.24s.241,1.686,1.444,1.926a15.879,15.879,0,0,0,2.647.241s1.685,1.686,3.371.723,9.629-6.74,9.629-6.74,11.794,4.092,19.5,2.166a80.941,80.941,0,0,0,12.035-3.851s24.99-3.571,45.556-7.191A36.9,36.9,0,0,0,3498.884,8255.164Z" transform="translate(-3409.025 -8146.832)" fill="#ffbf9d" stroke="#000" stroke-width="1"/>
        <path id="Trazado_202902" data-name="Trazado 202902" d="M3418.312,8284.745s7.462-9.148,12.036-11.315" transform="translate(-3407.916 -8144.648)" fill="none" stroke="#1a2e35" stroke-linecap="round" stroke-linejoin="round" stroke-width="1"/>
        <path id="Trazado_202903" data-name="Trazado 202903" d="M3414.657,8283.014s9.388-11.072,14.442-13.238" transform="translate(-3408.353 -8145.085)" fill="none" stroke="#1a2e35" stroke-linecap="round" stroke-linejoin="round" stroke-width="1"/>
        <path id="Trazado_202904" data-name="Trazado 202904" d="M3411.216,8280.383s8.425-10.351,15.647-12.759" transform="translate(-3408.763 -8145.342)" fill="none" stroke="#1a2e35" stroke-linecap="round" stroke-linejoin="round" stroke-width="1"/>
      </g>
      <g id="Grupo_144969" data-name="Grupo 144969" transform="translate(213.775 197.129)">
        <path id="Trazado_202905" data-name="Trazado 202905" d="M3354.118,8228.554s-3.371,14.685-5.537,19.257-1.925,6.5.963,4.574,6.74-7.943,7.7-8.666,7.944,6.741,8.666,7.944,3.13,10.591,5.537,13.238,3.37,1.687,3.37,0v-1.685l3.371-5.295a73.389,73.389,0,0,0,4.092-8.666s6.5,2.648,7.7,1.2,0-.241-3.851-4.094-10.352-9.146-13.24-13.96-5.3-7.462-8.906-9.389a49.391,49.391,0,0,0-7.462-3.13" transform="translate(-3347.141 -8219.888)" fill="#ffbf9d" stroke="#000" stroke-width="1"/>
        <path id="Trazado_202906" data-name="Trazado 202906" d="M3363.05,8237.952s5.055,7.221,6.259,11.072,3.61,12.035,3.61,12.035" transform="translate(-3345.24 -8217.731)" fill="none" stroke="#1a2e35" stroke-linecap="round" stroke-linejoin="round" stroke-width="1"/>
        <path id="Trazado_202907" data-name="Trazado 202907" d="M3368.211,8237.306s6.258,7.222,6.739,12.519a30.234,30.234,0,0,1,0,7.7" transform="translate(-3344.624 -8217.809)" fill="none" stroke="#1a2e35" stroke-linecap="round" stroke-linejoin="round" stroke-width="1"/>
        <path id="Trazado_202908" data-name="Trazado 202908" d="M3379.225,8247.253s.963-1.445-1.685-4.814-4.815-5.777-4.815-5.777" transform="translate(-3344.084 -8217.885)" fill="none" stroke="#1a2e35" stroke-linecap="round" stroke-linejoin="round" stroke-width="1"/>
      </g>
      <g id="Grupo_144972" data-name="Grupo 144972" transform="translate(82.49 111.768)">
        <path id="Trazado_202909" data-name="Trazado 202909" d="M3366.442,8164.005s-22.868-15.887-24.072-15.646-1.2,1.685-2.889,5.295-16.849,19.979-42.847,16.368-29.366-26.237-29.366-26.237c-9.869-1.2-31.534,5.3-31.534,5.3s-6.687.871-5.785,2.676.9,6.916,4.215,8.12c4.923,1.789,8.069,1.8,6.161,8.112-.644,2.13-1.343,4.547-.228,6.473.919,1.589,2.823,2.328,4.636,2.614a35.367,35.367,0,0,1,5.436.812c3.592,1.163,4.122,5.41,5.714,8.37,1.942,3.61,4.486,7.1,8.044,9.264a15.517,15.517,0,0,0,8.988,2.336c3.638-.251,7.244-2.485,10.817-.533,3.743,2.044,5.838,6.636,10.255,7.6,7.7,1.686,11.8-4.091,16.609-5.535s5.056,3.369,12.518,3.369,6.739-6.018,10.35-8.665,4.092.962,9.147.481,4.814-4.091,7.221-8.184,4.814-2.647,8.666-3.61,2.888-4.814,3.129-8.425,1.2-3.129,3.129-5.3A7.4,7.4,0,0,0,3366.442,8164.005Z" transform="translate(-3229.865 -8143.636)" fill="#374368"/>
        <g id="Grupo_144971" data-name="Grupo 144971" clip-path="url(#clip-path-10)">
          <g id="Grupo_144970" data-name="Grupo 144970" transform="translate(101.137 4.72)" opacity="0.3">
            <path id="Trazado_202910" data-name="Trazado 202910" d="M3350.143,8173.853c.24-3.611,1.2-3.129,3.129-5.3a7.4,7.4,0,0,0,1.686-5.055s-22.868-15.887-24.072-15.646-1.2,1.685-2.889,5.295a13.35,13.35,0,0,1-1.984,2.747l0,.116,24.134,17.839Z" transform="translate(-3319.517 -8147.853)"/>
            <path id="Trazado_202911" data-name="Trazado 202911" d="M3322.673,8189.324a5.365,5.365,0,0,1,1.539-.826c-1.26-3.08-3.32-6.59-3.826-4.056a28.9,28.9,0,0,0,.175,7.39A8.037,8.037,0,0,1,3322.673,8189.324Z" transform="translate(-3320.21 -8143.585)"/>
            <path id="Trazado_202912" data-name="Trazado 202912" d="M3331.652,8175.85c.223,2.9,2.841,6.589,4.509,9.967a26.238,26.238,0,0,1,1.515-3.128c2.063-3.508,4.129-2.95,7.1-3.325C3339.39,8176.757,3331.4,8172.53,3331.652,8175.85Z" transform="translate(-3318.844 -8144.654)"/>
          </g>
        </g>
      </g>
    </g>
    <g id="Grupo_144975" data-name="Grupo 144975" transform="translate(865.021 912.874)">
      <g id="Grupo_144974" data-name="Grupo 144974" transform="translate(17.301 27.161)">
        <path id="Rectángulo_44368" data-name="Rectángulo 44368" d="M1.638,0H14a1.638,1.638,0,0,1,1.638,1.638V37.445a0,0,0,0,1,0,0H0a0,0,0,0,1,0,0V1.638A1.638,1.638,0,0,1,1.638,0Z" transform="translate(0 0.512)" fill="#fff" stroke="#1a2e35" stroke-linecap="round" stroke-linejoin="round" stroke-width="1"/>
        <path id="Trazado_202914" data-name="Trazado 202914" d="M3179.492,8203.612s4.366-1.638,5.639,1.092.183,5.457,0,9.822.364,15.462-.181,17.646-3.093,2-3.093-1.093.364-12.551,0-16.189-1.455-1.818-2.547-.363-2.364-.909-1.818-3.639-.364-3.818-.364-3.818" transform="translate(-3169.431 -8203.125)" fill="#fff" stroke="#1a2e35" stroke-linecap="round" stroke-linejoin="round" stroke-width="1"/>
      </g>
      <path id="Trazado_202915" data-name="Trazado 202915" d="M3189.736,8276.214l-.139-.026a9.271,9.271,0,0,1-7.545-9.109v-19.461h-4.266v20.49a7.017,7.017,0,0,1-2.119,5.2c-2.625,2.407-6.579,2.929-10.161,3-.506.011-5.132.091-8.135.152a2.629,2.629,0,0,0-2.573,2.635v.014a2.634,2.634,0,0,0,2.634,2.634h44.975a2.633,2.633,0,0,0,2.634-2.634h0a2.634,2.634,0,0,0-2.579-2.633Z" transform="translate(-3154.797 -8170.649)" fill="#1a2e35" stroke="#1a2e35" stroke-linecap="round" stroke-linejoin="round" stroke-width="1"/>
      <path id="Rectángulo_44369" data-name="Rectángulo 44369" d="M0,0H15.168a0,0,0,0,1,0,0V16.382a4,4,0,0,1-4,4H4a4,4,0,0,1-4-4V0A0,0,0,0,1,0,0Z" transform="translate(17.538 63.849)" fill="#1a2e35" stroke="#1a2e35" stroke-linecap="round" stroke-linejoin="round" stroke-width="1"/>
      <rect id="Rectángulo_44370" data-name="Rectángulo 44370" width="30.81" height="3.318" transform="translate(9.717 63.222)" fill="#1a2e35" stroke="#1a2e35" stroke-linecap="round" stroke-linejoin="round" stroke-width="1"/>
      <path id="Trazado_202916" data-name="Trazado 202916" d="M3179.272,8204.329s-6.913-5.639-6.366-11.1,5.82-14.371,5.82-14.371,4.912,9.642,4.366,15.1A26.11,26.11,0,0,1,3179.272,8204.329Z" transform="translate(-3152.638 -8178.861)" fill="#fff" stroke="#1a2e35" stroke-linecap="round" stroke-linejoin="round" stroke-width="1"/>
    </g>
    <g id="Grupo_144977" data-name="Grupo 144977" transform="translate(916.914 948.901)">
      <path id="Trazado_202917" data-name="Trazado 202917" d="M3255.039,8280.819h-50.345a1.313,1.313,0,0,1-1.257-1.687l7.728-25.945h37.4l7.726,25.945A1.312,1.312,0,0,1,3255.039,8280.819Z" transform="translate(-3200.886 -8206.01)" fill="#1a2e35" stroke="#1a2e35" stroke-linecap="round" stroke-linejoin="round" stroke-width="1"/>
      <g id="Grupo_144976" data-name="Grupo 144976">
        <circle id="Elipse_6008" data-name="Elipse 6008" cx="28.98" cy="28.98" r="28.98" fill="#fff" stroke="#1a2e35" stroke-linecap="round" stroke-linejoin="round" stroke-width="1"/>
        <circle id="Elipse_6009" data-name="Elipse 6009" cx="24.139" cy="24.139" r="24.139" transform="translate(4.841 4.841)" fill="#feca2e"/>
        <circle id="Elipse_6010" data-name="Elipse 6010" cx="5.99" cy="5.99" r="5.99" transform="translate(22.989 22.99)" fill="#fff" opacity="0.5"/>
      </g>
    </g>
    <g id="Grupo_144983" data-name="Grupo 144983" transform="translate(971.861 1015.265)">
      <g id="Grupo_144978" data-name="Grupo 144978" transform="translate(11.976)">
        <rect id="Rectángulo_44371" data-name="Rectángulo 44371" width="26.12" height="16.548" fill="#1a2e35" stroke="#1a2e35" stroke-linecap="round" stroke-linejoin="round" stroke-width="1"/>
        <rect id="Rectángulo_44372" data-name="Rectángulo 44372" width="22.695" height="14.378" transform="translate(1.713 1.086)" fill="#feca2e"/>
      </g>
      <g id="Grupo_144979" data-name="Grupo 144979" transform="translate(11.085 0.785)">
        <path id="Trazado_202918" data-name="Trazado 202918" d="M3284,8290l-23.864-3.86,18.509-15.118,23.864,3.86Z" transform="translate(-3260.139 -8271.026)" fill="#1a2e35" stroke="#1a2e35" stroke-linecap="round" stroke-linejoin="round" stroke-width="1"/>
        <path id="Trazado_202919" data-name="Trazado 202919" d="M3283.355,8288.628l-20.734-3.354,16.082-13.137,20.734,3.354Z" transform="translate(-3259.842 -8270.894)" fill="#feca2e"/>
      </g>
      <g id="Grupo_144980" data-name="Grupo 144980" transform="translate(11.049 4.788)">
        <path id="Trazado_202920" data-name="Trazado 202920" d="M3276.346,8292.328l-16.239-7.437,35.658-10.287L3312,8282.04Z" transform="translate(-3260.107 -8274.604)" fill="#1a2e35" stroke="#1a2e35" stroke-linecap="round" stroke-linejoin="round" stroke-width="1"/>
        <path id="Trazado_202921" data-name="Trazado 202921" d="M3277.256,8291.042l-14.109-6.463,30.982-8.937,14.109,6.462Z" transform="translate(-3259.744 -8274.479)" fill="#feca2e"/>
      </g>
      <g id="Grupo_144981" data-name="Grupo 144981" transform="translate(10.977 14.026)">
        <path id="Trazado_202922" data-name="Trazado 202922" d="M3260.043,8292.32l2.047-9.465,45.385,1.3-2.047,9.465Z" transform="translate(-3260.043 -8282.855)" fill="#1a2e35" stroke="#1a2e35" stroke-linecap="round" stroke-linejoin="round" stroke-width="1"/>
        <path id="Trazado_202923" data-name="Trazado 202923" d="M3262.821,8291.709l1.778-8.225,39.432,1.127-1.779,8.225Z" transform="translate(-3259.711 -8282.779)" fill="#feca2e"/>
      </g>
      <g id="Grupo_144982" data-name="Grupo 144982" transform="translate(0 13.727)">
        <path id="Trazado_202924" data-name="Trazado 202924" d="M3250.237,8290.225l15.524-7.636,36.612,9.834-15.524,7.637Z" transform="translate(-3250.237 -8282.589)" fill="#1a2e35" stroke="#1a2e35" stroke-linecap="round" stroke-linejoin="round" stroke-width="1"/>
        <path id="Trazado_202925" data-name="Trazado 202925" d="M3253.291,8290.246l13.489-6.634,31.81,8.544-13.489,6.635Z" transform="translate(-3249.872 -8282.467)" fill="#feca2e"/>
      </g>
    </g>
  </g>
</svg>
