<svg xmlns="http://www.w3.org/2000/svg" width="583" height="441.079" viewBox="0 0 583 441.079">
  <g id="Grupo_148564" data-name="Grupo 148564" transform="translate(-140 11029.795)">
    <g id="Grupo_144884" data-name="Grupo 144884" transform="translate(140 -11023.178)">
      <rect id="Rectángulo_44358" data-name="Rectángulo 44358" width="583" height="0.292" transform="translate(0 381.801)" fill="#ececec"/>
      <rect id="Rectángulo_44359" data-name="Rectángulo 44359" width="38.62" height="0.292" transform="translate(61.167 392.906)" fill="#ececec"/>
      <rect id="Rectángulo_44360" data-name="Rectángulo 44360" width="50.721" height="0.292" transform="translate(158.965 389.742)" fill="#ececec"/>
      <rect id="Rectángulo_44361" data-name="Rectángulo 44361" width="45.184" height="0.292" transform="translate(95.125 398.925)" fill="#ececec"/>
      <rect id="Rectángulo_44362" data-name="Rectángulo 44362" width="50.364" height="0.292" transform="translate(474.221 401.775)" fill="#ececec"/>
      <rect id="Rectángulo_44363" data-name="Rectángulo 44363" width="21.926" height="0.292" transform="translate(441.914 401.775)" fill="#ececec"/>
      <rect id="Rectángulo_44364" data-name="Rectángulo 44364" width="42.624" height="0.292" transform="translate(278.026 396.851)" fill="#ececec"/>
      <path id="Trazado_202658" data-name="Trazado 202658" d="M3879.19,8238.352H3654.038a6.663,6.663,0,0,1-6.655-6.655v-316.49a6.662,6.662,0,0,1,6.655-6.654H3879.19a6.662,6.662,0,0,1,6.654,6.654V8231.7A6.663,6.663,0,0,1,3879.19,8238.352Zm-225.152-329.508a6.37,6.37,0,0,0-6.364,6.362V8231.7a6.37,6.37,0,0,0,6.364,6.364H3879.19a6.371,6.371,0,0,0,6.363-6.364v-316.49a6.37,6.37,0,0,0-6.363-6.362Z" transform="translate(-3602.833 -7908.552)" fill="#ececec"/>
      <path id="Trazado_202659" data-name="Trazado 202659" d="M4095.487,8238.352H3870.334a6.663,6.663,0,0,1-6.654-6.655v-316.49a6.662,6.662,0,0,1,6.654-6.654h225.153a6.662,6.662,0,0,1,6.656,6.654V8231.7A6.663,6.663,0,0,1,4095.487,8238.352Zm-225.153-329.508a6.37,6.37,0,0,0-6.363,6.362V8231.7a6.371,6.371,0,0,0,6.363,6.364h225.153a6.371,6.371,0,0,0,6.364-6.364v-316.49a6.37,6.37,0,0,0-6.364-6.362Z" transform="translate(-3566.927 -7908.552)" fill="#ececec"/>
    </g>
    <path id="Trazado_202660" data-name="Trazado 202660" d="M4055.6,8232.588h-32.983a1.987,1.987,0,0,0-1.987,1.988h0a1.987,1.987,0,0,0,1.987,1.987H4055.6a1.987,1.987,0,0,0,1.987-1.987h0A1.987,1.987,0,0,0,4055.6,8232.588Z" transform="translate(-3400.872 -18877.939)" fill="#ececec"/>
    <g id="Grupo_144888" data-name="Grupo 144888" transform="translate(205.426 -10966.265)">
      <g id="Grupo_144885" data-name="Grupo 144885" transform="translate(0 122.425)">
        <path id="Trazado_202661" data-name="Trazado 202661" d="M3806.8,8193.77v31.492a17.744,17.744,0,0,1-17.746,17.745h-41.273a10.55,10.55,0,0,1,10.55-10.55h25.5A10.455,10.455,0,0,0,3794.293,8222v-27.74Z" transform="translate(-3651.591 -8040.545)" fill="#e1e1e1"/>
        <path id="Trazado_202662" data-name="Trazado 202662" d="M3796.169,8193.77v31.492a17.746,17.746,0,0,0,17.747,17.745h41.273a10.549,10.549,0,0,0-10.55-10.55h-25.5A10.455,10.455,0,0,1,3808.681,8222v-27.74Z" transform="translate(-3643.559 -8040.545)" fill="#e1e1e1"/>
        <path id="Trazado_202663" data-name="Trazado 202663" d="M3670.745,8108.026v119.09c13.811,5.5,12.671,11.445,27.539,11.445s14.868-11.867,29.734-11.867,14.866,11.867,29.732,11.867,14.864-11.867,29.729-11.867,14.864,11.867,29.729,11.867,14.865-11.867,29.729-11.867,14.863,11.867,29.726,11.867,14.863-11.867,29.725-11.867,14.861,11.867,29.722,11.867,14.863-11.867,29.727-11.867V8108.026Z" transform="translate(-3664.38 -8054.777)" fill="#ececec"/>
        <path id="Trazado_202664" data-name="Trazado 202664" d="M3973.11,8088.326v-18.879a7.088,7.088,0,0,0-7.088-7.088H3672.374a7.088,7.088,0,0,0-7.088,7.088V8229.8l34.242-14.035v-8.274l22.9-11.938v-7.561l34.242-10.107v-5.96l22.9-8.6V8157.4l22.9,8.6v19.847l34.244,10.108v25.14l22.9-11.939v-21.157l34.243-10.107v-5.96l22.9-8.6v16.066l22.9,8.6v15.5l33.479,10.108V8088.326Z" transform="translate(-3665.286 -8062.359)" fill="#f5f5f5"/>
      </g>
      <g id="Grupo_144886" data-name="Grupo 144886" transform="translate(50.225 20.002)">
        <circle id="Elipse_5999" data-name="Elipse 5999" cx="34.337" cy="34.337" r="34.337" transform="translate(0 2.946)" fill="#feca2e"/>
        <ellipse id="Elipse_6000" data-name="Elipse 6000" cx="19.839" cy="13.048" rx="19.839" ry="13.048" transform="translate(0.136 30.072) rotate(-49.278)" fill="#fafafa"/>
        <circle id="Elipse_6001" data-name="Elipse 6001" cx="34.337" cy="34.337" r="34.337" transform="translate(263.039 289.132) rotate(-67.5)" fill="#f5f5f5"/>
        <ellipse id="Elipse_6002" data-name="Elipse 6002" cx="13.048" cy="19.839" rx="13.048" ry="19.839" transform="matrix(0.758, -0.652, 0.652, 0.758, 296.44, 250.29)" fill="#fafafa"/>
        <path id="Trazado_202665" data-name="Trazado 202665" d="M3740.3,8034.427H3722.79s8.756,10.9,8.756,30.017h17.511c0-19.112,8.756-30.017,8.756-30.017Z" transform="translate(-3705.965 -7964.572)" fill="#f0f0f0"/>
        <rect id="Rectángulo_44365" data-name="Rectángulo 44365" width="45.478" height="7.457" rx="3.106" transform="translate(11.599 66.127)" fill="#e1e1e1"/>
        <rect id="Rectángulo_44366" data-name="Rectángulo 44366" width="31.133" height="5.105" rx="2.126" transform="translate(18.771 97.318)" fill="#e1e1e1"/>
      </g>
      <g id="Grupo_144887" data-name="Grupo 144887" transform="translate(148.664)">
        <rect id="Rectángulo_44367" data-name="Rectángulo 44367" width="34.625" height="6.727" rx="2.147" transform="translate(266.838 90.446)" fill="#ececec"/>
        <path id="Trazado_202666" data-name="Trazado 202666" d="M4043.311,8076.533h-10.348l-6.455-35.831h23.258Z" transform="translate(-3753.987 -7943.528)" fill="#ececec"/>
        <path id="Trazado_202667" data-name="Trazado 202667" d="M4043.771,8214.43h-11.044l-6.89,21.172h24.824Z" transform="translate(-3754.099 -7914.691)" fill="#ececec"/>
        <path id="Trazado_202668" data-name="Trazado 202668" d="M4041.212,8249.925h-4.664a19.637,19.637,0,0,0-1.65-8.433,27.049,27.049,0,0,1,0-20.254,22.374,22.374,0,0,0,0-16.865,27.041,27.041,0,0,1,0-20.251,22.357,22.357,0,0,0,0-16.858,27.031,27.031,0,0,1,0-20.247,22.359,22.359,0,0,0,0-16.859,27.034,27.034,0,0,1,0-20.248,22.352,22.352,0,0,0,0-16.856,27.031,27.031,0,0,1,0-20.247,19.617,19.617,0,0,0,1.65-8.429h4.664a24.383,24.383,0,0,1-1.967,10.123,22.357,22.357,0,0,0,0,16.858,27.035,27.035,0,0,1,0,20.246,22.357,22.357,0,0,0,0,16.858,27.04,27.04,0,0,1,0,20.248,22.354,22.354,0,0,0,0,16.857,27.037,27.037,0,0,1,0,20.247,22.369,22.369,0,0,0,0,16.863,27.055,27.055,0,0,1,0,20.254,22.374,22.374,0,0,0,0,16.865A24.408,24.408,0,0,1,4041.212,8249.925Z" transform="translate(-3752.921 -7939.599)" fill="#ececec"/>
        <path id="Trazado_202669" data-name="Trazado 202669" d="M4044.418,8043.875h-13.9v-44.55l.811-7,5.441-11.271,4.664,5.959,2.979,8.811Z" transform="translate(-3753.32 -7953.43)" fill="#f5f5f5"/>
        <path id="Trazado_202670" data-name="Trazado 202670" d="M4037.469,7982.756c-5.617-.159-7.3-8.292-5.231-13.992a4.027,4.027,0,0,0,1.749,2.688s4.567-7.772,2.915-14.089C4045.064,7965.622,4045.517,7982.982,4037.469,7982.756Z" transform="translate(-3753.177 -7957.363)" fill="#e1e1e1"/>
        <path id="Trazado_202671" data-name="Trazado 202671" d="M3806.681,8068.138h-13.9v-22.324l.811-7,5.441-11.271,4.664,5.96,2.98,8.81Z" transform="translate(-3792.785 -7945.712)" fill="#f5f5f5"/>
        <path id="Trazado_202672" data-name="Trazado 202672" d="M3799.731,8029.245c-5.616-.158-7.3-8.291-5.231-13.992a4.032,4.032,0,0,0,1.749,2.688s4.567-7.773,2.915-14.09C3807.326,8012.112,3807.779,8029.472,3799.731,8029.245Z" transform="translate(-3792.642 -7949.645)" fill="#e1e1e1"/>
      </g>
    </g>
    <ellipse id="_Path_" data-name="&lt;Path&gt;" cx="226.075" cy="13.203" rx="226.075" ry="13.203" transform="translate(205.426 -10615.122)" fill="#bddcf6" opacity="0.53"/>
    <g id="Grupo_144909" data-name="Grupo 144909" transform="translate(219.307 -11029.795)">
      <g id="Grupo_144907" data-name="Grupo 144907" transform="translate(0 86.035)">
        <g id="Grupo_144889" data-name="Grupo 144889" transform="translate(78.355 1.439)">
          <path id="Trazado_202673" data-name="Trazado 202673" d="M3744.977,8140.579a.525.525,0,0,1-.078,0,.584.584,0,0,1-.5-.653c.31-2.359.564-3.575.858-4.982.239-1.149.511-2.452.876-4.657a.583.583,0,1,1,1.149.19c-.367,2.228-.643,3.544-.885,4.7-.3,1.442-.539,2.581-.84,4.9A.583.583,0,0,1,3744.977,8140.579Z" transform="translate(-3744.391 -7952.683)" fill="#0f2771"/>
          <path id="Trazado_202674" data-name="Trazado 202674" d="M3771.708,7988.684a.782.782,0,0,1-.1-.008.583.583,0,0,1-.48-.671c.367-2.233.644-3.549.886-4.712.3-1.439.538-2.577.84-4.889a.583.583,0,1,1,1.157.151c-.309,2.355-.562,3.57-.856,4.977-.24,1.149-.512,2.454-.877,4.663A.582.582,0,0,1,3771.708,7988.684Z" transform="translate(-3739.954 -7977.896)" fill="#0f2771"/>
        </g>
        <g id="Grupo_144890" data-name="Grupo 144890" transform="translate(62.393 5.713)">
          <path id="Trazado_202675" data-name="Trazado 202675" d="M3731.284,8136.849a.6.6,0,0,1-.174-.026.585.585,0,0,1-.38-.732c.712-2.267,1.173-3.419,1.706-4.753.436-1.092.93-2.327,1.673-4.439a.583.583,0,1,1,1.1.388c-.75,2.134-1.249,3.383-1.689,4.484-.547,1.366-.977,2.446-1.678,4.671A.583.583,0,0,1,3731.284,8136.849Z" transform="translate(-3730.702 -7957.502)" fill="#0f2771"/>
          <path id="Trazado_202676" data-name="Trazado 202676" d="M3783.985,7991.9a.565.565,0,0,1-.193-.034.582.582,0,0,1-.356-.742c.75-2.133,1.249-3.38,1.689-4.482.547-1.366.979-2.446,1.679-4.673a.583.583,0,1,1,1.111.35c-.714,2.269-1.174,3.422-1.707,4.757-.436,1.091-.931,2.326-1.673,4.436A.584.584,0,0,1,3783.985,7991.9Z" transform="translate(-3721.954 -7981.563)" fill="#0f2771"/>
        </g>
        <g id="Grupo_144891" data-name="Grupo 144891" transform="translate(47.414 12.695)">
          <path id="Trazado_202677" data-name="Trazado 202677" d="M3718.438,8130.758a.563.563,0,0,1-.268-.067.581.581,0,0,1-.249-.785c1.1-2.108,1.749-3.164,2.506-4.385.62-1,1.321-2.132,2.419-4.081a.583.583,0,1,1,1.016.572c-1.109,1.972-1.819,3.115-2.444,4.123-.774,1.251-1.386,2.239-2.462,4.308A.583.583,0,0,1,3718.438,8130.758Z" transform="translate(-3717.855 -7965.375)" fill="#0f2771"/>
          <path id="Trazado_202678" data-name="Trazado 202678" d="M3795.509,7997.166a.568.568,0,0,1-.286-.076.581.581,0,0,1-.223-.794c1.107-1.969,1.816-3.111,2.441-4.119.775-1.252,1.388-2.24,2.465-4.312a.583.583,0,0,1,1.034.537c-1.1,2.112-1.751,3.168-2.508,4.39-.619,1-1.32,2.13-2.417,4.077A.582.582,0,0,1,3795.509,7997.166Z" transform="translate(-3705.062 -7987.55)" fill="#0f2771"/>
        </g>
        <g id="Grupo_144892" data-name="Grupo 144892" transform="translate(33.877 22.171)">
          <path id="Trazado_202679" data-name="Trazado 202679" d="M3706.828,8122.49a.582.582,0,0,1-.462-.937c1.444-1.886,2.271-2.811,3.228-3.882.784-.877,1.672-1.869,3.091-3.6a.583.583,0,1,1,.9.739c-1.435,1.749-2.332,2.752-3.123,3.637-.98,1.1-1.755,1.964-3.172,3.815A.584.584,0,0,1,3706.828,8122.49Z" transform="translate(-3706.245 -7976.06)" fill="#0f2771"/>
          <path id="Trazado_202680" data-name="Trazado 202680" d="M3805.926,8004.312a.576.576,0,0,1-.371-.133.582.582,0,0,1-.081-.819c1.435-1.748,2.331-2.751,3.122-3.636.982-1.1,1.756-1.964,3.175-3.816a.583.583,0,1,1,.925.709c-1.446,1.888-2.272,2.813-3.23,3.885-.783.876-1.671,1.868-3.09,3.6A.58.58,0,0,1,3805.926,8004.312Z" transform="translate(-3689.795 -7995.678)" fill="#0f2771"/>
        </g>
        <g id="Grupo_144893" data-name="Grupo 144893" transform="translate(22.19 33.856)">
          <path id="Trazado_202681" data-name="Trazado 202681" d="M3696.805,8112.3a.582.582,0,0,1-.394-1.012c1.751-1.607,2.726-2.376,3.854-3.264.924-.727,1.969-1.551,3.668-3.007a.582.582,0,1,1,.758.885c-1.715,1.473-2.773,2.3-3.7,3.038-1.157.911-2.07,1.629-3.789,3.206A.576.576,0,0,1,3696.805,8112.3Z" transform="translate(-3696.222 -7989.236)" fill="#0f2771"/>
          <path id="Trazado_202682" data-name="Trazado 202682" d="M3814.919,8013.121a.581.581,0,0,1-.379-1.024c1.715-1.473,2.773-2.306,3.7-3.038,1.157-.911,2.069-1.631,3.788-3.207a.583.583,0,0,1,.789.859c-1.751,1.606-2.727,2.374-3.855,3.263-.922.728-1.969,1.551-3.668,3.008A.576.576,0,0,1,3814.919,8013.121Z" transform="translate(-3676.615 -8005.699)" fill="#0f2771"/>
        </g>
        <g id="Grupo_144894" data-name="Grupo 144894" transform="translate(12.708 47.39)">
          <path id="Trazado_202683" data-name="Trazado 202683" d="M3688.674,8100.491a.583.583,0,0,1-.313-1.075c2-1.277,3.1-1.864,4.363-2.543,1.035-.556,2.209-1.186,4.135-2.325a.583.583,0,1,1,.595,1c-1.948,1.152-3.132,1.789-4.178,2.35-1.3.7-2.321,1.245-4.289,2.5A.578.578,0,0,1,3688.674,8100.491Z" transform="translate(-3688.09 -8004.498)" fill="#0f2771"/>
          <path id="Trazado_202684" data-name="Trazado 202684" d="M3822.216,8023.332a.583.583,0,0,1-.3-1.085c1.946-1.151,3.13-1.787,4.176-2.35,1.3-.694,2.321-1.245,4.29-2.5a.583.583,0,0,1,.626.983c-2,1.279-3.1,1.866-4.363,2.546-1.037.555-2.209,1.184-4.134,2.323A.586.586,0,0,1,3822.216,8023.332Z" transform="translate(-3665.922 -8017.307)" fill="#0f2771"/>
        </g>
        <g id="Grupo_144895" data-name="Grupo 144895" transform="translate(5.723 62.367)">
          <path id="Trazado_202685" data-name="Trazado 202685" d="M3682.683,8087.427a.584.584,0,0,1-.224-1.122c2.2-.91,3.375-1.3,4.74-1.747,1.116-.368,2.381-.784,4.474-1.572a.583.583,0,1,1,.411,1.091c-2.117.8-3.393,1.218-4.521,1.588-1.4.461-2.5.823-4.657,1.718A.579.579,0,0,1,3682.683,8087.427Z" transform="translate(-3682.1 -8021.387)" fill="#0f2771"/>
          <path id="Trazado_202686" data-name="Trazado 202686" d="M3827.594,8034.63a.584.584,0,0,1-.206-1.13c2.115-.8,3.392-1.216,4.52-1.587,1.4-.459,2.5-.823,4.658-1.718a.583.583,0,0,1,.447,1.077c-2.2.911-3.375,1.3-4.741,1.748-1.116.367-2.381.784-4.474,1.571A.576.576,0,0,1,3827.594,8034.63Z" transform="translate(-3658.044 -8030.151)" fill="#0f2771"/>
        </g>
        <g id="Grupo_144896" data-name="Grupo 144896" transform="translate(1.443 78.328)">
          <path id="Trazado_202687" data-name="Trazado 202687" d="M3679.013,8073.5a.583.583,0,0,1-.127-1.152c2.32-.516,3.549-.693,4.972-.9,1.164-.168,2.481-.357,4.681-.771a.592.592,0,0,1,.679.467.584.584,0,0,1-.466.68c-2.221.417-3.552.608-4.727.778-1.458.21-2.607.377-4.886.883A.559.559,0,0,1,3679.013,8073.5Z" transform="translate(-3678.429 -8039.386)" fill="#0f2771"/>
          <path id="Trazado_202688" data-name="Trazado 202688" d="M3830.89,8046.671a.583.583,0,0,1-.106-1.156c2.223-.416,3.553-.608,4.726-.778,1.456-.21,2.608-.376,4.885-.882a.583.583,0,1,1,.253,1.138c-2.322.516-3.549.692-4.971.9-1.163.168-2.481.358-4.681.77A.5.5,0,0,1,3830.89,8046.671Z" transform="translate(-3653.217 -8043.84)" fill="#0f2771"/>
        </g>
        <g id="Grupo_144897" data-name="Grupo 144897" transform="translate(0 94.75)">
          <path id="Trazado_202689" data-name="Trazado 202689" d="M3686.259,8059.2c-1.516,0-2.554-.032-3.492-.062-1.473-.047-2.634-.083-4.965.021a.553.553,0,0,1-.61-.557.583.583,0,0,1,.557-.607c2.377-.106,3.616-.067,5.054-.022,1.174.037,2.5.078,4.74.054h.007a.583.583,0,0,1,.007,1.166C3687.087,8059.2,3686.656,8059.2,3686.259,8059.2Z" transform="translate(-3677.192 -8057.924)" fill="#0f2771"/>
          <path id="Trazado_202690" data-name="Trazado 202690" d="M3839.061,8059.2c-.845,0-1.55-.021-2.309-.045-1.175-.037-2.505-.078-4.74-.054a.6.6,0,0,1-.59-.576.583.583,0,0,1,.576-.59c2.261-.024,3.6.017,4.79.055,1.477.045,2.638.081,4.965-.021a.556.556,0,0,1,.609.557.585.585,0,0,1-.557.608C3840.684,8059.179,3839.815,8059.2,3839.061,8059.2Z" transform="translate(-3651.589 -8057.924)" fill="#0f2771"/>
        </g>
        <g id="Grupo_144898" data-name="Grupo 144898" transform="translate(1.439 78.355)">
          <path id="Trazado_202691" data-name="Trazado 202691" d="M3688.631,8046.759a.521.521,0,0,1-.1-.009c-2.233-.368-3.549-.644-4.71-.885-1.441-.3-2.579-.539-4.893-.842a.583.583,0,1,1,.153-1.155c2.356.309,3.571.562,4.978.855,1.15.239,2.453.512,4.662.876a.584.584,0,0,1-.093,1.159Z" transform="translate(-3678.426 -8043.863)" fill="#0f2771"/>
          <path id="Trazado_202692" data-name="Trazado 202692" d="M3840.526,8073.489a.512.512,0,0,1-.077,0c-2.357-.309-3.574-.562-4.98-.855-1.15-.241-2.453-.513-4.659-.877a.582.582,0,1,1,.189-1.149c2.23.367,3.547.642,4.708.885,1.441.3,2.579.537,4.9.842a.583.583,0,0,1-.076,1.16Z" transform="translate(-3653.211 -8039.425)" fill="#0f2771"/>
        </g>
        <g id="Grupo_144899" data-name="Grupo 144899" transform="translate(5.714 62.391)">
          <path id="Trazado_202693" data-name="Trazado 202693" d="M3691.849,8034.712a.562.562,0,0,1-.193-.033c-2.134-.75-3.382-1.249-4.484-1.69-1.367-.545-2.445-.977-4.672-1.678a.583.583,0,0,1,.351-1.112c2.267.714,3.42,1.175,4.754,1.709,1.091.436,2.327.929,4.439,1.672a.583.583,0,0,1-.194,1.133Z" transform="translate(-3682.092 -8030.171)" fill="#0f2771"/>
          <path id="Trazado_202694" data-name="Trazado 202694" d="M3836.794,8087.415a.577.577,0,0,1-.175-.028c-2.268-.714-3.42-1.175-4.755-1.707-1.091-.437-2.326-.931-4.437-1.672a.583.583,0,1,1,.387-1.1c2.132.751,3.38,1.25,4.482,1.689,1.368.547,2.446.978,4.673,1.679a.583.583,0,0,1-.176,1.14Z" transform="translate(-3658.031 -8021.424)" fill="#0f2771"/>
        </g>
        <g id="Grupo_144900" data-name="Grupo 144900" transform="translate(12.696 47.414)">
          <path id="Trazado_202695" data-name="Trazado 202695" d="M3697.111,8023.409a.568.568,0,0,1-.286-.076c-1.971-1.108-3.113-1.817-4.122-2.442-1.25-.773-2.239-1.388-4.308-2.464a.582.582,0,0,1,.536-1.034c2.111,1.1,3.165,1.75,4.387,2.507,1,.619,2.13,1.321,4.079,2.418a.583.583,0,0,1-.286,1.092Z" transform="translate(-3688.08 -8017.327)" fill="#0f2771"/>
          <path id="Trazado_202696" data-name="Trazado 202696" d="M3830.7,8100.479a.593.593,0,0,1-.27-.064c-2.109-1.1-3.165-1.752-4.386-2.509-1-.619-2.131-1.319-4.079-2.417a.583.583,0,1,1,.572-1.016c1.969,1.109,3.113,1.816,4.12,2.442,1.251.775,2.24,1.387,4.311,2.464a.582.582,0,0,1-.268,1.1Z" transform="translate(-3665.904 -8004.533)" fill="#0f2771"/>
        </g>
        <g id="Grupo_144901" data-name="Grupo 144901" transform="translate(22.173 33.875)">
          <path id="Trazado_202697" data-name="Trazado 202697" d="M3704.256,8013.19a.576.576,0,0,1-.37-.133c-1.747-1.433-2.749-2.329-3.633-3.12-1.1-.98-1.965-1.755-3.817-3.175a.583.583,0,1,1,.709-.926c1.888,1.447,2.813,2.273,3.885,3.231.875.783,1.868,1.67,3.6,3.088a.583.583,0,0,1-.371,1.034Z" transform="translate(-3696.208 -8005.716)" fill="#0f2771"/>
          <path id="Trazado_202698" data-name="Trazado 202698" d="M3822.436,8112.288a.591.591,0,0,1-.355-.12c-1.886-1.447-2.811-2.274-3.883-3.231-.875-.783-1.868-1.671-3.6-3.09a.583.583,0,0,1,.74-.9c1.748,1.436,2.75,2.331,3.635,3.122,1.1.979,1.964,1.756,3.816,3.175a.583.583,0,0,1-.354,1.046Z" transform="translate(-3676.59 -7989.266)" fill="#0f2771"/>
        </g>
        <g id="Grupo_144902" data-name="Grupo 144902" transform="translate(33.856 22.189)">
          <path id="Trazado_202699" data-name="Trazado 202699" d="M3713.068,8004.368a.584.584,0,0,1-.443-.2c-1.472-1.716-2.3-2.772-3.038-3.705-.911-1.156-1.629-2.069-3.207-3.789a.583.583,0,0,1,.86-.788c1.608,1.752,2.375,2.728,3.264,3.857.726.922,1.551,1.968,3.007,3.666a.584.584,0,0,1-.443.963Z" transform="translate(-3706.228 -7995.693)" fill="#0f2771"/>
          <path id="Trazado_202700" data-name="Trazado 202700" d="M3812.244,8122.482a.587.587,0,0,1-.429-.188c-1.609-1.754-2.377-2.729-3.267-3.86-.727-.923-1.55-1.968-3-3.664a.583.583,0,0,1,.886-.759c1.47,1.715,2.3,2.77,3.035,3.7.911,1.157,1.63,2.071,3.21,3.794a.584.584,0,0,1-.036.823A.577.577,0,0,1,3812.244,8122.482Z" transform="translate(-3689.765 -7976.086)" fill="#0f2771"/>
        </g>
        <g id="Grupo_144903" data-name="Grupo 144903" transform="translate(47.392 12.709)">
          <path id="Trazado_202701" data-name="Trazado 202701" d="M3723.278,7997.209a.583.583,0,0,1-.5-.285c-1.152-1.948-1.789-3.134-2.35-4.18-.695-1.3-1.245-2.319-2.5-4.285a.584.584,0,0,1,.984-.628c1.276,2,1.862,3.1,2.542,4.362.556,1.035,1.186,2.21,2.328,4.136a.585.585,0,0,1-.206.8A.577.577,0,0,1,3723.278,7997.209Z" transform="translate(-3717.836 -7987.563)" fill="#0f2771"/>
          <path id="Trazado_202702" data-name="Trazado 202702" d="M3800.437,8130.751a.583.583,0,0,1-.492-.271c-1.279-2.006-1.866-3.1-2.546-4.367-.556-1.034-1.184-2.208-2.324-4.131a.584.584,0,0,1,1.005-.593c1.15,1.943,1.785,3.127,2.345,4.172.7,1.3,1.247,2.323,2.5,4.293a.584.584,0,0,1-.492.9Z" transform="translate(-3705.028 -7965.395)" fill="#0f2771"/>
        </g>
        <g id="Grupo_144904" data-name="Grupo 144904" transform="translate(62.367 5.722)">
          <path id="Trazado_202703" data-name="Trazado 202703" d="M3734.574,7991.933a.582.582,0,0,1-.544-.378c-.8-2.118-1.218-3.4-1.59-4.524-.459-1.4-.823-2.5-1.715-4.654a.583.583,0,1,1,1.078-.446c.91,2.194,1.3,3.372,1.747,4.736.367,1.117.782,2.382,1.572,4.479a.582.582,0,0,1-.546.788Z" transform="translate(-3730.679 -7981.57)" fill="#0f2771"/>
          <path id="Trazado_202704" data-name="Trazado 202704" d="M3787.372,8136.845a.583.583,0,0,1-.539-.36c-.911-2.2-1.3-3.375-1.748-4.74-.366-1.116-.782-2.381-1.569-4.474a.582.582,0,1,1,1.09-.41c.8,2.116,1.216,3.393,1.588,4.521.459,1.4.823,2.5,1.716,4.656a.584.584,0,0,1-.539.808Z" transform="translate(-3721.916 -7957.516)" fill="#0f2771"/>
        </g>
        <g id="Grupo_144905" data-name="Grupo 144905" transform="translate(78.329 1.443)">
          <path id="Trazado_202705" data-name="Trazado 202705" d="M3746.616,7988.7a.582.582,0,0,1-.571-.477c-.417-2.223-.61-3.554-.779-4.728-.211-1.456-.378-2.607-.883-4.885a.583.583,0,0,1,1.138-.253c.515,2.32.692,3.548.9,4.971.168,1.162.359,2.481.771,4.68a.584.584,0,0,1-.465.682A.688.688,0,0,1,3746.616,7988.7Z" transform="translate(-3744.369 -7977.901)" fill="#0f2771"/>
          <path id="Trazado_202706" data-name="Trazado 202706" d="M3773.449,8140.576a.581.581,0,0,1-.569-.455c-.517-2.321-.694-3.551-.9-4.974-.167-1.162-.358-2.48-.77-4.678a.583.583,0,1,1,1.145-.216c.417,2.223.61,3.553.779,4.728.21,1.457.377,2.607.883,4.885a.583.583,0,0,1-.443.7A.559.559,0,0,1,3773.449,8140.576Z" transform="translate(-3739.915 -7952.69)" fill="#0f2771"/>
        </g>
        <g id="Grupo_144906" data-name="Grupo 144906" transform="translate(94.75)">
          <path id="Trazado_202707" data-name="Trazado 202707" d="M3759.043,7987.6a.582.582,0,0,1-.583-.576c-.026-2.262.018-3.606.055-4.792.045-1.47.082-2.633-.021-4.964a.583.583,0,0,1,.556-.607.563.563,0,0,1,.609.558c.1,2.374.065,3.615.021,5.05-.036,1.176-.078,2.506-.053,4.743a.582.582,0,0,1-.576.589Z" transform="translate(-3758.452 -7976.663)" fill="#0f2771"/>
          <path id="Trazado_202708" data-name="Trazado 202708" d="M3759.1,8141.833a.582.582,0,0,1-.583-.558c-.1-2.373-.065-3.613-.021-5.051.036-1.174.078-2.506.054-4.742a.584.584,0,0,1,.576-.59h.007a.584.584,0,0,1,.583.577c.025,2.262-.018,3.605-.055,4.791-.045,1.472-.082,2.633.021,4.964a.583.583,0,0,1-.556.608Z" transform="translate(-3758.452 -7951.061)" fill="#0f2771"/>
        </g>
      </g>
      <path id="Trazado_202709" data-name="Trazado 202709" d="M3778.736,8051.576a.583.583,0,0,1-.581-.527c-.52-5.477-1.11-11.685-4.228-16.108a9.7,9.7,0,0,0-7.347-3.843c-.15,0-.3,0-.454,0a.583.583,0,0,1,0-1.165c.149,0,.3,0,.454,0a9.7,9.7,0,0,0,7.347-3.842c3.118-4.425,3.708-10.632,4.228-16.109a.584.584,0,0,1,.581-.527h.013a.58.58,0,0,1,.569.554c.235,4.662.928,11.4,4.227,16.083a9.709,9.709,0,0,0,7.348,3.842c.154,0,.307,0,.454,0a.583.583,0,0,1,0,1.165c-.151,0-.3,0-.454,0a9.706,9.706,0,0,0-7.35,3.843c-3.3,4.681-3.991,11.42-4.226,16.083a.58.58,0,0,1-.569.553Zm-9.038-21.062a10.673,10.673,0,0,1,5.184,3.754c2.224,3.155,3.222,7.083,3.8,11.03a25.817,25.817,0,0,1,3.909-11.03,3.951,3.951,0,1,0,0-7.508,25.814,25.814,0,0,1-3.91-11.03c-.578,3.947-1.577,7.874-3.8,11.03A10.667,10.667,0,0,1,3769.7,8030.515Z" transform="translate(-3662.523 -7885.186)" fill="#0f2771"/>
      <path id="Trazado_202710" data-name="Trazado 202710" d="M4006.348,7975.152a.582.582,0,0,1-.581-.526c-.354-3.715-.754-7.925-2.853-10.9a6.424,6.424,0,0,0-4.854-2.544c-.107,0-.217,0-.322,0a.583.583,0,0,1,0-1.166c.1,0,.215,0,.322,0a6.425,6.425,0,0,0,4.854-2.542c2.1-2.979,2.5-7.188,2.853-10.9a.6.6,0,0,1,.593-.528.583.583,0,0,1,.569.554c.16,3.157.627,7.722,2.849,10.877a6.431,6.431,0,0,0,4.855,2.542c.107,0,.217,0,.322,0a.583.583,0,0,1,0,1.166c-.1,0-.214,0-.322,0a6.435,6.435,0,0,0-4.856,2.544c-2.221,3.155-2.688,7.718-2.848,10.876a.582.582,0,0,1-.569.553Zm-5.618-14.556a7.3,7.3,0,0,1,3.139,2.455,16.143,16.143,0,0,1,2.445,6.5,16.67,16.67,0,0,1,2.512-6.5,2.529,2.529,0,1,0,0-4.909,16.65,16.65,0,0,1-2.513-6.5,16.138,16.138,0,0,1-2.445,6.5A7.308,7.308,0,0,1,4000.729,7960.6Z" transform="translate(-3624.075 -7895.712)" fill="#0f2771"/>
      <path id="Trazado_202711" data-name="Trazado 202711" d="M3940.506,8199.821a.583.583,0,0,1-.581-.527c-.353-3.714-.753-7.923-2.852-10.9a6.424,6.424,0,0,0-4.854-2.543c-.107,0-.217,0-.322,0a.583.583,0,0,1,0-1.166c.1,0,.215,0,.322,0a6.434,6.434,0,0,0,4.854-2.543c2.1-2.979,2.5-7.188,2.852-10.9a.609.609,0,0,1,.594-.528.581.581,0,0,1,.569.554c.16,3.158.627,7.722,2.85,10.877a6.436,6.436,0,0,0,4.856,2.543c.105,0,.215,0,.32,0a.583.583,0,0,1,0,1.166c-.1,0-.215,0-.32,0a6.429,6.429,0,0,0-4.856,2.543c-2.223,3.155-2.69,7.718-2.85,10.876a.581.581,0,0,1-.569.553Zm-5.617-14.555a7.282,7.282,0,0,1,3.139,2.454,16.129,16.129,0,0,1,2.445,6.5,16.684,16.684,0,0,1,2.512-6.5,2.529,2.529,0,1,0,0-4.909,16.666,16.666,0,0,1-2.513-6.5,16.119,16.119,0,0,1-2.445,6.5A7.305,7.305,0,0,1,3934.889,8185.267Z" transform="translate(-3635.004 -7858.417)" fill="#0f2771"/>
      <path id="Trazado_202712" data-name="Trazado 202712" d="M3816.336,7960.239a.421.421,0,0,0-.128-.01c-1.253.083-2.513.171-3.772.255-1.33.092-2.67.119-4,.263l-2.979.2a1.192,1.192,0,0,1-.461-.031c-.414-.137-.326-.7-.111-1.021a10.365,10.365,0,0,1,1.159-1.18c.421-.437.853-.868,1.261-1.308.851-.92,1.667-1.859,2.448-2.829a11.338,11.338,0,0,0-2.273,1.865,12.033,12.033,0,0,1-2.892,2.114.871.871,0,0,1-.507.13c-.49-.069-.758-.816-.88-1.223a9.369,9.369,0,0,1-.292-1.659,21.213,21.213,0,0,1-.064-3.34,24.219,24.219,0,0,0-.432-5.661,2.264,2.264,0,0,0-.053-.274l-.081,1.507-.128,2.439a24.107,24.107,0,0,1-.3,5.454,1.555,1.555,0,0,1-.536,1.037c-.933.613-1.778-.729-2.181-1.31-.466-.673-.88-1.381-1.317-2.073-.018-.021-.029-.038-.059-.041-.128-.009.151.9.175.955a10.147,10.147,0,0,0,.618,1.2c.245.439.536.852.811,1.271.216.327.711.9.624,1.344a.741.741,0,0,1-.192.341,3.537,3.537,0,0,1-2.262.938c-1.913.282-3.831.6-5.754.807-.717.078-1.434.144-2.151.25a9.584,9.584,0,0,0-1.073.2c-.076.02-.665.177-.42.267a.208.208,0,0,0,.123.01c1.259-.084,2.519-.172,3.772-.249,1.329-.091,2.676-.125,4.005-.269.991-.061,1.982-.127,2.979-.193a1.192,1.192,0,0,1,.461.026c.414.142.326.705.11,1.02a9.829,9.829,0,0,1-1.16,1.188c-.426.436-.851.859-1.265,1.308-.845.913-1.661,1.857-2.448,2.823a11,11,0,0,0,2.279-1.861,11.938,11.938,0,0,1,2.886-2.111.929.929,0,0,1,.513-.138c.49.068.758.821.88,1.229a9.716,9.716,0,0,1,.292,1.652,21.361,21.361,0,0,1,.064,3.347,23.707,23.707,0,0,0,.426,5.638v.006a2.622,2.622,0,0,0,.058.291l.076-1.541.128-2.41a24.477,24.477,0,0,1,.3-5.453,1.556,1.556,0,0,1,.542-1.032c.933-.62,1.772.73,2.174,1.3.466.679.88,1.386,1.322,2.073a.068.068,0,0,0,.06.046c.123.01-.157-.9-.181-.954a8.968,8.968,0,0,0-.618-1.2c-.245-.439-.531-.851-.811-1.271-.216-.332-.711-.9-.624-1.344a.824.824,0,0,1,.2-.347,3.467,3.467,0,0,1,2.256-.932c1.918-.284,3.836-.606,5.754-.813.723-.078,1.44-.139,2.157-.244.355-.057.717-.112,1.073-.2C3815.986,7960.493,3816.575,7960.336,3816.336,7960.239Z" transform="translate(-3658.784 -7895.63)" fill="#0f2771"/>
      <path id="Trazado_202713" data-name="Trazado 202713" d="M3977.277,8137.816a1.38,1.38,0,0,0,.009-.21c-.079-2.058-.165-4.123-.244-6.189-.086-2.182-.113-4.382-.25-6.562q-.1-2.454-.19-4.889a3.365,3.365,0,0,1,.03-.756c.13-.68.666-.536.972-.182a15.545,15.545,0,0,1,1.124,1.9c.415.689.826,1.4,1.246,2.066q1.313,2.1,2.7,4.019a20.348,20.348,0,0,0-1.778-3.731,22.8,22.8,0,0,1-2.012-4.744,2.257,2.257,0,0,1-.125-.832,1.926,1.926,0,0,1,1.165-1.445,5.627,5.627,0,0,1,1.582-.479,11.753,11.753,0,0,1,3.181-.1,13.726,13.726,0,0,0,5.393-.708,1.5,1.5,0,0,0,.261-.086l-1.437-.134-2.323-.212a13.5,13.5,0,0,1-5.2-.487,1.46,1.46,0,0,1-.988-.88c-.585-1.531.695-2.917,1.248-3.577.64-.767,1.314-1.446,1.975-2.163a.154.154,0,0,0,.039-.1c.008-.21-.857.25-.91.286a9.418,9.418,0,0,0-1.141,1.015c-.42.4-.812.881-1.212,1.331-.311.353-.854,1.166-1.279,1.022a.742.742,0,0,1-.327-.315,8.42,8.42,0,0,1-.893-3.712c-.268-3.138-.571-6.284-.769-9.442-.073-1.177-.136-2.353-.237-3.529-.048-.594-.1-1.187-.188-1.761-.019-.123-.168-1.09-.254-.688a.583.583,0,0,0-.009.2c.08,2.066.165,4.132.238,6.188.086,2.182.119,4.392.255,6.573q.086,2.438.184,4.888a3.294,3.294,0,0,1-.025.757c-.134.679-.671.535-.971.181a14.743,14.743,0,0,1-1.13-1.9c-.417-.7-.82-1.4-1.247-2.075-.87-1.387-1.77-2.726-2.689-4.018a19.682,19.682,0,0,0,1.772,3.74,22.717,22.717,0,0,1,2.013,4.736,2.493,2.493,0,0,1,.131.841,1.937,1.937,0,0,1-1.171,1.445,5.914,5.914,0,0,1-1.576.479,11.836,11.836,0,0,1-3.187.1,13.418,13.418,0,0,0-5.371.7h-.006a1.544,1.544,0,0,0-.277.1l1.468.125,2.3.21a13.777,13.777,0,0,1,5.2.487,1.485,1.485,0,0,1,.983.891c.59,1.53-.695,2.908-1.243,3.568-.646.765-1.32,1.444-1.974,2.171a.115.115,0,0,0-.043.1c-.011.2.854-.258.908-.3a8.359,8.359,0,0,0,1.142-1.015c.418-.4.811-.87,1.211-1.329.316-.354.859-1.168,1.279-1.024a.842.842,0,0,1,.331.326,8.244,8.244,0,0,1,.887,3.7c.269,3.147.577,6.295.774,9.443.074,1.186.131,2.361.233,3.54.052.583.106,1.176.193,1.759C3977.036,8137.243,3977.185,8138.208,3977.277,8137.816Z" transform="translate(-3629.684 -7871.574)" fill="#0f2771"/>
      <path id="Trazado_202714" data-name="Trazado 202714" d="M3730.4,8018.2a.28.28,0,0,1,.077-.006c.753.05,1.51.1,2.267.153.8.055,1.6.071,2.4.158l1.79.119a.727.727,0,0,0,.276-.019c.25-.082.2-.421.066-.613a6.116,6.116,0,0,0-.7-.709c-.253-.263-.512-.521-.757-.786-.512-.553-1-1.117-1.471-1.7a6.885,6.885,0,0,1,1.365,1.121,7.213,7.213,0,0,0,1.737,1.271.523.523,0,0,0,.306.078c.294-.042.455-.491.528-.734a5.484,5.484,0,0,0,.176-1,12.789,12.789,0,0,0,.039-2.007,14.6,14.6,0,0,1,.259-3.4,1.31,1.31,0,0,1,.032-.165l.049.906.077,1.466a14.518,14.518,0,0,0,.179,3.276.939.939,0,0,0,.323.624c.561.369,1.068-.438,1.31-.787.28-.4.528-.829.792-1.246.011-.014.018-.022.035-.023.077-.006-.092.54-.106.573a6.031,6.031,0,0,1-.371.72c-.147.265-.322.512-.488.764-.129.2-.426.539-.374.809a.451.451,0,0,0,.116.205,2.131,2.131,0,0,0,1.359.563c1.148.169,2.3.36,3.457.485.432.047.862.085,1.293.149a6.108,6.108,0,0,1,.644.118c.045.013.4.106.253.16a.118.118,0,0,1-.074.007c-.757-.05-1.513-.1-2.267-.15-.8-.055-1.608-.074-2.407-.161-.6-.035-1.191-.075-1.79-.116a.729.729,0,0,0-.277.017c-.249.085-.2.423-.067.611a5.992,5.992,0,0,0,.7.715c.255.262.512.516.76.785.508.548,1,1.116,1.472,1.7a6.543,6.543,0,0,1-1.37-1.118,7.2,7.2,0,0,0-1.734-1.27.562.562,0,0,0-.308-.082c-.295.041-.456.494-.529.738a5.832,5.832,0,0,0-.175.994,12.882,12.882,0,0,0-.039,2.01,14.177,14.177,0,0,1-.256,3.388v0a1.367,1.367,0,0,1-.035.175l-.045-.926-.077-1.448a14.744,14.744,0,0,0-.178-3.276.937.937,0,0,0-.326-.62c-.561-.373-1.065.438-1.307.783-.28.407-.529.833-.795,1.245a.041.041,0,0,1-.035.028c-.073.006.095-.54.108-.573a5.452,5.452,0,0,1,.371-.721c.148-.264.32-.512.488-.764.129-.2.428-.542.375-.807a.49.49,0,0,0-.12-.209,2.078,2.078,0,0,0-1.354-.56c-1.153-.171-2.305-.364-3.458-.489-.435-.046-.866-.082-1.3-.146-.213-.033-.431-.067-.645-.122C3730.607,8018.353,3730.252,8018.258,3730.4,8018.2Z" transform="translate(-3668.365 -7885.101)" fill="#0f2771"/>
      <path id="Trazado_202715" data-name="Trazado 202715" d="M3780.419,8214.8a.789.789,0,0,1,0-.129c.046-1.234.1-2.477.146-3.717.053-1.311.068-2.633.15-3.943.038-.984.076-1.961.113-2.937a2.032,2.032,0,0,0-.018-.455c-.078-.408-.4-.322-.584-.107a8.994,8.994,0,0,0-.676,1.143c-.249.414-.5.84-.748,1.242-.527.838-1.064,1.643-1.62,2.412a12.219,12.219,0,0,1,1.068-2.24,13.743,13.743,0,0,0,1.209-2.852,1.361,1.361,0,0,0,.075-.5,1.158,1.158,0,0,0-.7-.867,3.335,3.335,0,0,0-.95-.287,7.114,7.114,0,0,0-1.911-.064,8.265,8.265,0,0,1-3.24-.424.785.785,0,0,1-.156-.053l.861-.08,1.4-.127a8.094,8.094,0,0,0,3.122-.293.881.881,0,0,0,.593-.529c.351-.92-.417-1.754-.75-2.148-.385-.461-.79-.869-1.187-1.3a.084.084,0,0,1-.022-.057c-.006-.127.514.15.545.172a5.829,5.829,0,0,1,.686.609c.253.242.489.529.728.8.188.213.514.7.77.615a.44.44,0,0,0,.2-.189,5.044,5.044,0,0,0,.537-2.23c.161-1.885.343-3.777.461-5.674.044-.706.082-1.413.144-2.12.028-.356.061-.713.112-1.058.011-.075.1-.656.152-.414a.32.32,0,0,1,.006.121c-.048,1.241-.1,2.483-.143,3.72-.052,1.308-.072,2.638-.154,3.949-.034.977-.072,1.953-.111,2.936a2.026,2.026,0,0,0,.015.455c.082.408.4.322.584.109a8.88,8.88,0,0,0,.679-1.145c.25-.418.493-.838.749-1.246.523-.834,1.065-1.639,1.616-2.416a11.752,11.752,0,0,1-1.064,2.248,13.664,13.664,0,0,0-1.209,2.846,1.473,1.473,0,0,0-.079.506,1.157,1.157,0,0,0,.7.867,3.472,3.472,0,0,0,.946.289,7.059,7.059,0,0,0,1.915.063,8.084,8.084,0,0,1,3.228.42h0a1.08,1.08,0,0,1,.167.057l-.882.076-1.379.125a8.3,8.3,0,0,0-3.122.293.9.9,0,0,0-.59.535c-.356.92.417,1.748.746,2.146.388.459.793.865,1.186,1.3a.073.073,0,0,1,.027.059c.005.119-.514-.156-.546-.18a4.958,4.958,0,0,1-.687-.609c-.251-.242-.487-.521-.727-.8-.19-.211-.517-.7-.769-.615a.509.509,0,0,0-.2.2,4.978,4.978,0,0,0-.533,2.225c-.162,1.893-.346,3.783-.465,5.674-.044.713-.08,1.42-.14,2.127-.033.352-.064.707-.117,1.057C3780.565,8214.451,3780.475,8215.031,3780.419,8214.8Z" transform="translate(-3661.358 -7855.724)" fill="#0f2771"/>
      <g id="Grupo_144908" data-name="Grupo 144908" transform="translate(17.848)">
        <path id="Trazado_202716" data-name="Trazado 202716" d="M3807.411,8081.926a14.986,14.986,0,0,1-5.078-.9c-7.915-2.85-17.744-12.544-26.417-21.1-4.282-4.224-8.323-8.208-12.209-11.5-8.35-7.086-22.676-11.663-36.5-11.663-6.385,0-15.449.992-22.379,5.722-8.148,5.562-11.869,11.658-11.056,18.121.553,4.4,3.56,10.492,14.741,14.558a.583.583,0,1,1-.4,1.1c-11.733-4.267-14.9-10.788-15.5-15.507-.872-6.933,3.015-13.4,11.555-19.231,7.174-4.9,16.487-5.924,23.037-5.924,14.082,0,28.7,4.686,37.251,11.939,3.92,3.325,7.977,7.326,12.27,11.56,8.591,8.474,18.324,18.072,26,20.835a13.834,13.834,0,0,0,4.684.832c7.949,0,16.092-7.171,21.251-18.716,1.089-3.333,2.18-7.054,3.239-10.652a.583.583,0,0,1,1.118.328c-1.06,3.607-2.154,7.336-3.271,10.744C3824.377,8074.491,3815.826,8081.926,3807.411,8081.926Z" transform="translate(-3692.498 -7880.846)" fill="#0f2771"/>
        <path id="Trazado_202717" data-name="Trazado 202717" d="M3758.933,8124.743a.58.58,0,0,1-.485-.26,269.174,269.174,0,0,1-14.816-24.742.583.583,0,1,1,1.039-.53,268.3,268.3,0,0,0,14.748,24.627.583.583,0,0,1-.485.905Z" transform="translate(-3684.021 -7870.339)" fill="#0f2771"/>
        <path id="Trazado_202718" data-name="Trazado 202718" d="M3803.013,8267.284a.653.653,0,0,1-.128-.014.582.582,0,0,1-.439-.7c8.782-38.81,11.245-80.239,9.063-91.166a83.974,83.974,0,0,1-9.161-4.985,96.924,96.924,0,0,1-17.391-13.875.583.583,0,1,1,.813-.835,95.9,95.9,0,0,0,17.187,13.717,82.89,82.89,0,0,0,9.31,5.044.581.581,0,0,1,.324.4c2.3,10.579-.113,52.65-9.008,91.955A.583.583,0,0,1,3803.013,8267.284Z" transform="translate(-3677.18 -7860.935)" fill="#0f2771"/>
        <path id="Trazado_202719" data-name="Trazado 202719" d="M3918.446,8267.981a.584.584,0,0,1-.583-.557c-2.1-49.281-2.95-82.381-2.281-88.541a.583.583,0,0,1,1.159.126c-.662,6.105.192,39.14,2.288,88.364a.584.584,0,0,1-.559.607Z" transform="translate(-3655.504 -7857.146)" fill="#0f2771"/>
        <path id="Trazado_202720" data-name="Trazado 202720" d="M3930.882,8154.274a.585.585,0,0,1-.5-.882c10.812-18.219,18.71-46.421,21.6-57.7a.583.583,0,0,1,1.13.29c-2.907,11.328-10.844,39.659-21.732,58.007A.58.58,0,0,1,3930.882,8154.274Z" transform="translate(-3653.023 -7870.942)" fill="#0f2771"/>
        <path id="Trazado_202721" data-name="Trazado 202721" d="M3944,8051.133a.585.585,0,0,1-.547-.786c7.465-20.187,20.987-52.395,40.188-95.73.966-2.181,1.589-3.591,1.789-4.057a10.3,10.3,0,0,0-1.1-9.844.582.582,0,1,1,.972-.642,11.448,11.448,0,0,1,1.2,10.944c-.2.468-.826,1.882-1.8,4.07-18.188,41.048-31.273,72.1-38.941,92.4,8.415-11.114,35.092-45.013,49.8-48.453a15.644,15.644,0,0,1,3.546-.4c8.618,0,18.079,6.963,21.181,13.21,2.106,4.244,1.815,8.818-.777,12.236l-1,1.3a.582.582,0,1,1-.924-.709l.995-1.3a10.3,10.3,0,0,0,.658-11.009c-2.949-5.942-11.944-12.563-20.136-12.563a14.464,14.464,0,0,0-3.279.37c-14.54,3.4-41.557,37.975-49.489,48.489-.53.7-1.174,1.471-1.912,2.282A.581.581,0,0,1,3944,8051.133Z" transform="translate(-3650.845 -7896.746)" fill="#0f2771"/>
        <path id="Trazado_202722" data-name="Trazado 202722" d="M3921.813,8012.266a.581.581,0,0,1-.563-.735c9.419-34.753,24.774-83.474,26.824-89.657a10.246,10.246,0,0,0-1.6-9.287c-4-5.549-13.3-8.543-20.013-8.543a17.944,17.944,0,0,0-9.667,2.5c-13.975,8.742-30.071,55.154-34.672,69.171a.583.583,0,1,1-1.107-.363c4.63-14.11,20.854-60.847,35.16-69.8a19.1,19.1,0,0,1,10.286-2.678c7,0,16.727,3.163,20.958,9.026a11.4,11.4,0,0,1,1.762,10.336c-1.909,5.755-15.352,48.39-24.792,82.275l.081-.189c5.8-13.668,25.9-58.866,40.918-66.582a.583.583,0,0,1,.533,1.038c-14.667,7.536-34.614,52.422-40.378,66-.8,1.88-1.9,4.351-3.2,7.146A.583.583,0,0,1,3921.813,8012.266Z" transform="translate(-3661.209 -7902.877)" fill="#0f2771"/>
        <path id="Trazado_202723" data-name="Trazado 202723" d="M3876.667,8017.02h0a.58.58,0,0,1-.582-.583c.056-29.658,4.852-91.68,5.557-98.049a9.982,9.982,0,0,0-2.562-7.842c-3.875-4.33-10.415-4.976-13.967-4.976-6.374,0-12.1,2-15.7,5.483-9.9,9.574-13.35,35.255-15.8,58.575l-.3,2.86c-.3,2.75-.643,6.605-1.042,11.069a.592.592,0,0,1-.633.528.584.584,0,0,1-.528-.634c.4-4.468.746-8.327,1.045-11.089l.3-2.857c2.473-23.523,5.965-49.445,16.149-59.291,3.822-3.692,9.841-5.812,16.514-5.812,3.748,0,10.659.7,14.836,5.363a11.137,11.137,0,0,1,2.852,8.749c-.7,6.361-5.494,68.3-5.55,97.921A.584.584,0,0,1,3876.667,8017.02Z" transform="translate(-3669.491 -7902.624)" fill="#0f2771"/>
      </g>
    </g>
    <g id="Grupo_144929" data-name="Grupo 144929" transform="translate(245.907 -11021.049)">
      <g id="Grupo_144910" data-name="Grupo 144910">
        <path id="Trazado_202724" data-name="Trazado 202724" d="M3834.315,8197.723c-26.6-6.487-46.15-20.754-51.612-45.331s28.946-55.981,37.412-78.1,12.562-59.257,36.864-61.715,64.993,6.827,79.739,18.843,38.226,49.7,35.5,63.354-11.851,48.475-23.758,68.541-19.934,37.412-39.049,40.69S3867.9,8205.915,3834.315,8197.723Z" transform="translate(-3686.373 -7893.478)" fill="#ffc3bd"/>
        <path id="Trazado_202725" data-name="Trazado 202725" d="M3831.457,8039.8c5.136-12.76,7.867-54.267,9.323-67.738s4.476-47.753,13.836-56.8c5.461-5.279,19.979-3.869,19.434,1.047s-7.74,94.173-4.962,113.1C3849.882,8048.884,3831.457,8039.8,3831.457,8039.8Z" transform="translate(-3678.183 -7910.125)" fill="#ffc3bd"/>
        <path id="Trazado_202726" data-name="Trazado 202726" d="M3868.242,8041.154c7.676-11.414,18.974-51.448,23.2-64.322s20.454-58.2,31.489-65.107c6.439-4.03,21.622,1.824,20.067,6.519s-33.173,104.335-34.392,123.429C3885.772,8056.729,3868.242,8041.154,3868.242,8041.154Z" transform="translate(-3672.077 -7910.377)" fill="#ffc3bd"/>
        <path id="Trazado_202727" data-name="Trazado 202727" d="M3898.159,8059.735c9.05-10.357,26.214-45.459,31.509-57.932s25.289-56.271,36.867-62.221c6.757-3.472,21.392,3.642,19.445,8.188s-45.767,102.053-48.59,120.975C3913.368,8081.826,3898.159,8059.735,3898.159,8059.735Z" transform="translate(-3667.111 -7905.683)" fill="#ffc3bd"/>
        <path id="Trazado_202728" data-name="Trazado 202728" d="M3920.128,8073.385c10.029-6.975,28.888-20.173,36.136-29.78s33.907-43.041,45.164-45.674c6.569-1.537,17.647,7.744,14.993,11.242s-63.608,82.422-69.988,100.427C3923.215,8102.906,3920.128,8073.385,3920.128,8073.385Z" transform="translate(-3663.464 -7895.873)" fill="#ffc3bd"/>
        <path id="Trazado_202729" data-name="Trazado 202729" d="M3835.585,8063.952c-8.4,19.181-23.412,27.874-37.066,22.958s-28.946-23.757-40.961-33.952-38.231-13.29-49.7-5.462-10.014,14.928,2,19.3,40.234,21.482,48.79,38.231,37.563,61.851,62.236,76.546S3835.585,8063.952,3835.585,8063.952Z" transform="translate(-3700.005 -7888.347)" fill="#ffc3bd"/>
        <path id="Trazado_202730" data-name="Trazado 202730" d="M3814.731,8169.5c5.844,9.2,1.116,61.855-7.427,99.607a16.6,16.6,0,0,0,16.154,20.307h88.274a16.573,16.573,0,0,0,16.564-17.275c-1.185-27.855-3.238-80.513-2.242-89.681,1.366-12.571,11.393-30.538,11.393-30.538Z" transform="translate(-3682.263 -7870.282)" fill="#ffc3bd"/>
      </g>
      <g id="Grupo_144911" data-name="Grupo 144911" transform="translate(137.671 146.591)" opacity="0.7">
        <path id="Trazado_202731" data-name="Trazado 202731" d="M3859.992,8187.172a.676.676,0,0,1-.131-.015.584.584,0,0,1-.436-.7c8.368-36.037-3.247-65.249-14.463-83.408a129.417,129.417,0,0,0-26.662-31.138.583.583,0,1,1,.717-.919,130.6,130.6,0,0,1,26.915,31.408c11.344,18.353,23.09,47.88,14.63,84.32A.585.585,0,0,1,3859.992,8187.172Z" transform="translate(-3818.075 -8030.328)" fill="#1a2e35"/>
        <path id="Trazado_202732" data-name="Trazado 202732" d="M3937.689,8103.172a.568.568,0,0,1-.133-.015c-65.131-15.325-91.658-64.275-91.918-64.767a.583.583,0,1,1,1.032-.545c.256.487,26.558,48.979,91.152,64.176a.583.583,0,0,1-.133,1.15Z" transform="translate(-3813.511 -8035.86)" fill="#1a2e35"/>
        <path id="Trazado_202733" data-name="Trazado 202733" d="M3924.9,8142.734a.607.607,0,0,1-.183-.029c-19.611-6.481-35.933-19.686-54.576-44.148-15.079-19.789-31.469-37.718-49.049-34.912a.583.583,0,1,1-.184-1.15c18.224-2.905,34.862,15.279,50.16,35.355,18.489,24.263,34.643,37.345,54.016,43.748a.583.583,0,0,1-.184,1.137Z" transform="translate(-3817.687 -8031.769)" fill="#1a2e35"/>
        <path id="Trazado_202734" data-name="Trazado 202734" d="M3858.886,8200.582a.57.57,0,0,1-.281-.071.583.583,0,0,1-.231-.792c16.741-30.539,14.822-70.383,13.129-105.536-1.065-22.14-2.072-43.05,2.1-57.66a.583.583,0,1,1,1.12.32c-4.124,14.426-3.121,35.244-2.06,57.284,1.7,35.306,3.627,75.324-13.271,106.153A.583.583,0,0,1,3858.886,8200.582Z" transform="translate(-3811.398 -8036.099)" fill="#1a2e35"/>
        <path id="Trazado_202735" data-name="Trazado 202735" d="M3882.577,8147.484a.568.568,0,0,1-.246-.055.583.583,0,0,1-.282-.774c12-25.824,13.239-71.124,10.3-93.609a.583.583,0,0,1,1.157-.15c2.958,22.619,1.7,68.218-10.4,94.253A.579.579,0,0,1,3882.577,8147.484Z" transform="translate(-3807.465 -8033.395)" fill="#1a2e35"/>
        <path id="Trazado_202736" data-name="Trazado 202736" d="M3892.79,8162.021h0a.586.586,0,0,1-.582-.585c.045-32.413,13.048-71.191,28.395-84.68a.583.583,0,0,1,.77.876c-15.131,13.3-27.953,51.678-28,83.807A.584.584,0,0,1,3892.79,8162.021Z" transform="translate(-3805.769 -8029.374)" fill="#1a2e35"/>
        <path id="Trazado_202737" data-name="Trazado 202737" d="M3899.324,8160.188a.583.583,0,0,1-.092-1.158,46.734,46.734,0,0,0,15.584-6,.583.583,0,1,1,.631.98,46.965,46.965,0,0,1-16.028,6.174A.512.512,0,0,1,3899.324,8160.188Z" transform="translate(-3804.684 -8016.704)" fill="#1a2e35"/>
        <path id="Trazado_202738" data-name="Trazado 202738" d="M3898.1,8166.467a.583.583,0,0,1-.092-1.159,46.713,46.713,0,0,0,15.584-6,.583.583,0,0,1,.631.981,47.018,47.018,0,0,1-16.028,6.174A.634.634,0,0,1,3898.1,8166.467Z" transform="translate(-3804.887 -8015.662)" fill="#1a2e35"/>
        <path id="Trazado_202739" data-name="Trazado 202739" d="M3896.547,8172.743a.583.583,0,0,1-.092-1.158,46.7,46.7,0,0,0,15.583-6,.584.584,0,0,1,.631.982,47,47,0,0,1-16.027,6.174A.612.612,0,0,1,3896.547,8172.743Z" transform="translate(-3805.146 -8014.62)" fill="#1a2e35"/>
      </g>
      <g id="Grupo_144928" data-name="Grupo 144928" transform="translate(130.158 11.45)">
        <g id="Grupo_144912" data-name="Grupo 144912" transform="translate(177.383 119.101)">
          <path id="Trazado_202740" data-name="Trazado 202740" d="M3964.345,8035.221a.582.582,0,0,1-.444-.96,40.332,40.332,0,0,0,4.135-5.867,8.334,8.334,0,0,0,1.418-4.182.931.931,0,0,0-.16-.615.594.594,0,0,0-.629,0,2.941,2.941,0,0,0-.823.8.583.583,0,0,1-.912-.727,3.908,3.908,0,0,1,1.2-1.112,1.724,1.724,0,0,1,1.985.206,1.963,1.963,0,0,1,.506,1.42,9.31,9.31,0,0,1-1.576,4.79,41.183,41.183,0,0,1-4.254,6.038A.583.583,0,0,1,3964.345,8035.221Z" transform="translate(-3963.761 -8022.343)" fill="#007cff"/>
          <path id="Trazado_202741" data-name="Trazado 202741" d="M3966.406,8036.882a.584.584,0,0,1-.444-.961,40.025,40.025,0,0,0,4.135-5.867,8.313,8.313,0,0,0,1.418-4.18.929.929,0,0,0-.16-.617.593.593,0,0,0-.628,0,2.939,2.939,0,0,0-.823.8.582.582,0,0,1-.911-.727,3.887,3.887,0,0,1,1.2-1.111,1.723,1.723,0,0,1,1.986.205,1.959,1.959,0,0,1,.506,1.419,9.307,9.307,0,0,1-1.575,4.79,41.066,41.066,0,0,1-4.254,6.039A.582.582,0,0,1,3966.406,8036.882Z" transform="translate(-3963.419 -8022.067)" fill="#007cff"/>
          <path id="Trazado_202742" data-name="Trazado 202742" d="M3969.9,8041.551a1.505,1.505,0,0,1-1.184-.472c-.724-.812-.87-2.594,3.531-9.67a7.7,7.7,0,0,0,1.41-4.163.937.937,0,0,0-.159-.615.591.591,0,0,0-.628,0,2.884,2.884,0,0,0-.823.8.583.583,0,1,1-.912-.728,3.9,3.9,0,0,1,1.2-1.111,1.72,1.72,0,0,1,1.985.205,2.05,2.05,0,0,1,.505,1.418,8.81,8.81,0,0,1-1.584,4.809c-4.316,6.936-3.8,8.112-3.652,8.277.117.132.746.187,2.275-.536a.583.583,0,0,1,.5,1.054A6.334,6.334,0,0,1,3969.9,8041.551Z" transform="translate(-3963.004 -8021.839)" fill="#007cff"/>
        </g>
        <path id="Trazado_202743" data-name="Trazado 202743" d="M3854.254,7934.847a.583.583,0,0,1-.578-.517c-.505-4.381,2.379-8.2,5.247-10.312a6.192,6.192,0,0,1,3.665-1.437,3.013,3.013,0,0,1,3.043,2.729.583.583,0,0,1-.579.587.615.615,0,0,1-.587-.579c-.005-.876-1.008-1.552-1.9-1.57a5.254,5.254,0,0,0-2.946,1.21c-2.606,1.92-5.229,5.354-4.781,9.24a.582.582,0,0,1-.512.646A.544.544,0,0,1,3854.254,7934.847Z" transform="translate(-3804.663 -7919.803)" fill="#007cff"/>
        <path id="Trazado_202744" data-name="Trazado 202744" d="M3855.962,7929.419a.5.5,0,0,1-.136-.017.583.583,0,0,1-.431-.7,4.433,4.433,0,0,0-.447-3.555c-.558-.776-1.806-1.621-2.692-1.19a1.653,1.653,0,0,0-.794,1.374.583.583,0,0,1-1.166-.044,2.8,2.8,0,0,1,1.45-2.38c1.547-.751,3.356.46,4.148,1.56a5.437,5.437,0,0,1,.636,4.51A.585.585,0,0,1,3855.962,7929.419Z" transform="translate(-3805.214 -7919.787)" fill="#007cff"/>
        <g id="Grupo_144913" data-name="Grupo 144913" transform="translate(41.811 31.849)">
          <path id="Trazado_202745" data-name="Trazado 202745" d="M3853.372,7962.337a9.489,9.489,0,0,1-1.486-.121c-2.316-.367-3.828-1.566-4.258-3.374a6.53,6.53,0,0,1,1.833-5.933h0a5.613,5.613,0,0,1,9.552,4.459,5.194,5.194,0,0,1-1.4,3.425A5.835,5.835,0,0,1,3853.372,7962.337Zm.056-9.873a4.593,4.593,0,0,0-3.167,1.29h0a5.375,5.375,0,0,0-1.5,4.817c.4,1.69,2.02,2.288,3.306,2.492.95.15,3.308.348,4.716-1.086a4.007,4.007,0,0,0,1.063-2.651,4.568,4.568,0,0,0-2.178-4.275A4.645,4.645,0,0,0,3853.428,7952.464Zm-3.568.867h0Z" transform="translate(-3847.491 -7946.884)" fill="#007cff"/>
          <path id="Trazado_202746" data-name="Trazado 202746" d="M3853.51,7952.631a6.981,6.981,0,0,1-1.762-.194,3.416,3.416,0,0,1-2.671-3.39.583.583,0,0,1,.573-.594.555.555,0,0,1,.593.572,2.249,2.249,0,0,0,1.8,2.283,7.906,7.906,0,0,0,2.327.133,4.144,4.144,0,0,0,2.086-.445c.878-.575,1.163-1.8,1.379-3a.583.583,0,1,1,1.147.207c-.206,1.144-.515,2.874-1.889,3.772a5.207,5.207,0,0,1-2.676.635C3854.139,7952.618,3853.831,7952.631,3853.51,7952.631Z" transform="translate(-3847.228 -7947.513)" fill="#007cff"/>
        </g>
        <g id="Grupo_144914" data-name="Grupo 144914" transform="translate(35.592 69.688)">
          <path id="Trazado_202747" data-name="Trazado 202747" d="M3851.711,7982.389a28.516,28.516,0,0,1-8.463-1.285.582.582,0,1,1,.346-1.112,27.36,27.36,0,0,0,14.566.46.583.583,0,1,1,.276,1.133A28.5,28.5,0,0,1,3851.711,7982.389Z" transform="translate(-3842.044 -7979.965)" fill="#007cff"/>
          <path id="Trazado_202748" data-name="Trazado 202748" d="M3857.594,7995.5a.621.621,0,0,1-.19-.031,27.353,27.353,0,0,0-14.543-.913.583.583,0,1,1-.239-1.141,28.514,28.514,0,0,1,15.164.95.583.583,0,0,1-.191,1.135Z" transform="translate(-3842.157 -7977.834)" fill="#007cff"/>
          <path id="Trazado_202749" data-name="Trazado 202749" d="M3846.111,7996.041a.619.619,0,0,1-.112-.01.585.585,0,0,1-.462-.686,44.447,44.447,0,0,0,.4-13.994.583.583,0,0,1,.5-.654.591.591,0,0,1,.654.5,45.7,45.7,0,0,1-.409,14.372A.584.584,0,0,1,3846.111,7996.041Z" transform="translate(-3841.598 -7979.844)" fill="#007cff"/>
          <path id="Trazado_202750" data-name="Trazado 202750" d="M3852.652,7996.55a.582.582,0,0,1-.582-.558c-.11-2.481-.064-5.222-.015-8.122.035-2.077.069-4.225.048-6.335a.585.585,0,0,1,.576-.591.579.579,0,0,1,.59.578c.021,2.127-.013,4.282-.048,6.367-.049,2.883-.095,5.606.014,8.052a.585.585,0,0,1-.556.608Z" transform="translate(-3840.522 -7979.802)" fill="#007cff"/>
        </g>
        <g id="Grupo_144915" data-name="Grupo 144915" transform="translate(114.806)">
          <path id="Trazado_202751" data-name="Trazado 202751" d="M3919.685,7935.855a4.647,4.647,0,0,1-1.329-.206,2.589,2.589,0,0,1-2.065-2.185,3.508,3.508,0,0,1,1.409-3.045h0a3.062,3.062,0,0,1,4.834,3.1,2.839,2.839,0,0,1-1.018,1.763A2.937,2.937,0,0,1,3919.685,7935.855Zm-1.3-4.49a2.355,2.355,0,0,0-.929,1.986c.055.552.472.95,1.242,1.181a2.481,2.481,0,0,0,2.108-.169,1.674,1.674,0,0,0,.584-1.042,1.98,1.98,0,0,0-.665-1.944,1.953,1.953,0,0,0-2.34-.012Z" transform="translate(-3909.067 -7918.602)" fill="#007cff"/>
          <path id="Trazado_202752" data-name="Trazado 202752" d="M3911.941,7932.357a.6.6,0,0,1-.187-.03.583.583,0,0,1-.365-.74,30.172,30.172,0,0,1,3.422-6.468c.417-.651.833-1.3,1.231-1.963.268-.445.555-1,.381-1.371a.878.878,0,0,0-.684-.406,3.832,3.832,0,0,0-1.2.114.583.583,0,1,1-.225-1.144,4.755,4.755,0,0,1,1.585-.126,2,2,0,0,1,1.579,1.061,2.624,2.624,0,0,1-.436,2.475c-.4.669-.824,1.328-1.245,1.988a29.382,29.382,0,0,0-3.3,6.214A.585.585,0,0,1,3911.941,7932.357Z" transform="translate(-3909.884 -7920.197)" fill="#007cff"/>
          <path id="Trazado_202753" data-name="Trazado 202753" d="M3918.425,7932.63a.585.585,0,0,1-.556-.4c-.543-1.7.7-3.1,1.7-4.224.27-.306.53-.6.736-.878.74-1.009,1.082-2.211.776-2.739-.22-.382-.838-.4-1.322-.347a11.84,11.84,0,0,0-4.868,1.947.583.583,0,0,1-.695-.937,13,13,0,0,1,5.435-2.17c1.51-.166,2.165.412,2.461.923.638,1.1.035,2.813-.846,4.013-.225.307-.508.629-.806.962-.884,1-1.8,2.023-1.454,3.094a.583.583,0,0,1-.379.732A.553.553,0,0,1,3918.425,7932.63Z" transform="translate(-3909.452 -7919.757)" fill="#007cff"/>
          <path id="Trazado_202754" data-name="Trazado 202754" d="M3911.291,7936.229a2.234,2.234,0,0,1-.834-.161.583.583,0,0,1-.321-.758,3.491,3.491,0,0,1,2.056-1.792,10.667,10.667,0,0,1,5.736-.736.582.582,0,1,1-.17,1.152,9.524,9.524,0,0,0-4.248.338,2.224,2.224,0,0,1-2.22,1.957Z" transform="translate(-3910.094 -7918.128)" fill="#007cff"/>
        </g>
        <g id="Grupo_144916" data-name="Grupo 144916" transform="translate(96.779 39.366)">
          <path id="Trazado_202755" data-name="Trazado 202755" d="M3915.1,7959.865a.583.583,0,0,1-.186-1.136,1.22,1.22,0,0,0,.75-.738.4.4,0,0,0,.035-.214c-.007-.019-.215-.481-2.578-.238a8.018,8.018,0,0,0-1.78.394l-.234.077a4.114,4.114,0,0,0-1.152.5.583.583,0,0,1-.956-.668l0,0a9.519,9.519,0,0,0,.9-1.648,8.516,8.516,0,0,0-2.915.353l-.292.085a7.631,7.631,0,0,0-2.621,1.091.583.583,0,0,1-.8-.847h0l0,0a5.308,5.308,0,0,0,1.06-1.719A10.258,10.258,0,0,0,3898,7956.8a.583.583,0,0,1-.59-1,11.1,11.1,0,0,1,7.1-1.772,1.164,1.164,0,0,1,.639.227.957.957,0,0,1,.362.741,2.04,2.04,0,0,1-.176.831c.365-.118.723-.222,1.044-.313l.285-.082a8.438,8.438,0,0,1,3.552-.322,1.091,1.091,0,0,1,.705.338,1.01,1.01,0,0,1,.117,1.072c-.05.118-.1.232-.151.346l.078-.027a9.2,9.2,0,0,1,2.04-.448c1.531-.159,3.337-.189,3.787.979a1.451,1.451,0,0,1-.022,1.019,2.386,2.386,0,0,1-1.48,1.458A.581.581,0,0,1,3915.1,7959.865Z" transform="translate(-3894.221 -7953.959)" fill="#007cff"/>
          <path id="Trazado_202756" data-name="Trazado 202756" d="M3912.617,7964.1a.583.583,0,0,1-.186-1.137,1.22,1.22,0,0,0,.75-.737.4.4,0,0,0,.034-.214c-.007-.02-.208-.482-2.578-.238a7.961,7.961,0,0,0-1.779.394l-.235.076a4.084,4.084,0,0,0-1.151.5.6.6,0,0,1-.815.112.567.567,0,0,1-.141-.781h0a9.727,9.727,0,0,0,.9-1.651,8.49,8.49,0,0,0-2.917.354l-.292.084a7.626,7.626,0,0,0-2.619,1.091h0a.584.584,0,1,1-.8-.848l0,0a5.246,5.246,0,0,0,1.059-1.719,10.252,10.252,0,0,0-6.339,1.646.582.582,0,1,1-.589-1,11.084,11.084,0,0,1,7.1-1.771,1.163,1.163,0,0,1,.638.225.963.963,0,0,1,.362.744,2.049,2.049,0,0,1-.175.83c.361-.119.721-.222,1.04-.312l.286-.083a8.439,8.439,0,0,1,3.554-.324,1.1,1.1,0,0,1,.705.338,1.007,1.007,0,0,1,.113,1.078c-.049.115-.1.229-.149.34l.08-.025a9.213,9.213,0,0,1,2.04-.45c1.525-.157,3.337-.188,3.787.979a1.466,1.466,0,0,1-.024,1.022,2.371,2.371,0,0,1-1.478,1.454A.611.611,0,0,1,3912.617,7964.1Z" transform="translate(-3894.634 -7953.256)" fill="#007cff"/>
        </g>
        <g id="Grupo_144917" data-name="Grupo 144917" transform="translate(87.742 73.706)">
          <path id="Trazado_202757" data-name="Trazado 202757" d="M3898.57,8002.122a.583.583,0,0,1-.56-.419c-1.795-6.121-.5-11.572,3.637-15.349a.582.582,0,1,1,.785.86c-3.845,3.511-4.988,8.406-3.3,14.159a.584.584,0,0,1-.4.725A.554.554,0,0,1,3898.57,8002.122Z" transform="translate(-3885.167 -7982.947)" fill="#007cff"/>
          <path id="Trazado_202758" data-name="Trazado 202758" d="M3887.466,7999.217a.582.582,0,0,1-.422-.984,14.46,14.46,0,0,0,3.781-14.1.583.583,0,0,1,1.131-.285,15.772,15.772,0,0,1-4.069,15.186A.578.578,0,0,1,3887.466,7999.217Z" transform="translate(-3886.883 -7983.411)" fill="#007cff"/>
          <path id="Trazado_202759" data-name="Trazado 202759" d="M3901.393,7994.105a.583.583,0,0,1-.268-.064,24.8,24.8,0,0,0-12.193-2.818.583.583,0,1,1-.038-1.165,26.036,26.036,0,0,1,12.768,2.947.583.583,0,0,1-.27,1.1Z" transform="translate(-3886.642 -7982.308)" fill="#007cff"/>
        </g>
        <g id="Grupo_144918" data-name="Grupo 144918" transform="translate(163.727 26.788)">
          <path id="Trazado_202760" data-name="Trazado 202760" d="M3966.826,7952.391h-.038a.584.584,0,0,1-.545-.619c.133-2.086-1.67-3.875-3.208-5.007a13.859,13.859,0,0,0-3.474-1.941,5.332,5.332,0,0,1,.619,1.662,4.5,4.5,0,0,1-.472,3.3,2.026,2.026,0,0,1-1.5.8,3.045,3.045,0,0,1-1.847-.519,7.121,7.121,0,0,1-2.066-2.076,3.666,3.666,0,0,1-.677-1.964,2.545,2.545,0,0,1,.768-1.892,3.874,3.874,0,0,1,2.825-.956,11.773,11.773,0,0,1,6.516,2.647c2.54,1.873,3.812,3.954,3.679,6.021A.582.582,0,0,1,3966.826,7952.391Zm-9.775-8.053a2.707,2.707,0,0,0-1.848.629,1.36,1.36,0,0,0-.417,1.046,2.554,2.554,0,0,0,.486,1.336,5.907,5.907,0,0,0,1.719,1.73,1.885,1.885,0,0,0,1.127.34.858.858,0,0,0,.662-.341,3.362,3.362,0,0,0,.258-2.37,3.923,3.923,0,0,0-1.383-2.334c-.162-.018-.323-.027-.484-.033Z" transform="translate(-3951.789 -7943.173)" fill="#007cff"/>
          <path id="Trazado_202761" data-name="Trazado 202761" d="M3962.415,7957.421l-.162,0a11.781,11.781,0,0,1-6.516-2.648c-2.54-1.872-3.812-3.954-3.678-6.021a.583.583,0,1,1,1.164.074c-.135,2.087,1.669,3.875,3.207,5.008a13.878,13.878,0,0,0,3.474,1.94,5.321,5.321,0,0,1-.619-1.66,4.5,4.5,0,0,1,.473-3.3,2.02,2.02,0,0,1,1.5-.8,3.009,3.009,0,0,1,1.846.519,7.144,7.144,0,0,1,2.067,2.075,3.684,3.684,0,0,1,.676,1.965,2.541,2.541,0,0,1-.766,1.891A3.846,3.846,0,0,1,3962.415,7957.421Zm-.605-1.2c.162.017.323.029.484.033a2.8,2.8,0,0,0,1.971-.625,1.367,1.367,0,0,0,.415-1.046,2.565,2.565,0,0,0-.486-1.337,5.952,5.952,0,0,0-1.718-1.73,1.952,1.952,0,0,0-1.129-.339.848.848,0,0,0-.661.341,3.365,3.365,0,0,0-.259,2.371A3.92,3.92,0,0,0,3961.809,7956.219Z" transform="translate(-3952.05 -7942.337)" fill="#007cff"/>
        </g>
        <path id="Trazado_202762" data-name="Trazado 202762" d="M3948.663,7981.309a1.854,1.854,0,0,1-1.474-.592,1.831,1.831,0,0,1,.4-2.42,6.765,6.765,0,0,1,1.3-.937c.168-.1.337-.2.5-.309,2.116-1.388,3.176-3.879,2.466-5.795a2.406,2.406,0,0,0-2.624-1.63,3.763,3.763,0,0,0-1.129.446c-2.5,1.382-4.007,4.029-3.581,6.3.028.142.061.282.094.423a4.632,4.632,0,0,1,.173,1.255,2.29,2.29,0,0,1-1.133,1.934,2.916,2.916,0,0,1-2.593-.034,3.926,3.926,0,0,1-2.283-2.368,3.178,3.178,0,0,1,1.106-3.293,3.346,3.346,0,0,1,3.656-.4,8.371,8.371,0,0,1,4-4.832,4.94,4.94,0,0,1,1.48-.571,3.575,3.575,0,0,1,3.931,2.373c.894,2.41-.362,5.5-2.919,7.174-.174.113-.354.224-.534.331a5.693,5.693,0,0,0-1.082.767c-.324.322-.442.712-.329.848a1.171,1.171,0,0,0,1.006.124,2.855,2.855,0,0,0,1.9-1.373.583.583,0,0,1,1.042.523,4.006,4.006,0,0,1-2.7,1.989A3.166,3.166,0,0,1,3948.663,7981.309Zm-6.534-6.634a2.474,2.474,0,0,0-1.505.518,2,2,0,0,0-.722,2.063,2.776,2.776,0,0,0,1.633,1.627,1.872,1.872,0,0,0,1.554.082,1.126,1.126,0,0,0,.535-.952,3.72,3.72,0,0,0-.142-.951c-.038-.158-.075-.315-.1-.474a5.407,5.407,0,0,1-.06-1.574.514.514,0,0,1-.35-.111A1.454,1.454,0,0,0,3942.129,7974.675Z" transform="translate(-3790.544 -7912.193)" fill="#007cff"/>
        <g id="Grupo_144919" data-name="Grupo 144919" transform="translate(131.964 95.844)">
          <path id="Trazado_202763" data-name="Trazado 202763" d="M3925.392,8018.3a.583.583,0,0,1-.495-.893,48.249,48.249,0,0,0,3.9-7.706,10.071,10.071,0,0,0,.965-5.273,1.207,1.207,0,0,0-.342-.778.828.828,0,0,0-.885.109,3.59,3.59,0,0,0-.87,1.132.583.583,0,1,1-1.008-.586,4.507,4.507,0,0,1,1.2-1.493,1.946,1.946,0,0,1,2.255-.1,2.357,2.357,0,0,1,.8,1.522,11.1,11.1,0,0,1-1.031,5.9,49.263,49.263,0,0,1-4,7.894A.579.579,0,0,1,3925.392,8018.3Z" transform="translate(-3924.809 -8002.397)" fill="#007cff"/>
          <path id="Trazado_202764" data-name="Trazado 202764" d="M3928.129,8019.914a.576.576,0,0,1-.309-.089.584.584,0,0,1-.185-.8,48.044,48.044,0,0,0,3.9-7.705,10.075,10.075,0,0,0,.965-5.274,1.194,1.194,0,0,0-.343-.777.828.828,0,0,0-.884.108,3.609,3.609,0,0,0-.87,1.133.583.583,0,1,1-1.006-.588,4.5,4.5,0,0,1,1.195-1.49,1.946,1.946,0,0,1,2.256-.1,2.251,2.251,0,0,1,.8,1.521,11.073,11.073,0,0,1-1.032,5.9,49.245,49.245,0,0,1-3.992,7.893A.582.582,0,0,1,3928.129,8019.914Z" transform="translate(-3924.354 -8002.129)" fill="#007cff"/>
          <path id="Trazado_202765" data-name="Trazado 202765" d="M3935.6,8010.161a.774.774,0,0,1-.1-.009.585.585,0,0,1-.47-.678,6.583,6.583,0,0,0,.049-2.32,1.2,1.2,0,0,0-.342-.779.831.831,0,0,0-.885.108,3.607,3.607,0,0,0-.87,1.134.582.582,0,1,1-1.006-.587,4.584,4.584,0,0,1,1.194-1.492,1.949,1.949,0,0,1,2.257-.1,2.353,2.353,0,0,1,.8,1.521,7.752,7.752,0,0,1-.051,2.726A.584.584,0,0,1,3935.6,8010.161Z" transform="translate(-3923.633 -8001.944)" fill="#007cff"/>
          <path id="Trazado_202766" data-name="Trazado 202766" d="M3931.653,8022.061a1.207,1.207,0,0,1-.655-.2,2.036,2.036,0,0,1-.772-1.778,7.135,7.135,0,0,1,.534-2.63c.187-.5.4-.985.62-1.464l.067-.15a55.54,55.54,0,0,1,3.154-6.254c.416-.673.834-1.032,1.278-1.1a1,1,0,0,1,.8.245,2.5,2.5,0,0,1,.557,2.189,15.778,15.778,0,0,1-1.836,5.412l-.182.379c-.537,1.121-1.116,2.263-1.724,3.394-.045.085-.093.184-.146.291-.311.637-.7,1.428-1.4,1.625A1.11,1.11,0,0,1,3931.653,8022.061Zm4.327-12.36a2.294,2.294,0,0,0-.384.5,54.214,54.214,0,0,0-3.085,6.121l-.066.15c-.207.455-.415.92-.594,1.395h0a6.082,6.082,0,0,0-.458,2.205,1.082,1.082,0,0,0,.23.807c.218-.041.557-.733.685-1,.06-.122.114-.233.166-.329.6-1.114,1.169-2.239,1.7-3.346l.185-.382a14.934,14.934,0,0,0,1.726-5A2.182,2.182,0,0,0,3935.98,8009.7Zm-4.675,7.958h0Z" transform="translate(-3923.91 -8001.388)" fill="#007cff"/>
          <path id="Trazado_202767" data-name="Trazado 202767" d="M3933.162,8022.111a.585.585,0,0,1-.567-.442,2.024,2.024,0,0,0-.513-1.117,1.285,1.285,0,0,0-.79-.191,6.085,6.085,0,0,0-.666.07c-.173.024-.346.049-.519.064a5.559,5.559,0,0,1-4.282-1.506.583.583,0,0,1,.808-.84,4.38,4.38,0,0,0,3.369,1.184c.154-.014.307-.035.46-.058a7.021,7.021,0,0,1,.8-.08,2.349,2.349,0,0,1,1.536.433,3.026,3.026,0,0,1,.933,1.76.584.584,0,0,1-.565.724Z" transform="translate(-3924.67 -7999.809)" fill="#007cff"/>
        </g>
        <g id="Grupo_144920" data-name="Grupo 144920" transform="translate(198.718 95.576)">
          <path id="Trazado_202768" data-name="Trazado 202768" d="M3993.078,8014.139a.585.585,0,0,1-.386-.146,10,10,0,0,0-2.323-1.528.582.582,0,0,1,.117-1.094c2.172-.511,4.175-1.121,4.811-2.96a3.328,3.328,0,0,0,.112-.412,3.735,3.735,0,0,0-.765-3.051,5.183,5.183,0,0,0-3.365-1.606,4.2,4.2,0,0,0-2.882.987,6.029,6.029,0,0,0-1.8,2.585,2.305,2.305,0,0,0,.074,2.066.58.58,0,0,1,.011.552.589.589,0,0,1-.454.313,5.461,5.461,0,0,1-3.082-1.208.583.583,0,1,1,.659-.963,8.433,8.433,0,0,0,1.469.823,3.78,3.78,0,0,1,.232-1.994,7.2,7.2,0,0,1,2.153-3.082,5.381,5.381,0,0,1,3.7-1.244,6.283,6.283,0,0,1,4.139,1.98,4.845,4.845,0,0,1,1.052,4.068,4.407,4.407,0,0,1-.152.563c-.691,2-2.544,2.86-4.223,3.352a11.164,11.164,0,0,1,1.287.977.584.584,0,0,1-.386,1.021Z" transform="translate(-3981.92 -8002.167)" fill="#007cff"/>
          <path id="Trazado_202769" data-name="Trazado 202769" d="M3991.828,8014.386a.581.581,0,0,1-.294-.081c-2.969-1.737-6.047-3.386-9.147-4.9a.583.583,0,1,1,.512-1.048c3.127,1.527,6.23,3.19,9.224,4.942a.583.583,0,0,1-.295,1.087Z" transform="translate(-3982.059 -8001.149)" fill="#007cff"/>
        </g>
        <g id="Grupo_144921" data-name="Grupo 144921" transform="translate(155.322 150.899)">
          <path id="Trazado_202770" data-name="Trazado 202770" d="M3946.151,8061.476a.567.567,0,0,1-.358-.124.579.579,0,0,1-.1-.816,78.753,78.753,0,0,1,9.94-10.545.583.583,0,1,1,.772.874,77.763,77.763,0,0,0-9.794,10.388A.58.58,0,0,1,3946.151,8061.476Z" transform="translate(-3944.721 -8049.576)" fill="#007cff"/>
          <path id="Trazado_202771" data-name="Trazado 202771" d="M3955.91,8057.157a.578.578,0,0,1-.575-.684,14.289,14.289,0,0,0-.14-5.638,12,12,0,0,0-5.894.924.583.583,0,0,1-.461-1.071,13.2,13.2,0,0,1,6.9-.966.585.585,0,0,1,.49.434,15.48,15.48,0,0,1,.253,6.52A.582.582,0,0,1,3955.91,8057.157Z" transform="translate(-3944.236 -8049.614)" fill="#007cff"/>
          <path id="Trazado_202772" data-name="Trazado 202772" d="M3947.071,8060.642a.583.583,0,0,1-.259-.061c-.574-.285-1.144-.6-1.7-.943a.583.583,0,0,1,.615-.991c.52.323,1.057.622,1.6.89a.583.583,0,0,1-.259,1.105Z" transform="translate(-3944.842 -8048.129)" fill="#007cff"/>
          <path id="Trazado_202773" data-name="Trazado 202773" d="M3953.058,8060.02a.578.578,0,0,1-.437-.2,48.548,48.548,0,0,0-6.5-6.124.583.583,0,0,1,.717-.919,49.648,49.648,0,0,1,6.654,6.272.584.584,0,0,1-.437.97Z" transform="translate(-3944.667 -8049.11)" fill="#007cff"/>
          <path id="Trazado_202774" data-name="Trazado 202774" d="M3946.131,8054.29a.584.584,0,0,1-.522-.843c.184-.37.383-.731.6-1.082a.583.583,0,1,1,.991.615q-.3.479-.548.985A.585.585,0,0,1,3946.131,8054.29Z" transform="translate(-3944.725 -8049.204)" fill="#007cff"/>
          <path id="Trazado_202775" data-name="Trazado 202775" d="M3951.825,8059.805a.583.583,0,0,1-.328-1.064q.514-.35,1.056-.648a.583.583,0,1,1,.563,1.021q-.5.272-.963.59A.569.569,0,0,1,3951.825,8059.805Z" transform="translate(-3943.779 -8048.218)" fill="#007cff"/>
        </g>
        <g id="Grupo_144922" data-name="Grupo 144922" transform="translate(0 226.777)">
          <path id="Trazado_202776" data-name="Trazado 202776" d="M3819.885,8128.791a10.907,10.907,0,0,1-3.809-.746c-2.79-1.05-4.368-2.921-4.44-5.267a8.345,8.345,0,0,1,3.813-6.945h0a7.146,7.146,0,0,1,10.771,8.011,6.172,6.172,0,0,1-6.335,4.947Zm-3.821-11.968a7.183,7.183,0,0,0-3.263,5.919c.073,2.362,2.045,3.595,3.685,4.211,1.2.452,4.232,1.34,6.474-.171a5.419,5.419,0,0,0,2.128-3.214,5.983,5.983,0,0,0-9.024-6.745Z" transform="translate(-3811.632 -8114.689)" fill="#007cff"/>
          <path id="Trazado_202777" data-name="Trazado 202777" d="M3814.241,8134a.565.565,0,0,1-.208-.039.583.583,0,0,1-.336-.752,71.212,71.212,0,0,0,2.373-7.345.583.583,0,1,1,1.126.3,72.361,72.361,0,0,1-2.41,7.461A.584.584,0,0,1,3814.241,8134Z" transform="translate(-3811.296 -8112.907)" fill="#007cff"/>
          <path id="Trazado_202778" data-name="Trazado 202778" d="M3819.281,8131.781a.69.69,0,0,1-.153-.02c-2.234-.6-4.519-1.131-6.793-1.563a.583.583,0,1,1,.218-1.146c2.3.438,4.616.971,6.879,1.582a.583.583,0,0,1-.152,1.146Z" transform="translate(-3811.594 -8112.307)" fill="#007cff"/>
        </g>
        <g id="Grupo_144923" data-name="Grupo 144923" transform="translate(136.404 172.139)">
          <path id="Trazado_202779" data-name="Trazado 202779" d="M3935.854,8081.032a6.721,6.721,0,0,1-3.862-1.413c-1.721-1.25-2.451-2.844-2.054-4.489a5.913,5.913,0,0,1,3.915-4.041,5.094,5.094,0,0,1,5.894,7.531,4.706,4.706,0,0,1-2.542,2.2A4.226,4.226,0,0,1,3935.854,8081.032Zm-.463-9a4.251,4.251,0,0,0-1.206.178h0a4.756,4.756,0,0,0-3.114,3.2,3.211,3.211,0,0,0,1.606,3.271c.689.5,2.476,1.6,4.157,1.038a3.539,3.539,0,0,0,1.893-1.659,3.908,3.908,0,0,0-3.336-6.025Zm-1.371-.381h0Z" transform="translate(-3928.415 -8067.327)" fill="#007cff"/>
          <path id="Trazado_202780" data-name="Trazado 202780" d="M3940.763,8075.345c-.1,0-.194,0-.293-.013a5.179,5.179,0,0,1-2.492-1.166,9,9,0,0,1-1.988-1.792,3.413,3.413,0,0,1,.013-4.315.583.583,0,1,1,.926.708,2.248,2.248,0,0,0-.007,2.906,8.048,8.048,0,0,0,1.742,1.551,4.132,4.132,0,0,0,1.91.947c1.059.095,2.031-.687,2.948-1.5a.583.583,0,1,1,.772.874A5.587,5.587,0,0,1,3940.763,8075.345Z" transform="translate(-3927.52 -8067.83)" fill="#007cff"/>
          <path id="Trazado_202781" data-name="Trazado 202781" d="M3929.894,8083.379a.584.584,0,0,1-.47-.929,48.972,48.972,0,0,0,2.9-4.421.583.583,0,0,1,1.007.587,50.119,50.119,0,0,1-2.964,4.523A.585.585,0,0,1,3929.894,8083.379Z" transform="translate(-3928.502 -8066.184)" fill="#007cff"/>
          <path id="Trazado_202782" data-name="Trazado 202782" d="M3933.445,8082.89a.59.59,0,0,1-.3-.08c-1.366-.8-2.781-1.566-4.207-2.266a.583.583,0,0,1,.515-1.047c1.451.713,2.892,1.488,4.284,2.306a.584.584,0,0,1-.3,1.087Z" transform="translate(-3928.617 -8065.903)" fill="#007cff"/>
        </g>
        <g id="Grupo_144924" data-name="Grupo 144924" transform="translate(115.235 219.083)">
          <path id="Trazado_202783" data-name="Trazado 202783" d="M3916.676,8121.753c-.182,0-.366-.007-.548-.022a6.017,6.017,0,0,1-3.243-10.824,5.558,5.558,0,0,1,3.734-1.324c1.924.093,3.829,1.4,5.228,3.577,1.355,2.114,1.475,4.176.339,5.8a7.051,7.051,0,0,1-5.51,2.789Zm-.279-11.009a4.435,4.435,0,0,0-2.768,1.061,4.852,4.852,0,0,0,2.6,8.764h0a5.85,5.85,0,0,0,5-2.271c1.087-1.559.4-3.312-.364-4.508-.564-.88-2.113-2.937-4.3-3.042Z" transform="translate(-3910.462 -8107.844)" fill="#007cff"/>
          <path id="Trazado_202784" data-name="Trazado 202784" d="M3919.62,8113.659a.582.582,0,0,1-.361-1.039,59.974,59.974,0,0,1,5.3-3.768.583.583,0,0,1,.625.985,58.906,58.906,0,0,0-5.2,3.7A.581.581,0,0,1,3919.62,8113.659Z" transform="translate(-3909.039 -8107.979)" fill="#007cff"/>
          <path id="Trazado_202785" data-name="Trazado 202785" d="M3923.729,8113.547a.577.577,0,0,1-.429-.189c-.745-.812-.134-2.368.417-3.4-1.217-.126-2.86-.38-3.375-.854a.583.583,0,1,1,.793-.855,12.112,12.112,0,0,0,3.591.629.582.582,0,0,1,.449.9c-.818,1.271-1.227,2.569-1.017,2.8a.583.583,0,0,1-.429.978Z" transform="translate(-3908.853 -8108.091)" fill="#007cff"/>
        </g>
        <path id="Trazado_202786" data-name="Trazado 202786" d="M3880.374,8167.891a17.387,17.387,0,0,1-7.391-1.982.584.584,0,0,1,.242-1.109,12.889,12.889,0,0,0,8.869-4.237,13.94,13.94,0,0,0,2.1-3.084,14.131,14.131,0,0,0,1.9-5.774.58.58,0,0,1,.437-.535.586.586,0,0,1,.642.258c2.591,4.193,4.722,8.7-.036,13.57A9.082,9.082,0,0,1,3880.374,8167.891Zm-4.924-2.187c4.644,1.768,8.123,1.268,10.846-1.522,3.415-3.5,3.025-6.582.724-10.709a18.166,18.166,0,0,1-1.8,4.547,14.971,14.971,0,0,1-2.276,3.336A14.631,14.631,0,0,1,3875.45,8165.7Z" transform="translate(-3801.503 -7881.86)" fill="#007cff"/>
        <g id="Grupo_144925" data-name="Grupo 144925" transform="translate(109.176 144.954)">
          <path id="Trazado_202787" data-name="Trazado 202787" d="M3913.519,8058.615a10.882,10.882,0,0,1-3.809-.745c-2.79-1.051-4.368-2.921-4.441-5.268a8.35,8.35,0,0,1,3.814-6.944,7.144,7.144,0,0,1,10.769,8.011,6.166,6.166,0,0,1-6.333,4.946Zm-.515-12.931a6.258,6.258,0,0,0-3.307.963h0a7.2,7.2,0,0,0-3.262,5.919c.074,2.363,2.045,3.595,3.686,4.213,1.2.451,4.232,1.338,6.473-.173a5.41,5.41,0,0,0,2.127-3.213,5.932,5.932,0,0,0-5.716-7.709Zm-3.614.469h0Z" transform="translate(-3905.266 -8044.515)" fill="#007cff"/>
          <path id="Trazado_202788" data-name="Trazado 202788" d="M3911.167,8049.493a1.772,1.772,0,0,0-.807,1.467,1.236,1.236,0,0,0,.927,1.082,1.775,1.775,0,0,0,1.6-.053,1.369,1.369,0,0,0,.542-.812,1.5,1.5,0,0,0-2.259-1.684Z" transform="translate(-3904.42 -8043.729)" fill="#007cff"/>
        </g>
        <g id="Grupo_144926" data-name="Grupo 144926" transform="translate(78.584 116.377)">
          <path id="Trazado_202789" data-name="Trazado 202789" d="M3888.652,8045.169a.571.571,0,0,1-.271-.066.582.582,0,0,1-.245-.787,6.26,6.26,0,0,1,1.561-1.769,8.457,8.457,0,0,0,.942-.909,8.2,8.2,0,0,0,.265-9.62,3.048,3.048,0,0,0-2.875-1.4,7.106,7.106,0,0,0-6.614,5.878.588.588,0,0,1-.648.47.582.582,0,0,1-.506-.62,63.372,63.372,0,0,1,1.61-9.357c.472-2.1.96-4.275,1.284-6.48a.592.592,0,0,1,.662-.492.583.583,0,0,1,.492.661c-.33,2.248-.825,4.444-1.3,6.567-.394,1.748-.794,3.533-1.1,5.356a7.855,7.855,0,0,1,2-1.816,8.1,8.1,0,0,1,4.089-1.331,4.218,4.218,0,0,1,3.889,1.923,9.391,9.391,0,0,1-.342,11.013,9.713,9.713,0,0,1-1.068,1.039,5.333,5.333,0,0,0-1.3,1.432A.577.577,0,0,1,3888.652,8045.169Z" transform="translate(-3878.825 -8020.007)" fill="#007cff"/>
          <path id="Trazado_202790" data-name="Trazado 202790" d="M3888.169,8024.686a.592.592,0,0,1-.147-.019,25.8,25.8,0,0,0-8.368-.768.591.591,0,0,1-.624-.539.584.584,0,0,1,.54-.623,26.946,26.946,0,0,1,8.746.8.583.583,0,0,1-.147,1.147Z" transform="translate(-3879.029 -8019.565)" fill="#007cff"/>
        </g>
        <g id="Grupo_144927" data-name="Grupo 144927" transform="translate(33.783 109.884)">
          <path id="Trazado_202791" data-name="Trazado 202791" d="M3851.874,8036.5a.584.584,0,0,1-.575-.491,98.883,98.883,0,0,1-1.08-21.019.583.583,0,1,1,1.164.064,97.726,97.726,0,0,0,1.068,20.77.585.585,0,0,1-.484.669A.608.608,0,0,1,3851.874,8036.5Z" transform="translate(-3839.035 -8014.438)" fill="#007cff"/>
          <path id="Trazado_202792" data-name="Trazado 202792" d="M3842.226,8029.886a.583.583,0,0,1-.519-.848,24.667,24.667,0,0,1,2.657-3.9,26.576,26.576,0,0,0,2.34-3.339,3.1,3.1,0,0,0,.477-2.77,2.029,2.029,0,0,0-1.339-1.016,4.042,4.042,0,0,0-1.937.049,3.186,3.186,0,0,0-2.187,1.462.583.583,0,0,1-1.058-.492,4.172,4.172,0,0,1,2.977-2.1,5.194,5.194,0,0,1,2.5-.043,3.2,3.2,0,0,1,2.1,1.641c.5,1.042.328,2.334-.508,3.84a27.532,27.532,0,0,1-2.442,3.49c-.683.876-1.339,1.717-1.905,2.606l8.5-1.788a.583.583,0,0,1,.24,1.142l-9.77,2.057A.63.63,0,0,1,3842.226,8029.886Z" transform="translate(-3840.605 -8014.054)" fill="#007cff"/>
        </g>
      </g>
    </g>
  </g>
</svg>
