<svg xmlns="http://www.w3.org/2000/svg" width="562.681" height="447.073" viewBox="0 0 562.681 447.073">
  <g id="Grupo_148566" data-name="Grupo 148566" transform="translate(-144.319 9747.334)">
    <g id="Grupo_145046" data-name="Grupo 145046" transform="translate(168.497 -9747.334)">
      <g id="Grupo_145022" data-name="Grupo 145022">
        <g id="Grupo_145006" data-name="Grupo 145006" transform="translate(0 97.122)">
          <g id="Grupo_144985" data-name="Grupo 144985" transform="translate(0 101.706)">
            <path id="Trazado_202926" data-name="Trazado 202926" d="M3360.824,7621.524c0-6.9,3.562-11.191,8.637-11.191s8.638,4.289,8.638,11.191-3.562,11.191-8.638,11.191S3360.824,7628.428,3360.824,7621.524Zm15.667,0c0-6.146-2.869-9.708-7.03-9.708s-7.029,3.562-7.029,9.708,2.869,9.709,7.029,9.709S3376.491,7627.671,3376.491,7621.524Z" transform="translate(-3360.824 -7610.333)" fill="#e1e1e1"/>
          </g>
          <g id="Grupo_144986" data-name="Grupo 144986" transform="translate(55.438 101.864)">
            <path id="Trazado_202927" data-name="Trazado 202927" d="M3419.963,7610.481v22.066h-1.608v-20.616h-5.39v-1.45Z" transform="translate(-3412.965 -7610.481)" fill="#e1e1e1"/>
          </g>
          <g id="Grupo_144987" data-name="Grupo 144987" transform="translate(104.164 101.706)">
            <path id="Trazado_202928" data-name="Trazado 202928" d="M3458.793,7621.524c0-6.9,3.562-11.191,8.637-11.191s8.638,4.289,8.638,11.191-3.562,11.191-8.638,11.191S3458.793,7628.428,3458.793,7621.524Zm15.667,0c0-6.146-2.867-9.708-7.03-9.708s-7.029,3.562-7.029,9.708,2.869,9.709,7.029,9.709S3474.46,7627.671,3474.46,7621.524Z" transform="translate(-3458.793 -7610.333)" fill="#ececec"/>
          </g>
          <g id="Grupo_144988" data-name="Grupo 144988" transform="translate(156.249 101.706)">
            <path id="Trazado_202929" data-name="Trazado 202929" d="M3507.78,7621.524c0-6.9,3.561-11.191,8.637-11.191s8.638,4.289,8.638,11.191-3.563,11.191-8.638,11.191S3507.78,7628.428,3507.78,7621.524Zm15.666,0c0-6.146-2.868-9.708-7.029-9.708s-7.03,3.562-7.03,9.708,2.87,9.709,7.03,9.709S3523.446,7627.671,3523.446,7621.524Z" transform="translate(-3507.78 -7610.333)" fill="#e1e1e1"/>
          </g>
          <g id="Grupo_144989" data-name="Grupo 144989" transform="translate(210.6 101.864)">
            <path id="Trazado_202930" data-name="Trazado 202930" d="M3565.9,7610.481v22.066h-1.607v-20.616H3558.9v-1.45Z" transform="translate(-3558.898 -7610.481)" fill="#e1e1e1"/>
          </g>
          <g id="Grupo_144990" data-name="Grupo 144990" transform="translate(260.414 101.706)">
            <path id="Trazado_202931" data-name="Trazado 202931" d="M3605.749,7621.524c0-6.9,3.562-11.191,8.637-11.191s8.639,4.289,8.639,11.191-3.564,11.191-8.639,11.191S3605.749,7628.428,3605.749,7621.524Zm15.666,0c0-6.146-2.868-9.708-7.029-9.708s-7.029,3.562-7.029,9.708,2.869,9.709,7.029,9.709S3621.415,7627.671,3621.415,7621.524Z" transform="translate(-3605.749 -7610.333)" fill="#ececec"/>
          </g>
          <g id="Grupo_144991" data-name="Grupo 144991" transform="translate(312.498 101.706)">
            <path id="Trazado_202932" data-name="Trazado 202932" d="M3654.735,7621.524c0-6.9,3.561-11.191,8.636-11.191s8.637,4.289,8.637,11.191-3.562,11.191-8.637,11.191S3654.735,7628.428,3654.735,7621.524Zm15.666,0c0-6.146-2.867-9.708-7.029-9.708s-7.029,3.562-7.029,9.708,2.868,9.709,7.029,9.709S3670.4,7627.671,3670.4,7621.524Z" transform="translate(-3654.735 -7610.333)" fill="#e1e1e1"/>
          </g>
          <g id="Grupo_144992" data-name="Grupo 144992">
            <path id="Trazado_202933" data-name="Trazado 202933" d="M3360.824,7525.867c0-6.9,3.562-11.191,8.637-11.191s8.638,4.287,8.638,11.191-3.562,11.19-8.638,11.19S3360.824,7532.771,3360.824,7525.867Zm15.667,0c0-6.148-2.869-9.709-7.03-9.709s-7.029,3.561-7.029,9.709,2.869,9.708,7.029,9.708S3376.491,7532.013,3376.491,7525.867Z" transform="translate(-3360.824 -7514.676)" fill="#e1e1e1"/>
          </g>
          <g id="Grupo_144993" data-name="Grupo 144993" transform="translate(55.438 0.158)">
            <path id="Trazado_202934" data-name="Trazado 202934" d="M3419.963,7514.824v22.066h-1.608v-20.616h-5.39v-1.45Z" transform="translate(-3412.965 -7514.824)" fill="#e1e1e1"/>
          </g>
          <g id="Grupo_144994" data-name="Grupo 144994" transform="translate(104.165)">
            <path id="Trazado_202935" data-name="Trazado 202935" d="M3458.794,7525.867c0-6.9,3.562-11.191,8.637-11.191s8.638,4.287,8.638,11.191-3.563,11.19-8.638,11.19S3458.794,7532.771,3458.794,7525.867Zm15.666,0c0-6.148-2.867-9.709-7.029-9.709s-7.029,3.561-7.029,9.709,2.869,9.708,7.029,9.708S3474.46,7532.013,3474.46,7525.867Z" transform="translate(-3458.794 -7514.676)" fill="#ececec"/>
          </g>
          <g id="Grupo_144995" data-name="Grupo 144995" transform="translate(156.249)">
            <path id="Trazado_202936" data-name="Trazado 202936" d="M3507.78,7525.867c0-6.9,3.561-11.191,8.637-11.191s8.638,4.287,8.638,11.191-3.563,11.19-8.638,11.19S3507.78,7532.771,3507.78,7525.867Zm15.666,0c0-6.148-2.868-9.709-7.029-9.709s-7.03,3.561-7.03,9.709,2.87,9.708,7.03,9.708S3523.446,7532.013,3523.446,7525.867Z" transform="translate(-3507.78 -7514.676)" fill="#e1e1e1"/>
          </g>
          <g id="Grupo_144996" data-name="Grupo 144996" transform="translate(210.6 0.158)">
            <path id="Trazado_202937" data-name="Trazado 202937" d="M3565.9,7514.824v22.066h-1.606v-20.616H3558.9v-1.45Z" transform="translate(-3558.898 -7514.824)" fill="#e1e1e1"/>
          </g>
          <g id="Grupo_144997" data-name="Grupo 144997" transform="translate(260.415)">
            <path id="Trazado_202938" data-name="Trazado 202938" d="M3605.75,7525.867c0-6.9,3.562-11.191,8.637-11.191s8.638,4.287,8.638,11.191-3.562,11.19-8.638,11.19S3605.75,7532.771,3605.75,7525.867Zm15.667,0c0-6.148-2.867-9.709-7.03-9.709s-7.029,3.561-7.029,9.709,2.869,9.708,7.029,9.708S3621.417,7532.013,3621.417,7525.867Z" transform="translate(-3605.75 -7514.676)" fill="#ececec"/>
          </g>
          <g id="Grupo_144998" data-name="Grupo 144998" transform="translate(312.498)">
            <path id="Trazado_202939" data-name="Trazado 202939" d="M3654.735,7525.867c0-6.9,3.561-11.191,8.636-11.191s8.637,4.287,8.637,11.191-3.562,11.19-8.637,11.19S3654.735,7532.771,3654.735,7525.867Zm15.666,0c0-6.148-2.867-9.709-7.029-9.709s-7.029,3.561-7.029,9.709,2.868,9.708,7.029,9.708S3670.4,7532.013,3670.4,7525.867Z" transform="translate(-3654.735 -7514.676)" fill="#e1e1e1"/>
          </g>
          <g id="Grupo_144999" data-name="Grupo 144999" transform="translate(0 49.497)">
            <path id="Trazado_202940" data-name="Trazado 202940" d="M3360.824,7572.418c0-6.9,3.562-11.189,8.637-11.189s8.638,4.287,8.638,11.189-3.562,11.191-8.638,11.191S3360.824,7579.323,3360.824,7572.418Zm15.667,0c0-6.146-2.869-9.708-7.03-9.708s-7.029,3.562-7.029,9.708,2.869,9.709,7.029,9.709S3376.491,7578.566,3376.491,7572.418Z" transform="translate(-3360.824 -7561.229)" fill="#e1e1e1"/>
          </g>
          <g id="Grupo_145000" data-name="Grupo 145000" transform="translate(52.084 49.497)">
            <path id="Trazado_202941" data-name="Trazado 202941" d="M3409.81,7572.418c0-6.9,3.561-11.189,8.637-11.189s8.637,4.287,8.637,11.189-3.563,11.191-8.637,11.191S3409.81,7579.323,3409.81,7572.418Zm15.666,0c0-6.146-2.867-9.708-7.029-9.708s-7.03,3.562-7.03,9.708,2.869,9.709,7.03,9.709S3425.476,7578.566,3425.476,7572.418Z" transform="translate(-3409.81 -7561.229)" fill="#ececec"/>
          </g>
          <g id="Grupo_145001" data-name="Grupo 145001" transform="translate(104.165 49.497)">
            <path id="Trazado_202942" data-name="Trazado 202942" d="M3458.794,7572.418c0-6.9,3.562-11.189,8.637-11.189s8.638,4.287,8.638,11.189-3.562,11.191-8.638,11.191S3458.794,7579.323,3458.794,7572.418Zm15.667,0c0-6.146-2.869-9.708-7.03-9.708s-7.029,3.562-7.029,9.708,2.869,9.709,7.029,9.709S3474.461,7578.566,3474.461,7572.418Z" transform="translate(-3458.794 -7561.229)" fill="#e1e1e1"/>
          </g>
          <g id="Grupo_145002" data-name="Grupo 145002" transform="translate(159.604 49.653)">
            <path id="Trazado_202943" data-name="Trazado 202943" d="M3517.935,7561.376v22.066h-1.608v-20.615h-5.392v-1.452Z" transform="translate(-3510.935 -7561.376)" fill="#e1e1e1"/>
          </g>
          <g id="Grupo_145003" data-name="Grupo 145003" transform="translate(207.244 50.854)">
            <path id="Trazado_202944" data-name="Trazado 202944" d="M3555.742,7573.694c0-6.9,3.562-11.189,8.637-11.189s8.638,4.287,8.638,11.189-3.562,11.192-8.638,11.192S3555.742,7580.6,3555.742,7573.694Zm15.667,0c0-6.146-2.869-9.708-7.03-9.708s-7.029,3.562-7.029,9.708,2.868,9.71,7.029,9.71S3571.409,7579.841,3571.409,7573.694Z" transform="translate(-3555.742 -7562.505)" fill="#ececec"/>
          </g>
          <g id="Grupo_145004" data-name="Grupo 145004" transform="translate(260.414 49.497)">
            <path id="Trazado_202945" data-name="Trazado 202945" d="M3605.749,7572.418c0-6.9,3.562-11.189,8.638-11.189s8.638,4.287,8.638,11.189-3.563,11.191-8.638,11.191S3605.749,7579.323,3605.749,7572.418Zm15.667,0c0-6.146-2.867-9.708-7.029-9.708s-7.03,3.562-7.03,9.708,2.869,9.709,7.03,9.709S3621.416,7578.566,3621.416,7572.418Z" transform="translate(-3605.749 -7561.229)" fill="#e1e1e1"/>
          </g>
          <g id="Grupo_145005" data-name="Grupo 145005" transform="translate(315.852 49.653)">
            <path id="Trazado_202946" data-name="Trazado 202946" d="M3664.888,7561.376v22.066h-1.608v-20.615h-5.391v-1.452Z" transform="translate(-3657.89 -7561.376)" fill="#e1e1e1"/>
          </g>
        </g>
        <g id="Grupo_145021" data-name="Grupo 145021">
          <g id="Grupo_145007" data-name="Grupo 145007">
            <path id="Trazado_202947" data-name="Trazado 202947" d="M3360.824,7434.52c0-6.9,3.562-11.189,8.637-11.189s8.638,4.287,8.638,11.189-3.562,11.191-8.638,11.191S3360.824,7441.424,3360.824,7434.52Zm15.667,0c0-6.146-2.869-9.707-7.03-9.707s-7.029,3.561-7.029,9.707,2.869,9.709,7.029,9.709S3376.491,7440.667,3376.491,7434.52Z" transform="translate(-3360.824 -7423.33)" fill="#e1e1e1"/>
          </g>
          <g id="Grupo_145008" data-name="Grupo 145008" transform="translate(55.438 0.156)">
            <path id="Trazado_202948" data-name="Trazado 202948" d="M3419.963,7423.477v22.066h-1.608v-20.615h-5.39v-1.451Z" transform="translate(-3412.965 -7423.477)" fill="#e1e1e1"/>
          </g>
          <g id="Grupo_145009" data-name="Grupo 145009" transform="translate(104.165)">
            <path id="Trazado_202949" data-name="Trazado 202949" d="M3458.794,7434.52c0-6.9,3.562-11.189,8.637-11.189s8.638,4.287,8.638,11.189-3.563,11.191-8.638,11.191S3458.794,7441.424,3458.794,7434.52Zm15.666,0c0-6.146-2.867-9.707-7.029-9.707s-7.029,3.561-7.029,9.707,2.869,9.709,7.029,9.709S3474.46,7440.667,3474.46,7434.52Z" transform="translate(-3458.794 -7423.33)" fill="#ececec"/>
          </g>
          <g id="Grupo_145010" data-name="Grupo 145010" transform="translate(156.249)">
            <path id="Trazado_202950" data-name="Trazado 202950" d="M3507.78,7434.52c0-6.9,3.561-11.189,8.637-11.189s8.638,4.287,8.638,11.189-3.563,11.191-8.638,11.191S3507.78,7441.424,3507.78,7434.52Zm15.666,0c0-6.146-2.868-9.707-7.029-9.707s-7.03,3.561-7.03,9.707,2.87,9.709,7.03,9.709S3523.446,7440.667,3523.446,7434.52Z" transform="translate(-3507.78 -7423.33)" fill="#e1e1e1"/>
          </g>
          <g id="Grupo_145011" data-name="Grupo 145011" transform="translate(210.6 0.156)">
            <path id="Trazado_202951" data-name="Trazado 202951" d="M3565.9,7423.477v22.066h-1.606v-20.615H3558.9v-1.451Z" transform="translate(-3558.898 -7423.477)" fill="#e1e1e1"/>
          </g>
          <g id="Grupo_145012" data-name="Grupo 145012" transform="translate(260.415)">
            <path id="Trazado_202952" data-name="Trazado 202952" d="M3605.75,7434.52c0-6.9,3.562-11.189,8.637-11.189s8.638,4.287,8.638,11.189-3.562,11.191-8.638,11.191S3605.75,7441.424,3605.75,7434.52Zm15.667,0c0-6.146-2.867-9.707-7.03-9.707s-7.029,3.561-7.029,9.707,2.869,9.709,7.029,9.709S3621.417,7440.667,3621.417,7434.52Z" transform="translate(-3605.75 -7423.33)" fill="#ececec"/>
          </g>
          <g id="Grupo_145013" data-name="Grupo 145013" transform="translate(312.498)">
            <path id="Trazado_202953" data-name="Trazado 202953" d="M3654.735,7434.52c0-6.9,3.561-11.189,8.636-11.189s8.637,4.287,8.637,11.189-3.562,11.191-8.637,11.191S3654.735,7441.424,3654.735,7434.52Zm15.666,0c0-6.146-2.867-9.707-7.029-9.707s-7.029,3.561-7.029,9.707,2.868,9.709,7.029,9.709S3670.4,7440.667,3670.4,7434.52Z" transform="translate(-3654.735 -7423.33)" fill="#e1e1e1"/>
          </g>
          <g id="Grupo_145014" data-name="Grupo 145014" transform="translate(0 49.496)">
            <path id="Trazado_202954" data-name="Trazado 202954" d="M3360.824,7481.073c0-6.9,3.562-11.191,8.637-11.191s8.638,4.287,8.638,11.191-3.562,11.19-8.638,11.19S3360.824,7487.976,3360.824,7481.073Zm15.667,0c0-6.148-2.869-9.708-7.03-9.708s-7.029,3.561-7.029,9.708,2.869,9.709,7.029,9.709S3376.491,7487.219,3376.491,7481.073Z" transform="translate(-3360.824 -7469.882)" fill="#e1e1e1"/>
          </g>
          <g id="Grupo_145015" data-name="Grupo 145015" transform="translate(52.084 49.496)">
            <path id="Trazado_202955" data-name="Trazado 202955" d="M3409.81,7481.073c0-6.9,3.561-11.191,8.637-11.191s8.637,4.287,8.637,11.191-3.563,11.19-8.637,11.19S3409.81,7487.976,3409.81,7481.073Zm15.666,0c0-6.148-2.867-9.708-7.029-9.708s-7.03,3.561-7.03,9.708,2.869,9.709,7.03,9.709S3425.476,7487.219,3425.476,7481.073Z" transform="translate(-3409.81 -7469.882)" fill="#ececec"/>
          </g>
          <g id="Grupo_145016" data-name="Grupo 145016" transform="translate(104.165 49.496)">
            <path id="Trazado_202956" data-name="Trazado 202956" d="M3458.794,7481.073c0-6.9,3.562-11.191,8.637-11.191s8.638,4.287,8.638,11.191-3.562,11.19-8.638,11.19S3458.794,7487.976,3458.794,7481.073Zm15.667,0c0-6.148-2.869-9.708-7.03-9.708s-7.029,3.561-7.029,9.708,2.869,9.709,7.029,9.709S3474.461,7487.219,3474.461,7481.073Z" transform="translate(-3458.794 -7469.882)" fill="#e1e1e1"/>
          </g>
          <g id="Grupo_145017" data-name="Grupo 145017" transform="translate(159.604 49.653)">
            <path id="Trazado_202957" data-name="Trazado 202957" d="M3517.935,7470.03V7492.1h-1.608V7471.48h-5.392v-1.451Z" transform="translate(-3510.935 -7470.03)" fill="#e1e1e1"/>
          </g>
          <g id="Grupo_145018" data-name="Grupo 145018" transform="translate(207.244 50.853)">
            <path id="Trazado_202958" data-name="Trazado 202958" d="M3555.742,7482.349c0-6.9,3.562-11.191,8.637-11.191s8.638,4.287,8.638,11.191-3.562,11.19-8.638,11.19S3555.742,7489.252,3555.742,7482.349Zm15.667,0c0-6.148-2.869-9.709-7.03-9.709s-7.029,3.561-7.029,9.709,2.868,9.708,7.029,9.708S3571.409,7488.5,3571.409,7482.349Z" transform="translate(-3555.742 -7471.158)" fill="#ececec"/>
          </g>
          <g id="Grupo_145019" data-name="Grupo 145019" transform="translate(260.414 49.496)">
            <path id="Trazado_202959" data-name="Trazado 202959" d="M3605.749,7481.073c0-6.9,3.562-11.191,8.638-11.191s8.638,4.287,8.638,11.191-3.563,11.19-8.638,11.19S3605.749,7487.976,3605.749,7481.073Zm15.667,0c0-6.148-2.867-9.708-7.029-9.708s-7.03,3.561-7.03,9.708,2.869,9.709,7.03,9.709S3621.416,7487.219,3621.416,7481.073Z" transform="translate(-3605.749 -7469.882)" fill="#e1e1e1"/>
          </g>
          <g id="Grupo_145020" data-name="Grupo 145020" transform="translate(315.852 49.653)">
            <path id="Trazado_202960" data-name="Trazado 202960" d="M3664.888,7470.03V7492.1h-1.608V7471.48h-5.391v-1.451Z" transform="translate(-3657.89 -7470.03)" fill="#e1e1e1"/>
          </g>
        </g>
      </g>
      <g id="Grupo_145045" data-name="Grupo 145045" transform="translate(364.978)">
        <g id="Grupo_145035" data-name="Grupo 145035" transform="translate(0 97.122)">
          <g id="Grupo_145023" data-name="Grupo 145023" transform="translate(0 101.706)">
            <path id="Trazado_202961" data-name="Trazado 202961" d="M3704.094,7621.524c0-6.9,3.562-11.191,8.637-11.191s8.639,4.289,8.639,11.191-3.563,11.191-8.639,11.191S3704.094,7628.428,3704.094,7621.524Zm15.667,0c0-6.146-2.869-9.708-7.03-9.708s-7.029,3.562-7.029,9.708,2.87,9.709,7.029,9.709S3719.761,7627.671,3719.761,7621.524Z" transform="translate(-3704.094 -7610.333)" fill="#ececec"/>
          </g>
          <g id="Grupo_145024" data-name="Grupo 145024" transform="translate(52.085 101.706)">
            <path id="Trazado_202962" data-name="Trazado 202962" d="M3753.081,7621.524c0-6.9,3.561-11.191,8.637-11.191s8.639,4.289,8.639,11.191-3.564,11.191-8.639,11.191S3753.081,7628.428,3753.081,7621.524Zm15.666,0c0-6.146-2.867-9.708-7.029-9.708s-7.03,3.562-7.03,9.708,2.87,9.709,7.03,9.709S3768.747,7627.671,3768.747,7621.524Z" transform="translate(-3753.081 -7610.333)" fill="#e1e1e1"/>
          </g>
          <g id="Grupo_145025" data-name="Grupo 145025" transform="translate(106.437 101.864)">
            <path id="Trazado_202963" data-name="Trazado 202963" d="M3811.2,7610.481v22.066h-1.608v-20.616H3804.2v-1.45Z" transform="translate(-3804.2 -7610.481)" fill="#e1e1e1"/>
          </g>
          <g id="Grupo_145026" data-name="Grupo 145026" transform="translate(156.249 101.706)">
            <path id="Trazado_202964" data-name="Trazado 202964" d="M3851.05,7621.524c0-6.9,3.562-11.191,8.636-11.191s8.638,4.289,8.638,11.191-3.562,11.191-8.638,11.191S3851.05,7628.428,3851.05,7621.524Zm15.667,0c0-6.146-2.869-9.708-7.03-9.708s-7.029,3.562-7.029,9.708,2.868,9.709,7.029,9.709S3866.717,7627.671,3866.717,7621.524Z" transform="translate(-3851.05 -7610.333)" fill="#ececec"/>
          </g>
          <g id="Grupo_145027" data-name="Grupo 145027" transform="translate(0.001)">
            <path id="Trazado_202965" data-name="Trazado 202965" d="M3704.095,7525.867c0-6.9,3.562-11.191,8.637-11.191s8.638,4.287,8.638,11.191-3.562,11.19-8.638,11.19S3704.095,7532.771,3704.095,7525.867Zm15.667,0c0-6.148-2.869-9.709-7.03-9.709s-7.029,3.561-7.029,9.709,2.869,9.708,7.029,9.708S3719.762,7532.013,3719.762,7525.867Z" transform="translate(-3704.095 -7514.676)" fill="#ececec"/>
          </g>
          <g id="Grupo_145028" data-name="Grupo 145028" transform="translate(52.085)">
            <path id="Trazado_202966" data-name="Trazado 202966" d="M3753.081,7525.867c0-6.9,3.561-11.191,8.637-11.191s8.639,4.287,8.639,11.191-3.564,11.19-8.639,11.19S3753.081,7532.771,3753.081,7525.867Zm15.666,0c0-6.148-2.867-9.709-7.029-9.709s-7.03,3.561-7.03,9.709,2.87,9.708,7.03,9.708S3768.747,7532.013,3768.747,7525.867Z" transform="translate(-3753.081 -7514.676)" fill="#e1e1e1"/>
          </g>
          <g id="Grupo_145029" data-name="Grupo 145029" transform="translate(106.437 0.158)">
            <path id="Trazado_202967" data-name="Trazado 202967" d="M3811.2,7514.824v22.066h-1.608v-20.616H3804.2v-1.45Z" transform="translate(-3804.2 -7514.824)" fill="#e1e1e1"/>
          </g>
          <g id="Grupo_145030" data-name="Grupo 145030" transform="translate(156.25)">
            <path id="Trazado_202968" data-name="Trazado 202968" d="M3851.051,7525.867c0-6.9,3.562-11.191,8.636-11.191s8.638,4.287,8.638,11.191-3.562,11.19-8.638,11.19S3851.051,7532.771,3851.051,7525.867Zm15.667,0c0-6.148-2.869-9.709-7.03-9.709s-7.029,3.561-7.029,9.709,2.869,9.708,7.029,9.708S3866.718,7532.013,3866.718,7525.867Z" transform="translate(-3851.051 -7514.676)" fill="#ececec"/>
          </g>
          <g id="Grupo_145031" data-name="Grupo 145031" transform="translate(0.002 49.497)">
            <path id="Trazado_202969" data-name="Trazado 202969" d="M3704.1,7572.418c0-6.9,3.562-11.189,8.637-11.189s8.637,4.287,8.637,11.189-3.561,11.191-8.637,11.191S3704.1,7579.323,3704.1,7572.418Zm15.667,0c0-6.146-2.869-9.708-7.03-9.708s-7.029,3.562-7.029,9.708,2.868,9.709,7.029,9.709S3719.763,7578.566,3719.763,7572.418Z" transform="translate(-3704.096 -7561.229)" fill="#e1e1e1"/>
          </g>
          <g id="Grupo_145032" data-name="Grupo 145032" transform="translate(55.441 49.653)">
            <path id="Trazado_202970" data-name="Trazado 202970" d="M3763.235,7561.376v22.066h-1.608v-20.615h-5.391v-1.452Z" transform="translate(-3756.237 -7561.376)" fill="#e1e1e1"/>
          </g>
          <g id="Grupo_145033" data-name="Grupo 145033" transform="translate(103.08 50.854)">
            <path id="Trazado_202971" data-name="Trazado 202971" d="M3801.043,7573.694c0-6.9,3.562-11.189,8.637-11.189s8.638,4.287,8.638,11.189-3.562,11.192-8.638,11.192S3801.043,7580.6,3801.043,7573.694Zm15.667,0c0-6.146-2.867-9.708-7.03-9.708s-7.029,3.562-7.029,9.708,2.869,9.71,7.029,9.71S3816.71,7579.841,3816.71,7573.694Z" transform="translate(-3801.043 -7562.505)" fill="#ececec"/>
          </g>
          <g id="Grupo_145034" data-name="Grupo 145034" transform="translate(156.25 49.497)">
            <path id="Trazado_202972" data-name="Trazado 202972" d="M3851.051,7572.418c0-6.9,3.562-11.189,8.636-11.189s8.637,4.287,8.637,11.189-3.561,11.191-8.637,11.191S3851.051,7579.323,3851.051,7572.418Zm15.667,0c0-6.146-2.869-9.708-7.03-9.708s-7.029,3.562-7.029,9.708,2.867,9.709,7.029,9.709S3866.718,7578.566,3866.718,7572.418Z" transform="translate(-3851.051 -7561.229)" fill="#e1e1e1"/>
          </g>
        </g>
        <g id="Grupo_145044" data-name="Grupo 145044" transform="translate(0.001)">
          <g id="Grupo_145036" data-name="Grupo 145036">
            <path id="Trazado_202973" data-name="Trazado 202973" d="M3704.095,7434.52c0-6.9,3.562-11.189,8.637-11.189s8.638,4.287,8.638,11.189-3.562,11.191-8.638,11.191S3704.095,7441.424,3704.095,7434.52Zm15.667,0c0-6.146-2.869-9.707-7.03-9.707s-7.029,3.561-7.029,9.707,2.869,9.709,7.029,9.709S3719.762,7440.667,3719.762,7434.52Z" transform="translate(-3704.095 -7423.33)" fill="#ececec"/>
          </g>
          <g id="Grupo_145037" data-name="Grupo 145037" transform="translate(52.084)">
            <path id="Trazado_202974" data-name="Trazado 202974" d="M3753.081,7434.52c0-6.9,3.561-11.189,8.637-11.189s8.639,4.287,8.639,11.189-3.564,11.191-8.639,11.191S3753.081,7441.424,3753.081,7434.52Zm15.666,0c0-6.146-2.867-9.707-7.029-9.707s-7.03,3.561-7.03,9.707,2.87,9.709,7.03,9.709S3768.747,7440.667,3768.747,7434.52Z" transform="translate(-3753.081 -7423.33)" fill="#e1e1e1"/>
          </g>
          <g id="Grupo_145038" data-name="Grupo 145038" transform="translate(106.436 0.156)">
            <path id="Trazado_202975" data-name="Trazado 202975" d="M3811.2,7423.477v22.066h-1.608v-20.615H3804.2v-1.451Z" transform="translate(-3804.2 -7423.477)" fill="#e1e1e1"/>
          </g>
          <g id="Grupo_145039" data-name="Grupo 145039" transform="translate(156.249)">
            <path id="Trazado_202976" data-name="Trazado 202976" d="M3851.051,7434.52c0-6.9,3.562-11.189,8.636-11.189s8.638,4.287,8.638,11.189-3.562,11.191-8.638,11.191S3851.051,7441.424,3851.051,7434.52Zm15.667,0c0-6.146-2.869-9.707-7.03-9.707s-7.029,3.561-7.029,9.707,2.869,9.709,7.029,9.709S3866.718,7440.667,3866.718,7434.52Z" transform="translate(-3851.051 -7423.33)" fill="#ececec"/>
          </g>
          <g id="Grupo_145040" data-name="Grupo 145040" transform="translate(0.001 49.496)">
            <path id="Trazado_202977" data-name="Trazado 202977" d="M3704.1,7481.073c0-6.9,3.562-11.191,8.637-11.191s8.637,4.287,8.637,11.191-3.561,11.19-8.637,11.19S3704.1,7487.976,3704.1,7481.073Zm15.667,0c0-6.148-2.869-9.708-7.03-9.708s-7.029,3.561-7.029,9.708,2.868,9.709,7.029,9.709S3719.763,7487.219,3719.763,7481.073Z" transform="translate(-3704.096 -7469.882)" fill="#e1e1e1"/>
          </g>
          <g id="Grupo_145041" data-name="Grupo 145041" transform="translate(55.439 49.653)">
            <path id="Trazado_202978" data-name="Trazado 202978" d="M3763.235,7470.03V7492.1h-1.608V7471.48h-5.391v-1.451Z" transform="translate(-3756.237 -7470.03)" fill="#e1e1e1"/>
          </g>
          <g id="Grupo_145042" data-name="Grupo 145042" transform="translate(103.079 50.853)">
            <path id="Trazado_202979" data-name="Trazado 202979" d="M3801.043,7482.349c0-6.9,3.562-11.191,8.637-11.191s8.638,4.287,8.638,11.191-3.562,11.19-8.638,11.19S3801.043,7489.252,3801.043,7482.349Zm15.667,0c0-6.148-2.867-9.709-7.03-9.709s-7.029,3.561-7.029,9.709,2.869,9.708,7.029,9.708S3816.71,7488.5,3816.71,7482.349Z" transform="translate(-3801.043 -7471.158)" fill="#ececec"/>
          </g>
          <g id="Grupo_145043" data-name="Grupo 145043" transform="translate(156.249 49.496)">
            <path id="Trazado_202980" data-name="Trazado 202980" d="M3851.051,7481.073c0-6.9,3.562-11.191,8.636-11.191s8.637,4.287,8.637,11.191-3.561,11.19-8.637,11.19S3851.051,7487.976,3851.051,7481.073Zm15.667,0c0-6.148-2.869-9.708-7.03-9.708s-7.029,3.561-7.029,9.708,2.867,9.709,7.029,9.709S3866.718,7487.219,3866.718,7481.073Z" transform="translate(-3851.051 -7469.882)" fill="#e1e1e1"/>
          </g>
        </g>
      </g>
    </g>
    <g id="Grupo_145134" data-name="Grupo 145134" transform="translate(204.651 -9661.851)">
      <g id="Grupo_145055" data-name="Grupo 145055">
        <g id="Grupo_145048" data-name="Grupo 145048" transform="translate(17.876)">
          <g id="Grupo_145047" data-name="Grupo 145047">
            <rect id="Rectángulo_44373" data-name="Rectángulo 44373" width="427.46" height="282.675" rx="14.567" fill="#1a2e35"/>
          </g>
        </g>
        <g id="Grupo_145050" data-name="Grupo 145050" transform="translate(0 261.768)">
          <g id="Grupo_145049" data-name="Grupo 145049">
            <path id="Rectángulo_44374" data-name="Rectángulo 44374" d="M0,0H463.12a0,0,0,0,1,0,0V6.936a17.8,17.8,0,0,1-17.8,17.8H17.8A17.8,17.8,0,0,1,0,6.936V0A0,0,0,0,1,0,0Z" fill="#1a2e35"/>
          </g>
        </g>
        <g id="Grupo_145052" data-name="Grupo 145052" transform="translate(29.35 11.23)">
          <g id="Grupo_145051" data-name="Grupo 145051">
            <rect id="Rectángulo_44375" data-name="Rectángulo 44375" width="403.316" height="238.715" fill="#e1e1e1"/>
          </g>
        </g>
        <g id="Grupo_145054" data-name="Grupo 145054" transform="translate(189.467 261.768)">
          <g id="Grupo_145053" data-name="Grupo 145053">
            <path id="Trazado_202981" data-name="Trazado 202981" d="M3573.025,7749.927l5.747,9.142h80.867l5.336-9.142Z" transform="translate(-3573.025 -7749.927)" fill="#375a64"/>
          </g>
        </g>
      </g>
      <g id="Grupo_145131" data-name="Grupo 145131" transform="translate(37.657 19.312)">
        <g id="Grupo_145072" data-name="Grupo 145072">
          <g id="Grupo_145071" data-name="Grupo 145071">
            <g id="Grupo_145058" data-name="Grupo 145058">
              <g id="Grupo_145057" data-name="Grupo 145057">
                <g id="Grupo_145056" data-name="Grupo 145056">
                  <path id="Rectángulo_44376" data-name="Rectángulo 44376" d="M3.272,0H384.258a3.273,3.273,0,0,1,3.273,3.273V226.6a3.273,3.273,0,0,1-3.273,3.273H3.272A3.272,3.272,0,0,1,0,226.6V3.272A3.272,3.272,0,0,1,3.272,0Z" fill="#375a64"/>
                </g>
              </g>
            </g>
            <g id="Grupo_145061" data-name="Grupo 145061" transform="translate(0 16.843)">
              <g id="Grupo_145060" data-name="Grupo 145060">
                <g id="Grupo_145059" data-name="Grupo 145059">
                  <rect id="Rectángulo_44377" data-name="Rectángulo 44377" width="387.532" height="213.027" fill="#fafafa"/>
                </g>
              </g>
            </g>
            <g id="Grupo_145064" data-name="Grupo 145064" transform="translate(25.594 5.782)">
              <g id="Grupo_145063" data-name="Grupo 145063">
                <g id="Grupo_145062" data-name="Grupo 145062">
                  <path id="Trazado_202982" data-name="Trazado 202982" d="M3460.506,7530.427a3.1,3.1,0,1,1-3.095-3.1A3.1,3.1,0,0,1,3460.506,7530.427Z" transform="translate(-3454.316 -7527.332)" fill="#4dd0e1"/>
                </g>
              </g>
            </g>
            <g id="Grupo_145067" data-name="Grupo 145067" transform="translate(6.836 5.782)">
              <g id="Grupo_145066" data-name="Grupo 145066">
                <g id="Grupo_145065" data-name="Grupo 145065">
                  <path id="Trazado_202983" data-name="Trazado 202983" d="M3442.864,7530.427a3.1,3.1,0,1,1-3.1-3.1A3.1,3.1,0,0,1,3442.864,7530.427Z" transform="translate(-3436.674 -7527.332)" fill="#4dd0e1"/>
                </g>
              </g>
            </g>
            <g id="Grupo_145070" data-name="Grupo 145070" transform="translate(15.84 5.782)">
              <g id="Grupo_145069" data-name="Grupo 145069">
                <g id="Grupo_145068" data-name="Grupo 145068">
                  <path id="Trazado_202984" data-name="Trazado 202984" d="M3451.333,7530.427a3.1,3.1,0,1,1-3.1-3.1A3.1,3.1,0,0,1,3451.333,7530.427Z" transform="translate(-3445.142 -7527.332)" fill="#4dd0e1"/>
                </g>
              </g>
            </g>
          </g>
        </g>
        <g id="Grupo_145130" data-name="Grupo 145130" transform="translate(69.01 48.628)">
          <g id="Grupo_145083" data-name="Grupo 145083" transform="translate(15.309 30.494)">
            <g id="Grupo_145074" data-name="Grupo 145074">
              <g id="Grupo_145073" data-name="Grupo 145073">
                <path id="Trazado_202985" data-name="Trazado 202985" d="M3715.092,7622.757s.408-.04,1.2-.088c.4-.04.882-.133,1.462-.228a14.828,14.828,0,0,0,1.952-.6,13.074,13.074,0,0,0,4.724-3.136,13.769,13.769,0,0,0,2.131-2.941,13.134,13.134,0,0,0,1.311-3.911,12.946,12.946,0,0,0-11.541-15.055c-1.029-.071-2.1-.062-3.182-.057l-3.306.005-6.926.01-15.056.021-164.952.081a12.864,12.864,0,0,0-12.569,10.271,13.069,13.069,0,0,0,.163,5.729,12.834,12.834,0,0,0,12.587,9.624h5.72l43.8.016,74.158.06,50,.088,13.593.052,3.535.028c.8.008,1.2.028,1.2.028s-.407.019-1.2.028l-3.535.028-13.593.052-50,.087-74.158.059-43.8.016-5.72,0A13.381,13.381,0,0,1,3509.971,7613a13.615,13.615,0,0,1-.171-5.974,13.417,13.417,0,0,1,13.11-10.716l164.952.081,15.056.02,6.926.011,3.306,0c1.083,0,2.149-.008,3.212.069a13.3,13.3,0,0,1,9.772,5.919,13.138,13.138,0,0,1,1.951,9.479,13.341,13.341,0,0,1-1.355,3.966,13.885,13.885,0,0,1-2.181,2.965,13.09,13.09,0,0,1-4.8,3.125,14.373,14.373,0,0,1-1.976.575c-.586.086-1.076.171-1.474.2C3715.5,7622.756,3715.092,7622.757,3715.092,7622.757Z" transform="translate(-3509.548 -7596.308)" fill="#1a2e35"/>
              </g>
            </g>
            <g id="Grupo_145075" data-name="Grupo 145075" transform="translate(180.394 0.276)">
              <path id="Trazado_202986" data-name="Trazado 202986" d="M3704.363,7622.741h-25.15v-26.173h25.15a13.086,13.086,0,0,1,13.086,13.086h0A13.086,13.086,0,0,1,3704.363,7622.741Z" transform="translate(-3679.213 -7596.568)" fill="#feca2e"/>
            </g>
            <g id="Grupo_145080" data-name="Grupo 145080" transform="translate(190.907 5.682)">
              <g id="Grupo_145077" data-name="Grupo 145077">
                <g id="Grupo_145076" data-name="Grupo 145076">
                  <path id="Trazado_202987" data-name="Trazado 202987" d="M3699.341,7606.871c-.053,0-.047-.443-.26-1.19a4.968,4.968,0,0,0-1.826-2.615,4.744,4.744,0,1,0,0,7.609,4.966,4.966,0,0,0,1.826-2.614c.214-.747.207-1.192.26-1.19.019,0,.033.109.041.321a3.747,3.747,0,0,1-.091.922,4.961,4.961,0,0,1-1.8,2.873,5.162,5.162,0,0,1-4.917.8,5.218,5.218,0,0,1,0-9.837,5.157,5.157,0,0,1,4.917.8,4.963,4.963,0,0,1,1.8,2.873,3.747,3.747,0,0,1,.091.922C3699.374,7606.761,3699.36,7606.871,3699.341,7606.871Z" transform="translate(-3689.101 -7601.652)" fill="#fff"/>
                </g>
              </g>
              <g id="Grupo_145079" data-name="Grupo 145079" transform="translate(9.154 8.305)">
                <g id="Grupo_145078" data-name="Grupo 145078">
                  <path id="Trazado_202988" data-name="Trazado 202988" d="M3705.49,7614.693a39.656,39.656,0,1,1-3.733-2.84A20.142,20.142,0,0,1,3705.49,7614.693Z" transform="translate(-3697.71 -7609.463)" fill="#fff"/>
                </g>
              </g>
            </g>
            <g id="Grupo_145082" data-name="Grupo 145082" transform="translate(16.242 5.918)">
              <g id="Grupo_145081" data-name="Grupo 145081">
                <path id="Trazado_202989" data-name="Trazado 202989" d="M3525.1,7616.677a98.817,98.817,0,0,1,0-14.8,99.252,99.252,0,0,1,0,14.8Z" transform="translate(-3524.824 -7601.874)" fill="#375a64"/>
              </g>
            </g>
          </g>
          <g id="Grupo_145098" data-name="Grupo 145098" transform="translate(0 102.094)">
            <g id="Grupo_145097" data-name="Grupo 145097">
              <g id="Grupo_145086" data-name="Grupo 145086">
                <g id="Grupo_145085" data-name="Grupo 145085">
                  <g id="Grupo_145084" data-name="Grupo 145084">
                    <rect id="Rectángulo_44378" data-name="Rectángulo 44378" width="62.826" height="60.784" fill="#e1e1e1"/>
                  </g>
                </g>
              </g>
              <g id="Grupo_145089" data-name="Grupo 145089" transform="translate(4.871 24.303)">
                <g id="Grupo_145088" data-name="Grupo 145088">
                  <g id="Grupo_145087" data-name="Grupo 145087">
                    <path id="Trazado_202990" data-name="Trazado 202990" d="M3499.731,7717.786l17.38-31.279,14.215,19.992,8.638-10.617,12.852,21.9Z" transform="translate(-3499.731 -7686.507)" fill="#feca2e"/>
                  </g>
                </g>
              </g>
              <g id="Grupo_145092" data-name="Grupo 145092" transform="translate(33.48 13.699)">
                <g id="Grupo_145091" data-name="Grupo 145091">
                  <g id="Grupo_145090" data-name="Grupo 145090">
                    <path id="Trazado_202991" data-name="Trazado 202991" d="M3535.68,7681.054a4.521,4.521,0,1,1-4.521-4.521A4.52,4.52,0,0,1,3535.68,7681.054Z" transform="translate(-3526.638 -7676.533)" fill="#feca2e"/>
                  </g>
                </g>
              </g>
              <g id="Grupo_145096" data-name="Grupo 145096" transform="translate(4.506 4.729)">
                <g id="Grupo_145095" data-name="Grupo 145095">
                  <g id="Grupo_145094" data-name="Grupo 145094">
                    <g id="Grupo_145093" data-name="Grupo 145093">
                      <path id="Trazado_202992" data-name="Trazado 202992" d="M3552.837,7719.119a1.969,1.969,0,0,1-.015-.248c0-.182-.007-.414-.013-.71-.008-.646-.018-1.559-.031-2.734-.015-2.41-.039-5.9-.067-10.323-.031-8.878-.076-21.521-.131-36.7l.256.256-53.079.042c-.073.063.561-.562.294-.291v6.878q0,3.416,0,6.768c0,4.467-.005,8.841-.008,13.1-.01,8.513-.02,16.562-.029,23.965l-.26-.261,38.382.134,10.826.067,2.872.031.743.014a2.181,2.181,0,0,1,.261.015,1.074,1.074,0,0,1-.232.016l-.717.015c-.666.008-1.607.017-2.821.031-2.515.015-6.153.037-10.766.067l-38.549.132h-.26v-.262c-.01-7.4-.018-15.452-.029-23.965,0-4.257-.005-8.63-.008-13.1q0-3.349,0-6.768v-6.878c-.268.264.363-.375.3-.308l53.079.042h.258v.257c-.054,15.247-.1,27.946-.132,36.865-.029,4.4-.051,7.868-.066,10.265q-.021,1.731-.031,2.686c-.005.284-.01.506-.014.682A1.1,1.1,0,0,1,3552.837,7719.119Z" transform="translate(-3499.387 -7668.098)" fill="#375a64"/>
                    </g>
                  </g>
                </g>
              </g>
            </g>
          </g>
          <g id="Grupo_145113" data-name="Grupo 145113" transform="translate(100.004 102.094)">
            <g id="Grupo_145112" data-name="Grupo 145112">
              <g id="Grupo_145101" data-name="Grupo 145101">
                <g id="Grupo_145100" data-name="Grupo 145100">
                  <g id="Grupo_145099" data-name="Grupo 145099">
                    <rect id="Rectángulo_44379" data-name="Rectángulo 44379" width="62.826" height="60.784" fill="#feca2e"/>
                  </g>
                </g>
              </g>
              <g id="Grupo_145104" data-name="Grupo 145104" transform="translate(4.871 24.303)">
                <g id="Grupo_145103" data-name="Grupo 145103">
                  <g id="Grupo_145102" data-name="Grupo 145102">
                    <path id="Trazado_202993" data-name="Trazado 202993" d="M3593.787,7717.786l17.38-31.279,14.215,19.992,8.638-10.617,12.851,21.9Z" transform="translate(-3593.787 -7686.507)" fill="#e1e1e1"/>
                  </g>
                </g>
              </g>
              <g id="Grupo_145107" data-name="Grupo 145107" transform="translate(33.48 13.699)">
                <g id="Grupo_145106" data-name="Grupo 145106">
                  <g id="Grupo_145105" data-name="Grupo 145105">
                    <path id="Trazado_202994" data-name="Trazado 202994" d="M3629.737,7681.054a4.521,4.521,0,1,1-4.521-4.521A4.521,4.521,0,0,1,3629.737,7681.054Z" transform="translate(-3620.694 -7676.533)" fill="#e1e1e1"/>
                  </g>
                </g>
              </g>
              <g id="Grupo_145111" data-name="Grupo 145111" transform="translate(4.506 4.729)">
                <g id="Grupo_145110" data-name="Grupo 145110">
                  <g id="Grupo_145109" data-name="Grupo 145109">
                    <g id="Grupo_145108" data-name="Grupo 145108">
                      <path id="Trazado_202995" data-name="Trazado 202995" d="M3646.893,7719.119a1.832,1.832,0,0,1-.014-.248c0-.182-.008-.414-.014-.71-.008-.646-.018-1.559-.031-2.734-.015-2.41-.038-5.9-.067-10.323-.031-8.878-.076-21.521-.131-36.7l.256.256-53.079.042c-.072.063.562-.562.295-.291v6.878q0,3.416,0,6.768c0,4.467-.005,8.841-.007,13.1-.01,8.513-.02,16.562-.029,23.965l-.26-.261,38.382.134,10.826.067,2.872.031.743.014a2.194,2.194,0,0,1,.262.015,1.08,1.08,0,0,1-.232.016l-.716.015c-.666.008-1.607.017-2.822.031-2.515.015-6.153.037-10.766.067l-38.549.132h-.261v-.262c-.009-7.4-.018-15.452-.029-23.965,0-4.257,0-8.63-.007-13.1q0-3.349,0-6.768v-6.878c-.268.264.362-.375.3-.308l53.079.042h.258v.257c-.054,15.247-.1,27.946-.132,36.865-.029,4.4-.051,7.868-.066,10.265q-.021,1.731-.03,2.686c-.006.284-.01.506-.015.682A1.142,1.142,0,0,1,3646.893,7719.119Z" transform="translate(-3593.444 -7668.098)" fill="#375a64"/>
                    </g>
                  </g>
                </g>
              </g>
            </g>
          </g>
          <g id="Grupo_145128" data-name="Grupo 145128" transform="translate(200.008 102.094)">
            <g id="Grupo_145127" data-name="Grupo 145127">
              <g id="Grupo_145116" data-name="Grupo 145116">
                <g id="Grupo_145115" data-name="Grupo 145115">
                  <g id="Grupo_145114" data-name="Grupo 145114">
                    <rect id="Rectángulo_44380" data-name="Rectángulo 44380" width="62.826" height="60.784" fill="#e1e1e1"/>
                  </g>
                </g>
              </g>
              <g id="Grupo_145119" data-name="Grupo 145119" transform="translate(4.871 24.303)">
                <g id="Grupo_145118" data-name="Grupo 145118">
                  <g id="Grupo_145117" data-name="Grupo 145117">
                    <path id="Trazado_202996" data-name="Trazado 202996" d="M3687.843,7717.786l17.38-31.279,14.216,19.992,8.638-10.617,12.851,21.9Z" transform="translate(-3687.843 -7686.507)" fill="#feca2e"/>
                  </g>
                </g>
              </g>
              <g id="Grupo_145122" data-name="Grupo 145122" transform="translate(33.479 13.699)">
                <g id="Grupo_145121" data-name="Grupo 145121">
                  <g id="Grupo_145120" data-name="Grupo 145120">
                    <path id="Trazado_202997" data-name="Trazado 202997" d="M3723.793,7681.054a4.521,4.521,0,1,1-4.521-4.521A4.521,4.521,0,0,1,3723.793,7681.054Z" transform="translate(-3714.75 -7676.533)" fill="#feca2e"/>
                  </g>
                </g>
              </g>
              <g id="Grupo_145126" data-name="Grupo 145126" transform="translate(4.505 4.729)">
                <g id="Grupo_145125" data-name="Grupo 145125">
                  <g id="Grupo_145124" data-name="Grupo 145124">
                    <g id="Grupo_145123" data-name="Grupo 145123">
                      <path id="Trazado_202998" data-name="Trazado 202998" d="M3740.949,7719.119a1.864,1.864,0,0,1-.014-.248c0-.182-.009-.414-.014-.71-.007-.646-.018-1.559-.03-2.734-.016-2.41-.04-5.9-.068-10.323-.031-8.878-.076-21.521-.131-36.7l.256.256-53.079.042c-.071.063.562-.562.295-.291v6.878q0,3.416,0,6.768c0,4.467-.005,8.841-.008,13.1-.01,8.513-.02,16.562-.029,23.965l-.259-.261,38.381.134,10.826.067,2.872.031.743.014a2.189,2.189,0,0,1,.262.015,1.074,1.074,0,0,1-.231.016l-.717.015c-.666.008-1.607.017-2.822.031-2.515.015-6.153.037-10.766.067l-38.548.132h-.262v-.262c-.008-7.4-.018-15.452-.029-23.965,0-4.257,0-8.63-.008-13.1q0-3.349,0-6.768v-6.878c-.268.264.363-.375.3-.308l53.079.042h.258v.257c-.054,15.247-.1,27.946-.132,36.865-.029,4.4-.05,7.868-.066,10.265q-.021,1.731-.03,2.686c-.006.284-.01.506-.015.682A1.116,1.116,0,0,1,3740.949,7719.119Z" transform="translate(-3687.5 -7668.098)" fill="#375a64"/>
                    </g>
                  </g>
                </g>
              </g>
            </g>
          </g>
          <g id="Grupo_145129" data-name="Grupo 145129" transform="translate(84.972)">
            <rect id="Rectángulo_44381" data-name="Rectángulo 44381" width="79.568" height="6.668" fill="#375a64"/>
          </g>
        </g>
      </g>
      <g id="Grupo_145133" data-name="Grupo 145133" transform="translate(17.876 261.491)">
        <g id="Grupo_145132" data-name="Grupo 145132">
          <path id="Trazado_202999" data-name="Trazado 202999" d="M3835.427,7749.943c0,.153-94.876.277-211.883.277-117.049,0-211.9-.124-211.9-.277s94.855-.276,211.9-.276C3740.551,7749.667,3835.427,7749.792,3835.427,7749.943Z" transform="translate(-3411.64 -7749.667)" fill="#375a64"/>
        </g>
      </g>
    </g>
    <g id="Grupo_145136" data-name="Grupo 145136" transform="translate(144.319 -9375.361)">
      <g id="Grupo_145135" data-name="Grupo 145135">
        <path id="Trazado_203000" data-name="Trazado 203000" d="M3890.126,7773.324c0,.08-123.588.145-276.008.145-152.471,0-276.034-.064-276.034-.145s123.563-.145,276.034-.145C3766.538,7773.179,3890.126,7773.245,3890.126,7773.324Z" transform="translate(-3338.084 -7773.179)" fill="#1a2e35"/>
      </g>
    </g>
    <g id="Grupo_145342" data-name="Grupo 145342" transform="translate(481.862 -9615.286)">
      <path id="Trazado_203001" data-name="Trazado 203001" d="M3738.965,7649.325s.948-10.092,1.908-10.01,1.107,1.872,1,2.739.042,4.239.042,4.239Z" transform="translate(-3650.276 -7541.719)" fill="#ffbf9d"/>
      <g id="Grupo_145137" data-name="Grupo 145137" transform="translate(131.104 78.687)">
        <path id="Trazado_203002" data-name="Trazado 203002" d="M3823.018,7642.186l-4.833,33.991,22.345,97.539-61.673,4.937,26.537-157.079S3822.972,7619.616,3823.018,7642.186Z" transform="translate(-3778.857 -7621.531)" fill="#1a2e35"/>
      </g>
      <g id="Grupo_145157" data-name="Grupo 145157" transform="translate(83.786 271.042)">
        <g id="Grupo_145138" data-name="Grupo 145138" transform="translate(12.1)">
          <path id="Trazado_203003" data-name="Trazado 203003" d="M3749.294,7802.445l-3.561,40.257h15.219l6.708-40.257Z" transform="translate(-3745.734 -7802.445)" fill="#ffbf9d"/>
        </g>
        <g id="Grupo_145139" data-name="Grupo 145139" transform="translate(0 40.257)">
          <path id="Trazado_203004" data-name="Trazado 203004" d="M3746.454,7840.307s-10.267,1.326-12.1,2.651l26.908-.325.411-2.326Z" transform="translate(-3734.353 -7840.307)" fill="#ffbf9d"/>
        </g>
        <g id="Grupo_145140" data-name="Grupo 145140" transform="translate(0 42.532)">
          <path id="Trazado_203005" data-name="Trazado 203005" d="M3734.353,7842.823v1.076l27.711-.295v-1.157Z" transform="translate(-3734.353 -7842.447)" fill="#0f2771"/>
        </g>
        <g id="Grupo_145142" data-name="Grupo 145142" transform="translate(6.548 41.034)">
          <g id="Grupo_145141" data-name="Grupo 145141">
            <path id="Trazado_203006" data-name="Trazado 203006" d="M3743.766,7843.533c-.143.062-.583-.763-1.476-1.409-.879-.667-1.8-.849-1.778-1-.012-.141,1.075-.188,2.094.575S3743.9,7843.5,3743.766,7843.533Z" transform="translate(-3740.512 -7841.038)" fill="#0f2771"/>
          </g>
        </g>
        <g id="Grupo_145144" data-name="Grupo 145144" transform="translate(20.009 39.413)">
          <g id="Grupo_145143" data-name="Grupo 145143">
            <path id="Trazado_203007" data-name="Trazado 203007" d="M3760.829,7839.556c.027.157-1.849.525-3.951,1.521-2.112.976-3.6,2.181-3.7,2.059a11.168,11.168,0,0,1,7.651-3.579Z" transform="translate(-3753.173 -7839.513)" fill="#0f2771"/>
          </g>
        </g>
        <g id="Grupo_145146" data-name="Grupo 145146" transform="translate(12.095 37.961)">
          <g id="Grupo_145145" data-name="Grupo 145145">
            <path id="Trazado_203008" data-name="Trazado 203008" d="M3760.676,7838.987a105.414,105.414,0,0,1-14.947-.754,105.394,105.394,0,0,1,14.947.754Z" transform="translate(-3745.729 -7838.148)" fill="#0f2771"/>
          </g>
        </g>
        <g id="Grupo_145148" data-name="Grupo 145148" transform="translate(12.255 33.485)">
          <g id="Grupo_145147" data-name="Grupo 145147">
            <path id="Trazado_203009" data-name="Trazado 203009" d="M3762.453,7833.962a133.238,133.238,0,0,1-16.574,3.024,133.26,133.26,0,0,1,16.574-3.024Z" transform="translate(-3745.879 -7833.939)" fill="#0f2771"/>
          </g>
        </g>
        <g id="Grupo_145150" data-name="Grupo 145150" transform="translate(22.965 29.441)">
          <g id="Grupo_145149" data-name="Grupo 145149">
            <path id="Trazado_203010" data-name="Trazado 203010" d="M3761.544,7834.391a4.609,4.609,0,0,1-2.008-.437,9.91,9.91,0,0,1-1.995-1.038,9.348,9.348,0,0,1-1.058-.825,1.726,1.726,0,0,1-.462-.656,1.046,1.046,0,0,1,.084-.917.9.9,0,0,1,.866-.375,2.433,2.433,0,0,1,.736.208,6.026,6.026,0,0,1,2.759,2.295,3.472,3.472,0,0,1,.713,1.936c-.088.028-.285-.741-1.022-1.719a6.3,6.3,0,0,0-1.542-1.453,5.9,5.9,0,0,0-1.1-.575c-.393-.176-.845-.25-.964-.025-.16.252-.013.636.3.907a10.445,10.445,0,0,0,.977.8,11.8,11.8,0,0,0,1.861,1.093C3760.8,7834.128,3761.563,7834.307,3761.544,7834.391Z" transform="translate(-3755.953 -7830.135)" fill="#0f2771"/>
          </g>
        </g>
        <g id="Grupo_145152" data-name="Grupo 145152" transform="translate(28.039 27.782)">
          <g id="Grupo_145151" data-name="Grupo 145151">
            <path id="Trazado_203011" data-name="Trazado 203011" d="M3761.1,7834.851a3.433,3.433,0,0,1-.378-1.985,6.137,6.137,0,0,1,.469-2.176,6.064,6.064,0,0,1,.64-1.162,5.528,5.528,0,0,1,.445-.558,1.087,1.087,0,0,1,.8-.4.928.928,0,0,1,.771.524,1.618,1.618,0,0,1,.146.785,5.675,5.675,0,0,1-1.24,3.3,3.318,3.318,0,0,1-1.594,1.245c-.053-.073.607-.486,1.292-1.47a5.935,5.935,0,0,0,.854-1.885,5.584,5.584,0,0,0,.167-1.2c.033-.4-.159-.761-.41-.768-.233-.025-.559.4-.8.726a5.945,5.945,0,0,0-.615,1.055,6.508,6.508,0,0,0-.543,2C3760.978,7834.083,3761.2,7834.831,3761.1,7834.851Z" transform="translate(-3760.725 -7828.575)" fill="#0f2771"/>
          </g>
        </g>
        <g id="Grupo_145154" data-name="Grupo 145154" transform="translate(28.301 33.8)">
          <g id="Grupo_145153" data-name="Grupo 145153">
            <path id="Trazado_203012" data-name="Trazado 203012" d="M3763.138,7840.775a12.152,12.152,0,0,1-2.116-6.54,165.788,165.788,0,0,1,2.116,6.54Z" transform="translate(-3760.971 -7834.235)" fill="#0f2771"/>
          </g>
        </g>
        <g id="Grupo_145156" data-name="Grupo 145156" transform="translate(27.918 33.349)">
          <g id="Grupo_145155" data-name="Grupo 145155">
            <path id="Trazado_203013" data-name="Trazado 203013" d="M3764.978,7839.373a9.862,9.862,0,0,1-4.349-5.561c.141-.065.883,1.336,2.079,2.855S3765.076,7839.25,3764.978,7839.373Z" transform="translate(-3760.611 -7833.81)" fill="#0f2771"/>
          </g>
        </g>
      </g>
      <g id="Grupo_145178" data-name="Grupo 145178" transform="translate(156.239 257.869)">
        <g id="Grupo_145158" data-name="Grupo 145158">
          <path id="Trazado_203014" data-name="Trazado 203014" d="M3802.5,7806.53l31.171,24.71,7.417-10.847-27.876-30.338Z" transform="translate(-3802.497 -7790.055)" fill="#ffbf9d"/>
        </g>
        <g id="Grupo_145177" data-name="Grupo 145177" transform="translate(24.215 19.313)">
          <g id="Grupo_145159" data-name="Grupo 145159" transform="translate(0 10)">
            <path id="Trazado_203015" data-name="Trazado 203015" d="M3830.027,7830.1s-4.792,9.177-4.755,11.438l15.142-22.245-1.671-1.669Z" transform="translate(-3825.272 -7817.625)" fill="#ffbf9d"/>
          </g>
          <g id="Grupo_145160" data-name="Grupo 145160" transform="translate(0 10.981)">
            <path id="Trazado_203016" data-name="Trazado 203016" d="M3825.272,7841.482l.882.615,15.627-22.887-.949-.662Z" transform="translate(-3825.272 -7818.548)" fill="#0f2771"/>
          </g>
          <g id="Grupo_145162" data-name="Grupo 145162" transform="translate(2.266 25.949)">
            <g id="Grupo_145161" data-name="Grupo 145161">
              <path id="Trazado_203017" data-name="Trazado 203017" d="M3831.26,7832.911c-.031.152-.959.042-2,.4-1.051.339-1.723.985-1.839.883-.122-.07.46-.988,1.67-1.388S3831.314,7832.781,3831.26,7832.911Z" transform="translate(-3827.403 -7832.625)" fill="#0f2771"/>
            </g>
          </g>
          <g id="Grupo_145164" data-name="Grupo 145164" transform="translate(11.278 9.255)">
            <g id="Grupo_145163" data-name="Grupo 145163">
              <path id="Trazado_203018" data-name="Trazado 203018" d="M3837.612,7816.926c.145.067-.627,1.817-1.017,4.111-.408,2.29-.271,4.2-.431,4.211a11.173,11.173,0,0,1,1.447-8.322Z" transform="translate(-3835.879 -7816.924)" fill="#0f2771"/>
            </g>
          </g>
          <g id="Grupo_145166" data-name="Grupo 145166" transform="translate(3.827 8.666)">
            <g id="Grupo_145165" data-name="Grupo 145165">
              <path id="Trazado_203019" data-name="Trazado 203019" d="M3837.2,7816.374a86.741,86.741,0,0,1-8.327,10.727,86.93,86.93,0,0,1,8.327-10.727Z" transform="translate(-3828.871 -7816.371)" fill="#0f2771"/>
            </g>
          </g>
          <g id="Grupo_145168" data-name="Grupo 145168" transform="translate(2.601 4.898)">
            <g id="Grupo_145167" data-name="Grupo 145167">
              <path id="Trazado_203020" data-name="Trazado 203020" d="M3833.919,7812.827a103.757,103.757,0,0,1-6.191,13.528,104.537,104.537,0,0,1,6.191-13.528Z" transform="translate(-3827.718 -7812.826)" fill="#0f2771"/>
            </g>
          </g>
          <g id="Grupo_145170" data-name="Grupo 145170" transform="translate(2.45 5.109)">
            <g id="Grupo_145169" data-name="Grupo 145169">
              <path id="Trazado_203021" data-name="Trazado 203021" d="M3833.927,7813.146a4.581,4.581,0,0,1-1.509,1.4,9.827,9.827,0,0,1-1.992,1.041,9.4,9.4,0,0,1-1.282.4,1.736,1.736,0,0,1-.8,0,1.049,1.049,0,0,1-.7-.594.907.907,0,0,1,.189-.926,2.42,2.42,0,0,1,.592-.483,5.954,5.954,0,0,1,1.218-.6,6.025,6.025,0,0,1,2.244-.35,3.465,3.465,0,0,1,1.995.524c-.026.089-.771-.192-1.995-.148a6.32,6.32,0,0,0-2.073.433,5.945,5.945,0,0,0-1.1.575c-.37.222-.69.549-.573.775.114.276.514.374.912.277a10.242,10.242,0,0,0,1.214-.344,11.639,11.639,0,0,0,1.962-.9C3833.288,7813.6,3833.871,7813.083,3833.927,7813.146Z" transform="translate(-3827.577 -7813.025)" fill="#0f2771"/>
            </g>
          </g>
          <g id="Grupo_145172" data-name="Grupo 145172" transform="translate(4.835)">
            <g id="Grupo_145171" data-name="Grupo 145171">
              <path id="Trazado_203022" data-name="Trazado 203022" d="M3834,7813.768a3.423,3.423,0,0,1-1.844-.826,6.11,6.11,0,0,1-1.515-1.63,5.98,5.98,0,0,1-.586-1.189,5.439,5.439,0,0,1-.2-.684,1.1,1.1,0,0,1,.13-.88.928.928,0,0,1,.872-.33,1.6,1.6,0,0,1,.727.329,5.682,5.682,0,0,1,1.995,2.905,3.318,3.318,0,0,1,.108,2.019c-.091,0-.053-.776-.466-1.9a5.956,5.956,0,0,0-1.056-1.778,5.578,5.578,0,0,0-.889-.824c-.308-.255-.714-.3-.864-.1-.154.176.01.688.137,1.071a5.991,5.991,0,0,0,.511,1.108,6.49,6.49,0,0,0,1.333,1.592C3833.3,7813.434,3834.04,7813.681,3834,7813.768Z" transform="translate(-3829.819 -7808.22)" fill="#0f2771"/>
            </g>
          </g>
          <g id="Grupo_145174" data-name="Grupo 145174" transform="translate(8.767 5.435)">
            <g id="Grupo_145173" data-name="Grupo 145173">
              <path id="Trazado_203023" data-name="Trazado 203023" d="M3840.092,7815.363a12.14,12.14,0,0,1-6.573-2.011,171.559,171.559,0,0,1,6.573,2.011Z" transform="translate(-3833.517 -7813.331)" fill="#0f2771"/>
            </g>
          </g>
          <g id="Grupo_145176" data-name="Grupo 145176" transform="translate(8.162 5.123)">
            <g id="Grupo_145175" data-name="Grupo 145175">
              <path id="Trazado_203024" data-name="Trazado 203024" d="M3840,7813.074a9.866,9.866,0,0,1-7.048.382c.028-.154,1.6.041,3.531-.069S3839.954,7812.924,3840,7813.074Z" transform="translate(-3832.949 -7813.038)" fill="#0f2771"/>
            </g>
          </g>
        </g>
      </g>
      <g id="Grupo_145222" data-name="Grupo 145222" transform="translate(95.61 145.457)">
        <g id="Grupo_145189" data-name="Grupo 145189" transform="translate(0.347)">
          <g id="Grupo_145184" data-name="Grupo 145184" transform="translate(19.883 1.082)">
            <g id="Grupo_145181" data-name="Grupo 145181">
              <g id="Grupo_145180" data-name="Grupo 145180">
                <g id="Grupo_145179" data-name="Grupo 145179">
                  <path id="Trazado_203025" data-name="Trazado 203025" d="M3774.846,7691.709s-11.9,79.086-10.173,82.908,40.29,43.3,40.29,43.3l14.47-24.783s-25.516-28.269-25.15-29.736,18.4-78.052,18.4-78.052Z" transform="translate(-3764.501 -7685.348)" fill="#4dd0e1"/>
                </g>
              </g>
            </g>
            <g id="Grupo_145182" data-name="Grupo 145182" transform="translate(13.097 56.835)">
              <path id="Trazado_203026" data-name="Trazado 203026" d="M3776.819,7786.207l10.162-22.324,11.751-25.081a185.36,185.36,0,0,0-18.115,32.79A56.928,56.928,0,0,0,3776.819,7786.207Z" transform="translate(-3776.819 -7738.801)" fill="#2e9ba3"/>
              <path id="Trazado_203027" data-name="Trazado 203027" d="M3776.819,7786.207l10.162-22.324,11.751-25.081a185.36,185.36,0,0,0-18.115,32.79A56.928,56.928,0,0,0,3776.819,7786.207Z" transform="translate(-3776.819 -7738.801)" fill="#2e9ba3" opacity="0.4"/>
            </g>
            <g id="Grupo_145183" data-name="Grupo 145183" transform="translate(6.113 6.361)">
              <path id="Trazado_203028" data-name="Trazado 203028" d="M3770.251,7720.523c.119-.838,9.722-22.436,9.722-22.436l-4.663-6.579-.827-.178Z" transform="translate(-3770.251 -7691.331)" fill="#2e9ba3"/>
              <path id="Trazado_203029" data-name="Trazado 203029" d="M3770.251,7720.523c.119-.838,9.722-22.436,9.722-22.436l-4.663-6.579-.827-.178Z" transform="translate(-3770.251 -7691.331)" fill="#2e9ba3" opacity="0.4"/>
            </g>
          </g>
          <g id="Grupo_145188" data-name="Grupo 145188">
            <g id="Grupo_145187" data-name="Grupo 145187">
              <g id="Grupo_145186" data-name="Grupo 145186">
                <g id="Grupo_145185" data-name="Grupo 145185">
                  <path id="Trazado_203030" data-name="Trazado 203030" d="M3820.621,7684.329l.719,2.934a34.551,34.551,0,0,1-3.63,25.489l-32.278,55.95a44.943,44.943,0,0,0-4.947,12.718l-8.037,36.181s-25.373.86-26.474,0,3.274-24.792,6.187-42.92c2.2-13.671,20.5-56.111,29.358-76.151l-5.491-6.757,9.539-1.592Z" transform="translate(-3745.801 -7684.329)" fill="#4dd0e1"/>
                </g>
              </g>
            </g>
          </g>
        </g>
        <g id="Grupo_145191" data-name="Grupo 145191" transform="translate(0.283 133.231)">
          <g id="Grupo_145190" data-name="Grupo 145190">
            <path id="Trazado_203031" data-name="Trazado 203031" d="M3772.452,7809.677a4,4,0,0,1-1.042.17c-.673.075-1.649.157-2.858.236-2.416.158-5.76.275-9.453.267s-7.035-.122-9.452-.24c-1.208-.06-2.185-.119-2.86-.174a.53.53,0,1,1,.007-.206l2.864,0,9.442.085c3.685.007,7.021-.049,9.436-.111l2.861-.067A4.089,4.089,0,0,1,3772.452,7809.677Z" transform="translate(-3745.741 -7809.636)" fill="#1a2e35"/>
          </g>
        </g>
        <g id="Grupo_145193" data-name="Grupo 145193" transform="translate(1.142 126.161)">
          <g id="Grupo_145192" data-name="Grupo 145192">
            <path id="Trazado_203032" data-name="Trazado 203032" d="M3773.8,7803.308c0,.146-6.1.243-13.626.215s-13.624-.17-13.624-.316,6.1-.244,13.626-.215S3773.8,7803.162,3773.8,7803.308Z" transform="translate(-3746.548 -7802.986)" fill="#1a2e35"/>
          </g>
        </g>
        <g id="Grupo_145195" data-name="Grupo 145195" transform="translate(55.28 103.769)">
          <g id="Grupo_145194" data-name="Grupo 145194">
            <path id="Trazado_203033" data-name="Trazado 203033" d="M3812.915,7781.927a4.641,4.641,0,0,1-.545,1l-1.641,2.618-5.476,8.6c-2.092,3.311-3.982,6.306-5.443,8.618l-1.669,2.6a4.75,4.75,0,0,1-.671.919,4.641,4.641,0,0,1,.493-1.024c.348-.644.869-1.562,1.526-2.69,1.314-2.256,3.181-5.343,5.315-8.708s4.13-6.368,5.611-8.519c.74-1.075,1.349-1.938,1.783-2.526A4.741,4.741,0,0,1,3812.915,7781.927Z" transform="translate(-3797.467 -7781.926)" fill="#1a2e35"/>
          </g>
        </g>
        <g id="Grupo_145197" data-name="Grupo 145197" transform="translate(57.179 124.744)">
          <g id="Grupo_145196" data-name="Grupo 145196">
            <path id="Trazado_203034" data-name="Trazado 203034" d="M3801.245,7808.446a23.628,23.628,0,0,1-1.958-6.792,23.652,23.652,0,0,1,1.958,6.792Z" transform="translate(-3799.252 -7801.653)" fill="#1a2e35"/>
          </g>
        </g>
        <g id="Grupo_145199" data-name="Grupo 145199" transform="translate(59.522 120.24)">
          <g id="Grupo_145198" data-name="Grupo 145198">
            <path id="Trazado_203035" data-name="Trazado 203035" d="M3803.355,7808.645a60.912,60.912,0,0,1-1.863-11.227,60.949,60.949,0,0,1,1.863,11.227Z" transform="translate(-3801.456 -7797.418)" fill="#1a2e35"/>
          </g>
        </g>
        <g id="Grupo_145201" data-name="Grupo 145201" transform="translate(61.961 117.489)">
          <g id="Grupo_145200" data-name="Grupo 145200">
            <path id="Trazado_203036" data-name="Trazado 203036" d="M3806.164,7804.6a87.551,87.551,0,0,1-2.39-9.771,32.848,32.848,0,0,1,2.39,9.771Z" transform="translate(-3803.75 -7794.831)" fill="#1a2e35"/>
          </g>
        </g>
        <g id="Grupo_145203" data-name="Grupo 145203" transform="translate(64.958 111.96)">
          <g id="Grupo_145202" data-name="Grupo 145202">
            <path id="Trazado_203037" data-name="Trazado 203037" d="M3808.49,7799.126a44.128,44.128,0,0,1-1.885-9.5,44.207,44.207,0,0,1,1.885,9.5Z" transform="translate(-3806.568 -7789.63)" fill="#1a2e35"/>
          </g>
        </g>
        <g id="Grupo_145205" data-name="Grupo 145205" transform="translate(67.937 107.333)">
          <g id="Grupo_145204" data-name="Grupo 145204">
            <path id="Trazado_203038" data-name="Trazado 203038" d="M3811.558,7794.583a35.288,35.288,0,0,1-1.138-4.639,35.648,35.648,0,0,1-1.028-4.665,24.235,24.235,0,0,1,2.166,9.3Z" transform="translate(-3809.37 -7785.278)" fill="#1a2e35"/>
          </g>
        </g>
        <g id="Grupo_145207" data-name="Grupo 145207" transform="translate(71.066 104.867)">
          <g id="Grupo_145206" data-name="Grupo 145206">
            <path id="Trazado_203039" data-name="Trazado 203039" d="M3814.259,7790.647a29.661,29.661,0,1,1-.7-3.907A15,15,0,0,1,3814.259,7790.647Z" transform="translate(-3812.313 -7782.959)" fill="#1a2e35"/>
          </g>
        </g>
        <g id="Grupo_145209" data-name="Grupo 145209" transform="translate(1.057 126.207)">
          <g id="Grupo_145208" data-name="Grupo 145208">
            <path id="Trazado_203040" data-name="Trazado 203040" d="M3759.2,7803.039a252.643,252.643,0,0,1-12.727,6.734,7.984,7.984,0,0,1,1.732-1.221c1.109-.688,2.67-1.594,4.431-2.525s3.387-1.715,4.58-2.243A8.037,8.037,0,0,1,3759.2,7803.039Z" transform="translate(-3746.469 -7803.029)" fill="#1a2e35"/>
          </g>
        </g>
        <g id="Grupo_145211" data-name="Grupo 145211" transform="translate(7.073 126.327)">
          <g id="Grupo_145210" data-name="Grupo 145210">
            <path id="Trazado_203041" data-name="Trazado 203041" d="M3766.655,7803.15a10.041,10.041,0,0,1-1.995,1.3c-1.271.737-3.057,1.705-5.066,2.7s-3.863,1.823-5.22,2.385a9.979,9.979,0,0,1-2.247.794,11.139,11.139,0,0,1,2.091-1.137c1.5-.734,3.229-1.581,5.141-2.52l5.123-2.552A11.259,11.259,0,0,1,3766.655,7803.15Z" transform="translate(-3752.126 -7803.143)" fill="#1a2e35"/>
          </g>
        </g>
        <g id="Grupo_145213" data-name="Grupo 145213" transform="translate(17.148 126.326)">
          <g id="Grupo_145212" data-name="Grupo 145212">
            <path id="Trazado_203042" data-name="Trazado 203042" d="M3772.02,7803.148a54.565,54.565,0,0,1-10.415,7.58,137.774,137.774,0,0,1,10.415-7.58Z" transform="translate(-3761.602 -7803.142)" fill="#1a2e35"/>
          </g>
        </g>
        <g id="Grupo_145215" data-name="Grupo 145215" transform="translate(23.455 130.061)">
          <g id="Grupo_145214" data-name="Grupo 145214">
            <path id="Trazado_203043" data-name="Trazado 203043" d="M3772.291,7806.667a17.06,17.06,0,1,1-2.537,1.616A8.668,8.668,0,0,1,3772.291,7806.667Z" transform="translate(-3767.535 -7806.655)" fill="#1a2e35"/>
          </g>
        </g>
        <g id="Grupo_145217" data-name="Grupo 145217" transform="translate(0 126.07)">
          <g id="Grupo_145216" data-name="Grupo 145216">
            <path id="Trazado_203044" data-name="Trazado 203044" d="M3752.315,7802.914a29.949,29.949,0,1,1-3.554,1.811A15.071,15.071,0,0,1,3752.315,7802.914Z" transform="translate(-3745.475 -7802.901)" fill="#1a2e35"/>
          </g>
        </g>
        <g id="Grupo_145219" data-name="Grupo 145219" transform="translate(26.004 14.047)">
          <g id="Grupo_145218" data-name="Grupo 145218">
            <path id="Trazado_203045" data-name="Trazado 203045" d="M3779.3,7697.541a29.408,29.408,0,0,1-1.349,3.538c-.881,2.162-2.1,5.15-3.387,8.47s-2.414,6.344-3.225,8.534a29.334,29.334,0,0,1-1.395,3.52,3.783,3.783,0,0,1,.223-1c.177-.631.455-1.535.817-2.647.721-2.226,1.791-5.275,3.083-8.6s2.568-6.3,3.539-8.426c.486-1.064.892-1.92,1.188-2.5A3.762,3.762,0,0,1,3779.3,7697.541Z" transform="translate(-3769.932 -7697.541)" fill="#1a2e35"/>
          </g>
        </g>
        <g id="Grupo_145221" data-name="Grupo 145221" transform="translate(32.707 52.78)">
          <g id="Grupo_145220" data-name="Grupo 145220">
            <path id="Trazado_203046" data-name="Trazado 203046" d="M3776.243,7789.042a2.878,2.878,0,0,1,.044-.628c.06-.465.135-1.057.228-1.786.093-.778.235-1.726.474-2.812s.441-2.341.825-3.688q.266-1.02.558-2.127c.207-.735.464-1.488.709-2.274.467-1.583,1.117-3.219,1.755-4.957a112.927,112.927,0,0,1,5.083-10.918,193.285,193.285,0,0,1,11.555-18.549c1.594-2.3,2.909-4.137,3.829-5.4.438-.591.792-1.071,1.071-1.447a2.8,2.8,0,0,1,.4-.483,2.757,2.757,0,0,1-.315.545l-.989,1.5-3.687,5.494c-3.1,4.646-7.367,11.085-11.4,18.587-2,3.759-3.7,7.438-5.095,10.849-.647,1.724-1.31,3.346-1.792,4.913-.253.779-.519,1.524-.736,2.254s-.4,1.434-.588,2.106c-.405,1.335-.644,2.574-.9,3.651s-.437,2.016-.562,2.786c-.133.724-.24,1.309-.325,1.77A2.859,2.859,0,0,1,3776.243,7789.042Z" transform="translate(-3776.236 -7733.97)" fill="#1a2e35"/>
          </g>
        </g>
      </g>
      <g id="Grupo_145223" data-name="Grupo 145223" transform="translate(113.529 78.84)">
        <path id="Trazado_203047" data-name="Trazado 203047" d="M3808.777,7621.675,3783.8,7623.8s-7.492.173-15.6,19.178l-5.871,18.82,10.558,2.25.023,1.034,2.075,30.655,45.072-7.3c.1-3.894-2.087-9.566-3.746-14.9,1.682-4.207,8.8-22.534,8.788-31.359-.029-18.871-16.321-20.5-16.321-20.5" transform="translate(-3762.327 -7621.675)" fill="#fff"/>
      </g>
      <g id="Grupo_145225" data-name="Grupo 145225" transform="translate(156.297 254.326)">
        <g id="Grupo_145224" data-name="Grupo 145224">
          <path id="Trazado_203048" data-name="Trazado 203048" d="M3817.027,7786.724a4.552,4.552,0,0,1-.459,1.034c-.324.651-.82,1.578-1.447,2.715-1.253,2.274-3.062,5.373-5.1,8.767l-5.231,8.683-1.593,2.626a4.688,4.688,0,0,1-.64.934,4.617,4.617,0,0,1,.459-1.034c.325-.65.82-1.577,1.447-2.714,1.254-2.275,3.062-5.373,5.1-8.769l5.231-8.68,1.593-2.628A4.7,4.7,0,0,1,3817.027,7786.724Z" transform="translate(-3802.551 -7786.724)" fill="#1a2e35"/>
        </g>
      </g>
      <g id="Grupo_145227" data-name="Grupo 145227" transform="translate(157.701 123.874)">
        <g id="Grupo_145226" data-name="Grupo 145226">
          <path id="Trazado_203049" data-name="Trazado 203049" d="M3811.021,7664.07a14.753,14.753,0,0,1-7.149.957,77.086,77.086,0,0,1,7.149-.957Z" transform="translate(-3803.872 -7664.03)" fill="#fff"/>
        </g>
      </g>
      <g id="Grupo_145243" data-name="Grupo 145243" transform="translate(83.548 79.801)">
        <g id="Grupo_145228" data-name="Grupo 145228">
          <path id="Trazado_203050" data-name="Trazado 203050" d="M3776.881,7665.2l-.518,33.267,13.505-75.771c-4.486-.8-12.853,2.738-16,7.215-2.25,2.674-3.489,8.843-9.76,27.406l-3.851,12.6-15.6-17.087-10.526,9.505s18.148,29.633,25.722,31.273c10.321,2.237,17.029-28.406,17.029-28.406" transform="translate(-3734.13 -7622.578)" fill="#375a64"/>
        </g>
        <g id="Grupo_145230" data-name="Grupo 145230" transform="translate(40.824 11.831)">
          <g id="Grupo_145229" data-name="Grupo 145229">
            <path id="Trazado_203051" data-name="Trazado 203051" d="M3776.611,7633.705a6.1,6.1,0,0,1-.138,1.3c-.145.934-.325,2.106-.541,3.5-.461,2.955-1.07,7.041-1.63,11.567s-.962,8.64-1.233,11.618c-.13,1.406-.239,2.587-.326,3.528a.654.654,0,1,1-.206-.013c.016-.838.069-2.049.157-3.544.175-2.99.521-7.116,1.08-11.654s1.23-8.624,1.787-11.566c.279-1.472.521-2.658.709-3.476A6.08,6.08,0,0,1,3776.611,7633.705Z" transform="translate(-3772.525 -7633.705)" fill="#1a2e35"/>
          </g>
        </g>
        <g id="Grupo_145232" data-name="Grupo 145232" transform="translate(41.409 5.045)">
          <g id="Grupo_145231" data-name="Grupo 145231">
            <path id="Trazado_203052" data-name="Trazado 203052" d="M3773.077,7632.649c-.057-.148,2.042-1.036,4.416-2.505s4.121-2.933,4.228-2.814a18.411,18.411,0,0,1-8.643,5.319Z" transform="translate(-3773.076 -7627.323)" fill="#fff"/>
          </g>
        </g>
        <g id="Grupo_145234" data-name="Grupo 145234" transform="translate(34.576 24.663)">
          <g id="Grupo_145233" data-name="Grupo 145233">
            <path id="Trazado_203053" data-name="Trazado 203053" d="M3769.161,7653.422a134.79,134.79,0,0,1-2.493-7.646,17.383,17.383,0,0,1,2.493,7.646Z" transform="translate(-3766.649 -7645.774)" fill="#fff"/>
          </g>
        </g>
        <g id="Grupo_145236" data-name="Grupo 145236" transform="translate(46.393 20.342)">
          <g id="Grupo_145235" data-name="Grupo 145235">
            <path id="Trazado_203054" data-name="Trazado 203054" d="M3779.415,7641.71a19.409,19.409,0,0,1-1.625,8.652,365.146,365.146,0,0,1,1.625-8.652Z" transform="translate(-3777.763 -7641.71)" fill="#fff"/>
          </g>
        </g>
        <g id="Grupo_145238" data-name="Grupo 145238" transform="translate(31.872 49.339)">
          <g id="Grupo_145237" data-name="Grupo 145237">
            <path id="Trazado_203055" data-name="Trazado 203055" d="M3765.085,7668.983a96.005,96.005,0,0,1-.81,7.8,17.236,17.236,0,0,1,.81-7.8Z" transform="translate(-3764.106 -7668.982)" fill="#fff"/>
          </g>
        </g>
        <g id="Grupo_145240" data-name="Grupo 145240" transform="translate(8.157 40.075)">
          <g id="Grupo_145239" data-name="Grupo 145239">
            <path id="Trazado_203056" data-name="Trazado 203056" d="M3746.531,7669.272a24.764,24.764,0,0,1-4.715-9,47.738,47.738,0,0,1,2.363,4.5A47.1,47.1,0,0,1,3746.531,7669.272Z" transform="translate(-3741.801 -7660.27)" fill="#fff"/>
          </g>
        </g>
        <g id="Grupo_145242" data-name="Grupo 145242" transform="translate(18.104 49.845)">
          <g id="Grupo_145241" data-name="Grupo 145241">
            <path id="Trazado_203057" data-name="Trazado 203057" d="M3757.365,7669.474a13.153,13.153,0,0,1-6.207,2.832,71.1,71.1,0,0,1,6.207-2.832Z" transform="translate(-3751.157 -7669.458)" fill="#fff"/>
          </g>
        </g>
      </g>
      <g id="Grupo_145263" data-name="Grupo 145263" transform="translate(161.94 107.147)">
        <g id="Grupo_145244" data-name="Grupo 145244">
          <path id="Trazado_203058" data-name="Trazado 203058" d="M3807.859,7681.356l7.815,92.888,23.533-2.222-22.345-97.539,2.729-26.187Z" transform="translate(-3807.859 -7648.298)" fill="#375a64"/>
        </g>
        <g id="Grupo_145246" data-name="Grupo 145246" transform="translate(0.617 33.858)">
          <g id="Grupo_145245" data-name="Grupo 145245">
            <path id="Trazado_203059" data-name="Trazado 203059" d="M3815.638,7772.233c-.147.012-1.875-20.6-3.859-46.022s-3.476-46.057-3.329-46.068,1.873,20.591,3.86,46.027S3815.784,7772.221,3815.638,7772.233Z" transform="translate(-3808.44 -7680.143)" fill="#1a2e35"/>
          </g>
        </g>
        <g id="Grupo_145248" data-name="Grupo 145248" transform="translate(5.52 29.284)">
          <g id="Grupo_145247" data-name="Grupo 145247">
            <path id="Trazado_203060" data-name="Trazado 203060" d="M3813.076,7681.762a19.54,19.54,0,1,1,1.485-2.857A9.9,9.9,0,0,1,3813.076,7681.762Z" transform="translate(-3813.051 -7675.84)" fill="#fff"/>
          </g>
        </g>
        <g id="Grupo_145250" data-name="Grupo 145250" transform="translate(6.066 43.677)">
          <g id="Grupo_145249" data-name="Grupo 145249">
            <path id="Trazado_203061" data-name="Trazado 203061" d="M3819.538,7694.72c-.121.1-1.3-1.256-2.941-2.714a39.715,39.715,0,0,1-3.029-2.617,13.708,13.708,0,0,1,5.97,5.331Z" transform="translate(-3813.565 -7689.377)" fill="#fff"/>
          </g>
        </g>
        <g id="Grupo_145252" data-name="Grupo 145252" transform="translate(10.596 61.169)">
          <g id="Grupo_145251" data-name="Grupo 145251">
            <path id="Trazado_203062" data-name="Trazado 203062" d="M3817.839,7712.323a162.394,162.394,0,0,0,2.87-6.494,11.311,11.311,0,0,1-2.87,6.494Z" transform="translate(-3817.826 -7705.829)" fill="#fff"/>
          </g>
        </g>
        <g id="Grupo_145254" data-name="Grupo 145254" transform="translate(9.523 77.294)">
          <g id="Grupo_145253" data-name="Grupo 145253">
            <path id="Trazado_203063" data-name="Trazado 203063" d="M3822.967,7726.326a31.132,31.132,0,1,1-2.9-2.863A15.8,15.8,0,0,1,3822.967,7726.326Z" transform="translate(-3816.816 -7720.995)" fill="#fff"/>
          </g>
        </g>
        <g id="Grupo_145256" data-name="Grupo 145256" transform="translate(19.716 83.921)">
          <g id="Grupo_145255" data-name="Grupo 145255">
            <path id="Trazado_203064" data-name="Trazado 203064" d="M3826.641,7736.2a38,38,0,1,1,.295-4.486A19.2,19.2,0,0,1,3826.641,7736.2Z" transform="translate(-3826.403 -7727.227)" fill="#fff"/>
          </g>
        </g>
        <g id="Grupo_145258" data-name="Grupo 145258" transform="translate(11.342 92.727)">
          <g id="Grupo_145257" data-name="Grupo 145257">
            <path id="Trazado_203065" data-name="Trazado 203065" d="M3819.572,7742.655a108.473,108.473,0,0,1-1.008-7.146,14.012,14.012,0,0,1,1.008,7.146Z" transform="translate(-3818.527 -7735.509)" fill="#fff"/>
          </g>
        </g>
        <g id="Grupo_145260" data-name="Grupo 145260" transform="translate(13.534 107.703)">
          <g id="Grupo_145259" data-name="Grupo 145259">
            <path id="Trazado_203066" data-name="Trazado 203066" d="M3827.239,7750.65a21.286,21.286,0,1,1-3.285-.759A10.853,10.853,0,0,1,3827.239,7750.65Z" transform="translate(-3820.589 -7749.595)" fill="#fff"/>
          </g>
        </g>
        <g id="Grupo_145262" data-name="Grupo 145262" transform="translate(18.909 114.151)">
          <g id="Grupo_145261" data-name="Grupo 145261">
            <path id="Trazado_203067" data-name="Trazado 203067" d="M3825.656,7762.085a28.01,28.01,0,1,1,2.345-3.064A14.14,14.14,0,0,1,3825.656,7762.085Z" transform="translate(-3825.644 -7755.66)" fill="#fff"/>
          </g>
        </g>
      </g>
      <path id="Trazado_203068" data-name="Trazado 203068" d="M3782.8,7698.993l-39.532-53.859a55.243,55.243,0,0,0,6.55-5.956,54.466,54.466,0,1,0-43.787,17.138,54.774,54.774,0,0,0,28.585-5.7l39.948,54.426a5.108,5.108,0,0,0,7.141,1.1h0A5.109,5.109,0,0,0,3782.8,7698.993Zm-71.28-52.775a44.251,44.251,0,1,1-3-88.451,45.12,45.12,0,0,1,4.793.092,44.254,44.254,0,0,1-1.792,88.359Z" transform="translate(-3655.551 -7547.524)" fill="#1a2e35"/>
      <g id="Grupo_145287" data-name="Grupo 145287" transform="translate(106.865 79.007)">
        <g id="Grupo_145264" data-name="Grupo 145264">
          <path id="Trazado_203069" data-name="Trazado 203069" d="M3760.746,7665.007,3756.06,7681s24.534,8.923,37.823,8.76c12.448-.153,16.016-1.564,20.4-11.619s9.352-21.6,10.394-28.256c0,0,7.028-30.616-19.782-27.882l-.725,23.948s-2.97,9.813-3.183,10.38c-2,5.3-4.593,13.053-7.1,13.992S3760.746,7665.007,3760.746,7665.007Z" transform="translate(-3756.06 -7621.832)" fill="#375a64"/>
        </g>
        <g id="Grupo_145266" data-name="Grupo 145266" transform="translate(38.61 48.159)">
          <g id="Grupo_145265" data-name="Grupo 145265">
            <path id="Trazado_203070" data-name="Trazado 203070" d="M3796.955,7674.959a25.739,25.739,0,0,1-4.568-7.831,79.43,79.43,0,0,1,4.568,7.831Z" transform="translate(-3792.373 -7667.126)" fill="#1a2e35"/>
          </g>
        </g>
        <g id="Grupo_145268" data-name="Grupo 145268" transform="translate(38.901 48.208)">
          <g id="Grupo_145267" data-name="Grupo 145267">
            <path id="Trazado_203071" data-name="Trazado 203071" d="M3799.454,7672.452a34.818,34.818,0,1,1-3.238-2.847A17.716,17.716,0,0,1,3799.454,7672.452Z" transform="translate(-3792.647 -7667.172)" fill="#1a2e35"/>
          </g>
        </g>
        <g id="Grupo_145270" data-name="Grupo 145270" transform="translate(47.893 9.83)">
          <g id="Grupo_145269" data-name="Grupo 145269">
            <path id="Trazado_203072" data-name="Trazado 203072" d="M3807.248,7631.077a120.621,120.621,0,0,1-6.133,14.784,120.452,120.452,0,0,1,6.133-14.784Z" transform="translate(-3801.105 -7631.077)" fill="#1a2e35"/>
          </g>
        </g>
        <g id="Grupo_145272" data-name="Grupo 145272" transform="translate(55.42 32.616)">
          <g id="Grupo_145271" data-name="Grupo 145271">
            <path id="Trazado_203073" data-name="Trazado 203073" d="M3820.307,7652.508a5.862,5.862,0,0,1-.346,1.219l-1.126,3.259c-.973,2.743-2.343,6.525-3.966,10.662s-3.228,7.834-4.487,10.463c-.627,1.316-1.156,2.369-1.545,3.086a.636.636,0,1,1-.187-.091c.373-.844.838-1.9,1.389-3.151,1.169-2.662,2.712-6.369,4.334-10.5l4.108-10.6c.531-1.355.969-2.449,1.285-3.2A5.738,5.738,0,0,1,3820.307,7652.508Z" transform="translate(-3808.184 -7652.508)" fill="#1a2e35"/>
          </g>
        </g>
        <g id="Grupo_145274" data-name="Grupo 145274" transform="translate(4.372 43.45)">
          <g id="Grupo_145273" data-name="Grupo 145273">
            <path id="Trazado_203074" data-name="Trazado 203074" d="M3783.94,7667.026c-.027.144-5.369-.7-11.932-1.9s-11.863-2.274-11.836-2.418,5.367.7,11.931,1.9S3783.965,7666.881,3783.94,7667.026Z" transform="translate(-3760.172 -7662.697)" fill="#1a2e35"/>
          </g>
        </g>
        <g id="Grupo_145276" data-name="Grupo 145276" transform="translate(55.747 24.528)">
          <g id="Grupo_145275" data-name="Grupo 145275">
            <path id="Trazado_203075" data-name="Trazado 203075" d="M3808.7,7653.545a35.186,35.186,0,1,1,.325-4.318A17.8,17.8,0,0,1,3808.7,7653.545Z" transform="translate(-3808.492 -7644.901)" fill="#fff"/>
          </g>
        </g>
        <g id="Grupo_145278" data-name="Grupo 145278" transform="translate(46.395 56.105)">
          <g id="Grupo_145277" data-name="Grupo 145277">
            <path id="Trazado_203076" data-name="Trazado 203076" d="M3799.71,7681.088a1422.774,1422.774,0,0,0,2.809-6.487,11.913,11.913,0,0,1-2.809,6.487Z" transform="translate(-3799.696 -7674.6)" fill="#fff"/>
          </g>
        </g>
        <g id="Grupo_145280" data-name="Grupo 145280" transform="translate(29.282 54.272)">
          <g id="Grupo_145279" data-name="Grupo 145279">
            <path id="Trazado_203077" data-name="Trazado 203077" d="M3787.745,7680.37a124.578,124.578,0,0,1-4.134-7.49,20.173,20.173,0,0,1,4.134,7.49Z" transform="translate(-3783.6 -7672.876)" fill="#fff"/>
          </g>
        </g>
        <g id="Grupo_145282" data-name="Grupo 145282" transform="translate(8.359 53.466)">
          <g id="Grupo_145281" data-name="Grupo 145281">
            <path id="Trazado_203078" data-name="Trazado 203078" d="M3771.067,7672.14a27.818,27.818,0,1,1-3.669,1.169A14.1,14.1,0,0,1,3771.067,7672.14Z" transform="translate(-3763.922 -7672.118)" fill="#fff"/>
          </g>
        </g>
        <g id="Grupo_145284" data-name="Grupo 145284" transform="translate(59.627 11.637)">
          <g id="Grupo_145283" data-name="Grupo 145283">
            <path id="Trazado_203079" data-name="Trazado 203079" d="M3818.331,7637.055c-.117.105-1.3-1.1-3-2.266s-3.245-1.843-3.189-1.991a10.447,10.447,0,0,1,6.189,4.257Z" transform="translate(-3812.141 -7632.777)" fill="#fff"/>
          </g>
        </g>
        <g id="Grupo_145286" data-name="Grupo 145286" transform="translate(49.6 42.319)">
          <g id="Grupo_145285" data-name="Grupo 145285">
            <path id="Trazado_203080" data-name="Trazado 203080" d="M3811.272,7661.669a19.475,19.475,0,0,1-8.562,1.083,196.172,196.172,0,0,1,8.562-1.083Z" transform="translate(-3802.71 -7661.634)" fill="#fff"/>
          </g>
        </g>
      </g>
      <g id="Grupo_145338" data-name="Grupo 145338" transform="translate(129.969 33.284)">
        <g id="Grupo_145288" data-name="Grupo 145288" transform="translate(32.117 2.74)">
          <path id="Trazado_203081" data-name="Trazado 203081" d="M3808.42,7584.779c1.258-2.69,4.709-3.935,7.568-3.133a9.323,9.323,0,0,1,5.984,6.121,16.609,16.609,0,0,1,.16,8.8c-.46,2.111-1.089,4.584.319,6.223,1.309,1.523,3.751,1.486,5.263,2.808a3.646,3.646,0,1,1-5.152,5.135c.016,1.481.8,2.829,1.269,4.234s.52,3.182-.615,4.135a3.117,3.117,0,0,1-3.127.3,9.17,9.17,0,0,1-2.661-1.922,7.251,7.251,0,0,1-.059,4.711,4.679,4.679,0,0,1-3.5,2.954,5.051,5.051,0,0,1-4.887-2.8,10.617,10.617,0,0,1-.931-5.842c.222-3.106,1.03-6.14,1.41-9.231s.3-6.368-1.151-9.125" transform="translate(-3807.997 -7581.405)" fill="#12263f"/>
        </g>
        <g id="Grupo_145290" data-name="Grupo 145290" transform="translate(42.329 4.351)">
          <g id="Grupo_145289" data-name="Grupo 145289">
            <path id="Trazado_203082" data-name="Trazado 203082" d="M3825.833,7602.8c0,.011-.13.082-.4.05a1.318,1.318,0,0,1-.938-.687,1.4,1.4,0,0,1,.439-1.752,1.845,1.845,0,0,1,2.388.136,2.8,2.8,0,0,1,.721,2.854,3.075,3.075,0,0,1-.868,1.468,2.732,2.732,0,0,1-1.685.692,3.457,3.457,0,0,1-1.854-.409,3.844,3.844,0,0,1-1.409-1.38,6,6,0,0,1-.688-3.952c.4-2.734,1.713-5.026,1.684-7.318a10.7,10.7,0,0,0-4.355-8.734c-.786-.575-1.288-.8-1.262-.848.009-.017.136.03.374.135a6.981,6.981,0,0,1,1,.542,10.07,10.07,0,0,1,2.961,2.965,10.712,10.712,0,0,1,1.767,5.951c.043,2.438-1.287,4.8-1.647,7.376a5.514,5.514,0,0,0,.606,3.611,3.049,3.049,0,0,0,2.787,1.572,2.339,2.339,0,0,0,2.159-1.79,2.41,2.41,0,0,0-.544-2.453,1.519,1.519,0,0,0-1.956-.184,1.169,1.169,0,0,0-.437,1.425,1.243,1.243,0,0,0,.775.675C3825.691,7602.811,3825.83,7602.78,3825.833,7602.8Z" transform="translate(-3817.601 -7582.921)" fill="#12263f"/>
          </g>
        </g>
        <g id="Grupo_145335" data-name="Grupo 145335">
          <g id="Grupo_145293" data-name="Grupo 145293" transform="translate(2.61 4.283)">
            <g id="Grupo_145292" data-name="Grupo 145292">
              <g id="Grupo_145291" data-name="Grupo 145291">
                <path id="Trazado_203083" data-name="Trazado 203083" d="M3803.6,7625.069l1.419-32.45-12.885-9.762-11.714,5.727s-.39,14.708,0,21.085,6.822,7.059,6.822,7.059-.15,3.737-.3,7.665a8.335,8.335,0,0,0,8.407,8.647h0A8.335,8.335,0,0,0,3803.6,7625.069Z" transform="translate(-3780.244 -7582.857)" fill="#ffbf9d"/>
              </g>
            </g>
          </g>
          <g id="Grupo_145301" data-name="Grupo 145301" transform="translate(3.254 18.852)">
            <g id="Grupo_145296" data-name="Grupo 145296" transform="translate(0.804 1.062)">
              <g id="Grupo_145295" data-name="Grupo 145295">
                <g id="Grupo_145294" data-name="Grupo 145294">
                  <path id="Trazado_203084" data-name="Trazado 203084" d="M3781.606,7598.375a.817.817,0,1,0,.818-.816A.817.817,0,0,0,3781.606,7598.375Z" transform="translate(-3781.606 -7597.558)" fill="#1a2e35"/>
                </g>
              </g>
            </g>
            <g id="Grupo_145300" data-name="Grupo 145300">
              <g id="Grupo_145299" data-name="Grupo 145299">
                <g id="Grupo_145298" data-name="Grupo 145298">
                  <g id="Grupo_145297" data-name="Grupo 145297">
                    <path id="Trazado_203085" data-name="Trazado 203085" d="M3780.864,7597.548c.106.105.709-.407,1.587-.454s1.539.375,1.63.258c.046-.053-.063-.248-.353-.445a2.168,2.168,0,0,0-2.568.156C3780.9,7597.295,3780.814,7597.5,3780.864,7597.548Z" transform="translate(-3780.85 -7596.559)" fill="#1a2e35"/>
                  </g>
                </g>
              </g>
            </g>
          </g>
          <g id="Grupo_145309" data-name="Grupo 145309" transform="translate(12.996 18.852)">
            <g id="Grupo_145304" data-name="Grupo 145304" transform="translate(0.522 1.062)">
              <g id="Grupo_145303" data-name="Grupo 145303">
                <g id="Grupo_145302" data-name="Grupo 145302">
                  <path id="Trazado_203086" data-name="Trazado 203086" d="M3790.5,7598.375a.816.816,0,1,0,.816-.816A.815.815,0,0,0,3790.5,7598.375Z" transform="translate(-3790.504 -7597.558)" fill="#1a2e35"/>
                </g>
              </g>
            </g>
            <g id="Grupo_145308" data-name="Grupo 145308">
              <g id="Grupo_145307" data-name="Grupo 145307">
                <g id="Grupo_145306" data-name="Grupo 145306">
                  <g id="Grupo_145305" data-name="Grupo 145305">
                    <path id="Trazado_203087" data-name="Trazado 203087" d="M3790.027,7597.548c.105.105.708-.407,1.587-.454s1.539.375,1.63.258c.045-.053-.064-.248-.353-.445a2.168,2.168,0,0,0-2.568.156C3790.061,7597.295,3789.976,7597.5,3790.027,7597.548Z" transform="translate(-3790.013 -7596.559)" fill="#1a2e35"/>
                  </g>
                </g>
              </g>
            </g>
          </g>
          <g id="Grupo_145312" data-name="Grupo 145312" transform="translate(8.494 28.095)">
            <g id="Grupo_145311" data-name="Grupo 145311">
              <g id="Grupo_145310" data-name="Grupo 145310">
                <path id="Trazado_203088" data-name="Trazado 203088" d="M3790.027,7605.253a16.139,16.139,0,0,1-4.249,1.463,2.474,2.474,0,0,0,2.913.826A1.813,1.813,0,0,0,3790.027,7605.253Z" transform="translate(-3785.778 -7605.253)" fill="#fff"/>
              </g>
            </g>
          </g>
          <g id="Grupo_145315" data-name="Grupo 145315" transform="translate(9.601 35.299)">
            <g id="Grupo_145314" data-name="Grupo 145314">
              <g id="Grupo_145313" data-name="Grupo 145313">
                <path id="Trazado_203089" data-name="Trazado 203089" d="M3786.819,7614.883a15.918,15.918,0,0,0,8.449-2.855s-1.915,4.683-8.31,4.419Z" transform="translate(-3786.819 -7612.028)" fill="#ff9a6c"/>
              </g>
            </g>
          </g>
          <g id="Grupo_145318" data-name="Grupo 145318">
            <g id="Grupo_145317" data-name="Grupo 145317">
              <g id="Grupo_145316" data-name="Grupo 145316">
                <path id="Trazado_203090" data-name="Trazado 203090" d="M3823.726,7611.208a4.585,4.585,0,0,1-2.311-.523,6.423,6.423,0,0,1-2.52-2.443,26.363,26.363,0,0,1-1.885-4.041c-1.191-2.964-2.09-5.716-2.7-7.721l-.266-.884c-.053-.342-.108-.646-.167-.87-3.48-13.3-15.169-15.779-17.482-15.779-2.48,0-6.82-1.365-13.143,5.208a28.549,28.549,0,0,0-5.218,9.318,7.228,7.228,0,0,0-.148,3.166c.12,0,.14-1.205.636-3.051a15.457,15.457,0,0,1,1.223-3.14,12.124,12.124,0,0,0,.649,7.346l2.269-.625,8.122-2.763c-.739-2.516.348-5.64.962-7.1l.061-.057a12.694,12.694,0,0,0,10.737,10.428l1.5,20.887c10.8-2.307,10.552-16.756,10.482-19.69.489,1.655,1.127,3.554,1.927,5.545a24,24,0,0,0,1.975,4.116,6.587,6.587,0,0,0,2.8,2.527,4.4,4.4,0,0,0,2.518.372,1.642,1.642,0,0,0,.87-.333C3824.6,7611.055,3824.3,7611.17,3823.726,7611.208Z" transform="translate(-3777.79 -7578.829)" fill="#12263f"/>
              </g>
            </g>
          </g>
          <g id="Grupo_145322" data-name="Grupo 145322" transform="translate(7.588 19.596)">
            <g id="Grupo_145321" data-name="Grupo 145321">
              <g id="Grupo_145320" data-name="Grupo 145320">
                <g id="Grupo_145319" data-name="Grupo 145319">
                  <path id="Trazado_203091" data-name="Trazado 203091" d="M3787.179,7604.926a5.893,5.893,0,0,0-1.438-.18c-.223-.01-.444-.043-.491-.208a1.258,1.258,0,0,1,.125-.71q.286-.864.6-1.821c.417-1.3.777-2.474,1.021-3.333a5.847,5.847,0,0,0,.323-1.413,6.018,6.018,0,0,0-.562,1.337c-.3.839-.7,2-1.12,3.3q-.3.96-.576,1.83a1.419,1.419,0,0,0-.087.919.547.547,0,0,0,.374.316,1.479,1.479,0,0,0,.381.035A5.941,5.941,0,0,0,3787.179,7604.926Z" transform="translate(-3784.926 -7597.259)" fill="#1a2e35"/>
                </g>
              </g>
            </g>
          </g>
          <g id="Grupo_145330" data-name="Grupo 145330" transform="translate(28.043 21.857)">
            <g id="Grupo_145325" data-name="Grupo 145325">
              <g id="Grupo_145324" data-name="Grupo 145324">
                <g id="Grupo_145323" data-name="Grupo 145323">
                  <path id="Trazado_203092" data-name="Trazado 203092" d="M3804.181,7604.526a7.952,7.952,0,0,1,.342-3.149,2.969,2.969,0,0,1,2.293-1.98,2.512,2.512,0,0,1,2.59,2.094,3.1,3.1,0,0,1-1.577,3.066,4.06,4.06,0,0,1-3.543.1" transform="translate(-3804.165 -7599.386)" fill="#ffbf9d"/>
                </g>
              </g>
            </g>
            <g id="Grupo_145329" data-name="Grupo 145329" transform="translate(1.861 1.337)">
              <g id="Grupo_145328" data-name="Grupo 145328">
                <g id="Grupo_145327" data-name="Grupo 145327">
                  <g id="Grupo_145326" data-name="Grupo 145326">
                    <path id="Trazado_203093" data-name="Trazado 203093" d="M3805.93,7603.519c.04-.071.345.086.8-.052a1.431,1.431,0,0,0,.956-1.355,1.081,1.081,0,0,0-.228-.849.956.956,0,0,0-.7-.208c-.478.042-.815.169-.842.087-.02-.053.216-.3.787-.459a1.254,1.254,0,0,1,1.07.208,1.464,1.464,0,0,1,.439,1.257,1.989,1.989,0,0,1-.475,1.192,1.477,1.477,0,0,1-.939.5C3806.168,7603.9,3805.879,7603.556,3805.93,7603.519Z" transform="translate(-3805.915 -7600.644)" fill="#ff9a6c"/>
                  </g>
                </g>
              </g>
            </g>
          </g>
          <g id="Grupo_145332" data-name="Grupo 145332" transform="translate(28.3 26.498)">
            <g id="Grupo_145331" data-name="Grupo 145331">
              <path id="Trazado_203094" data-name="Trazado 203094" d="M3807.938,7604.19c.033-.05.479.33.472,1.187a1.888,1.888,0,0,1-.6,1.332,2.01,2.01,0,0,1-3.176-.522,1.879,1.879,0,0,1-.144-1.453c.267-.815.811-1.031.826-.974.06.061-.336.373-.46,1.062a1.6,1.6,0,0,0,.2,1.123,1.589,1.589,0,0,0,2.424.4,1.6,1.6,0,0,0,.552-1C3808.137,7604.652,3807.862,7604.229,3807.938,7604.19Z" transform="translate(-3804.406 -7603.75)" fill="#1a2e35"/>
            </g>
          </g>
          <g id="Grupo_145334" data-name="Grupo 145334" transform="translate(14.213 7.721)">
            <g id="Grupo_145333" data-name="Grupo 145333">
              <path id="Trazado_203095" data-name="Trazado 203095" d="M3805.032,7600.914a2.338,2.338,0,0,1-.822.507,6.477,6.477,0,0,1-2.586.524,8.232,8.232,0,0,1-3.8-.95,10.186,10.186,0,0,1-3.544-3.228,18.535,18.535,0,0,1-2.824-8.126c-.147-1.092-.222-1.979-.264-2.591a3.322,3.322,0,0,1-.008-.959,31.848,31.848,0,0,1,.642,3.492,19.842,19.842,0,0,0,2.89,7.881,10.086,10.086,0,0,0,3.339,3.1,8.238,8.238,0,0,0,3.578,1.005A8.665,8.665,0,0,0,3805.032,7600.914Z" transform="translate(-3791.157 -7586.091)" fill="#12263f"/>
            </g>
          </g>
        </g>
        <g id="Grupo_145337" data-name="Grupo 145337" transform="translate(30.749 6.169)">
          <g id="Grupo_145336" data-name="Grupo 145336">
            <path id="Trazado_203096" data-name="Trazado 203096" d="M3811.2,7591.87c-.157.041-.634-1.844-1.886-3.837-1.23-2.008-2.707-3.271-2.6-3.394a9.969,9.969,0,0,1,4.488,7.23Z" transform="translate(-3806.71 -7584.631)" fill="#1a2e35"/>
          </g>
        </g>
      </g>
      <g id="Grupo_145341" data-name="Grupo 145341" transform="translate(92.761 114.62)">
        <g id="Grupo_145340" data-name="Grupo 145340">
          <g id="Grupo_145339" data-name="Grupo 145339">
            <path id="Trazado_203097" data-name="Trazado 203097" d="M3757.371,7677.272l-3.752-.04c-3.411-.332-5.321-.387-6.273-1.294-1.275-1.215.478-2.408.478-2.408s-2.468-.846-2.237-2.352c.158-1.026,1.328-1.142,1.328-1.142s-2.177-.849-2.608-1.757c-.587-1.237.95-1.9.95-1.9-2.97-1.831-2.7-3.641-2.015-3.821s3,.883,3,.883c1.956.56,7.293,2.188,5.315-.754s-2.389-5.951-1.934-6.842a1.109,1.109,0,0,1,2.036.5,12.916,12.916,0,0,0,1.394,3.293,8.464,8.464,0,0,0,1.78,2.249c.839.745,1.578,1.345,2.219,1.839l3.339,3.223Z" transform="translate(-3742.794 -7655.327)" fill="#ffbf9d"/>
          </g>
        </g>
      </g>
      <path id="Trazado_203098" data-name="Trazado 203098" d="M3734.689,7640.8c.273-.808.939-1.384,1.664-1h0a1.3,1.3,0,0,1,.238,1.248l-2.317,7.544,0,.006,2.195-5.332c.273-.808,1.006-1.295,1.511-.856a1.339,1.339,0,0,1,.177,1.224l-2,6.261,1.628-3.914c.341-.894.741-1.132,1.2-.938s.467.859.355,1.21l-1.379,4.624c.3.887,1.317,3.683.336,5.256-.05.08.1.34.095.427l.466.534-3.076,2.777s-2.84-7.181-3.378-9.333a6.253,6.253,0,0,1,.167-3.768Z" transform="translate(-3650.704 -7541.696)" fill="#ffbf9d"/>
    </g>
  </g>
</svg>
