<svg xmlns="http://www.w3.org/2000/svg" width="190" height="89" viewBox="0 0 190 89">
  <g id="Grupo_148509" data-name="Grupo 148509" transform="translate(-180 -400)">
    <rect id="Rect치ngulo_41430" data-name="Rect치ngulo 41430" width="85" height="28" rx="14" transform="translate(285 400)" fill="#feca2e" opacity="0.2"/>
    <rect id="Rect치ngulo_41431" data-name="Rect치ngulo 41431" width="85" height="28" rx="14" transform="translate(180 461)" fill="#4dd0e1" opacity="0.2"/>
    <g id="Grupo_148488" data-name="Grupo 148488" transform="translate(244.219 400)">
      <path id="Trazado_205938" data-name="Trazado 205938" d="M-290.07,2918.948a50.233,50.233,0,0,0-3.3-5.3c-1.781-2.652-4-5.952-4.382-7.452a19.3,19.3,0,0,1-.129-4.142c.1-3.689.226-8.742-1.6-14.026a25,25,0,0,0-9.843-12.259,34.037,34.037,0,0,0-13.807-5.49,1.361,1.361,0,0,0-1.543,1.15,1.361,1.361,0,0,0,1.15,1.544,31.216,31.216,0,0,1,12.662,5.043,22.318,22.318,0,0,1,8.808,10.9c1.662,4.82,1.539,9.587,1.449,13.068a19.768,19.768,0,0,0,.214,4.888c.5,1.954,2.665,5.177,4.759,8.294a53.83,53.83,0,0,1,3.039,4.821c-.487.384-1.986.763-4.463,1.128a10.661,10.661,0,0,0-1.551.288,2.078,2.078,0,0,0-1.294,1.31c-.651,1.718.116,4.917,1.241,6.827a1.328,1.328,0,0,1,.118.245,5.909,5.909,0,0,1-2.717.557h0a1.36,1.36,0,0,0-1.341,1.144,1.364,1.364,0,0,0,.917,1.51c.968.321,1.985,1.028,1.908,1.328-.159.622-.362.7-1.119,1-1.191.462-2.99,1.161-3.467,4.663-.423,3.109-1.831,6.044-3.505,7.3a2.508,2.508,0,0,1-1.88.589,23.177,23.177,0,0,1-4.212-1.361c-3.1-1.2-6.618-2.55-9.417-1.767-6.7,1.873-7.249,5.465-6.9,13.215a1.361,1.361,0,0,0,1.359,1.3l.061,0a1.36,1.36,0,0,0,1.3-1.42c-.163-3.636-.122-6.042.563-7.579.513-1.149,1.449-2.081,4.353-2.893,1.929-.539,5,.643,7.706,1.686a24.611,24.611,0,0,0,4.8,1.514,5.186,5.186,0,0,0,3.909-1.108c2.251-1.7,4.042-5.272,4.565-9.112.26-1.913.823-2.131,1.755-2.493a3.9,3.9,0,0,0,2.771-2.86,2.868,2.868,0,0,0-.588-2.575,3.321,3.321,0,0,0,1.594-1.327,2.805,2.805,0,0,0-.182-2.937,8.385,8.385,0,0,1-1.1-4.235c.223-.037.5-.079.752-.115,2.949-.435,5.67-.962,6.563-2.622A2.439,2.439,0,0,0-290.07,2918.948Z" transform="translate(356.354 -2870.26)" fill="#0f2771"/>
      <path id="Trazado_205939" data-name="Trazado 205939" d="M-336.609,2944.257a7.687,7.687,0,0,0,2.167.313,7.626,7.626,0,0,0,4.353-1.367,7.624,7.624,0,0,0,3.277-5.735l2.247-30.579a23.882,23.882,0,0,0-4.418-15.977c-3.691-4.994-9.413-8.314-16.548-9.6-7.631-1.376-13.006-.749-16.917,1.975-3.62,2.522-6.147,6.909-8.191,14.224l-4.509,12.277a7.867,7.867,0,0,0,4.646,10.074c.04.014.08.027.122.038l2.085.556,3.881,14.835-5.9,10.888,0,0-.01.018a1.4,1.4,0,0,0-.092.218c0,.005-.005.01-.007.015s-.006.034-.011.052c-.011.041-.025.082-.032.124l-2.554,14.217a1.362,1.362,0,0,0,1.1,1.581,1.4,1.4,0,0,0,.242.021,1.361,1.361,0,0,0,1.338-1.121l2.279-12.686,11.035,3.541-1.208,8.718a1.361,1.361,0,0,0,1.161,1.535,1.36,1.36,0,0,0,1.535-1.162l1.321-9.538,7.038-10.416Zm-19.279-47.1a.8.8,0,0,1-.8-.8.8.8,0,0,1,.8-.8.8.8,0,0,1,.8.8A.8.8,0,0,1-355.889,2897.161Zm-2.2,11.242,2.9,1.483-.416,11.138-5.806-1.55Zm13.042,18.257a3.412,3.412,0,0,1,2.148,2.854l.952,10.421-19.891-5.569-3.429-13.1Zm-15.843-41.14c3.278-2.284,8.006-2.77,14.878-1.53,6.439,1.162,11.571,4.114,14.842,8.54a21.157,21.157,0,0,1,3.892,14.159l-2.246,30.58a4.917,4.917,0,0,1-2.113,3.7,4.925,4.925,0,0,1-4.22.675l-3.286-.92-1.046-11.454a6.147,6.147,0,0,0-3.968-5.179,1.2,1.2,0,0,0-.122-.038l-8.631-2.3.472-12.624a1.36,1.36,0,0,0-.74-1.262l-4.116-2.106,1.767-5.888a3.53,3.53,0,0,0,3.166-3.508,3.529,3.529,0,0,0-3.525-3.525,3.529,3.529,0,0,0-3.525,3.525,3.519,3.519,0,0,0,1.281,2.717l-.27.9-3.771-1.737-2.012-8.488a1.341,1.341,0,0,0-.2-.439A12.866,12.866,0,0,1-360.892,2885.52Zm-11.7,25.206,4.528-12.328c.013-.034.024-.069.033-.1a46.9,46.9,0,0,1,1.805-5.352l1.557,6.566a1.361,1.361,0,0,0,.755.922l4.722,2.176-4.851,16.168-2.783-.743-.924-.246,2.337-7.815a3.528,3.528,0,0,0,3.431-3.521,3.53,3.53,0,0,0-3.526-3.525,3.529,3.529,0,0,0-3.525,3.525,3.513,3.513,0,0,0,1.076,2.531l-2.38,7.956A5.139,5.139,0,0,1-372.593,2910.726Zm7.083-3.474a.8.8,0,0,1-.8-.8.8.8,0,0,1,.8-.8.8.8,0,0,1,.8.8A.8.8,0,0,1-365.51,2907.252Zm9.433,42.354-11.07-3.552,4.864-8.98,12.3,3.513Z" transform="translate(375.629 -2874.665)" fill="#0f2771"/>
      <path id="Trazado_205940" data-name="Trazado 205940" d="M-314.988,2938.445a6.651,6.651,0,0,0,6.643-6.642,6.651,6.651,0,0,0-6.643-6.642,6.65,6.65,0,0,0-6.642,6.642A6.65,6.65,0,0,0-314.988,2938.445Zm0-10.563a3.926,3.926,0,0,1,3.921,3.921,3.925,3.925,0,0,1-3.921,3.921,3.925,3.925,0,0,1-3.921-3.921A3.925,3.925,0,0,1-314.988,2927.881Z" transform="translate(352.639 -2893.634)" fill="#0f2771"/>
    </g>
  </g>
</svg>
