<svg xmlns="http://www.w3.org/2000/svg" width="148" height="148" viewBox="0 0 148 148">
  <g id="Grupo_148518" data-name="Grupo 148518" transform="translate(-270 -1266)">
    <g id="Elipse_4811" data-name="Elipse 4811" transform="translate(-6294.734 -2713.412)">
      <circle id="Elipse_4814" data-name="Elipse 4814" cx="74" cy="74" r="74" transform="translate(6564.735 3979.413)" fill="#4dcedf"/>
      <circle id="Elipse_4815" data-name="Elipse 4815" cx="73.5" cy="73.5" r="73.5" transform="translate(6565.235 3979.913)" fill="#4dcedf"/>
    </g>
    <g id="Grupo_138507" data-name="Grupo 138507" transform="translate(298.45 1295.554)">
      <path id="Trazado_192587" data-name="Trazado 192587" d="M2575.122,1124.26a20.519,20.519,0,0,0-14.71-6.122h-10.825a21.019,21.019,0,0,0-21.083,20.879v.032a21.073,21.073,0,0,0,14.082,19.728v8.1a1.625,1.625,0,0,0,2.865,1.049l6.753-7.981h8.209a20.494,20.494,0,0,0,14.712-6.142,20.939,20.939,0,0,0,6.022-14.751v-.061A20.883,20.883,0,0,0,2575.122,1124.26Zm-2.314,27.265a17.267,17.267,0,0,1-12.4,5.173h-8.962a1.625,1.625,0,0,0-1.24.576l-4.374,5.17v-4.854a1.625,1.625,0,0,0-1.178-1.562,17.645,17.645,0,0,1,4.93-34.641h10.825a17.293,17.293,0,0,1,12.4,5.156,17.879,17.879,0,0,1,0,24.982Z" transform="translate(-2475.595 -1110.014)" fill="#0f2771"/>
      <path id="Trazado_192588" data-name="Trazado 192588" d="M2510.538,1180.305h-14.687v-5.352a1.625,1.625,0,0,0-3.25,0v5.352h-9.509v-5.352a1.625,1.625,0,0,0-1.625-1.625h-25.779a1.625,1.625,0,0,0-1.625,1.625v5.352h-9.586v-31.066h30.491a1.625,1.625,0,0,0,0-3.25h-19.78v-3.375h18.588a1.625,1.625,0,1,0,0-3.249h-3.683v-8.556a4.547,4.547,0,1,0-3.25,0v8.556h-13.28a1.624,1.624,0,0,0-1.624,1.625v5h-9.088a1.625,1.625,0,0,0-1.625,1.625v32.691h-14.617a1.625,1.625,0,0,0-1.625,1.625v19.8a1.625,1.625,0,1,0,3.249,0v-18.179h80.678v18.179a1.625,1.625,0,0,0,3.25,0v-19.8A1.625,1.625,0,0,0,2510.538,1180.305Zm-42.068-55.035a1.3,1.3,0,1,1-1.3,1.3A1.3,1.3,0,0,1,2468.47,1125.271Zm-11.156,51.307h22.53v3.728h-22.53Z" transform="translate(-2424.986 -1111.913)" fill="#0f2771"/>
      <path id="Trazado_192589" data-name="Trazado 192589" d="M2473.035,1191.4a7.839,7.839,0,1,0,7.839-7.84A7.848,7.848,0,0,0,2473.035,1191.4Zm12.429,0a4.59,4.59,0,1,1-4.59-4.59A4.6,4.6,0,0,1,2485.465,1191.4Z" transform="translate(-2448.478 -1142)" fill="#0f2771"/>
      <path id="Trazado_192590" data-name="Trazado 192590" d="M2522.521,1188.648a1.624,1.624,0,1,0-1.836-2.681,7.84,7.84,0,1,0,11.872,8.926,1.624,1.624,0,1,0-3.086-1.017,4.591,4.591,0,1,1-6.95-5.229Z" transform="translate(-2470.104 -1143.037)" fill="#0f2771"/>
      <path id="Trazado_192591" data-name="Trazado 192591" d="M2508.511,1110.042a1.624,1.624,0,0,0,1.625-1.625v-4.549a1.625,1.625,0,1,0-3.249,0v4.549A1.625,1.625,0,0,0,2508.511,1110.042Z" transform="translate(-2465.027 -1102.243)" fill="#0f2771"/>
      <path id="Trazado_192592" data-name="Trazado 192592" d="M2492.6,1115.048a1.625,1.625,0,0,0,2.3-2.3l-3.217-3.217a1.625,1.625,0,0,0-2.3,2.3Z" transform="translate(-2456.236 -1105.574)" fill="#0f2771"/>
      <path id="Trazado_192593" data-name="Trazado 192593" d="M2521.047,1115.524a1.622,1.622,0,0,0,1.149-.476l3.217-3.217a1.625,1.625,0,0,0-2.3-2.3l-3.217,3.217a1.625,1.625,0,0,0,1.149,2.774Z" transform="translate(-2471.156 -1105.574)" fill="#0f2771"/>
      <path id="Trazado_192594" data-name="Trazado 192594" d="M2553,1154.179a2.533,2.533,0,1,0,2.533,2.533A2.533,2.533,0,0,0,2553,1154.179Z" transform="translate(-2486.331 -1127.635)" fill="#0f2771"/>
      <path id="Trazado_192595" data-name="Trazado 192595" d="M2577.776,1154.179a2.533,2.533,0,1,0,2.533,2.533A2.532,2.532,0,0,0,2577.776,1154.179Z" transform="translate(-2498.448 -1127.635)" fill="#0f2771"/>
      <path id="Trazado_192596" data-name="Trazado 192596" d="M2602.558,1154.179a2.533,2.533,0,1,0,2.533,2.533A2.533,2.533,0,0,0,2602.558,1154.179Z" transform="translate(-2510.563 -1127.635)" fill="#0f2771"/>
    </g>
  </g>
</svg>
