<svg xmlns="http://www.w3.org/2000/svg" xmlns:xlink="http://www.w3.org/1999/xlink" width="357.485" height="358.207" viewBox="0 0 357.485 358.207">
  <defs>
    <clipPath id="clip-path">
      <circle id="Elipse_4711" data-name="Elipse 4711" cx="178.742" cy="178.742" r="178.742" transform="translate(2398.735 1359.95)" fill="none"/>
    </clipPath>
    <linearGradient id="linear-gradient" y1="0.5" x2="1" y2="0.5" gradientUnits="objectBoundingBox">
      <stop offset="0.016" stop-color="#ffc2a9"/>
      <stop offset="1" stop-color="#ff9595"/>
    </linearGradient>
    <linearGradient id="linear-gradient-2" y1="0.5" x2="1" y2="0.5" gradientUnits="objectBoundingBox">
      <stop offset="0.016" stop-color="#ffc2a9"/>
      <stop offset="0.369" stop-color="#ffbfa7"/>
      <stop offset="0.619" stop-color="#ffb5a3"/>
      <stop offset="0.836" stop-color="#ffa69c"/>
      <stop offset="1" stop-color="#ff9595"/>
    </linearGradient>
    <linearGradient id="linear-gradient-3" x1="-53.995" y1="1" x2="-53.995" gradientUnits="objectBoundingBox">
      <stop offset="0" stop-color="#ffeadb"/>
      <stop offset="0.404" stop-color="#fee8da"/>
      <stop offset="0.55" stop-color="#fbe1d9"/>
      <stop offset="0.654" stop-color="#f7d5d6"/>
      <stop offset="0.738" stop-color="#f1c4d3"/>
      <stop offset="0.81" stop-color="#e9aecf"/>
      <stop offset="0.874" stop-color="#de93c9"/>
      <stop offset="0.931" stop-color="#d373c3"/>
      <stop offset="0.982" stop-color="#c54ebb"/>
      <stop offset="0.994" stop-color="#c245ba"/>
    </linearGradient>
    <linearGradient id="linear-gradient-4" x1="-30.729" y1="1" x2="-30.729" gradientUnits="objectBoundingBox">
      <stop offset="0" stop-color="#e8e9ff"/>
      <stop offset="1" stop-color="#fff"/>
    </linearGradient>
    <linearGradient id="linear-gradient-5" y1="0.5" x2="1" y2="0.5" gradientUnits="objectBoundingBox">
      <stop offset="0" stop-color="#ccedff"/>
      <stop offset="1" stop-color="#755cbb"/>
    </linearGradient>
    <linearGradient id="linear-gradient-7" x1="-21.503" y1="1" x2="-21.503" y2="0" xlink:href="#linear-gradient-4"/>
    <linearGradient id="linear-gradient-8" y1="0.5" x2="1" y2="0.5" gradientUnits="objectBoundingBox">
      <stop offset="0" stop-color="#2e33a0"/>
      <stop offset="1" stop-color="#0665a5"/>
    </linearGradient>
    <linearGradient id="linear-gradient-9" x1="-32.152" y1="1.113" x2="-32.152" y2="0" xlink:href="#linear-gradient-4"/>
    <linearGradient id="linear-gradient-10" x1="-24.162" y1="1" x2="-24.162" gradientUnits="objectBoundingBox">
      <stop offset="0" stop-color="#fbfbff"/>
      <stop offset="1" stop-color="#fff"/>
    </linearGradient>
    <linearGradient id="linear-gradient-11" x1="-101.83" y1="0.5" x2="-100.806" y2="0.5" gradientUnits="objectBoundingBox">
      <stop offset="0" stop-color="#ffeadb"/>
      <stop offset="0.994" stop-color="#c245ba"/>
    </linearGradient>
    <linearGradient id="linear-gradient-12" y1="0.5" x2="1" y2="0.5" gradientUnits="objectBoundingBox">
      <stop offset="0" stop-color="#1f77d1"/>
      <stop offset="1" stop-color="#0686c9"/>
    </linearGradient>
    <linearGradient id="linear-gradient-18" x1="-153.813" y1="1" x2="-153.813" gradientUnits="objectBoundingBox">
      <stop offset="0" stop-color="#ffeadb"/>
      <stop offset="0.994" stop-color="#b060f4"/>
    </linearGradient>
    <linearGradient id="linear-gradient-19" x1="-52.627" y1="1" x2="-52.627" y2="0" xlink:href="#linear-gradient-11"/>
    <radialGradient id="radial-gradient" cx="0.509" cy="0.513" r="0.572" gradientTransform="matrix(-0.775, 0, 0, 1.024, -126461.656, -0.012)" gradientUnits="objectBoundingBox">
      <stop offset="0" stop-color="#96fff9"/>
      <stop offset="0.145" stop-color="#93fbf9"/>
      <stop offset="0.269" stop-color="#8af1f9"/>
      <stop offset="0.386" stop-color="#7bdff9"/>
      <stop offset="0.498" stop-color="#67c6f9"/>
      <stop offset="0.606" stop-color="#4ca6f9"/>
      <stop offset="0.711" stop-color="#2c7ff9"/>
      <stop offset="0.766" stop-color="#1968f9"/>
      <stop offset="0.791" stop-color="#1864ef"/>
      <stop offset="0.834" stop-color="#1559d6"/>
      <stop offset="0.888" stop-color="#1148ad"/>
      <stop offset="0.95" stop-color="#0b3074"/>
      <stop offset="1" stop-color="#071c43"/>
    </radialGradient>
    <linearGradient id="linear-gradient-20" x1="0.5" y1="-6.77" x2="0.5" y2="-6.78" xlink:href="#linear-gradient-8"/>
  </defs>
  <g id="Grupo_148502" data-name="Grupo 148502" transform="translate(11511.629 12363.927)">
    <circle id="Elipse_4711-2" data-name="Elipse 4711" cx="178.742" cy="178.742" r="178.742" transform="translate(-11511.629 -12363.927)" fill="#0f2771"/>
    <g id="Grupo_148308" data-name="Grupo 148308" transform="translate(-13910.364 -13723.154)">
      <g id="Grupo_148501" data-name="Grupo 148501">
        <g id="Grupo_148500" data-name="Grupo 148500">
          <g id="Grupo_148307" data-name="Grupo 148307" clip-path="url(#clip-path)">
            <g id="Grupo_148306" data-name="Grupo 148306">
              <path id="Trazado_205669" data-name="Trazado 205669" d="M2495.647,1564.781h0v-.019l-.017.017-.009,0Z" fill="#beffff"/>
              <path id="Trazado_205670" data-name="Trazado 205670" d="M2540.823,1481.779l1.56,1.54v.012l0-.009.007,0c-.959-.951-1.948-1.919-2.925-2.879l1.355,1.335Z" fill="#beffff"/>
              <g id="Grupo_148305" data-name="Grupo 148305">
                <path id="Trazado_205671" data-name="Trazado 205671" d="M2597.741,1485.068s-11.763,23.018-15.764,24.213-9.106-10.323-9.106-10.323Z" fill="url(#linear-gradient)"/>
                <path id="Trazado_205672" data-name="Trazado 205672" d="M2534.56,1431.943a34.823,34.823,0,0,0,1.847,8.542,98.311,98.311,0,0,1,2.358,11.263c.123,1.208.158,3.045.158,5.136,0,4.9-.123,11.173.669,13.732,1.126,3.622,13.97,14.507,17.876,19.967,3.924,5.46,5.419,7.515,6.334,8.11.739.468,5.455,1.063,11.12-.091a2.067,2.067,0,0,0,.246-.072,27.891,27.891,0,0,0,4.065-1.117c7.407-2.649,25.917-17.606,27.8-21.589.968-2.018.581-9.984-.035-17.336-.6-7.1-1.407-13.624-1.407-13.624s.1-18.9-2.552-26.869c-1.953-5.785-14.128-14.165-25.23-17.787a32.26,32.26,0,0,0-9.589-1.766,15.493,15.493,0,0,0-1.848.09c-12,1.37-24.017,9.461-28.116,17.769C2538.255,1416.3,2534.472,1428.447,2534.56,1431.943Z" fill="url(#linear-gradient-2)"/>
                <g id="Grupo_148303" data-name="Grupo 148303">
                  <path id="Trazado_205673" data-name="Trazado 205673" d="M2534.548,1433.371a33.207,33.207,0,0,0,1.841,8.31,94.064,94.064,0,0,1,2.35,10.957c.122,1.175.157,2.963.157,5,0,0,2.437,4.47,7.083,4.909s7.346-.772,8.818-4.313c0,0-3.453-10.8-8.485-17.83l-8.941-4.313s1.069-9.519,5.4-11.939l9.625,1.42s5.4-10.379,15.9-11.378,15.411,1.49,16.988,3.4.38,10.2.38,10.2-15.919.1-25.938,5.582c0,0,1.873,18.262,7.273,24.994,0,0,8.643,1.4,13.552.158,4.891-1.245,10.379-6.855,10.379-6.855s.555,6.6.222,8.367c-.333,1.788-2.538,4.256-3.433,6.237-.876,1.981-6.134,25.807-8.1,28.524a9.32,9.32,0,0,1-4.611,3.349,28.413,28.413,0,0,0,4.05-1.087c7.38-2.577,25.824-17.129,27.7-21,.964-1.964.578-9.713-.035-16.866l-.018-.035s-2.261-1.6-2.489-9.853c-.228-8.24-.667-24.842-.667-24.842l-10.518-12.851-15.393-9.117-2.911-1.718h-6.644a15.827,15.827,0,0,0-1.841.088c-11.957,1.332-23.931,9.2-28.016,17.286C2538.23,1418.153,2534.461,1429.97,2534.548,1433.371Z" fill-rule="evenodd" opacity="0.58" fill="url(#linear-gradient-3)" style="mix-blend-mode: multiply;isolation: isolate"/>
                  <path id="Trazado_205674" data-name="Trazado 205674" d="M2588.341,1457.637l-25.911-3.165s3.328,10.249,13.34,11.806S2588.341,1457.637,2588.341,1457.637Z" fill="#e4dbff" style="mix-blend-mode: soft-light;isolation: isolate"/>
                  <path id="Trazado_205675" data-name="Trazado 205675" d="M2549.555,1460.456l-18.25-2.306s3.6,10.351,10.076,11.3S2549.555,1460.456,2549.555,1460.456Z" fill="#e4dbff" style="mix-blend-mode: soft-light;isolation: isolate"/>
                </g>
                <path id="Trazado_205676" data-name="Trazado 205676" d="M2464.91,1763.832c-1.032-.98-2.02-1.976-2.946-2.99l.035-.036c1.162-1.532,31.073-41.1,53.136-106.4,22.5-66.6,20.34-112.973,20.34-112.973l95.081,29.536,17.929,5.569,4.329,40.312,15.776,146.977Z" fill="#bbb1d6" fill-rule="evenodd"/>
                <path id="Trazado_205677" data-name="Trazado 205677" d="M2576.8,1763.832c-17.759-27.308-40.075-52.413-40.075-52.413-48.255,23.9-73.35,48-74.723,49.387,1.162-1.532,31.073-41.1,53.136-106.4,22.5-66.6,20.34-112.973,20.34-112.973l95.081,29.536,13.707,16.129,8.551,29.752,15.776,146.977Z" fill="#7c338b" fill-rule="evenodd" opacity="0.4" style="mix-blend-mode: multiply;isolation: isolate"/>
                <path id="Trazado_205678" data-name="Trazado 205678" d="M2502.808,1565.032l6.328.844s5,13.857,3.111,23.3-11.557,17.3-11.557,17.3a97.843,97.843,0,0,1-5.778-26.747C2494.134,1565.734,2502.808,1565.032,2502.808,1565.032Z" fill="#7b669a" fill-rule="evenodd"/>
                <path id="Trazado_205679" data-name="Trazado 205679" d="M2532.66,1673.477c-.388-.45-3.414-4-4.135-6.451,0,0,17.794-2.172,34.017-2.389,16.222-.234,73.775,14.39,73.775,14.39s.838-29.752,3.054-63.9c2.217-34.132-30.227-142.726-30.227-142.726s-21.589,87.985-58.01,11.173c0,0-5.261,18.85-8.076,33.14-.405,2.055-.757,4-1.038,5.785-2.217,14.327-10.873,66.677-10.873,66.677l9.993,20.04-1.443,21.625-5.225,13.533,4.663,3.983s-9.783,11.281-12.774,19.012Z" fill="#e0f3ff"/>
                <path id="Trazado_205680" data-name="Trazado 205680" d="M2469.349,1581.675s12.915,18.134,25.46,23.391a16.379,16.379,0,0,0,5.874,1.4s-2.88-31.392-1.882-35.772,3.992-5.665,3.992-5.665l10.8-10.221,5.532-1.81,5.331-.672,7.328-.876-16.451-72.947a.46.46,0,0,1-.029-.116l-12.83,35.889s-1.682,2.248-4.22,5.636c0,.029,0,.029-.028.029-6.472,8.731-18.419,25.143-21.783,31.684-3.25,6.337-5.417,18.427-6.443,25.172C2469.577,1579.748,2469.349,1581.675,2469.349,1581.675Z" fill-rule="evenodd" fill="url(#linear-gradient-4)"/>
                <path id="Trazado_205681" data-name="Trazado 205681" d="M2533.472,1674.234s-4.445-4.529-5.946-7.431l18.392-5.155Z" fill="#004062"/>
                <path id="Trazado_205682" data-name="Trazado 205682" d="M2596.753,1763.832l-6.488-20.686-16.891-19.21-11.457,39.9h-50.344c4.9-33.009,13.713-63.971,19.468-82.119,3.29-10.38,5.595-16.58,5.595-16.58s-.158-4.253,19.6-3.37c19.776.883,83.24,16.363,83.24,16.363l8.028,85.706Z" fill="#0f2771" fill-rule="evenodd"/>
                <path id="Trazado_205683" data-name="Trazado 205683" d="M2534.472,1644.381s29.559,4.666,36.671,4.78,26.67-2.39,26.67-2.39-25.726,5.008-30.7,5.349-27.976-3.756-27.976-3.756Z" fill-rule="evenodd" opacity="0.13" fill="url(#linear-gradient-5)" style="isolation: isolate"/>
                <path id="Trazado_205684" data-name="Trazado 205684" d="M2542.584,1625.032s8.112,8.309,12,10.7,14.447,5.463,14.447,5.463-12.573,1.258-17.9-.79S2542.584,1625.032,2542.584,1625.032Z" fill-rule="evenodd" opacity="0.13" fill="url(#linear-gradient-5)" style="isolation: isolate"/>
                <path id="Trazado_205685" data-name="Trazado 205685" d="M2547.071,1479.49s-17.6-6.573-31.768-1.11l7,41.315s6.834,58.124-2.5,110.242-57.841,130.9-57.841,130.9,44.585-62.049,62.174-129.54c15.715-60.3,27-147.724,27-147.724Z" fill-rule="evenodd" fill="url(#linear-gradient-7)"/>
                <path id="Trazado_205686" data-name="Trazado 205686" d="M2532.132,1415.04s-6.669,8.019-7.32,10.758c-.668,2.739,4.663,9.984,4.663,9.984s-.669-6.4.581-9.552c1.214-3.081,7.512-8.2,7.9-8.523l.017-.018a63.446,63.446,0,0,0,14.5,6.235.283.283,0,0,1,.018-.072c.492-1.3,7.759-20.148,12.985-22.382,5.19-2.217,14.2,2.234,14.955,2.631-.07-.018-.211-.054-.387-.108a.1.1,0,0,0-.07-.018c-.229-.072-.511-.145-.845-.234s-.739-.181-1.161-.289c-.387-.09-.827-.18-1.267-.27-.985-.2-2.111-.4-3.29-.523-.37-.036-.757-.072-1.144-.108h-.035a8.42,8.42,0,0,0-1.672.036c-2.621.324-7.125,3.64-8.9,5.01-.018.018-.018.036-.035.036-.458.36-.722.577-.722.577l.352-.054c.457-.054,1.355-.181,2.551-.325,0,0,.44-.054,1.232-.126.528-.072,1.091-.126,1.671-.18a.768.768,0,0,0,.194-.018c.528-.054,1.091-.108,1.654-.162q.924-.081,1.953-.163c4.451-.306,9.36-.414,11.964.343,5.595,1.622,11.173,5.208,12.176,8.2s1.425,11.191,1.425,11.191,6.668,8.794,8.146,18.85c.123.847.211,1.694.264,2.559,0,0,.159-.865.387-2.09a70.669,70.669,0,0,1,1.619-7.281s3.5-15.894,4.751-21.7c0,0-3.009-6.145-12.088-8.109,0,0,8.41-.343,13.161,3.838a17.16,17.16,0,0,0-6.58-6.145c-4.082-1.874-8.341-.252-11.666-1.874-3.343-1.622-9.044-25.86-22.979-28.852,0,0,13.953,15.769,17.63,24.905-.809-.631-26.655-20.832-36.245-22.093-5.049-.667-9.1,3.1-11.806,6.866h-.018a36.457,36.457,0,0,0-3.905,7.046c.351-.4,6.334-7.136,14.99-6.4l-.035.018c-.845.361-14.392,6.272-17.137,18.508l4.082-3.154-2.516,4.451a.054.054,0,0,1-.035.018l-1.531,2.7s-14.005-1.531-19.249,5.623C2515.311,1414.607,2521.8,1412.643,2532.132,1415.04Z" fill="url(#linear-gradient-8)"/>
                <path id="Trazado_205687" data-name="Trazado 205687" d="M2546.362,1439.17s-3.971-6.8-11.807-7.227c0,0-1.1,1.805,1.188,6.423a5.824,5.824,0,0,1,3.285-1.017C2541.473,1437.122,2546.362,1439.17,2546.362,1439.17Z" fill="#38368e"/>
                <path id="Trazado_205688" data-name="Trazado 205688" d="M2503.471,1558.279l-6.67-5.132s-10,1.205-13.835,3.6a26.718,26.718,0,0,1,13-6.488l-4.167-2.262,8.779,1.869,9.325-8.417,3.565,5.908Z" fill="#7c0477" fill-rule="evenodd" opacity="0.4" style="mix-blend-mode: multiply;isolation: isolate"/>
                <path id="Trazado_205689" data-name="Trazado 205689" d="M2549.6,1482.03l-17.8,22.7,7.667,11.154-11.936,26.547-1.618,81.835s18.095-83.093,25.215-140.7Z" fill="#c4bbff" fill-rule="evenodd"/>
                <path id="Trazado_205690" data-name="Trazado 205690" d="M2559.975,1431.374a7.023,7.023,0,0,0,3.834,3.358s9.251-3.9,15.992-4.191c4.813-.209,10.838,2.915,10.838,2.915s-6.186-4.83-8.677-5.747C2578.394,1426.4,2568.849,1428.684,2559.975,1431.374Z" fill="#38368e"/>
                <path id="Trazado_205691" data-name="Trazado 205691" d="M2604.947,1763.832l-.245-.058s29.782-92.988,29.115-137.376-24.67-153.993-24.67-153.993a42.861,42.861,0,0,1,33.782-12.958s-8.445,34.128,0,54.387,10.891,25.039,10.891,25.039,11.334,80.061,16.224,122.775c2.979,26.024,3.152,71.006,2.834,102.184Z" fill-rule="evenodd" fill="url(#linear-gradient-9)"/>
                <path id="Trazado_205692" data-name="Trazado 205692" d="M2607.615,1470.668l7.07-8.165v8.165l16.8,40.15-8.822,12.454,16.822,31.323-.636,57.462-5.628,28.347s-.081-16.1-.408-21.882S2612.084,1483.443,2607.615,1470.668Z" fill="#c4bbff" fill-rule="evenodd"/>
                <path id="Trazado_205693" data-name="Trazado 205693" d="M2627.261,1581.312s28.36,35.008,39.628,54.388c0,0-5.124-46.623-7.319-55.335s-38.211-28.912-38.211-28.912S2626.2,1574.555,2627.261,1581.312Z" fill="#2c0477" fill-rule="evenodd" opacity="0.48" style="mix-blend-mode: multiply;isolation: isolate"/>
                <path id="Trazado_205694" data-name="Trazado 205694" d="M2502.479,1514.277s-1.682,2.248-4.22,5.636c4.9-2.774,8.3-4.673,8.3-4.673a32.546,32.546,0,0,1,11.918,12.645c1.14-7.8-2.908-47.074-3.136-49.381a.46.46,0,0,1-.029-.116Z" fill="#7c57ae" fill-rule="evenodd" opacity="0.4" style="mix-blend-mode: multiply;isolation: isolate"/>
                <path id="Trazado_205695" data-name="Trazado 205695" d="M2469.349,1581.675s12.915,18.134,25.46,23.391c-13.742-8.907-24.776-28.239-24.776-28.239l-.028-.029C2469.577,1579.748,2469.349,1581.675,2469.349,1581.675Z" fill="#7c57ae" fill-rule="evenodd" opacity="0.4" style="mix-blend-mode: multiply;isolation: isolate"/>
                <path id="Trazado_205696" data-name="Trazado 205696" d="M2644.263,1587.1s-23.5-18.269-22.892-45.652l1-3.824S2644.263,1556.708,2644.263,1587.1Z" fill="#9f90c4" fill-rule="evenodd"/>
                <path id="Trazado_205697" data-name="Trazado 205697" d="M2618.593,1541.833c-1.778-.57-9.946-5.122-15.113-8.764s-12.5-10.3-15.335-10.557-10.585,6.089-13.252,10.173a19.6,19.6,0,0,0-3.083,7.583l4.75,1.365,6.668-7s-2.25,9.39-1.917,12.548l2.917,1.707.5,1.451,5.917,2.391h2.167l5.723,2.816s4.138-.056,6.305-2.019c0,0,2.776,4.694,6.863,6.174,0,0,5.7.168,11.946-7.569l53.062,8.252s4.556-16.959-7.445-25.837C2669.266,1534.548,2620.371,1542.4,2618.593,1541.833Z" fill="#ecbc96"/>
                <g id="Grupo_148304" data-name="Grupo 148304">
                  <path id="Trazado_205698" data-name="Trazado 205698" d="M2614.009,1612.057l4.973-6.487s-16.724-58.217-35.337-81.948l-75.51-3.927v7.114Z" fill="#d1abd9"/>
                  <path id="Trazado_205699" data-name="Trazado 205699" d="M2618.037,1616.5s-16.448-65.786-35.116-89.687h-80.453s33.782,66.013,42.45,86.955Z" fill="#feca2e"/>
                  <path id="Trazado_205700" data-name="Trazado 205700" d="M2502.468,1526.809l1.5-2.846,78.953.918v1.928Z" fill="#20b1bc"/>
                  <path id="Trazado_205701" data-name="Trazado 205701" d="M2618.037,1616.5l.945-4.439s-15.509-59.522-36.061-87.176v1.928A467.589,467.589,0,0,1,2618.037,1616.5Z" fill="#20b1bc"/>
                  <path id="Trazado_205702" data-name="Trazado 205702" d="M2551.855,1519.7l-1.882,7.341-29.67-.228,4.089-8.159Z" fill="#45639d"/>
                  <path id="Trazado_205703" data-name="Trazado 205703" d="M2551.855,1530.622l-1.882-3.585-29.67-.228,2.334,2.959Z" fill="#333d6f"/>
                  <path id="Trazado_205704" data-name="Trazado 205704" d="M2551.855,1519.7l1.537,2.353-1.305-.068-1.489,4.828,1.4,3.087-.14.726-1.882-3.585Z" fill="#333d6f"/>
                </g>
                <path id="Trazado_205705" data-name="Trazado 205705" d="M2498.983,1584.436l4.821-2.307a43.982,43.982,0,0,0,8.833,6.109,16.394,16.394,0,0,0,2.8.9c.087.018.158.036.246.054,5.753,1.424,17.313,3.064,24.456,1.694,6.264-1.207,11.455-2.4,11.455-2.4l.264-2.848a14.451,14.451,0,0,0-7.584-1.027c-3.765.523-10.117-.018-11.225-.108l-.159-.018-.088-.937s.229-.018.616-.072l.141-.018c2.076-.253,7.865-.937,10.574-1.37,3.343-.505,12.6-4.271,12.6-4.271,1.073-.757,2.164-3.406,2.164-3.406l2.006-.523a4.423,4.423,0,0,0-2.252-4.09c-2.5-1.37-11.084-.937-11.084-.937l-10.592.937c5-.595,17-5.46,17-5.46s-.986-2.812-2.323-3.334c-1.337-.505-15.166.342-18,.432s-16.68-5.46-16.68-5.46l-3.5-8.632s-8.252,3.676-9.079,5.46c-.827,1.8-1.918,16.4-1.918,16.4h-3.22C2497.418,1574.47,2498.983,1584.436,2498.983,1584.436Z" fill="#ecbc96"/>
                <path id="Trazado_205706" data-name="Trazado 205706" d="M2642.929,1459.447l10.557,16.714s16.169,22.194,28.337,35.51,16.335,16.561,20.169,21.17,12.168,33.3,12.168,36.537c0,0-8.834,5.8-16,7.852s-42.561,4.438-42.561,4.438l-11.334,5.429s-5.741-31.927-20.928-45.652h-1.964l1-3.824a88.26,88.26,0,0,0,11,1.366c6.667.455,19.446-2.049,19.446-2.049s-11.933-19.081-13.972-31.185C2634.984,1482.819,2642.929,1459.447,2642.929,1459.447Z" fill-rule="evenodd" fill="url(#linear-gradient-10)"/>
                <path id="Trazado_205707" data-name="Trazado 205707" d="M2569.254,1462.5s2.833,3.3,2.833,3.869-3.278,3.13-3.278,3.13-.416-.853-.792-.939-2.333,2.007-2.541,2.732a15.335,15.335,0,0,1-5.5,1.11c-2.334-.171-7.418-2.476-8.168-4.012s3.417-6.4,3.417-6.4a25.174,25.174,0,0,0-.666-6.061s1.527,4.069,1.25,6.459c0,0-2.738,2.276-2.945,4.609a64.6,64.6,0,0,0,10.168-.341,26.833,26.833,0,0,0,6.945-1.821Z" opacity="0.58" fill="url(#linear-gradient-11)" style="mix-blend-mode: multiply;isolation: isolate"/>
                <path id="Trazado_205708" data-name="Trazado 205708" d="M2569.254,1462.5a29.724,29.724,0,0,1,2.389,3.841c.139.654-2.248,2.69-2.248,2.69s2.617-1.376,3.123-2.775C2572.873,1465.277,2569.254,1462.5,2569.254,1462.5Z" fill="#d46057" fill-rule="evenodd"/>
                <path id="Trazado_205709" data-name="Trazado 205709" d="M2568.435,1468.9a4.109,4.109,0,0,0-2.608,1.765S2567.768,1465.785,2568.435,1468.9Z" fill="#ae4038" fill-rule="evenodd"/>
                <path id="Trazado_205710" data-name="Trazado 205710" d="M2586.978,1447.65s-4.084,3.67-8.084,4.78-9.64-.854-9.64-.854l1.222-7.12S2580.144,1443.979,2586.978,1447.65Z" fill="#e4dbff"/>
                <path id="Trazado_205711" data-name="Trazado 205711" d="M2552.585,1453.056s-3.445,3.9-6.223,3.857a17.924,17.924,0,0,1-4.907-1.472l-1.983-4.092S2544.862,1448.219,2552.585,1453.056Z" fill="#e4dbff"/>
                <path id="Trazado_205712" data-name="Trazado 205712" d="M2539.472,1451.349v-5.833s8-1.08,13.113,7.54C2552.585,1453.056,2544.251,1448.731,2539.472,1451.349Z" fill="#eaa678"/>
                <path id="Trazado_205713" data-name="Trazado 205713" d="M2569.254,1451.576s-.228-7.682,1.831-10.841c0,0,8.225-.256,15.893,6.915,0,0-9-2.818-16.669-1.495Z" fill="#eaa678"/>
                <path id="Trazado_205714" data-name="Trazado 205714" d="M2579.8,1452.134s-9.059-7.785-9.817-.33C2569.984,1451.8,2575.978,1454.1,2579.8,1452.134Z" fill="#38368e"/>
                <path id="Trazado_205715" data-name="Trazado 205715" d="M2548.423,1456.367s-4.725-5.306-7.449-1.918l.481.992S2546.082,1457.939,2548.423,1456.367Z" fill="#38368e"/>
                <path id="Trazado_205716" data-name="Trazado 205716" d="M2552.585,1453.056s-6.295-3.114-12.892-1.251l-2.3-.594S2543.528,1448.3,2552.585,1453.056Z" fill="#6b2442"/>
                <path id="Trazado_205717" data-name="Trazado 205717" d="M2586.978,1447.65s-9.89-2.732-16.08-1.153c0,0-.914.825-1.644,5.079,0,0-1.028-4.1-.32-6.1C2568.934,1445.472,2575.852,1443.936,2586.978,1447.65Z" fill="#6b2442"/>
                <path id="Trazado_205718" data-name="Trazado 205718" d="M2540.114,1451.693l.546,2.106-1.187-2.138Z" fill="#6b2442"/>
                <path id="Trazado_205719" data-name="Trazado 205719" d="M2569.984,1451.8a16.28,16.28,0,0,0,6.937,5.109s-6.334-2.263-7.667-5.337Z" fill="#dc5157"/>
                <path id="Trazado_205720" data-name="Trazado 205720" d="M2552.585,1453.056s.542,4.624-.868,7.868a28.107,28.107,0,0,0,.485-8.041Z" fill="#dc5157"/>
                <path id="Trazado_205721" data-name="Trazado 205721" d="M2571.421,1478.03s-7.335,4.869-12.335,4.477l-.889-3.073a21.688,21.688,0,0,0,5.872.308A64.2,64.2,0,0,0,2571.421,1478.03Z" fill="#892f38" fill-rule="evenodd"/>
                <path id="Trazado_205722" data-name="Trazado 205722" d="M2583.907,1449.975s-4.106,2.908-6.722,3.658c-1.927.552-6.287-1.58-6.287-1.58S2576.378,1455.032,2583.907,1449.975Z" fill="#d7494f"/>
                <path id="Trazado_205723" data-name="Trazado 205723" d="M2551.4,1454.245s-2.529,2.721-4.6,3.136c-1.489.3-4.6-1.582-4.6-1.582s2.788,1.365,4.736.963A13.459,13.459,0,0,0,2551.4,1454.245Z" fill="#d7494f"/>
                <path id="Trazado_205724" data-name="Trazado 205724" d="M2576.977,1450.223a.774.774,0,1,0,.774-.793A.784.784,0,0,0,2576.977,1450.223Z" fill="#fff"/>
                <path id="Trazado_205725" data-name="Trazado 205725" d="M2545.588,1454.245a.774.774,0,1,0,.774-.793A.784.784,0,0,0,2545.588,1454.245Z" fill="#fff"/>
                <path id="Trazado_205726" data-name="Trazado 205726" d="M2651.819,1650.3l-5,10.025,25.306,31.277,5.436-7.024Z" fill="#c4bbff" fill-rule="evenodd"/>
                <path id="Trazado_205727" data-name="Trazado 205727" d="M2551.732,1386.44c4.54.289,16.768,3.749,19.741,4.614,0,0-16.052-10.036-21.444-10.044a11.557,11.557,0,0,0-9.364,4.782h-.018a36.457,36.457,0,0,0-3.905,7.046C2537.093,1392.441,2543.076,1385.7,2551.732,1386.44Z" fill-rule="evenodd" fill="url(#linear-gradient-12)"/>
                <path id="Trazado_205728" data-name="Trazado 205728" d="M2536.126,1406.263c.915-.558,18.738-11.281,26.691-10.848,7.548.414,23.066,5.55,25.3,6.307-2.78-1.027-17.03-17.268-29.137-8.272-5.542,4.119-20.339,8.362-20.339,8.362Z" fill-rule="evenodd" fill="url(#linear-gradient-12)"/>
                <path id="Trazado_205729" data-name="Trazado 205729" d="M2579.972,1403.975c-.211-.072-.493-.145-.845-.234C2579.461,1403.83,2579.743,1403.9,2579.972,1403.975Z" fill="#680463" fill-rule="evenodd" opacity="0.4" style="mix-blend-mode: multiply;isolation: isolate"/>
                <path id="Trazado_205730" data-name="Trazado 205730" d="M2561.621,1407.633c-.458.36-.722.577-.722.577l.352-.054C2561.374,1407.975,2561.5,1407.813,2561.621,1407.633Z" fill="#680463" fill-rule="evenodd" opacity="0.4" style="mix-blend-mode: multiply;isolation: isolate"/>
                <path id="Trazado_205731" data-name="Trazado 205731" d="M2552.489,1423.852c.492-1.3,7.759-20.148,12.985-22.382,5.19-2.217,14.2,2.234,14.955,2.631a.134.134,0,0,0,.053.018l7.073.937s-23.577-9.551-27.588-6.614C2556.1,1401.29,2552.682,1422.536,2552.489,1423.852Z" fill-rule="evenodd" fill="url(#linear-gradient-12)"/>
                <path id="Trazado_205732" data-name="Trazado 205732" d="M2570.506,1407.182c4.451-.306,9.36-.414,11.964.343,5.595,1.622,11.173,5.208,12.176,8.2s1.425,11.191,1.425,11.191,6.668,8.794,8.146,18.85l.651.469a70.669,70.669,0,0,1,1.619-7.281s3.5-15.894,4.751-21.7c-4.927.685-12.933-2.649-12.933-2.649l-5.049-5.028c2.164-1.82,5.366-.649,5.841-.45-.422-.307-3.589-2.325-9.536-2.848C2585.6,1405.939,2576.734,1406.624,2570.506,1407.182Z" fill-rule="evenodd" fill="url(#linear-gradient-12)"/>
                <path id="Trazado_205733" data-name="Trazado 205733" d="M2532.132,1415.04s-6.669,8.019-7.32,10.758c-.668,2.739,4.663,9.984,4.663,9.984s-.669-6.4.581-9.552c1.214-3.081,7.512-8.2,7.9-8.523l.017-.018-4.838-4.7,1.425-4s-14.005-1.531-19.249,5.623C2515.311,1414.607,2521.8,1412.643,2532.132,1415.04Z" fill-rule="evenodd" fill="url(#linear-gradient-12)"/>
                <path id="Trazado_205734" data-name="Trazado 205734" d="M2603.854,1479.616s-13.987,12.763-25.211,16.81c-5.653,2.038-14.5,1.021-15.168.792a22.533,22.533,0,0,1-3.2-2.75s2.458,3.913,3.527,4.225,6.822,1.955,16-1.475S2603.854,1479.616,2603.854,1479.616Z" fill="#eaa678" fill-rule="evenodd"/>
                <path id="Trazado_205735" data-name="Trazado 205735" d="M2682.823,1531.987l-9.831-2.788-12.616,6.487-20.893,3.151,7.891-4.061-8.527-13.2-2.53-16.218s5.168,18.608,14.169,27.145l9.084,1.024,5.584-8.643.5,4.716,9.335-2.788Z" fill="#7c338b" fill-rule="evenodd" opacity="0.4" style="mix-blend-mode: multiply;isolation: isolate"/>
                <path id="Trazado_205736" data-name="Trazado 205736" d="M2624.685,1538.029l18.3,17.006s31.17,10.418,52.173,14.343Z" fill="#7c57ae" fill-rule="evenodd" opacity="0.4" style="mix-blend-mode: multiply;isolation: isolate"/>
                <path id="Trazado_205737" data-name="Trazado 205737" d="M2678.868,1579.792l-27.883-3.587-6.723,10.891,11.335-5.428Z" fill="#7c57ae" fill-rule="evenodd" opacity="0.4" style="mix-blend-mode: multiply;isolation: isolate"/>
                <path id="Trazado_205738" data-name="Trazado 205738" d="M2502.468,1569.2a33.367,33.367,0,0,0-1.892,14.472l-1.587.764s-1.617-9.346.264-15.236Z" fill="#eaa678" fill-rule="evenodd"/>
                <path id="Trazado_205739" data-name="Trazado 205739" d="M2622.357,1541.445s3.026,6.211,3.639,11.053l6.545,1.018s-4.52-8.5-9.206-12.071Z" fill="#eaa678" fill-rule="evenodd"/>
                <path id="Trazado_205740" data-name="Trazado 205740" d="M2646.819,1660.325v77.523s19.557,8.74,25.447,18.983c0,0-5.445-9.9-23.78-19.8Z" fill="#7c57ae" fill-rule="evenodd" opacity="0.4" style="mix-blend-mode: multiply;isolation: isolate"/>
                <path id="Trazado_205741" data-name="Trazado 205741" d="M2573.374,1723.936l-22.24-19.805,9.114,10.254,7.611,28.755Z" fill="#600445" fill-rule="evenodd" opacity="0.54" style="mix-blend-mode: multiply;isolation: isolate"/>
                <path id="Trazado_205742" data-name="Trazado 205742" d="M2582.92,1667.209v12.362l-4.881,2.461,2.441,9.571-4.6,21.83v13.353l-8.76-8.419-3.563-8.306,5.476-24.183-2.889-8.261,5.223-1.339,1.506-9.287Z" fill="#fff" opacity="0.5" style="mix-blend-mode: soft-light;isolation: isolate"/>
                <path id="Trazado_205743" data-name="Trazado 205743" d="M2515.681,1589.193c5.753,1.424,17.313,3.064,24.456,1.694,6.264-1.207,11.455-2.4,11.455-2.4l.264-2.848a14.451,14.451,0,0,0-7.584-1.027c-3.765.523-10.117-.018-11.225-.108l7.266,1.244a8.336,8.336,0,0,1-.932,3.946S2527.329,1591.878,2515.681,1589.193Z" fill="#eaa678" fill-rule="evenodd"/>
                <path id="Trazado_205744" data-name="Trazado 205744" d="M2544.131,1582.093c3.343-.505,12.6-4.271,12.6-4.271,1.073-.757,2.164-3.406,2.164-3.406l2.006-.523a4.423,4.423,0,0,0-2.252-4.09c-2.5-1.37-11.084-.937-11.084-.937l-10.592.937c5-.595,17-5.46,17-5.46s-.986-2.812-2.323-3.334c-1.337-.505-15.166.342-18,.432s-16.68-5.46-16.68-5.46l-3.5-8.632s-8.252,3.676-9.079,5.46l29.26,10.416s1.495,4.019,1.495,5.983l-4.838.757a69.5,69.5,0,0,0,11.173.721,5.773,5.773,0,0,1,0,5.01h1.742a11.15,11.15,0,0,1,0,5.8l-9.66,1.964C2535.633,1583.21,2541.422,1582.526,2544.131,1582.093Z" fill="#eaa678" fill-rule="evenodd"/>
                <path id="Trazado_205745" data-name="Trazado 205745" d="M2604.84,1553.528l-2.582-2.818-2.625,1.409,4.221-6.075-.818,3.742Z" fill="#d34c4c" fill-rule="evenodd"/>
                <path id="Trazado_205746" data-name="Trazado 205746" d="M2614.685,1462.5l1.533,4-.767,4.163L2625,1495.33l-10.318-24.661Z" fill="#633d6f"/>
                <path id="Trazado_205747" data-name="Trazado 205747" d="M2546.145,1763.832l4.989-59.7,9.114,10.254.657,2.484-12.392,46.964Z" fill="#7c0477" fill-rule="evenodd" opacity="0.4" style="mix-blend-mode: multiply;isolation: isolate"/>
                <path id="Trazado_205748" data-name="Trazado 205748" d="M2614.581,1692.62l-34.493-2.554-27.112-15.832Z" fill="#7c0477" fill-rule="evenodd" opacity="0.4" style="mix-blend-mode: multiply;isolation: isolate"/>
                <path id="Trazado_205749" data-name="Trazado 205749" d="M2549.974,1495.33l-20.341-19.092s10.368-.019,17.438,3.252Z" fill="#2c0477" fill-rule="evenodd" opacity="0.48" style="mix-blend-mode: multiply;isolation: isolate"/>
                <path id="Trazado_205750" data-name="Trazado 205750" d="M2636.317,1459.357l-13.96,29.141-8.932,10.032-5.81-27.862,7.07-8.165,1.533,4S2623.038,1460.878,2636.317,1459.357Z" fill="#2c0477" fill-rule="evenodd" opacity="0.48" style="mix-blend-mode: multiply;isolation: isolate"/>
                <path id="Trazado_205751" data-name="Trazado 205751" d="M2559.436,1448.856s-5.235-2.927-9.154.181l-1.859-2.127s1.862-5.805,10.957,0Z" fill="#554066"/>
                <path id="Trazado_205752" data-name="Trazado 205752" d="M2605.553,1441.164h-14.58l-1.432-2.968,16.946.757Z" fill="#554066"/>
                <path id="Trazado_205753" data-name="Trazado 205753" d="M2603.992,1444.436s2.738-12.493,9.739-14.883c0,0,6.251-.768,8.521,6.231a34.434,34.434,0,0,1-.77,14.17c-2.083,6.744-8.334,9.305-9.834,9.476s-4.661-.977-4.661-.977A24.3,24.3,0,0,1,2603.992,1444.436Z" fill="url(#linear-gradient)"/>
                <path id="Trazado_205754" data-name="Trazado 205754" d="M2607.619,1452.731s3.583-11.569,6.39-15.069a7.711,7.711,0,0,1,6.723-2.93s1.778,4.3.639,8.223c0,0,.028-5.634-1.472-6.488s-4.251,1.878-4.5,3.415,2,4.609,1.584,8.451-3.667,5.934-4.668,5.912-2.583-3.892-2.583-3.892Z" fill-rule="evenodd" opacity="0.26" fill="url(#linear-gradient-18)" style="isolation: isolate"/>
                <path id="Trazado_205755" data-name="Trazado 205755" d="M2588.545,1456.886l-26-3.253s3.339,10.535,13.388,12.135S2588.545,1456.886,2588.545,1456.886Z" fill="#e4dbff" opacity="0.42" style="mix-blend-mode: soft-light;isolation: isolate"/>
                <path id="Trazado_205756" data-name="Trazado 205756" d="M2549.62,1459.784l-18.315-2.371s3.611,10.64,10.112,11.621S2549.62,1459.784,2549.62,1459.784Z" fill="#e4dbff" opacity="0.42" style="mix-blend-mode: soft-light;isolation: isolate"/>
                <path id="Trazado_205757" data-name="Trazado 205757" d="M2535.631,1435.169c5.5-2.04,12.057,4.169,14.651,13.868s.239,19.216-5.259,21.256-12.057-4.169-14.651-13.869S2530.133,1437.208,2535.631,1435.169Zm-3.949,20.769c2.252,8.424,7.949,13.816,12.723,12.045s6.82-10.037,4.567-18.46-7.949-13.816-12.723-12.044S2529.43,1447.515,2531.682,1455.938Z" fill="#554066"/>
                <path id="Trazado_205758" data-name="Trazado 205758" d="M2789.3,1425.723c.081,3.948,2.136,9.644,2.136,9.644a109.007,109.007,0,0,1,2.727,12.716c.142,1.364.183,3.439.183,5.8,0,0,2.828,5.188,8.219,5.7s8.525-.9,10.234-5.005c0,0-4.008-12.533-9.847-20.692l-10.376-5.005s1.24-11.048,6.266-13.856l11.17,1.648s6.266-12.045,18.454-13.2,17.884,1.729,19.715,3.947.44,11.84.44,11.84-18.473.113-30.1,6.478c0,0,2.174,21.194,8.44,29.007,0,0,10.031,1.627,15.727.183,5.677-1.445,12.045-7.956,12.045-7.956s.645,7.656.259,9.711c-.387,2.075-2.946,4.939-3.984,7.238-1.017,2.3-7.119,29.949-9.4,33.1a10.809,10.809,0,0,1-5.351,3.885,32.78,32.78,0,0,0,4.7-1.261c8.566-2.991,29.97-19.878,32.147-24.374,1.119-2.279.671-11.272-.041-19.573l-.02-.041s-2.625-1.851-2.889-11.434c-.265-9.563-.773-28.831-.773-28.831l-12.208-14.913-17.864-10.58-3.377-1.994h-7.711a18.223,18.223,0,0,0-2.137.1c-13.876,1.546-27.772,10.681-32.513,20.061C2793.576,1408.063,2789.2,1421.776,2789.3,1425.723Z" fill-rule="evenodd" opacity="0.58" fill="url(#linear-gradient-19)" style="mix-blend-mode: multiply;isolation: isolate"/>
                <path id="Trazado_205759" data-name="Trazado 205759" d="M2851.731,1453.885l-30.07-3.673s3.862,11.894,15.482,13.7S2851.731,1453.885,2851.731,1453.885Z" fill="#e4dbff" style="mix-blend-mode: soft-light;isolation: isolate"/>
                <path id="Trazado_205760" data-name="Trazado 205760" d="M2806.719,1457.156l-21.179-2.676s4.176,12.012,11.693,13.119S2806.719,1457.156,2806.719,1457.156Z" fill="#e4dbff" style="mix-blend-mode: soft-light;isolation: isolate"/>
                <path id="Trazado_205761" data-name="Trazado 205761" d="M2573.578,1429.29c9.046-1.03,17.432,6.657,18.731,17.169s-4.982,19.869-14.028,20.9-17.432-6.657-18.731-17.169S2564.533,1430.32,2573.578,1429.29Zm-11.873,20.654c1.127,9.129,8.41,15.805,16.266,14.91s13.311-9.02,12.183-18.149-8.41-15.8-16.266-14.911S2560.577,1440.815,2561.705,1449.944Z" fill="#554066"/>
              </g>
              <path id="Trazado_205762" data-name="Trazado 205762" d="M2491.237,1566.953h0v-.019l-.018.017-.009,0Z" opacity="0.9" fill="url(#radial-gradient)" style="mix-blend-mode: multiply;isolation: isolate"/>
            </g>
          </g>
        </g>
      </g>
    </g>
    <path id="Trazado_205929" data-name="Trazado 205929" d="M2603.992,1444.436s-1.7,6.495,3,14.017c0,0,2.225,14.6.045,17.371l-18.85,16.682s-11.363,9.756-25.192,6.393l-5.522-8.316-4.767-5.415s8.173,8.77,11.71,8.154l-1.769-5.528,6.821-1.319,1.769,6.031s18.315-1.823,11.873-15.654c0,0-17.741-4.992-33.5,5.178l-3.731-3.753a58.508,58.508,0,0,1,39.317-4.93S2597.349,1468.832,2603.992,1444.436Z" transform="translate(-13910.364 -13723.154)" fill="url(#linear-gradient-20)"/>
    <path id="Trazado_205930" data-name="Trazado 205930" d="M2562.99,1498.9" transform="translate(-13910.364 -13723.154)" fill="#2c0477" fill-rule="evenodd"/>
    <path id="Trazado_205931" data-name="Trazado 205931" d="M2608.5,1474.3l-.505-1.833s1.073,2.212-3.569,6.759l-6.68,5.847-9.284,16.446s-6.773,10.486-10.163,6.109l-5.122-8.019s-7.75.4-10.182-.7l-7.643-10.962-4.214-4.367s13.086,30.609,25.8,31.746c0,0,9.49,2.273,16.785-7.3C2593.716,1508.021,2607.926,1487.274,2608.5,1474.3Z" transform="translate(-13910.364 -13723.154)" fill="#c5ced3" fill-rule="evenodd"/>
  </g>
</svg>
