<svg xmlns="http://www.w3.org/2000/svg" width="77.949" height="83.688" viewBox="0 0 77.949 83.688">
  <g id="Grupo_148505" data-name="Grupo 148505" transform="translate(12001 12336.377)">
    <g id="Grupo_148309" data-name="Grupo 148309" transform="translate(-14375.364 -13812.154)">
      <path id="Trazado_205763" data-name="Trazado 205763" d="M2413.339,1475.777a38.975,38.975,0,1,1-38.975,38.975,38.979,38.979,0,0,1,38.975-38.975Z" fill="#feca2e" fill-rule="evenodd"/>
    </g>
    <g id="Grupo_148310" data-name="Grupo 148310" transform="translate(-14375.364 -13812.154)">
      <path id="Trazado_205764" data-name="Trazado 205764" d="M2421.231,1534.424a5.618,5.618,0,0,1-2.763.869l-.618,3.98.619.1,0,.017-.107.692,1.339-2.043h0l.726-1.107.651.427,1.2-1.826a12.813,12.813,0,0,1-1.042-1.105Zm20.444,7.081q-1.3,1.374-2.721,2.617a49.518,49.518,0,0,1-15.3-7.472c-.16-.111-.317-.227-.47-.345l-1.115,1.7.651.427,0,0-.724,1.1h0l-1.894,2.889-.651-.427h0l.65.426-2.756,4.2-1.083,6.985c-.534.04-1.072.066-1.612.085l.005-.036-.618-.1.385-2.48-1.723,2.628h-.055l-.612-.4-.247.376a39,39,0,0,1-7.262-.969l-3.267-10.044-.022-.067,1.349-.438h0l-1.349.439-.987-3.033h0l-.356-1.095-.022-.067,1.349-.439-.8-2.443c-2.522.548-5.307-.636-6.078-5.6a6.436,6.436,0,0,0-1.843-2.769,4.56,4.56,0,0,1-3.295-1.62c-3.618-3.851-5.6-9.8-4.043-19.108,1.905-11.414,13.938-19.958,27.916-19.958a30.767,30.767,0,0,1,17.672,5.458c8.712,6.09,10.433,10.934,14.086,20.07a4.862,4.862,0,0,1-1.546,3.553,31.634,31.634,0,0,0,2.5,7.49c.822,1.4,1.766,1.775,1.754,2.743-.044,3.428-2.775,2.488-4.453,2.6-.729,1.459-.313,2.367.6,2.783h.007l.032.014h0l.041.018a2.215,2.215,0,0,1-1.361,2.43c.695.757,1.2,1.339.347,3.035l-.031.011c-.674.244-2.447.149-2.163,1.328a9.052,9.052,0,0,1,1.108,3.494Zm-52.5-41.376c.139-.266.285-.53.435-.789q-.231.39-.435.789Zm18.971-11.49c.589,0,1.172.026,1.749.072l-.089-.059q-.8-.025-1.66-.013Zm7.559,54.188.618.095h0l-.618-.1.425-2.744h0l.163-1.051.619.1.6-3.86a9.218,9.218,0,0,1-5.127-2.462c-1.361-1.23-7.015-1.285-8.2.326a6.555,6.555,0,0,1-2.84,2.126l.789,2.426,1.348-.439.379,1.162h0l.986,3.033-1.348.439h0l1.349-.439,3.769,11.589a4.976,4.976,0,0,1,1.851.519l.579-.884-.651-.426,5.051-7.7.265-1.709Zm2.487-1.65.267.174h0l-.267-.175Z" fill="#b4c7d3" fill-rule="evenodd"/>
    </g>
    <g id="Grupo_148311" data-name="Grupo 148311" transform="translate(-14375.364 -13812.154)">
      <path id="Trazado_205765" data-name="Trazado 205765" d="M2423.333,1526.718l.993.651-17.692,26.982-.993-.651,17.692-26.982Z" fill="#fff" fill-rule="evenodd"/>
    </g>
    <g id="Grupo_148312" data-name="Grupo 148312" transform="translate(-14375.364 -13812.154)">
      <path id="Trazado_205766" data-name="Trazado 205766" d="M2417.258,1534.563l2.295,1.5-1.895,2.889-2.295-1.5,1.895-2.889Z" fill="#8892a2" fill-rule="evenodd"/>
    </g>
    <g id="Grupo_148313" data-name="Grupo 148313" transform="translate(-14375.364 -13812.154)">
      <path id="Trazado_205767" data-name="Trazado 205767" d="M2415.363,1537.453l2.295,1.5-7.418,11.314-2.295-1.5,7.418-11.314Z" fill="#0aaac4" fill-rule="evenodd"/>
    </g>
    <g id="Grupo_148314" data-name="Grupo 148314" transform="translate(-14375.364 -13812.154)">
      <path id="Trazado_205768" data-name="Trazado 205768" d="M2417.984,1533.456l2.295,1.5-.726,1.107-2.295-1.5.726-1.107Z" fill="#3bc0d9" fill-rule="evenodd"/>
    </g>
    <g id="Grupo_148315" data-name="Grupo 148315" transform="translate(-14375.364 -13812.154)">
      <path id="Trazado_205769" data-name="Trazado 205769" d="M2417.656,1538.961l-7.417,11.311-.544-.357,7.417-11.311.544.357Z" fill="#1493ab" fill-rule="evenodd"/>
    </g>
    <g id="Grupo_148316" data-name="Grupo 148316" transform="translate(-14375.364 -13812.154)">
      <path id="Trazado_205770" data-name="Trazado 205770" d="M2420.277,1534.964l-.724,1.1-.544-.357.724-1.1.544.357Z" fill="#1493ab" fill-rule="evenodd"/>
    </g>
    <g id="Grupo_148317" data-name="Grupo 148317" transform="translate(-14375.364 -13812.154)">
      <path id="Trazado_205771" data-name="Trazado 205771" d="M2407.316,1559.221a4.959,4.959,0,1,0-6.25-3.182,4.96,4.96,0,0,0,6.25,3.182Z" fill="#8892a2" fill-rule="evenodd"/>
    </g>
    <g id="Grupo_148318" data-name="Grupo 148318" transform="translate(-14375.364 -13812.154)">
      <path id="Trazado_205772" data-name="Trazado 205772" d="M2391.9,1526.459c1.232,7.94,7.6,6.217,9.832,3.2,1.189-1.611,6.844-1.557,8.205-.327,3.617,3.271,8.6,3.691,11.149-.924,2.767-5.013-8.335-9.03-11.595-11.217l-19.173-12.858-7.493,0c-.654,15.321,8.586,18.979,9.075,22.123Z" fill="#8892a2" fill-rule="evenodd"/>
    </g>
    <g id="Grupo_148319" data-name="Grupo 148319" transform="translate(-14375.364 -13812.154)">
      <path id="Trazado_205773" data-name="Trazado 205773" d="M2405.7,1485.168a21.4,21.4,0,1,1-21.4,21.4,21.4,21.4,0,0,1,21.4-21.4Z" fill="#636e83" fill-rule="evenodd"/>
    </g>
    <g id="Grupo_148320" data-name="Grupo 148320" transform="translate(-14375.364 -13812.154)">
      <path id="Trazado_205774" data-name="Trazado 205774" d="M2405.7,1490.579a15.992,15.992,0,1,1-15.991,15.991,15.993,15.993,0,0,1,15.991-15.991Z" fill="#d8e0e3" fill-rule="evenodd"/>
    </g>
    <g id="Grupo_148321" data-name="Grupo 148321" transform="translate(-14375.364 -13812.154)">
      <path id="Trazado_205775" data-name="Trazado 205775" d="M2420.372,1500.2a15.992,15.992,0,1,1-13.673-7.7,15.924,15.924,0,0,1,13.673,7.7Z" fill="#99a3b2" fill-rule="evenodd"/>
    </g>
    <g id="Grupo_148322" data-name="Grupo 148322" transform="translate(-14375.364 -13812.154)">
      <path id="Trazado_205776" data-name="Trazado 205776" d="M2405.7,1494.759a11.811,11.811,0,1,1-11.811,11.811,11.813,11.813,0,0,1,11.811-11.811Z" fill="#3bc0d9" fill-rule="evenodd"/>
    </g>
    <g id="Grupo_148323" data-name="Grupo 148323" transform="translate(-14375.364 -13812.154)">
      <path id="Trazado_205777" data-name="Trazado 205777" d="M2416.647,1502.127a11.811,11.811,0,1,1-9.411-4.675,11.785,11.785,0,0,1,9.411,4.675Z" fill="#1493ab" fill-rule="evenodd"/>
    </g>
    <g id="Grupo_148324" data-name="Grupo 148324" transform="translate(-14375.364 -13812.154)">
      <path id="Trazado_205778" data-name="Trazado 205778" d="M2396.076,1524.668a3.305,3.305,0,1,1-2.121,4.165,3.3,3.3,0,0,1,2.121-4.165Z" fill="#fff" fill-rule="evenodd"/>
    </g>
    <g id="Grupo_148325" data-name="Grupo 148325" transform="translate(-14375.364 -13812.154)">
      <path id="Trazado_205779" data-name="Trazado 205779" d="M2400.161,1526.569c.029.072.056.145.08.219a3.3,3.3,0,0,1-5.967,2.738c-.029-.071-.057-.142-.081-.216a3.306,3.306,0,0,1,5.968-2.741Z" fill="#d6dde2" fill-rule="evenodd"/>
    </g>
    <g id="Grupo_148326" data-name="Grupo 148326" transform="translate(-14375.364 -13812.154)">
      <path id="Trazado_205780" data-name="Trazado 205780" d="M2406.8,1557.648a3.3,3.3,0,1,0-4.165-2.121,3.306,3.306,0,0,0,4.165,2.121Z" fill="#fff" fill-rule="evenodd"/>
    </g>
    <g id="Grupo_148327" data-name="Grupo 148327" transform="translate(-14375.364 -13812.154)">
      <path id="Trazado_205781" data-name="Trazado 205781" d="M2406.8,1557.648a3.306,3.306,0,0,0,2.121-4.165c-.023-.069-.048-.136-.074-.2a3.305,3.305,0,0,0-5.963,2.747c.023.069.049.137.075.2a3.305,3.305,0,0,0,3.841,1.417Z" fill="#d6dde2" fill-rule="evenodd"/>
    </g>
    <g id="Grupo_148328" data-name="Grupo 148328" transform="translate(-14375.364 -13812.154)">
      <path id="Trazado_205782" data-name="Trazado 205782" d="M2396.645,1527.959l.907-.3,8.684,26.694-.907.3-8.684-26.694Z" fill="#fff" fill-rule="evenodd"/>
    </g>
    <g id="Grupo_148329" data-name="Grupo 148329" transform="translate(-14375.364 -13812.154)">
      <path id="Trazado_205783" data-name="Trazado 205783" d="M2396.756,1526.757a1.108,1.108,0,1,1-.712,1.4,1.108,1.108,0,0,1,.712-1.4Z" fill="#636e83" fill-rule="evenodd"/>
    </g>
    <g id="Grupo_148330" data-name="Grupo 148330" transform="translate(-14375.364 -13812.154)">
      <path id="Trazado_205784" data-name="Trazado 205784" d="M2406.3,1556.1a1.675,1.675,0,1,0-2.111-1.075,1.676,1.676,0,0,0,2.111,1.075Z" fill="#636e83" fill-rule="evenodd"/>
    </g>
    <g id="Grupo_148331" data-name="Grupo 148331" transform="translate(-14375.364 -13812.154)">
      <path id="Trazado_205785" data-name="Trazado 205785" d="M2397.8,1536.108l3.605-1.173.987,3.034-3.605,1.173-.987-3.034Z" fill="#8892a2" fill-rule="evenodd"/>
    </g>
    <g id="Grupo_148332" data-name="Grupo 148332" transform="translate(-14375.364 -13812.154)">
      <path id="Trazado_205786" data-name="Trazado 205786" d="M2398.791,1539.142l3.605-1.173,3.864,11.879-3.605,1.173-3.864-11.879Z" fill="#3bc0d9" fill-rule="evenodd"/>
    </g>
    <g id="Grupo_148333" data-name="Grupo 148333" transform="translate(-14375.364 -13812.154)">
      <path id="Trazado_205787" data-name="Trazado 205787" d="M2397.426,1534.946l3.605-1.173.378,1.163-3.605,1.173-.378-1.162Z" fill="#3bc0d9" fill-rule="evenodd"/>
    </g>
    <g id="Grupo_148334" data-name="Grupo 148334" transform="translate(-14375.364 -13812.154)">
      <path id="Trazado_205788" data-name="Trazado 205788" d="M2403.391,1550.782l-.736.239-3.842-11.812.736-.239,3.842,11.812Z" fill="#1493ab" fill-rule="evenodd"/>
    </g>
    <g id="Grupo_148335" data-name="Grupo 148335" transform="translate(-14375.364 -13812.154)">
      <path id="Trazado_205789" data-name="Trazado 205789" d="M2398.539,1535.869l-.736.239-.356-1.1.736-.239.356,1.1Z" fill="#1493ab" fill-rule="evenodd"/>
    </g>
    <g id="Grupo_148336" data-name="Grupo 148336" transform="translate(-14375.364 -13812.154)">
      <path id="Trazado_205790" data-name="Trazado 205790" d="M2416.331,1526.752a2.2,2.2,0,1,1-2.509,1.835,2.2,2.2,0,0,1,2.509-1.835Z" fill="#fff" fill-rule="evenodd"/>
    </g>
    <g id="Grupo_148337" data-name="Grupo 148337" transform="translate(-14375.364 -13812.154)">
      <path id="Trazado_205791" data-name="Trazado 205791" d="M2417.779,1527.641a2.2,2.2,0,1,1-1.17-.572,2.191,2.191,0,0,1,1.17.572Z" fill="#d6dde2" fill-rule="evenodd"/>
    </g>
    <g id="Grupo_148338" data-name="Grupo 148338" transform="translate(-14375.364 -13812.154)">
      <path id="Trazado_205792" data-name="Trazado 205792" d="M2411.683,1556.714a2.192,2.192,0,1,0-1.83-2.5,2.192,2.192,0,0,0,1.83,2.5Z" fill="#fff" fill-rule="evenodd"/>
    </g>
    <g id="Grupo_148339" data-name="Grupo 148339" transform="translate(-14375.364 -13812.154)">
      <path id="Trazado_205793" data-name="Trazado 205793" d="M2411.683,1556.714a1.889,1.889,0,1,0-1.426-.863,2.192,2.192,0,0,0,1.426.863Z" fill="#d6dde2" fill-rule="evenodd"/>
    </g>
    <g id="Grupo_148340" data-name="Grupo 148340" transform="translate(-14375.364 -13812.154)">
      <path id="Trazado_205794" data-name="Trazado 205794" d="M2415.523,1528.851l.943.146-3.975,25.624-.943-.146,3.975-25.624Z" fill="#fff" fill-rule="evenodd"/>
    </g>
    <g id="Grupo_148341" data-name="Grupo 148341" transform="translate(-14375.364 -13812.154)">
      <path id="Trazado_205795" data-name="Trazado 205795" d="M2416.164,1527.829a1.108,1.108,0,1,1-1.265.925,1.109,1.109,0,0,1,1.265-.925Z" fill="#636e83" fill-rule="evenodd"/>
    </g>
    <g id="Grupo_148342" data-name="Grupo 148342" transform="translate(-14375.364 -13812.154)">
      <path id="Trazado_205796" data-name="Trazado 205796" d="M2413.686,1536.611l2.179.338-.426,2.744-2.179-.338.426-2.744Z" fill="#8892a2" fill-rule="evenodd"/>
    </g>
    <g id="Grupo_148343" data-name="Grupo 148343" transform="translate(-14375.364 -13812.154)">
      <path id="Trazado_205797" data-name="Trazado 205797" d="M2413.26,1539.355l2.179.338-1.667,10.745-2.179-.338,1.667-10.745Z" fill="#3bc0d9" fill-rule="evenodd"/>
    </g>
    <g id="Grupo_148344" data-name="Grupo 148344" transform="translate(-14375.364 -13812.154)">
      <path id="Trazado_205798" data-name="Trazado 205798" d="M2413.849,1535.559l2.179.338-.163,1.052-2.179-.338.163-1.052Z" fill="#3bc0d9" fill-rule="evenodd"/>
    </g>
    <g id="Grupo_148345" data-name="Grupo 148345" transform="translate(-14375.364 -13812.154)">
      <path id="Trazado_205799" data-name="Trazado 205799" d="M2415.437,1539.71l-1.664,10.727-.678-.105,1.664-10.727.678.105Z" fill="#1493ab" fill-rule="evenodd"/>
    </g>
    <g id="Grupo_148346" data-name="Grupo 148346" transform="translate(-14375.364 -13812.154)">
      <path id="Trazado_205800" data-name="Trazado 205800" d="M2416.026,1535.915l-.161,1.035-.678-.105.16-1.035.678.105Z" fill="#1493ab" fill-rule="evenodd"/>
    </g>
    <g id="Grupo_148347" data-name="Grupo 148347" transform="translate(-14375.364 -13812.154)">
      <path id="Trazado_205801" data-name="Trazado 205801" d="M2396.677,1527.124a.413.413,0,1,1-.265.521.413.413,0,0,1,.265-.521Z" fill="#fff" fill-rule="evenodd"/>
    </g>
    <g id="Grupo_148348" data-name="Grupo 148348" transform="translate(-14375.364 -13812.154)">
      <path id="Trazado_205802" data-name="Trazado 205802" d="M2415.774,1528.219a.424.424,0,1,1-.484.354.424.424,0,0,1,.484-.354Z" fill="#fff" fill-rule="evenodd"/>
    </g>
    <g id="Grupo_148349" data-name="Grupo 148349" transform="translate(-14375.364 -13812.154)">
      <path id="Trazado_205803" data-name="Trazado 205803" d="M2404.376,1515.166h2.65a.808.808,0,0,1,.806.806v3.326a.808.808,0,0,1-.806.806h-2.65a.808.808,0,0,1-.8-.806v-3.326a.808.808,0,0,1,.8-.806Z" fill="#1493ab" fill-rule="evenodd"/>
    </g>
    <g id="Grupo_148350" data-name="Grupo 148350" transform="translate(-14375.364 -13812.154)">
      <path id="Trazado_205804" data-name="Trazado 205804" d="M2407.988,1514.963l2.421-1.078a.806.806,0,0,1,1.063.408l1.353,3.039a.806.806,0,0,1-.408,1.063l-2.421,1.078a.808.808,0,0,1-1.064-.408l-1.353-3.039a.807.807,0,0,1,.409-1.063Z" fill="#1493ab" fill-rule="evenodd"/>
    </g>
    <g id="Grupo_148351" data-name="Grupo 148351" transform="translate(-14375.364 -13812.154)">
      <path id="Trazado_205805" data-name="Trazado 205805" d="M2411.2,1513.307l1.773-1.969a.809.809,0,0,1,1.138-.06l2.472,2.226a.808.808,0,0,1,.059,1.138l-1.773,1.969a.807.807,0,0,1-1.138.06l-2.472-2.226a.808.808,0,0,1-.059-1.138Z" fill="#1493ab" fill-rule="evenodd"/>
    </g>
    <g id="Grupo_148352" data-name="Grupo 148352" transform="translate(-14375.364 -13812.154)">
      <path id="Trazado_205806" data-name="Trazado 205806" d="M2413.469,1510.487l.819-2.52a.807.807,0,0,1,1.015-.517l3.163,1.028a.806.806,0,0,1,.517,1.015l-.818,2.52a.808.808,0,0,1-1.016.517l-3.163-1.028a.807.807,0,0,1-.517-1.015Z" fill="#1493ab" fill-rule="evenodd"/>
    </g>
    <g id="Grupo_148353" data-name="Grupo 148353" transform="translate(-14375.364 -13812.154)">
      <path id="Trazado_205807" data-name="Trazado 205807" d="M2416.647,1502.127c.047.117.092.235.136.354a11.81,11.81,0,0,1-20.942,9.692c-.048-.117-.093-.236-.137-.355a11.811,11.811,0,0,1,20.943-9.691Z" fill="#0aaac4" fill-rule="evenodd"/>
    </g>
    <g id="Grupo_148354" data-name="Grupo 148354" transform="translate(-14375.364 -13812.154)">
      <path id="Trazado_205808" data-name="Trazado 205808" d="M2405.7,1499.424a7.147,7.147,0,1,1-7.146,7.146,7.147,7.147,0,0,1,7.146-7.146Z" fill="#fbc8b2" fill-rule="evenodd"/>
    </g>
    <g id="Grupo_148355" data-name="Grupo 148355" transform="translate(-14375.364 -13812.154)">
      <path id="Trazado_205809" data-name="Trazado 205809" d="M2412.3,1503.82a7.147,7.147,0,1,1-6.244-3.67,7.129,7.129,0,0,1,6.244,3.67Z" fill="#bc755a" fill-rule="evenodd"/>
    </g>
    <g id="Grupo_148356" data-name="Grupo 148356" transform="translate(-14375.364 -13812.154)">
      <path id="Trazado_205810" data-name="Trazado 205810" d="M2405.7,1502.118a4.452,4.452,0,1,1-4.452,4.452,4.453,4.453,0,0,1,4.452-4.452Z" fill="#009ab4" fill-rule="evenodd"/>
    </g>
    <g id="Grupo_148357" data-name="Grupo 148357" transform="translate(-14375.364 -13812.154)">
      <path id="Trazado_205811" data-name="Trazado 205811" d="M2405.7,1502.118a4.454,4.454,0,1,1-4.452,4.452,4.444,4.444,0,0,1,4.452-4.452Z" fill="#3bc0d9" fill-rule="evenodd"/>
    </g>
    <g id="Grupo_148358" data-name="Grupo 148358" transform="translate(-14375.364 -13812.154)">
      <path id="Trazado_205812" data-name="Trazado 205812" d="M2403.051,1504.815a3.014,3.014,0,0,1,5.426.135,2.979,2.979,0,0,0-.934-.747,3.015,3.015,0,0,0-4.127,3.925,3.017,3.017,0,0,1-.365-3.313Z" fill="#fff" fill-rule="evenodd"/>
    </g>
    <g id="Grupo_148359" data-name="Grupo 148359" transform="translate(-14375.364 -13812.154)">
      <path id="Trazado_205813" data-name="Trazado 205813" d="M2405.7,1494.759a11.81,11.81,0,0,1,10.6,6.6,11.811,11.811,0,0,0-20.372,11.844,11.81,11.81,0,0,1,9.769-18.448Z" fill="#fff" fill-rule="evenodd"/>
    </g>
    <g id="Grupo_148360" data-name="Grupo 148360" transform="translate(-14375.364 -13812.154)">
      <path id="Trazado_205814" data-name="Trazado 205814" d="M2414.436,1505.615a.721.721,0,1,1-.462.909.721.721,0,0,1,.462-.909Z" fill="#636e83" fill-rule="evenodd"/>
    </g>
    <g id="Grupo_148361" data-name="Grupo 148361" transform="translate(-14375.364 -13812.154)">
      <path id="Trazado_205815" data-name="Trazado 205815" d="M2413.293,1502.145a.721.721,0,1,1-.053,1.018.72.72,0,0,1,.053-1.018Z" fill="#636e83" fill-rule="evenodd"/>
    </g>
    <g id="Grupo_148362" data-name="Grupo 148362" transform="translate(-14375.364 -13812.154)">
      <path id="Trazado_205816" data-name="Trazado 205816" d="M2410.837,1499.44a.721.721,0,1,1,.366.952.721.721,0,0,1-.366-.952Z" fill="#636e83" fill-rule="evenodd"/>
    </g>
    <g id="Grupo_148363" data-name="Grupo 148363" transform="translate(-14375.364 -13812.154)">
      <path id="Trazado_205817" data-name="Trazado 205817" d="M2407.493,1497.968a.722.722,0,1,1,.722.721.721.721,0,0,1-.722-.721Z" fill="#636e83" fill-rule="evenodd"/>
    </g>
    <g id="Grupo_148364" data-name="Grupo 148364" transform="translate(-14375.364 -13812.154)">
      <path id="Trazado_205818" data-name="Trazado 205818" d="M2396.961,1505.688a.721.721,0,1,1,.641-.793.722.722,0,0,1-.641.793Z" fill="#636e83" fill-rule="evenodd"/>
    </g>
    <g id="Grupo_148365" data-name="Grupo 148365" transform="translate(-14375.364 -13812.154)">
      <path id="Trazado_205819" data-name="Trazado 205819" d="M2397.358,1509.319a.721.721,0,1,1,.263-.985.72.72,0,0,1-.263.985Z" fill="#636e83" fill-rule="evenodd"/>
    </g>
    <g id="Grupo_148366" data-name="Grupo 148366" transform="translate(-14375.364 -13812.154)">
      <path id="Trazado_205820" data-name="Trazado 205820" d="M2399.2,1512.476a.722.722,0,1,1-.16-1.008.722.722,0,0,1,.16,1.008Z" fill="#636e83" fill-rule="evenodd"/>
    </g>
    <g id="Grupo_148367" data-name="Grupo 148367" transform="translate(-14375.364 -13812.154)">
      <path id="Trazado_205821" data-name="Trazado 205821" d="M2402.162,1514.611a.721.721,0,1,1-.555-.855.72.72,0,0,1,.555.855Z" fill="#636e83" fill-rule="evenodd"/>
    </g>
    <g id="Grupo_148368" data-name="Grupo 148368" transform="translate(-14375.364 -13812.154)">
      <path id="Trazado_205822" data-name="Trazado 205822" d="M2413.781,1508.1a8.387,8.387,0,0,1-9.867,6.394.566.566,0,0,1-.431-.712l.211-.731a.565.565,0,0,1,.659-.4,6.408,6.408,0,0,0,7.548-4.9.565.565,0,0,1,.632-.441l.772.107a.57.57,0,0,1,.476.685Z" fill="#bc755a" fill-rule="evenodd"/>
    </g>
    <g id="Grupo_148369" data-name="Grupo 148369" transform="translate(-14375.364 -13812.154)">
      <path id="Trazado_205823" data-name="Trazado 205823" d="M2404.911,1513.063a.448.448,0,1,1-.288.565.449.449,0,0,1,.288-.565Z" fill="#636e83" fill-rule="evenodd"/>
    </g>
    <g id="Grupo_148370" data-name="Grupo 148370" transform="translate(-14375.364 -13812.154)">
      <path id="Trazado_205824" data-name="Trazado 205824" d="M2407.621,1512.823a.448.448,0,1,1-.034.633.449.449,0,0,1,.034-.633Z" fill="#636e83" fill-rule="evenodd"/>
    </g>
    <g id="Grupo_148371" data-name="Grupo 148371" transform="translate(-14375.364 -13812.154)">
      <path id="Trazado_205825" data-name="Trazado 205825" d="M2410,1511.5a.448.448,0,1,1,.228.592.448.448,0,0,1-.228-.592Z" fill="#636e83" fill-rule="evenodd"/>
    </g>
    <g id="Grupo_148372" data-name="Grupo 148372" transform="translate(-14375.364 -13812.154)">
      <path id="Trazado_205826" data-name="Trazado 205826" d="M2411.633,1509.329a.448.448,0,1,1,.449.448.449.449,0,0,1-.449-.448Z" fill="#636e83" fill-rule="evenodd"/>
    </g>
    <g id="Grupo_148373" data-name="Grupo 148373" transform="translate(-14375.364 -13812.154)">
      <path id="Trazado_205827" data-name="Trazado 205827" d="M2404.656,1515.688h2.09a.638.638,0,0,1,.636.636v2.623a.637.637,0,0,1-.636.635h-2.09a.637.637,0,0,1-.635-.635v-2.623a.637.637,0,0,1,.635-.636Z" fill="#0aaac4" fill-rule="evenodd"/>
    </g>
    <g id="Grupo_148374" data-name="Grupo 148374" transform="translate(-14375.364 -13812.154)">
      <path id="Trazado_205828" data-name="Trazado 205828" d="M2397.1,1491.814l3.388-1.508c.566-.252,1.139-.2,1.282.125l1.066,2.4a.356.356,0,0,1,.031.141,15.9,15.9,0,0,0-5.349,2.433.383.383,0,0,1-.123-.151l-1.067-2.4c-.142-.321.206-.787.772-1.04Z" fill="#d8e0e3" fill-rule="evenodd"/>
    </g>
    <g id="Grupo_148375" data-name="Grupo 148375" transform="translate(-14375.364 -13812.154)">
      <path id="Trazado_205829" data-name="Trazado 205829" d="M2391.846,1496.587l2.481-2.756c.415-.46.962-.641,1.222-.407l1.95,1.756a.389.389,0,0,1,.1.165,16.094,16.094,0,0,0-4.158,4.2l-1.882-1.7c-.261-.235-.133-.8.282-1.264Z" fill="#d8e0e3" fill-rule="evenodd"/>
    </g>
    <g id="Grupo_148376" data-name="Grupo 148376" transform="translate(-14375.364 -13812.154)">
      <path id="Trazado_205830" data-name="Trazado 205830" d="M2388.984,1503.086l1.146-3.527c.191-.589.617-.977.95-.869l2.415.785a15.932,15.932,0,0,0-2.394,5.485l-1.861-.6c-.334-.108-.448-.679-.256-1.269Z" fill="#d8e0e3" fill-rule="evenodd"/>
    </g>
    <g id="Grupo_148377" data-name="Grupo 148377" transform="translate(-14375.364 -13812.154)">
      <path id="Trazado_205831" data-name="Trazado 205831" d="M2408.456,1515.325l1.909-.85a.638.638,0,0,1,.839.322l1.066,2.4a.635.635,0,0,1-.321.838l-1.909.85a.637.637,0,0,1-.839-.322l-1.067-2.4a.637.637,0,0,1,.322-.839Z" fill="#0aaac4" fill-rule="evenodd"/>
    </g>
    <g id="Grupo_148378" data-name="Grupo 148378" transform="translate(-14375.364 -13812.154)">
      <path id="Trazado_205832" data-name="Trazado 205832" d="M2411.779,1513.448l1.4-1.552a.636.636,0,0,1,.9-.048l1.949,1.755a.638.638,0,0,1,.047.9l-1.4,1.553a.638.638,0,0,1-.9.047l-1.949-1.755a.637.637,0,0,1-.047-.9Z" fill="#0aaac4" fill-rule="evenodd"/>
    </g>
    <g id="Grupo_148379" data-name="Grupo 148379" transform="translate(-14375.364 -13812.154)">
      <path id="Trazado_205833" data-name="Trazado 205833" d="M2414.052,1510.382l.646-1.987a.636.636,0,0,1,.8-.408l2.494.81a.637.637,0,0,1,.408.8l-.645,1.987a.637.637,0,0,1-.8.408l-2.5-.81a.637.637,0,0,1-.407-.8Z" fill="#0aaac4" fill-rule="evenodd"/>
    </g>
    <g id="Grupo_148380" data-name="Grupo 148380" transform="translate(-14375.364 -13812.154)">
      <path id="Trazado_205834" data-name="Trazado 205834" d="M2405.7,1487.794a18.777,18.777,0,1,1-18.775,18.776,18.779,18.779,0,0,1,18.775-18.776Zm0,1.226a17.55,17.55,0,1,1-17.55,17.55,17.552,17.552,0,0,1,17.55-17.55Z" fill="#1493ab" fill-rule="evenodd"/>
    </g>
    <g id="Grupo_148381" data-name="Grupo 148381" transform="translate(-14375.364 -13812.154)">
      <path id="Trazado_205835" data-name="Trazado 205835" d="M2442.394,1508.532a4.852,4.852,0,0,1-1.545,3.552,31.641,31.641,0,0,0,2.5,7.491c.822,1.4,1.765,1.775,1.753,2.743-.043,3.427-2.774,2.488-4.452,2.6-.752,1.5-.286,2.422.68,2.819a2.217,2.217,0,0,1-1.361,2.431c.694.757,1.2,1.338.347,3.034-.648.26-2.483.142-2.194,1.34,1.008,2.008,1.723,4.081.389,6.61a48.273,48.273,0,0,1-17.3-7.971c-2.8-1.954-4.561-4.925-5.735-8.652l-1.5-6.219c10.177-4.059,14.319-16.667,6.377-27.153-3.172-4.19-7.445-6.1-14.658-5.987s-17.459,5.856-19.825,13.591c-2.772,9.059,5.943,14.023,14.775,14.052-3.285,6.975-9.26,14.183-13.887,9.258-3.618-3.85-5.595-9.8-4.043-19.107,1.9-11.414,13.938-19.958,27.916-19.958a30.77,30.77,0,0,1,17.672,5.458c8.711,6.09,10.432,10.933,14.085,20.07Z" fill="#fff" fill-rule="evenodd"/>
    </g>
    <g id="Grupo_148382" data-name="Grupo 148382" transform="translate(-14375.364 -13812.154)">
      <path id="Trazado_205836" data-name="Trazado 205836" d="M2432.058,1538a48.691,48.691,0,0,1-10.042-5.611c-2.623-1.767-4.224-4.56-5.311-8.011l-1.384-5.759a15.206,15.206,0,0,0,5.463-3.671h0c10.972,1.911,11.037,12.548,11.271,23.052Z" fill="#d6dde2" fill-rule="evenodd"/>
    </g>
    <g id="Grupo_148383" data-name="Grupo 148383" transform="translate(-14375.364 -13812.154)">
      <path id="Trazado_205837" data-name="Trazado 205837" d="M2425.98,1534.961c-1.352-.822-2.661-1.7-3.964-2.574-2.623-1.767-4.224-4.56-5.311-8.011l-1.384-5.759a15.5,15.5,0,0,0,4.017-2.333c5.4,3.68,6.353,10.912,6.642,18.677Z" fill="#99a3b2" fill-rule="evenodd"/>
    </g>
    <g id="Grupo_148384" data-name="Grupo 148384" transform="translate(-14375.364 -13812.154)">
      <path id="Trazado_205838" data-name="Trazado 205838" d="M2439.974,1530.166h-4.228q-.554-.63.572-1.108a1.024,1.024,0,0,0,.611.382c2.85-.272,2.694-1.009,4.322-1.742.028.013.056.025.084.036a2.217,2.217,0,0,1-1.361,2.431Z" fill="#99a3b2" fill-rule="evenodd"/>
    </g>
    <g id="Grupo_148385" data-name="Grupo 148385" transform="translate(-14375.364 -13812.154)">
      <path id="Trazado_205839" data-name="Trazado 205839" d="M2428.79,1511.33c2.469-4.057,8.343-1.931,12.078-2.971a3.944,3.944,0,0,1-1.035,3.8l-7.908,1.289a4.016,4.016,0,0,1-3.135-2.118Z" fill="#d6dde2" fill-rule="evenodd"/>
    </g>
    <g id="Grupo_148386" data-name="Grupo 148386" transform="translate(-14375.364 -13812.154)">
      <path id="Trazado_205840" data-name="Trazado 205840" d="M2433.345,1514.223a6.216,6.216,0,0,0,5.076,1.312q.089-.586.178-1.174a6.05,6.05,0,0,1-5.189-.908c-.021.257-.044.513-.065.77Z" fill="#d6dde2" fill-rule="evenodd"/>
    </g>
    <g id="Grupo_148387" data-name="Grupo 148387" transform="translate(-14375.364 -13812.154)">
      <path id="Trazado_205841" data-name="Trazado 205841" d="M2438.321,1524.334c-.609.015-.944-.065-.73-1.176.211-1.095.7-1.768,1.461-1.785,1.325-.03,2.542.757,3.813,1.136-1.961.026-3.608-.086-4.273.53-.243.608-.108.89-.271,1.3Z" fill="#d8e0e3" fill-rule="evenodd"/>
    </g>
    <g id="Grupo_148388" data-name="Grupo 148388" transform="translate(-14375.364 -13812.154)">
      <path id="Trazado_205842" data-name="Trazado 205842" d="M2439.322,1524.376c-.607-.928.5-.949,1.85-.84l1.828.366c-2.014.237-2.89-.121-3.678.474Z" fill="#99a3b2" fill-rule="evenodd"/>
    </g>
    <g id="Grupo_148389" data-name="Grupo 148389" transform="translate(-14375.364 -13812.154)">
      <path id="Trazado_205843" data-name="Trazado 205843" d="M2424.961,1498.6c2.816,2.641,4.739,5.932,4.739,7.827,0,2.613-5.073,7.276-6.679,5.168,2.236-3.828,3.684-7.959,1.94-12.995Z" fill="#d6dde2" fill-rule="evenodd"/>
    </g>
    <g id="Grupo_148390" data-name="Grupo 148390" transform="translate(-14375.364 -13812.154)">
      <path id="Trazado_205844" data-name="Trazado 205844" d="M2383.361,1500.309c-.994,8.243,3.995,13.319,14.6,14.025a20.713,20.713,0,0,1-6.553,9.162,4.345,4.345,0,0,1-4.649-1.427c-3.618-3.85-5.595-9.8-4.043-19.107a19.3,19.3,0,0,1,.64-2.653Z" fill="#99a3b2" fill-rule="evenodd"/>
    </g>
    <g id="Grupo_148391" data-name="Grupo 148391" transform="translate(-14375.364 -13812.154)">
      <path id="Trazado_205845" data-name="Trazado 205845" d="M2384.667,1508.045c2.12,3.643,6.583,5.842,13.3,6.289a20.713,20.713,0,0,1-6.553,9.162,4.8,4.8,0,0,1-.862.172,6.679,6.679,0,0,1-.99-.872c-3.076-3.274-5.045-7.968-4.894-14.751Z" fill="#d6dde2" fill-rule="evenodd"/>
    </g>
    <g id="Grupo_148392" data-name="Grupo 148392" transform="translate(-14375.364 -13812.154)">
      <path id="Trazado_205846" data-name="Trazado 205846" d="M2440.868,1508.359a3.944,3.944,0,0,1-1.035,3.8l-7.908,1.289a4.878,4.878,0,0,1-1.7-.582c4.5-3.259,9.426-1.77,10.639-4.507Z" fill="#99a3b2" fill-rule="evenodd"/>
    </g>
    <g id="Grupo_148393" data-name="Grupo 148393" transform="translate(-14375.364 -13812.154)">
      <path id="Trazado_205847" data-name="Trazado 205847" d="M2433.345,1512.435l5.452-1.313.191,1.174-5.573.908-.071-.77Z" fill="#fff" fill-rule="evenodd"/>
    </g>
    <g id="Grupo_148394" data-name="Grupo 148394" transform="translate(-14375.364 -13812.154)">
      <path id="Trazado_205848" data-name="Trazado 205848" d="M2433.416,1513.142l5.085-.766a2.952,2.952,0,0,1-.205,1.556,5.392,5.392,0,0,1-4.885-.791l-.066.712.071-.711Z" fill="#99a3b2" fill-rule="evenodd"/>
    </g>
    <g id="Grupo_148395" data-name="Grupo 148395" transform="translate(-14375.364 -13812.154)">
      <path id="Trazado_205849" data-name="Trazado 205849" d="M2395.19,1515.484a.448.448,0,1,1,.448.448.447.447,0,0,1-.448-.448Z" fill="#636e83" fill-rule="evenodd"/>
    </g>
    <g id="Grupo_148396" data-name="Grupo 148396" transform="translate(-14375.364 -13812.154)">
      <path id="Trazado_205850" data-name="Trazado 205850" d="M2389.456,1513.824a.448.448,0,1,1,.448.448.449.449,0,0,1-.448-.448Z" fill="#636e83" fill-rule="evenodd"/>
    </g>
    <g id="Grupo_148397" data-name="Grupo 148397" transform="translate(-14375.364 -13812.154)">
      <path id="Trazado_205851" data-name="Trazado 205851" d="M2416.931,1519.89a.448.448,0,1,1,.449.448.449.449,0,0,1-.449-.448Z" fill="#636e83" fill-rule="evenodd"/>
    </g>
    <g id="Grupo_148398" data-name="Grupo 148398" transform="translate(-14375.364 -13812.154)">
      <path id="Trazado_205852" data-name="Trazado 205852" d="M2418.065,1524.5a.448.448,0,1,1,.448.448.449.449,0,0,1-.448-.448Z" fill="#636e83" fill-rule="evenodd"/>
    </g>
    <g id="Grupo_148399" data-name="Grupo 148399" transform="translate(-14375.364 -13812.154)">
      <path id="Trazado_205853" data-name="Trazado 205853" d="M2420.306,1529.13a.448.448,0,1,1,.449.448.45.45,0,0,1-.449-.448Z" fill="#636e83" fill-rule="evenodd"/>
    </g>
  </g>
</svg>
