<svg xmlns="http://www.w3.org/2000/svg" width="77.949" height="89.482" viewBox="0 0 77.949 89.482">
  <g id="Grupo_148503" data-name="Grupo 148503" transform="translate(11739.426 12454.465)">
    <g id="Grupo_148401" data-name="Grupo 148401" transform="translate(-14375.364 -13812.154)">
      <path id="Trazado_205854" data-name="Trazado 205854" d="M2674.913,1369.222a38.975,38.975,0,1,1-38.975,38.975,38.979,38.979,0,0,1,38.975-38.975Z" fill="#feca2e" fill-rule="evenodd"/>
    </g>
    <g id="Grupo_148402" data-name="Grupo 148402" transform="translate(-14375.364 -13812.154)">
      <path id="Trazado_205855" data-name="Trazado 205855" d="M2663.967,1372.258c1.586-1.124-2.948-4.67-5.707-2.375s-3.826,2.612-3.2,4.432,3.008,15.471,2.444,19.132,1.883-17.945,6.462-21.189Z" fill="#99a3b2" fill-rule="evenodd"/>
    </g>
    <g id="Grupo_148403" data-name="Grupo 148403" transform="translate(-14375.364 -13812.154)">
      <path id="Trazado_205856" data-name="Trazado 205856" d="M2662.619,1369.719a10.259,10.259,0,0,0-6.991,7.021,112.794,112.794,0,0,1,1.947,14.413q.077.261.128.506c.741-5.017,2.94-17.046,6.264-19.4.818-.58.008-1.8-1.348-2.539Z" fill="#8892a2" fill-rule="evenodd"/>
    </g>
    <g id="Grupo_148404" data-name="Grupo 148404" transform="translate(-14375.364 -13812.154)">
      <path id="Trazado_205857" data-name="Trazado 205857" d="M2707.376,1429.766c-20.863-6.6-42.115-6.753-63.849,1.537a38.974,38.974,0,0,0,63.849-1.537Z" fill="#eff0f1" fill-rule="evenodd"/>
    </g>
    <g id="Grupo_148405" data-name="Grupo 148405" transform="translate(-14375.364 -13812.154)">
      <path id="Trazado_205858" data-name="Trazado 205858" d="M2659.369,1403.906c-1.719,3.72-1.388,10.963,2.678,10.993l-2.678-10.993Zm35.082,10.988c3.365-.869,4.728-5.785,2.335-11.674-.03.158-.348.268-.378.426,2.126,5.88.447,10.136-1.846,10.554l-.111.694Zm.948-28.259c.321-3.356,2.652-6.922,1.755-9.065a13.252,13.252,0,0,0-1.131-2.137,38.78,38.78,0,0,0-21.11-6.211,39.282,39.282,0,0,0-5.268.356,6.562,6.562,0,0,0-2.342,3.159l-.018.054-.018.056-.033.112-.016.056-.015.057v0l-.027.105,0,.006-.013.058-.014.059h0l-.025.116-.012.059-.011.06v0l-.016.092-.026.173-.008.057c-.009.068-.017.136-.023.2l0,.017a3.388,3.388,0,0,0-.01.559h0a3.2,3.2,0,0,0,.087.563,4.709,4.709,0,0,0-1.034-.726l-.069.081a3.888,3.888,0,0,0-4.431.123c-2.759,2.3-3.825,2.611-3.2,4.432a73.42,73.42,0,0,1,1.474,7.612h-.007l-.058.005-.032,0-.022,0h-.013l-.834.073h-.032l-.047,0-.465.042-.055.005h-.007l-.032,0-.019,0h-.012l-.033,0-.031,0-.032,0h-.01l-.043,0-.021,0-.03,0-.022,0h0l-.187.017q-.259.341-.489.691l.168.041a13.869,13.869,0,0,0-1.9,6.942v.137l0,.1v.034l0,.057v.029l0,.036v.059l0,.045v.027l0,.066v.005l0,.061v.023l0,.035v.024l.005.077v.037l0,.066,0,.032h0l0,.013v.019c.009.125.02.248.033.372v.018l.013.116v.014l.005.037.011.092,0,.025.005.04.008.059v.005l0,.013.033.233,0,.011v.007c.038.251.084.5.136.748l0,.01.018.087,0,.009.006.027v0l.005.023.006.027,0,.013,0,.013.018.08.006.026,0,.007.011.046,0,.017.009.034v0l.011.047v0l.007.026,0,.01.01.042,0,.021,0,.006.007.026.012.046,0,.007.007.026,0,.014,0,.013.014.049v0l.007.026.007.027,0,.006.034.123v0l.008.028,0,.015,0,.013v.005l0,.01,0,.014,0,.014,0,.014,0,.01v0l0,.014,0,.014,0,.014,0,.014v0l0,.012,0,.014,0,.013v0l.012.04,0,.014.005.014,0,.013h0l0,.013,0,.014h0l.01.034h0c.056.174.115.346.176.519l0,0q.078.218.165.434l0,.007c.043.108.089.216.134.323l.046.1v0l.048.108,0,.013a15.5,15.5,0,0,0,1.405,2.479c.3.053.608.106.916.157a8.34,8.34,0,0,0,.253,1.073,4,4,0,0,0,1.713,2.485,1.73,1.73,0,0,0,.248.1,19.463,19.463,0,0,0-.1,2.276,23.482,23.482,0,0,0,.206,3.1,22.578,22.578,0,0,0,.616,3.029,16.426,16.426,0,0,0,4.342,7.582l.013.033.06,3.067a92.629,92.629,0,0,1,26.256.644,4.079,4.079,0,0,0-1.669-1.309c-.032.211-.069.419-.108.626v-3.935a16.111,16.111,0,0,0,2.919-4.914c.229-.6.424-1.2.591-1.8a19.948,19.948,0,0,0,.315-3.65c.108-1.044.513-1.832.508-2.616v0a19.172,19.172,0,0,0-.118-2.266c.054-1.43,1.028-2.443,1.9-3.48.4-.065.794-.133,1.184-.2a14.466,14.466,0,0,0,2.459-5.995l0-.023.015-.094,0-.02.009-.064h0l.009-.064.009-.065v-.005l.008-.059.014-.112,0-.017.007-.065,0-.014.006-.051.007-.064,0-.019.01-.111,0-.024,0-.041v0l.009-.106.006-.082v0l0-.034,0-.032,0-.065,0-.038.006-.093,0-.043v-.023l0-.065c0-.088.007-.175.009-.263l0-.057v-.009l0-.128v-.137a13.879,13.879,0,0,0-1.9-6.942l.168-.041q-.231-.351-.489-.691l-.789-.073-.022,0q-1.192-.107-2.422-.2Zm-28.971,38.95c-.043-.221-.081-.444-.116-.669a3.767,3.767,0,0,0-1.255.843q.686-.093,1.371-.174Zm21.874,19.223.081-.029v0l-.082.031Z" fill="#b4c7d3" fill-rule="evenodd"/>
    </g>
    <g id="Grupo_148406" data-name="Grupo 148406" transform="translate(-14375.364 -13812.154)">
      <path id="Trazado_205859" data-name="Trazado 205859" d="M2691.385,1426.014a83.5,83.5,0,0,0-24.923-.433l0,.2-.037-.192q-.686.081-1.371.174c-1.311,1.3-5.033.063-5.621,3.31.734,5.359,7.214,14.689,12.287,17.972.311.025,3.894-7.537,4.206-9.415a24.331,24.331,0,0,0,7.479,8.614,38.807,38.807,0,0,0,3.91-1.088c2.067-4.612,6.181-15.288,4.067-19.138Z" fill="#d6dde2" fill-rule="evenodd"/>
    </g>
    <g id="Grupo_148407" data-name="Grupo 148407" transform="translate(-14375.364 -13812.154)">
      <path id="Trazado_205860" data-name="Trazado 205860" d="M2691.1,1390.86c1.544,0,2.8,2.439,2.8,5.447s-1.253,5.447-2.8,5.447-2.8-2.439-2.8-5.447,1.253-5.447,2.8-5.447Z" fill="#eaa785" fill-rule="evenodd"/>
    </g>
    <g id="Grupo_148408" data-name="Grupo 148408" transform="translate(-14375.364 -13812.154)">
      <path id="Trazado_205861" data-name="Trazado 205861" d="M2658.463,1390.86c1.545,0,2.8,2.439,2.8,5.447s-1.252,5.447-2.8,5.447-2.8-2.439-2.8-5.447,1.252-5.447,2.8-5.447Z" fill="#eaa785" fill-rule="evenodd"/>
    </g>
    <g id="Grupo_148409" data-name="Grupo 148409" transform="translate(-14375.364 -13812.154)">
      <path id="Trazado_205862" data-name="Trazado 205862" d="M2658.763,1410.453a3.491,3.491,0,0,1-3.209-2.206c-1.474-3-.908-8.517,1.1-10.727a.354.354,0,1,1,.525.476c-1.816,2-2.335,7.2-.99,9.939a2.8,2.8,0,0,0,2.837,1.8.342.342,0,0,1,.382.325.354.354,0,0,1-.325.381C2658.975,1410.448,2658.868,1410.453,2658.763,1410.453Z" fill="#636e83"/>
    </g>
    <g id="Grupo_148410" data-name="Grupo 148410" transform="translate(-14375.364 -13812.154)">
      <path id="Trazado_205863" data-name="Trazado 205863" d="M2690.972,1410.453c-.1,0-.212-.005-.32-.014a.354.354,0,0,1-.325-.381.349.349,0,0,1,.382-.325,2.785,2.785,0,0,0,2.836-1.8c1.345-2.739.827-7.941-.99-9.939a.354.354,0,0,1,.524-.476c2.01,2.21,2.577,7.724,1.1,10.727A3.49,3.49,0,0,1,2690.972,1410.453Z" fill="#636e83"/>
    </g>
    <g id="Grupo_148411" data-name="Grupo 148411" transform="translate(-14375.364 -13812.154)">
      <path id="Trazado_205864" data-name="Trazado 205864" d="M2657.34,1396.307c.462,0,.837.719.837,1.606s-.375,1.606-.837,1.606-.837-.719-.837-1.606.375-1.606.837-1.606Z" fill="#636e83" fill-rule="evenodd"/>
    </g>
    <g id="Grupo_148412" data-name="Grupo 148412" transform="translate(-14375.364 -13812.154)">
      <path id="Trazado_205865" data-name="Trazado 205865" d="M2692.4,1396.307c-.462,0-.837.719-.837,1.606s.375,1.606.837,1.606.837-.719.837-1.606-.375-1.606-.837-1.606Z" fill="#636e83" fill-rule="evenodd"/>
    </g>
    <g id="Grupo_148413" data-name="Grupo 148413" transform="translate(-14375.364 -13812.154)">
      <path id="Trazado_205866" data-name="Trazado 205866" d="M2687.636,1422.129c0,8.765-12.261,13.119-12.261,13.119s-12.191-4.447-12.191-13.058l-.212-10.868h24.664v10.807Z" fill="#fbc8b2" fill-rule="evenodd"/>
    </g>
    <g id="Grupo_148414" data-name="Grupo 148414" transform="translate(-14375.364 -13812.154)">
      <path id="Trazado_205867" data-name="Trazado 205867" d="M2692,1385.652a17.524,17.524,0,1,0-35.045,0,17.914,17.914,0,0,0,1.944,8.139c-.087,1.005-.137,2.027-.137,3.067,0,13.262,7.26,24.012,16.214,24.012s16.214-10.75,16.214-24.012a35.461,35.461,0,0,0-.335-4.879,17.989,17.989,0,0,0,1.145-6.327Z" fill="#fbc8b2" fill-rule="evenodd"/>
    </g>
    <g id="Grupo_148415" data-name="Grupo 148415" transform="translate(-14375.364 -13812.154)">
      <path id="Trazado_205868" data-name="Trazado 205868" d="M2664.295,1370.281s-1.53,7.482,7.724,7.482,13.577,2.807,14.136,5.8,3.56,1.186,3.56,1.186l1.067-7.6-7.373-5.645s-18.448-3.152-19.114-1.22Z" fill="#eaa785" fill-rule="evenodd"/>
    </g>
    <g id="Grupo_148416" data-name="Grupo 148416" transform="translate(-14375.364 -13812.154)">
      <path id="Trazado_205869" data-name="Trazado 205869" d="M2676.442,1375.231a4,4,0,0,1-3.386.419c-3.056-1.048-9.729-2.29-9.34-6.367.514-5.385,7.314-6.84,9.408-6.839a3.953,3.953,0,0,0,3.951-4.669.2.2,0,0,1,.15-.085h.011c.657.016,1.8,3.682.087,5.707-1.427.644,12.239-.876,16.526,9.37.989,2.364-1.95,6.46-1.785,10.1.879,19.39-1.122.941-2.947-1.5-1.092-3.7-6.8-9.71-12.675-6.128Z" fill="#99a3b2" fill-rule="evenodd"/>
    </g>
    <g id="Grupo_148417" data-name="Grupo 148417" transform="translate(-14375.364 -13812.154)">
      <path id="Trazado_205870" data-name="Trazado 205870" d="M2662.91,1417.219c-.129-.336-.189-.532-.189-.532l.194.054-.005.478Zm24.726-1.776v-2.574a3.757,3.757,0,0,1,.077,2.166c-.026.137-.052.273-.077.408Z" fill="#c6a296" fill-rule="evenodd"/>
    </g>
    <g id="Grupo_148418" data-name="Grupo 148418" transform="translate(-14375.364 -13812.154)">
      <path id="Trazado_205871" data-name="Trazado 205871" d="M2675.372,1426.492c-9.389,0-11.672-7.227-12.462-9.273l.005-.478,4.276,1.186a12.291,12.291,0,0,0,7.784,2.943c4.945,0,9.372-3.277,12.346-8.446a1.36,1.36,0,0,1,.315.445v2.574c-1.268,6.642-2.874,11.049-12.264,11.049Z" fill="#e8a785" fill-rule="evenodd"/>
    </g>
    <g id="Grupo_148419" data-name="Grupo 148419" transform="translate(-14375.364 -13812.154)">
      <path id="Trazado_205872" data-name="Trazado 205872" d="M2674.975,1420.87a12.291,12.291,0,0,1-7.784-2.943l6.041,1.676s9.111-7.558,12.936-7.558a1.644,1.644,0,0,1,1.153.379c-2.974,5.169-7.4,8.446-12.346,8.446Z" fill="#c3836e" fill-rule="evenodd"/>
    </g>
    <g id="Grupo_148420" data-name="Grupo 148420" transform="translate(-14375.364 -13812.154)">
      <path id="Trazado_205873" data-name="Trazado 205873" d="M2677.966,1407.487a10.208,10.208,0,0,0-3.547-.222,9.612,9.612,0,0,0-3.48.222,9.461,9.461,0,0,0-1.639.644,1.233,1.233,0,0,0,.594.129,6.161,6.161,0,0,0,1.17-.175,8.9,8.9,0,0,1,3.3-.212l0,.014.054-.007.059.008,0-.016a9.556,9.556,0,0,1,3.366.213,6.944,6.944,0,0,0,1.219.175,1.07,1.07,0,0,0,.586-.141,10.484,10.484,0,0,0-1.687-.632Z" fill="#bc755a" fill-rule="evenodd"/>
    </g>
    <g id="Grupo_148421" data-name="Grupo 148421" transform="translate(-14375.364 -13812.154)">
      <path id="Trazado_205874" data-name="Trazado 205874" d="M2675.2,1410.644q-.339,0-.732-.026c-.262.017-.507.026-.732.026-2.114,0-2.292-1.38-2.292-1.38.138.391.817.769,2.3.769q.324,0,.7-.025h.042c.251.017.484.025.7.025,1.478,0,2.164-.378,2.3-.769,0,0-.179,1.38-2.292,1.38Z" fill="#c3836e" fill-rule="evenodd"/>
    </g>
    <g id="Grupo_148422" data-name="Grupo 148422" transform="translate(-14375.364 -13812.154)">
      <path id="Trazado_205875" data-name="Trazado 205875" d="M2674.861,1403.633c.924-.046,1.847-1.028,3.811-1.028a1.133,1.133,0,0,0-1.274-1.124c-1.29,0-1.316.785-2.57.8-1.253-.014-1.28-.8-2.569-.8a1.134,1.134,0,0,0-1.275,1.124c1.965,0,2.888.982,3.811,1.028v0l.033,0,.033,0v0Z" fill="#eaa785" fill-rule="evenodd"/>
    </g>
    <g id="Grupo_148423" data-name="Grupo 148423" transform="translate(-14375.364 -13812.154)">
      <path id="Trazado_205876" data-name="Trazado 205876" d="M2671.713,1402.652s.039-.516.472-.516,1.156.991,1.156.991a7.492,7.492,0,0,0-1.628-.475Z" fill="#bc755a" fill-rule="evenodd"/>
    </g>
    <g id="Grupo_148424" data-name="Grupo 148424" transform="translate(-14375.364 -13812.154)">
      <path id="Trazado_205877" data-name="Trazado 205877" d="M2677.974,1402.646s-.039-.516-.472-.516-1.156.991-1.156.991a7.492,7.492,0,0,1,1.628-.475Z" fill="#bc755a" fill-rule="evenodd"/>
    </g>
    <g id="Grupo_148425" data-name="Grupo 148425" transform="translate(-14375.364 -13812.154)">
      <path id="Trazado_205878" data-name="Trazado 205878" d="M2664.176,1372.253c.831-.589-.021-1.843-1.416-2.573-.769.9-1.737,2.044-2.96,3.521-1.864,2.251-2.646,5.978-2.9,9.752a63.927,63.927,0,0,1,.886,9.557c.592-4.329,2.854-17.754,6.386-20.257Z" fill="#636e83" fill-rule="evenodd"/>
    </g>
    <g id="Grupo_148426" data-name="Grupo 148426" transform="translate(-14375.364 -13812.154)">
      <path id="Trazado_205879" data-name="Trazado 205879" d="M2675.375,1435.248a13.865,13.865,0,0,1-6.448,7.3c-5.444-3.231-7.61-9-9.968-14.627.758-4.193,2.029-7.009,4.048-7.813,1.089,7.04,5.732,11.743,12.368,15.135Z" fill="#fff" fill-rule="evenodd"/>
    </g>
    <g id="Grupo_148427" data-name="Grupo 148427" transform="translate(-14375.364 -13812.154)">
      <path id="Trazado_205880" data-name="Trazado 205880" d="M2675.247,1435.581a12.956,12.956,0,0,1-2.524,4c-.591-1.212-.479-3.107-1.708-4.107-1.98-1.609-4.292-3.3-5.955-5.955a22.839,22.839,0,0,1-2.774-9.016,3.447,3.447,0,0,1,.721-.394c1.082,6.988,5.665,11.673,12.222,15.059.008.134.014.27.018.409Z" fill="#eff0f1" fill-rule="evenodd"/>
    </g>
    <g id="Grupo_148428" data-name="Grupo 148428" transform="translate(-14375.364 -13812.154)">
      <path id="Trazado_205881" data-name="Trazado 205881" d="M2675.375,1435.248a13.865,13.865,0,0,0,6.448,7.3c5.444-3.231,7.61-9,9.969-14.627-.759-4.193-2.03-7.009-4.048-7.813-1.09,7.04-5.733,11.743-12.369,15.135Z" fill="#fff" fill-rule="evenodd"/>
    </g>
    <g id="Grupo_148429" data-name="Grupo 148429" transform="translate(-14375.364 -13812.154)">
      <path id="Trazado_205882" data-name="Trazado 205882" d="M2681.95,1442.476c5.351-3.245,7.5-8.971,9.842-14.55-.616-3.4-1.569-5.9-2.985-7.148.343,4.135-.381,5.825-3.091,8.9-3.072,3.478-7.006,7.693-3.993,12.5a2.107,2.107,0,0,0,.227.3Z" fill="#eff0f1" fill-rule="evenodd"/>
    </g>
    <g id="Grupo_148430" data-name="Grupo 148430" transform="translate(-14375.364 -13812.154)">
      <path id="Trazado_205883" data-name="Trazado 205883" d="M2659.116,1402.833c3.159-5.181,12.491,1.08,14.018-6.261.362-1.736,2.434-1.926,2.888.116,1.506,6.774,12.586,2.09,14.555,6.73a30.288,30.288,0,0,0,.612-6.56q0-1.007-.056-1.99c-8.67-3.159-25.282-6.443-29.38-.832a12.64,12.64,0,0,1-2.991,2.564v.258a31.1,31.1,0,0,0,.355,5.975Z" fill="#c37d63" fill-rule="evenodd"/>
    </g>
    <g id="Grupo_148431" data-name="Grupo 148431" transform="translate(-14375.364 -13812.154)">
      <path id="Trazado_205884" data-name="Trazado 205884" d="M2690.964,1399.443c-.628,3.177-2.386,3.485-4.142,5.879a1.073,1.073,0,0,0-.187.45c-.7,3.865-5.813,8.113-9.739,7.787a1.091,1.091,0,0,1-1-1.068c0-.128,0-.262-.005-.393a1.091,1.091,0,0,0-1.123-1.066l-.172,0-.172,0a1.09,1.09,0,0,0-1.123,1.066c0,.132,0,.265-.006.393a1.089,1.089,0,0,1-1.005,1.068c-3.925.326-8.327-3.922-9.027-7.787a1.086,1.086,0,0,0-.187-.45c-1.756-2.394-3.514-2.7-4.142-5.879-1.243-2.148-4.7,22.2,16.011,22.2s17.267-24.347,16.024-22.2Z" fill="#99a3b2" fill-rule="evenodd"/>
    </g>
    <g id="Grupo_148432" data-name="Grupo 148432" transform="translate(-14375.364 -13812.154)">
      <path id="Trazado_205885" data-name="Trazado 205885" d="M2674.94,1417.637c-12.683,0-16.3-9.126-16.918-15.711-.616,5.771,1.122,19.926,16.918,19.926,9.205,0,13.639-4.808,15.615-9.962a22.653,22.653,0,0,0,1.312-9.978c-.615,6.586-4.235,15.725-16.927,15.725Z" fill="#636e83" fill-rule="evenodd"/>
    </g>
    <g id="Grupo_148433" data-name="Grupo 148433" transform="translate(-14375.364 -13812.154)">
      <path id="Trazado_205886" data-name="Trazado 205886" d="M2695.338,1382.3a188.64,188.64,0,0,0-40.85,0,13.753,13.753,0,0,0,.407,15.568,112.357,112.357,0,0,0,16.176,1.587,3.5,3.5,0,0,0,.371-.777c.653-1.939,1.722-4.314,3.034-4.314,1.337,0,2.511,2.467,3.233,4.426a3.584,3.584,0,0,0,.338.685,112.993,112.993,0,0,0,16.885-1.607,13.755,13.755,0,0,0,.406-15.568Z" fill="#1493ab" fill-rule="evenodd"/>
    </g>
    <g id="Grupo_148434" data-name="Grupo 148434" transform="translate(-14375.364 -13812.154)">
      <path id="Trazado_205887" data-name="Trazado 205887" d="M2695.3,1382.3a188.64,188.64,0,0,0-40.814,0,13.7,13.7,0,0,0-.184,14.651l.119.175a112.361,112.361,0,0,0,16.177,1.588,3.577,3.577,0,0,0,.37-.778c.653-1.938,1.537-4.444,3.506-4.463,1.389-.013,1.9.895,2.5,1.964a14.34,14.34,0,0,1,1.327,3.293,104.35,104.35,0,0,0,16.153-1.6,14.11,14.11,0,0,0,2.624-8.089,13.837,13.837,0,0,0-1.782-6.742Z" fill="#3bc0d9" fill-rule="evenodd"/>
    </g>
    <g id="Grupo_148435" data-name="Grupo 148435" transform="translate(-14375.364 -13812.154)">
      <path id="Trazado_205888" data-name="Trazado 205888" d="M2695.338,1382.3a188.64,188.64,0,0,0-40.85,0,13.982,13.982,0,0,0-2.217,7.48,13.486,13.486,0,0,0,.639,4.095,68.224,68.224,0,0,0,18.627,2.795c.424-1.425,1.479-3.2,2.939-3.2s2.546,1.622,2.994,3.214a69.654,69.654,0,0,0,19.446-2.811,13.492,13.492,0,0,0,.639-4.1,13.982,13.982,0,0,0-2.217-7.48Z" fill="#636e83" fill-rule="evenodd"/>
    </g>
    <g id="Grupo_148436" data-name="Grupo 148436" transform="translate(-14375.364 -13812.154)">
      <path id="Trazado_205889" data-name="Trazado 205889" d="M2694.034,1382.16c-5.208-.554-10.965-.891-17.044-.953l-6.952,15.415q.741.031,1.5.052c.424-1.425,1.479-3.2,2.939-3.2s2.546,1.622,2.994,3.214a83.635,83.635,0,0,0,10.373-.8l6.191-13.729Zm-20.943-.955c-3.744.033-7.367.171-10.817.4l-5.958,13.211a67.015,67.015,0,0,0,9.931,1.565l6.844-15.176Z" fill="#8892a2" fill-rule="evenodd"/>
    </g>
    <g id="Grupo_148437" data-name="Grupo 148437" transform="translate(-14375.364 -13812.154)">
      <path id="Trazado_205890" data-name="Trazado 205890" d="M2669.17,1379.587h11.485v3.241H2669.17v-3.241Z" fill="#1493ab" fill-rule="evenodd"/>
    </g>
    <g id="Grupo_148438" data-name="Grupo 148438" transform="translate(-14375.364 -13812.154)">
      <path id="Trazado_205891" data-name="Trazado 205891" d="M2695.338,1382.11c-4.5-.428-9.433-.72-14.655-.846a28.666,28.666,0,0,1-11.484,0c-5.242.124-10.2.417-14.711.847q-.26.341-.49.69c5.494,1.355,12.794,3.145,20.867,3.145s15.468-1.79,20.963-3.145q-.231-.35-.49-.69Z" fill="#fff" fill-rule="evenodd"/>
    </g>
    <g id="Grupo_148439" data-name="Grupo 148439" transform="translate(-14375.364 -13812.154)">
      <path id="Trazado_205892" data-name="Trazado 205892" d="M2695.338,1382.11c-4.5-.428-9.433-.72-14.655-.846a28.666,28.666,0,0,1-11.484,0c-5.242.124-10.2.417-14.711.847q-.26.341-.49.69a101.239,101.239,0,0,0,41.83,0q-.231-.35-.49-.69Z" fill="#3bc0d9" fill-rule="evenodd"/>
    </g>
    <g id="Grupo_148440" data-name="Grupo 148440" transform="translate(-14375.364 -13812.154)">
      <path id="Trazado_205893" data-name="Trazado 205893" d="M2667.178,1377.11a41.089,41.089,0,0,1,15.47,0,1.853,1.853,0,0,1,1.525,1.865h0a1.727,1.727,0,0,1-1.525,1.866h-15.47a1.727,1.727,0,0,1-1.525-1.866h0a1.843,1.843,0,0,1,1.525-1.865Z" fill="#1493ab" fill-rule="evenodd"/>
    </g>
    <g id="Grupo_148441" data-name="Grupo 148441" transform="translate(-14375.364 -13812.154)">
      <path id="Trazado_205894" data-name="Trazado 205894" d="M2667.178,1377.11a41.089,41.089,0,0,1,15.47,0,1.965,1.965,0,0,1,.576.21,1.893,1.893,0,0,1,.342,1.116h0a1.726,1.726,0,0,1-1.525,1.865h-15.469a1.272,1.272,0,0,1-.564-.134,2.121,2.121,0,0,1-.355-1.192h0a1.843,1.843,0,0,1,1.525-1.865Z" fill="#3bc0d9" fill-rule="evenodd"/>
    </g>
    <g id="Grupo_148442" data-name="Grupo 148442" transform="translate(-14375.364 -13812.154)">
      <path id="Trazado_205895" data-name="Trazado 205895" d="M2668.134,1377.525a35.458,35.458,0,0,1,14.357,0,1.779,1.779,0,0,1,.441.157,45.99,45.99,0,0,0-14.51.343,1.935,1.935,0,0,0-1.636,1.929,2.4,2.4,0,0,1-.067-.564h0a1.813,1.813,0,0,1,1.415-1.865Z" fill="#fff" fill-rule="evenodd"/>
    </g>
    <g id="Grupo_148443" data-name="Grupo 148443" transform="translate(-14375.364 -13812.154)">
      <path id="Trazado_205896" data-name="Trazado 205896" d="M2669.262,1381.275l.181.035.016,0h0l.257.049h0c.171.032.342.061.513.089h0l.092-.2c-.356.008-.712.017-1.066.027Zm-11.932,13.775c1.945.43,4.029.788,6.272,1.059l4.765-10.528c-2.2-.239-4.316-.577-6.314-.96l-4.723,10.429Z" fill="#d6dde2" fill-rule="evenodd"/>
    </g>
    <g id="Grupo_148444" data-name="Grupo 148444" transform="translate(-14375.364 -13812.154)">
      <path id="Trazado_205897" data-name="Trazado 205897" d="M2676.387,1385.924l-4.1,9.065a3.051,3.051,0,0,1,1.3-1.281,1.9,1.9,0,0,1,.9-.231c1.461,0,2.546,1.622,2.994,3.214q1.655-.03,3.221-.114l5.267-11.635a68.26,68.26,0,0,1-9.571.982Z" fill="#d6dde2" fill-rule="evenodd"/>
    </g>
    <g id="Grupo_148445" data-name="Grupo 148445" transform="translate(-14375.364 -13812.154)">
      <path id="Trazado_205898" data-name="Trazado 205898" d="M2674.715,1369.029c4.463,1.46,10.818,1.815,14.056,6.319a6.915,6.915,0,0,1,1.266,3.09c.461,3.748.449.022.266-1.73-.5-4.819-7.7-7.277-12.123-7.724a24.291,24.291,0,0,1-5.6-1.112c-.585-.208,1.843,1.359,2.131,1.157Z" fill="#8892a2" fill-rule="evenodd"/>
    </g>
    <g id="Grupo_148446" data-name="Grupo 148446" transform="translate(-14375.364 -13812.154)">
      <path id="Trazado_205899" data-name="Trazado 205899" d="M2672.5,1369.99c-3.928-.819-5.4-2.918-5.6-5.607a6.512,6.512,0,0,0-3.18,4.9v0h0q-.009.094-.012.186v0c0,.062,0,.122,0,.182v0c0,.06,0,.119.007.178.237,3.638,6.436,4.813,9.348,5.812a4,4,0,0,0,3.386-.419c5.875-3.582,11.583,2.428,12.675,6.128l.03.044.026.038q.028.042.057.09l.03.053.027.05q.664.042,1.319.087c-.3-7.69-4.039-8.794-18.11-11.731Z" fill="#8892a2" fill-rule="evenodd"/>
    </g>
    <g id="Grupo_148447" data-name="Grupo 148447" transform="translate(-14375.364 -13812.154)">
      <path id="Trazado_205900" data-name="Trazado 205900" d="M2673.046,1371.8a7.8,7.8,0,0,1-7.945-5.844,6.023,6.023,0,0,0-1.385,3.331c-.389,4.078,6.285,5.319,9.34,6.367a4,4,0,0,0,3.387-.419c5.874-3.582,11.582,2.428,12.675,6.128a2.35,2.35,0,0,1,.169.272c.386.024.768.049,1.148.075-1.015-7.948-7.3-9.729-17.389-9.91Z" fill="#636e83" fill-rule="evenodd"/>
    </g>
  </g>
</svg>
