<svg xmlns="http://www.w3.org/2000/svg" width="77.95" height="77.95" viewBox="0 0 77.95 77.95">
  <g id="Grupo_148504" data-name="Grupo 148504" transform="translate(11698.296 12232.614)">
    <g id="Grupo_148449" data-name="Grupo 148449" transform="translate(-14375.364 -13812.154)">
      <path id="Trazado_205901" data-name="Trazado 205901" d="M2716.043,1579.54a38.975,38.975,0,1,1-38.975,38.975,38.98,38.98,0,0,1,38.975-38.975Z" fill="#feca2e" fill-rule="evenodd"/>
    </g>
    <g id="Grupo_148450" data-name="Grupo 148450" transform="translate(-14375.364 -13812.154)">
      <path id="Trazado_205902" data-name="Trazado 205902" d="M2744.238,1591.61v53.81a38.974,38.974,0,0,1-47.979,6.677v-60.99a2.185,2.185,0,0,1,2.185-2.185H2741.4q1.485,1.273,2.836,2.688Z" fill="#b4c7d3" fill-rule="evenodd"/>
    </g>
    <g id="Grupo_148451" data-name="Grupo 148451" transform="translate(-14375.364 -13812.154)">
      <path id="Trazado_205903" data-name="Trazado 205903" d="M2740.11,1585.537v69.552a2.185,2.185,0,0,1-2.184,2.185h-43.61a2.185,2.185,0,0,1-2.185-2.185v-69.552a2.184,2.184,0,0,1,2.185-2.184h43.61a2.184,2.184,0,0,1,2.184,2.185Z" fill="#99a3b2" fill-rule="evenodd"/>
    </g>
    <g id="Grupo_148452" data-name="Grupo 148452" transform="translate(-14375.364 -13812.154)">
      <path id="Trazado_205904" data-name="Trazado 205904" d="M2734.689,1648.785v-60.3H2696.9v60.3Z" fill="#636e83" fill-rule="evenodd"/>
    </g>
    <g id="Grupo_148453" data-name="Grupo 148453" transform="translate(-14375.364 -13812.154)">
      <path id="Trazado_205905" data-name="Trazado 205905" d="M2735.34,1649.539v-60.375h-37.681v60.375Z" fill="#d6dde2" fill-rule="evenodd"/>
    </g>
    <g id="Grupo_148454" data-name="Grupo 148454" transform="translate(-14375.364 -13812.154)">
      <path id="Trazado_205906" data-name="Trazado 205906" d="M2734.689,1648.785v-59.621h-37.031v59.621Z" fill="#3bc0d9" fill-rule="evenodd"/>
    </g>
    <g id="Grupo_148455" data-name="Grupo 148455" transform="translate(-14375.364 -13812.154)">
      <path id="Trazado_205907" data-name="Trazado 205907" d="M2734.689,1628.559v-19.948l-37.031,15.181v19.948l37.031-15.181Zm0-24.4v-12.142l-37.031,15.18v12.143l37.031-15.181Z" fill="#0aaac4" fill-rule="evenodd"/>
    </g>
    <g id="Grupo_148456" data-name="Grupo 148456" transform="translate(-14375.364 -13812.154)">
      <path id="Trazado_205908" data-name="Trazado 205908" d="M2710.909,1600.636a.576.576,0,0,1-.377.1,8.591,8.591,0,0,0-4.089.59.581.581,0,0,1-.5-1.048,9.606,9.606,0,0,1,4.693-.7.581.581,0,0,1,.276,1.06Z" fill="#fff" fill-rule="evenodd"/>
    </g>
    <g id="Grupo_148457" data-name="Grupo 148457" transform="translate(-14375.364 -13812.154)">
      <path id="Trazado_205909" data-name="Trazado 205909" d="M2728.486,1603.87a.58.58,0,0,1-.488-.266c-3.023-4.674-8.96-6.417-12.508-7.458a.582.582,0,1,1,.329-1.116c3.7,1.086,9.9,2.907,13.155,7.943a.582.582,0,0,1-.488.9Z" fill="#fff" fill-rule="evenodd"/>
    </g>
    <g id="Grupo_148458" data-name="Grupo 148458" transform="translate(-14375.364 -13812.154)">
      <path id="Trazado_205910" data-name="Trazado 205910" d="M2730.7,1609.405a.581.581,0,0,1-.535-.353c-4.006-9.421-16.413-11.891-17.838-11.891h-.06a.59.59,0,0,1-.591-.541.57.57,0,0,1,.512-.617c1.068-.113,14.651,2.252,19.047,12.593a.582.582,0,0,1-.307.763.573.573,0,0,1-.228.046Z" fill="#fff" fill-rule="evenodd"/>
    </g>
    <g id="Grupo_148459" data-name="Grupo 148459" transform="translate(-14375.364 -13812.154)">
      <path id="Trazado_205911" data-name="Trazado 205911" d="M2727.415,1606.85a.578.578,0,0,1-.416-.175c-6.346-6.486-16.083-7.851-17.736-7.851a.582.582,0,1,1,0-1.164c.106,0,11.141.611,18.568,8.2a.581.581,0,0,1-.416.988Z" fill="#fff" fill-rule="evenodd"/>
    </g>
    <g id="Grupo_148460" data-name="Grupo 148460" transform="translate(-14375.364 -13812.154)">
      <path id="Trazado_205912" data-name="Trazado 205912" d="M2723.865,1597.558a.669.669,0,0,1-.35-.232c-1.7-2.261-5.532-2.683-6.358-2.587a.663.663,0,0,1-.711-.41.437.437,0,0,1,.426-.542c1.074-.125,5.524.313,7.622,3.1a.409.409,0,0,1-.169.647.672.672,0,0,1-.46.025Z" fill="#fff" fill-rule="evenodd"/>
    </g>
    <g id="Grupo_148461" data-name="Grupo 148461" transform="translate(-14375.364 -13812.154)">
      <path id="Trazado_205913" data-name="Trazado 205913" d="M2732.909,1619a.582.582,0,0,1-.6-.532c0-.066-1.023-6.91-8.365-12.066-8.746-6.294-17.5-2.762-18.439-2.036a.581.581,0,1,1-.711-.92c1.077-.832,10.377-4.79,19.823,2.008,6.841,4.8,8.722,11.409,8.851,12.915a.581.581,0,0,1-.53.628l-.033,0Z" fill="#fff" fill-rule="evenodd"/>
    </g>
    <g id="Grupo_148462" data-name="Grupo 148462" transform="translate(-14375.364 -13812.154)">
      <path id="Trazado_205914" data-name="Trazado 205914" d="M2720.534,1636.367c-.288,0-.58-.008-.878-.026-10.762-1.632-12.807-8.207-13.074-11.981-.081-1.167-.281-7.139,3.712-10.194,3.394-2.6,6.555-2.848,10.25-.816,4.111,2.261,4.271,6.372,4.348,8.347l.008.184a7.452,7.452,0,0,1-2.064,5.193,4.8,4.8,0,0,1-3.816,1.326,8.267,8.267,0,0,1-6.866-6.644l-.022-.28c-.158-1.978-.321-4.024,2.587-5.5a5.16,5.16,0,0,1,2.007-.386h.022a4.5,4.5,0,0,0-5.769,4.729c.093,2.75,1.869,5.6,3.336,6.225a.581.581,0,0,1-.453,1.071c-2.054-.869-3.943-4.26-4.044-7.257a5.629,5.629,0,0,1,3.122-5.524,6.209,6.209,0,0,1,5.121-.057,7.981,7.981,0,0,1,4.773,4.391.581.581,0,0,1-1.027.525c-1.875-2.75-4.8-3.425-6.6-2.663-2.176,1.1-2.067,2.467-1.917,4.352l.023.283a7.112,7.112,0,0,0,5.818,5.576,3.616,3.616,0,0,0,2.9-1.008,6.274,6.274,0,0,0,1.709-4.3l-.007-.188c-.074-1.9-.213-5.43-3.747-7.374-3.323-1.827-5.926-1.618-8.984.722-3.519,2.693-3.331,8.126-3.257,9.189.417,5.918,4.692,9.792,12.035,10.907a9.016,9.016,0,0,0,7.244-2.466c3.956-4.011,3.453-11.59,3.448-11.665a.571.571,0,0,1,.008-.154c.055-.288,1.214-7.167-8.1-12.858-7.315-4.284-14.01-3.787-19.888,1.481a.582.582,0,0,1-.776-.867c6.3-5.642,13.449-6.186,21.261-1.612,9.616,5.878,8.8,13.112,8.656,14,.053.871.374,8.274-3.78,12.493a9.851,9.851,0,0,1-7.321,2.833Z" fill="#fff" fill-rule="evenodd"/>
    </g>
    <g id="Grupo_148463" data-name="Grupo 148463" transform="translate(-14375.364 -13812.154)">
      <path id="Trazado_205915" data-name="Trazado 205915" d="M2719.651,1634.435a.582.582,0,0,1-.023-1.163c4.618-.179,6.955-3.626,7.722-4.758,1.094-1.843,2.045-6.305.229-11.112-1.664-4.768-5.851-8.309-11.494-9.73-5.89-1.339-12.408,2.8-14.658,6.179a.582.582,0,0,1-.968-.645c2.5-3.744,9.408-8.144,15.9-6.664,6.043,1.52,10.526,5.333,12.316,10.463,1.832,4.846,1.124,9.665-.308,12.085l-.051.077c-2.279,3.361-5.186,5.133-8.639,5.267Z" fill="#fff" fill-rule="evenodd"/>
    </g>
    <g id="Grupo_148464" data-name="Grupo 148464" transform="translate(-14375.364 -13812.154)">
      <path id="Trazado_205916" data-name="Trazado 205916" d="M2715.957,1619.908v.013s0-.009,0-.013Zm.634-.74a.586.586,0,0,0,.162.3c1.313,1.3,1.861,2.7,1.722,3.414a.682.682,0,0,1-.447.544.86.86,0,0,1-.868-.164,3.909,3.909,0,0,1-1.2-3.33,1.943,1.943,0,0,1,.636-.761Zm4.527,6.273c1.135-1.338,1.372-3.709-.643-6.064-1.739-1.844-3.125-1.815-3.985-1.471a2.79,2.79,0,0,0-1.694,1.958,4.976,4.976,0,0,0,1.681,4.337,2,2,0,0,0,2,.3,1.855,1.855,0,0,0,1.14-1.4c.225-1.16-.454-2.756-1.744-4.151a4.181,4.181,0,0,1,1.739,1.2c1.569,1.836,1.441,3.607.586,4.572s-2.632,1.3-4.693-.082a.573.573,0,0,0-.807.158.581.581,0,0,0,.159.807c2.643,1.775,5.023,1.224,6.21-.109l.052-.059Z" fill="#fff" fill-rule="evenodd"/>
    </g>
    <g id="Grupo_148465" data-name="Grupo 148465" transform="translate(-14375.364 -13812.154)">
      <path id="Trazado_205917" data-name="Trazado 205917" d="M2707.77,1637.011a.4.4,0,0,1-.44,0,15.9,15.9,0,0,1-7.621-11.249,16.741,16.741,0,0,1,2.215-11.31.418.418,0,0,1,.671-.048.68.68,0,0,1,.04.821,15.271,15.271,0,0,0-1.992,10.325,14.844,14.844,0,0,0,7.124,10.428.651.651,0,0,1,.2.784.536.536,0,0,1-.2.247Z" fill="#fff" fill-rule="evenodd"/>
    </g>
    <g id="Grupo_148466" data-name="Grupo 148466" transform="translate(-14375.364 -13812.154)">
      <path id="Trazado_205918" data-name="Trazado 205918" d="M2712,1638.63a.566.566,0,0,1-.4-.161,14.208,14.208,0,0,0-1.669-1.247c-2.684-1.835-7.176-4.907-8.005-11.585-.693-4.8,1.109-11.732,5.814-15.12,2.463-1.774,6.648-3.224,12.6-.063,3.371,1.756,6.084,6.025,6.746,10.621.535,3.712-.342,6.9-2.467,8.963a.57.57,0,0,1-.811-.017.588.588,0,0,1,.017-.822c1.851-1.8,2.606-4.626,2.127-7.956-.61-4.241-3.078-8.162-6.14-9.756-4.308-2.288-8.254-2.3-11.412-.022-4.333,3.121-5.987,9.55-5.343,14.015.767,6.166,4.825,8.942,7.511,10.778a14.72,14.72,0,0,1,1.821,1.37.589.589,0,0,1,.018.822.565.565,0,0,1-.414.18Z" fill="#fff" fill-rule="evenodd"/>
    </g>
    <g id="Grupo_148467" data-name="Grupo 148467" transform="translate(-14375.364 -13812.154)">
      <path id="Trazado_205919" data-name="Trazado 205919" d="M2718.868,1637.871a14.273,14.273,0,0,1-5.388-1.106,15.038,15.038,0,0,1-8.346-8.134,14.318,14.318,0,0,1,.438-11.367c2.76-6.177,8.058-8.366,15.324-6.331a.581.581,0,0,1-.313,1.12c-6.73-1.885-11.421.028-13.948,5.684a13.176,13.176,0,0,0-.423,10.458,13.868,13.868,0,0,0,7.705,7.492c6.431,2.6,10.79-.536,11.225-1.1a.582.582,0,0,1,.922.712,10.3,10.3,0,0,1-7.2,2.573Z" fill="#fff" fill-rule="evenodd"/>
    </g>
    <g id="Grupo_148468" data-name="Grupo 148468" transform="translate(-14375.364 -13812.154)">
      <path id="Trazado_205920" data-name="Trazado 205920" d="M2717.429,1634.255a.613.613,0,0,1-.178-.027c-6.107-1.966-8-5.744-8.512-8.567-.731-4.029.968-8.206,2.508-9.426a.581.581,0,0,1,.723.91c-1.067.846-2.77,4.544-2.087,8.308.654,3.6,3.324,6.252,7.724,7.667a.582.582,0,0,1-.178,1.135Z" fill="#fff" fill-rule="evenodd"/>
    </g>
    <g id="Grupo_148469" data-name="Grupo 148469" transform="translate(-14375.364 -13812.154)">
      <path id="Trazado_205921" data-name="Trazado 205921" d="M2700.3,1599.89a.616.616,0,0,1-.616-.617v-7.638a.616.616,0,0,1,.616-.616h7.639a.616.616,0,0,1,0,1.233h-7.023v7.021A.616.616,0,0,1,2700.3,1599.89Z" fill="#d6dde2"/>
    </g>
    <g id="Grupo_148470" data-name="Grupo 148470" transform="translate(-14375.364 -13812.154)">
      <path id="Trazado_205922" data-name="Trazado 205922" d="M2731.282,1599.89a.616.616,0,0,1-.616-.617v-7.021h-7.023a.616.616,0,0,1,0-1.233h7.639a.616.616,0,0,1,.616.616v7.638A.616.616,0,0,1,2731.282,1599.89Z" fill="#d6dde2"/>
    </g>
    <g id="Grupo_148471" data-name="Grupo 148471" transform="translate(-14375.364 -13812.154)">
      <path id="Trazado_205923" data-name="Trazado 205923" d="M2707.939,1642.505H2700.3a.616.616,0,0,1-.616-.616v-7.639a.616.616,0,0,1,1.232,0v7.023h7.023a.616.616,0,0,1,0,1.232Z" fill="#d6dde2"/>
    </g>
    <g id="Grupo_148472" data-name="Grupo 148472" transform="translate(-14375.364 -13812.154)">
      <path id="Trazado_205924" data-name="Trazado 205924" d="M2731.749,1642.505h-7.639a.616.616,0,1,1,0-1.232h7.023v-7.023a.616.616,0,0,1,1.232,0v7.639A.616.616,0,0,1,2731.749,1642.505Z" fill="#d6dde2"/>
    </g>
    <g id="Grupo_148473" data-name="Grupo 148473" transform="translate(-14375.364 -13812.154)">
      <path id="Trazado_205925" data-name="Trazado 205925" d="M2724.971,1646.32h-16.422a2.161,2.161,0,0,1-2.159-2.161v-16.427a2.16,2.16,0,0,1,2.159-2.16h16.422a2.16,2.16,0,0,1,2.159,2.16v16.427a2.16,2.16,0,0,1-2.159,2.161Z" fill="#eaa785" fill-rule="evenodd"/>
    </g>
    <g id="Grupo_148474" data-name="Grupo 148474" transform="translate(-14375.364 -13812.154)">
      <path id="Trazado_205926" data-name="Trazado 205926" d="M2724.971,1646.32h-13.706l9.422-20.748h4.284a2.16,2.16,0,0,1,2.159,2.16v16.427a2.16,2.16,0,0,1-2.159,2.161Z" fill="#bc755a" fill-rule="evenodd"/>
    </g>
    <g id="Grupo_148475" data-name="Grupo 148475" transform="translate(-14375.364 -13812.154)">
      <path id="Trazado_205927" data-name="Trazado 205927" d="M2708.549,1626.372a1.361,1.361,0,0,0-1.359,1.36v16.427a1.361,1.361,0,0,0,1.359,1.36h16.422a1.361,1.361,0,0,0,1.359-1.36v-16.427a1.361,1.361,0,0,0-1.359-1.36Zm16.422,20.748h-16.422a2.963,2.963,0,0,1-2.959-2.961v-16.427a2.963,2.963,0,0,1,2.959-2.961h16.422a2.963,2.963,0,0,1,2.959,2.961v16.427a2.963,2.963,0,0,1-2.959,2.961Z" fill="#fff" fill-rule="evenodd"/>
    </g>
    <g id="Grupo_148476" data-name="Grupo 148476" transform="translate(-14375.364 -13812.154)">
      <path id="Trazado_205928" data-name="Trazado 205928" d="M2716.257,1641.223h-.016a.8.8,0,0,1-.666-.382l-4.08-6.662a.8.8,0,1,1,1.365-.836l3.428,5.6,5.8-8.649a.8.8,0,1,1,1.329.891l-6.5,9.686a.8.8,0,0,1-.664.355Z" fill="#fff" fill-rule="evenodd"/>
    </g>
  </g>
</svg>
