<svg xmlns="http://www.w3.org/2000/svg" width="400" height="338.002" viewBox="0 0 400 338.002">
  <g id="Grupo_148522" data-name="Grupo 148522" transform="translate(-285 -1724)">
    <ellipse id="Elipse_4931" data-name="Elipse 4931" cx="200" cy="11.676" rx="200" ry="11.676" transform="translate(285 2038.651)" fill="#e1e7f2"/>
    <g id="Grupo_138559" data-name="Grupo 138559" transform="translate(290.307 1724)">
      <rect id="Rectángulo_41424" data-name="Rectángulo 41424" width="361.794" height="231.147" transform="translate(6.778 7.109)" fill="#fff"/>
      <g id="Grupo_138513" data-name="Grupo 138513" transform="translate(154.479 243.791)">
        <g id="Grupo_138512" data-name="Grupo 138512">
          <g id="Grupo_138511" data-name="Grupo 138511">
            <rect id="Rectángulo_41425" data-name="Rectángulo 41425" width="62.217" height="71.935" fill="#0f2771"/>
          </g>
        </g>
      </g>
      <g id="Grupo_138516" data-name="Grupo 138516" transform="translate(154.479 243.79)">
        <g id="Grupo_138515" data-name="Grupo 138515">
          <g id="Grupo_138514" data-name="Grupo 138514">
            <path id="Trazado_192597" data-name="Trazado 192597" d="M664.446,702.452v71.935h-8.4c.6-7.192,1.264-28.84-10.108-45.435-10.537-15.349-33.171-17.115-43.708-16.985v-9.515Z" transform="translate(-602.229 -702.452)" fill="#0f2771"/>
          </g>
        </g>
      </g>
      <g id="Grupo_138519" data-name="Grupo 138519" transform="translate(104.487 304.775)">
        <g id="Grupo_138518" data-name="Grupo 138518">
          <g id="Grupo_138517" data-name="Grupo 138517">
            <path id="Trazado_192598" data-name="Trazado 192598" d="M641.277,829.93h-124.9a18.652,18.652,0,0,0-18.652,18.653h162.2A18.653,18.653,0,0,0,641.277,829.93Z" transform="translate(-497.729 -829.93)" fill="#4d4d4d"/>
          </g>
        </g>
      </g>
      <g id="Grupo_138522" data-name="Grupo 138522" transform="translate(104.487 304.775)">
        <g id="Grupo_138521" data-name="Grupo 138521">
          <g id="Grupo_138520" data-name="Grupo 138520">
            <path id="Trazado_192599" data-name="Trazado 192599" d="M641.277,829.93h-124.9a18.652,18.652,0,0,0-18.652,18.653h162.2A18.653,18.653,0,0,0,641.277,829.93Z" transform="translate(-497.729 -829.93)" fill="#0f2771"/>
          </g>
        </g>
      </g>
      <g id="Grupo_138551" data-name="Grupo 138551" transform="translate(0)">
        <g id="Grupo_138525" data-name="Grupo 138525">
          <g id="Grupo_138524" data-name="Grupo 138524">
            <g id="Grupo_138523" data-name="Grupo 138523">
              <path id="Trazado_192600" data-name="Trazado 192600" d="M645.121,192.851H284.687a5.371,5.371,0,0,0-5.369,5.369V434.933a5.37,5.37,0,0,0,5.369,5.369H645.121a5.368,5.368,0,0,0,5.369-5.369V198.22A5.368,5.368,0,0,0,645.121,192.851Zm-3.581,221.5a5.715,5.715,0,0,1-5.707,5.724H291.807a5.719,5.719,0,0,1-5.711-5.724V206.021a5.719,5.719,0,0,1,5.711-5.724H635.834a5.715,5.715,0,0,1,5.707,5.724Z" transform="translate(-279.318 -192.851)" fill="#0f2771"/>
            </g>
          </g>
        </g>
        <g id="Grupo_138550" data-name="Grupo 138550" transform="translate(156.655 232.245)">
          <g id="Grupo_138528" data-name="Grupo 138528" transform="translate(38.723 1.13)">
            <g id="Grupo_138527" data-name="Grupo 138527">
              <g id="Grupo_138526" data-name="Grupo 138526">
                <path id="Trazado_192601" data-name="Trazado 192601" d="M704.366,684.889H689.824a2.1,2.1,0,0,1-2.1-2.1h0a2.1,2.1,0,0,1,2.1-2.1h14.543a2.1,2.1,0,0,1,2.1,2.1h0A2.1,2.1,0,0,1,704.366,684.889Z" transform="translate(-687.72 -680.681)" fill="#fff"/>
              </g>
            </g>
          </g>
          <g id="Grupo_138531" data-name="Grupo 138531" transform="translate(39.008 1.416)">
            <g id="Grupo_138530" data-name="Grupo 138530">
              <g id="Grupo_138529" data-name="Grupo 138529">
                <path id="Trazado_192602" data-name="Trazado 192602" d="M705.674,681.277a2.053,2.053,0,0,1,.284,1,2.1,2.1,0,0,1-2.1,2.1H689.313a2.039,2.039,0,0,1-1-.286,2.077,2.077,0,0,0,1.818,1.108h14.543a2.1,2.1,0,0,0,2.1-2.1A2.08,2.08,0,0,0,705.674,681.277Z" transform="translate(-688.316 -681.277)" fill="#dfe2ed"/>
              </g>
            </g>
          </g>
          <g id="Grupo_138534" data-name="Grupo 138534" transform="translate(24.168 1.13)">
            <g id="Grupo_138533" data-name="Grupo 138533">
              <g id="Grupo_138532" data-name="Grupo 138532">
                <path id="Trazado_192603" data-name="Trazado 192603" d="M667.766,684.889H659.4a2.1,2.1,0,0,1-2.1-2.1h0a2.1,2.1,0,0,1,2.1-2.1h8.366a2.1,2.1,0,0,1,2.1,2.1h0A2.1,2.1,0,0,1,667.766,684.889Z" transform="translate(-657.296 -680.681)" fill="#fff"/>
              </g>
            </g>
          </g>
          <g id="Grupo_138537" data-name="Grupo 138537" transform="translate(24.658 1.249)">
            <g id="Grupo_138536" data-name="Grupo 138536">
              <g id="Grupo_138535" data-name="Grupo 138535">
                <path id="Trazado_192604" data-name="Trazado 192604" d="M668.886,680.928a2.067,2.067,0,0,1,.49,1.3,2.1,2.1,0,0,1-2.1,2.1h-8.367a2.013,2.013,0,0,1-.585-.119,2.068,2.068,0,0,0,1.614.8H668.3a2.1,2.1,0,0,0,2.1-2.1A2.077,2.077,0,0,0,668.886,680.928Z" transform="translate(-658.32 -680.928)" fill="#dfe2ed"/>
              </g>
            </g>
          </g>
          <g id="Grupo_138540" data-name="Grupo 138540" transform="translate(9.035 1.241)">
            <g id="Grupo_138539" data-name="Grupo 138539">
              <g id="Grupo_138538" data-name="Grupo 138538">
                <path id="Trazado_192605" data-name="Trazado 192605" d="M636.134,685.12h-8.366a2.1,2.1,0,0,1-2.1-2.1h0a2.1,2.1,0,0,1,2.1-2.1h8.366a2.1,2.1,0,0,1,2.1,2.1h0A2.1,2.1,0,0,1,636.134,685.12Z" transform="translate(-625.664 -680.912)" fill="#fff"/>
              </g>
            </g>
          </g>
          <g id="Grupo_138543" data-name="Grupo 138543" transform="translate(9.466 1.241)">
            <g id="Grupo_138542" data-name="Grupo 138542">
              <g id="Grupo_138541" data-name="Grupo 138541">
                <path id="Trazado_192606" data-name="Trazado 192606" d="M636.6,680.912h-.315a2.053,2.053,0,0,1,.431,1.214,2.1,2.1,0,0,1-2.1,2.1h-8.051a2.068,2.068,0,0,0,1.674.891H636.6a2.1,2.1,0,0,0,0-4.208Z" transform="translate(-626.564 -680.912)" fill="#dfe2ed"/>
              </g>
            </g>
          </g>
          <g id="Grupo_138546" data-name="Grupo 138546">
            <g id="Grupo_138545" data-name="Grupo 138545">
              <g id="Grupo_138544" data-name="Grupo 138544">
                <path id="Trazado_192607" data-name="Trazado 192607" d="M606.777,681.552a3.235,3.235,0,1,1,3.235,3.235A3.235,3.235,0,0,1,606.777,681.552Z" transform="translate(-606.777 -678.318)" fill="#fff"/>
              </g>
            </g>
          </g>
          <g id="Grupo_138549" data-name="Grupo 138549" transform="translate(0.518 0.517)">
            <g id="Grupo_138548" data-name="Grupo 138548">
              <g id="Grupo_138547" data-name="Grupo 138547">
                <path id="Trazado_192608" data-name="Trazado 192608" d="M612.322,679.4a3.226,3.226,0,0,1-4.462,4.462,3.23,3.23,0,1,0,4.462-4.462Z" transform="translate(-607.86 -679.399)" fill="#dfe2ed"/>
              </g>
            </g>
          </g>
        </g>
      </g>
      <rect id="Rectángulo_41426" data-name="Rectángulo 41426" width="306.803" height="10.703" transform="translate(21.174 20.104)" fill="#d1d5ed"/>
      <g id="Grupo_138555" data-name="Grupo 138555" transform="translate(333.179 20.104)">
        <rect id="Rectángulo_41427" data-name="Rectángulo 41427" width="21.139" height="2.335" fill="#d1d5ed"/>
        <rect id="Rectángulo_41428" data-name="Rectángulo 41428" width="21.139" height="2.335" transform="translate(0 4.184)" fill="#d1d5ed"/>
        <rect id="Rectángulo_41429" data-name="Rectángulo 41429" width="21.139" height="2.335" transform="translate(0 8.368)" fill="#d1d5ed"/>
      </g>
      <g id="Grupo_138556" data-name="Grupo 138556" transform="translate(110.965 196.394)">
        <path id="Trazado_192610" data-name="Trazado 192610" d="M520.284,621.406a9.014,9.014,0,0,1,0-18.028H655.756a9.014,9.014,0,1,1,0,18.028Z" transform="translate(-511.27 -603.378)" fill="#326ab3"/>
        <path id="Trazado_192611" data-name="Trazado 192611" d="M521.481,621.505a7.916,7.916,0,0,1,0-15.833H656.953a7.916,7.916,0,1,1,0,15.833Z" transform="translate(-512.467 -604.575)" fill="#fff"/>
        <path id="Trazado_192612" data-name="Trazado 192612" d="M658.522,608.681H523.05a6.477,6.477,0,0,0-6.477,6.477h0a6.477,6.477,0,0,0,6.477,6.477H658.522A6.477,6.477,0,0,0,665,615.158h0A6.477,6.477,0,0,0,658.522,608.681Z" transform="translate(-514.036 -606.144)" fill="#dce9fa"/>
        <path id="Trazado_192613" data-name="Trazado 192613" d="M638.61,608.682v12.954H523.051a6.477,6.477,0,0,1,0-12.954Z" transform="translate(-514.037 -606.145)" fill="#70bdff"/>
      </g>
      <g id="Grupo_138557" data-name="Grupo 138557" transform="translate(26.339 179.072)">
        <rect id="Rectángulo_41430" data-name="Rectángulo 41430" width="10.626" height="11.72" transform="translate(67.508 36.965) rotate(180)" fill="#d1d5ed"/>
        <rect id="Rectángulo_41431" data-name="Rectángulo 41431" width="10.626" height="21.125" transform="translate(48.547 36.965) rotate(180)" fill="#d1d5ed"/>
        <rect id="Rectángulo_41432" data-name="Rectángulo 41432" width="10.626" height="29.846" transform="translate(29.587 36.965) rotate(180)" fill="#d1d5ed"/>
        <rect id="Rectángulo_41433" data-name="Rectángulo 41433" width="10.626" height="36.965" transform="translate(10.626 36.965) rotate(180)" fill="#d1d5ed"/>
      </g>
      <g id="Grupo_138558" data-name="Grupo 138558" transform="translate(77.001 40.8)">
        <path id="Trazado_192614" data-name="Trazado 192614" d="M490.658,368.668l-42.122.094a4.169,4.169,0,0,1-4.039,2.9,3.951,3.951,0,1,1-.019-7.886,4.153,4.153,0,0,1,4.052,2.88l42.122-.1c1.053,0,1.907.467,1.907,1.053S491.711,368.661,490.658,368.668Z" transform="translate(-440.276 -322.806)" fill="#d1d5ed"/>
        <path id="Trazado_192615" data-name="Trazado 192615" d="M611.847,293.279a3.926,3.926,0,0,0-3.565,2.419H572.773a4.457,4.457,0,0,0-4.258-3.553,4.688,4.688,0,0,0,0,9.356,4.462,4.462,0,0,0,4.258-3.553h35.152a3.968,3.968,0,1,0,3.921-4.669Zm-43.331,5.972a2.433,2.433,0,1,1,2.276-2.431A2.361,2.361,0,0,1,568.516,299.251Z" transform="translate(-504.881 -285.444)" fill="#d1d5ed"/>
        <path id="Trazado_192616" data-name="Trazado 192616" d="M528.613,544.146a3.926,3.926,0,0,0-3.565,2.419H489.54a4.462,4.462,0,0,0-4.258-3.553,4.688,4.688,0,0,0,0,9.357,4.457,4.457,0,0,0,4.258-3.553h35.152a3.94,3.94,0,1,0,7.867-.461A4.089,4.089,0,0,0,528.613,544.146Zm-43.331,5.972a2.433,2.433,0,1,1,2.275-2.425A2.355,2.355,0,0,1,485.282,550.119Z" transform="translate(-461.462 -416.297)" fill="#d1d5ed"/>
        <path id="Trazado_192617" data-name="Trazado 192617" d="M732.5,279.178a1.09,1.09,0,0,1,1.135-1.041l25.44.211,9.744,9.282,32.185.275a1.215,1.215,0,0,1,.156.012,4.153,4.153,0,0,1,4.07-2.856,3.951,3.951,0,1,1-.062,7.886A4.161,4.161,0,0,1,801.138,290a.61.61,0,0,1-.15.012l-33.12-.274-9.737-9.289-24.511-.206A1.089,1.089,0,0,1,732.5,279.178Z" transform="translate(-592.703 -278.137)" fill="#d1d5ed"/>
        <path id="Trazado_192618" data-name="Trazado 192618" d="M784.392,572.829a3.388,3.388,0,0,1-3.273,3.491A3.3,3.3,0,0,1,778,573.864H744.757l-8.9-9.494H687.736a.934.934,0,0,1,0-1.864h48.848l8.9,9.494h32.466a3.31,3.31,0,0,1,3.167-2.662A3.388,3.388,0,0,1,784.392,572.829Z" transform="translate(-568.894 -426.465)" fill="#d1d5ed"/>
      </g>
    </g>
    <g id="Grupo_138588" data-name="Grupo 138588" transform="translate(546.148 1778.138)">
      <g id="Grupo_138560" data-name="Grupo 138560" transform="translate(35.599 16.436)">
        <ellipse id="Elipse_4932" data-name="Elipse 4932" cx="4.48" cy="7.177" rx="4.48" ry="7.177" transform="translate(48.519)" fill="#0e3044"/>
        <ellipse id="Elipse_4933" data-name="Elipse 4933" cx="4.48" cy="7.177" rx="4.48" ry="7.177" fill="#0e3044"/>
      </g>
      <g id="Grupo_138564" data-name="Grupo 138564" transform="translate(66.704 160.868)">
        <g id="Grupo_138561" data-name="Grupo 138561" transform="translate(6.125)">
          <path id="Trazado_192619" data-name="Trazado 192619" d="M974.044,671.7c4.021.35,7.832-.95,11.821-.52-1.687-18.5.274-11.148-6.778-28.9-4.127,1.667-8.76,1.731-12.741,3.684C972.687,663.691,972.435,651.921,974.044,671.7Z" transform="translate(-966.346 -642.281)" fill="#202a5e"/>
        </g>
        <g id="Grupo_138562" data-name="Grupo 138562" transform="translate(0 28.384)">
          <path id="Trazado_192620" data-name="Trazado 192620" d="M953.543,712.271v9.1a10.24,10.24,0,0,0,3.9,8.039,17.453,17.453,0,0,1,3.155,3.233c.233.32.467.657.674.994a15.178,15.178,0,0,1,2.144,5.515q1.763,10.088,3.518,20.167h22.518v-47.05a10.658,10.658,0,0,0-10.658-10.658H964.2a1.06,1.06,0,0,0-.164.008,9.725,9.725,0,0,0-1.747.165A10.659,10.659,0,0,0,953.543,712.271Z" transform="translate(-953.543 -701.613)" fill="#bfddff"/>
          <path id="Trazado_192621" data-name="Trazado 192621" d="M973.612,752.406q-1.277-7.347-2.564-14.691l-.457-2.613a18.578,18.578,0,0,0-2.627-6.767c-.211-.344-.481-.742-.8-1.184a20.94,20.94,0,0,0-3.806-3.909,6.763,6.763,0,0,1-2.583-5.326v-9.1a7.188,7.188,0,0,1,5.9-7.083,6.29,6.29,0,0,1,1.131-.109h.279l.052-.008h14.425a7.208,7.208,0,0,1,7.2,7.2v43.592Z" transform="translate(-957.313 -701.613)" fill="#bfddff"/>
          <path id="Trazado_192622" data-name="Trazado 192622" d="M968.287,732.655c.234.32.467.657.674.994,9.362-7.884,20.444-17.2,20.452-17.219l-17.686-14.8a9.717,9.717,0,0,0-1.747.165q8.546,7.378,17.107,14.712Q977.687,724.573,968.287,732.655Z" transform="translate(-961.234 -701.622)" fill="#202a5e"/>
        </g>
        <g id="Grupo_138563" data-name="Grupo 138563" transform="translate(12.703 86.083)">
          <path id="Trazado_192623" data-name="Trazado 192623" d="M1004.781,822.23l-24.165.151.033,2.211L980.1,847.5l41.691.352a4.857,4.857,0,0,0,4.77-1.96c1.964-2.54,2.492-7.12,1.141-11.154a35.628,35.628,0,0,0-7.985-7.839A24.763,24.763,0,0,0,1004.781,822.23Z" transform="translate(-980.098 -822.223)" fill="#bfddff"/>
          <path id="Trazado_192624" data-name="Trazado 192624" d="M987.549,842.38l.48-19.923-7.413.047.034,2.21-.553,22.912,41.692.352a4.856,4.856,0,0,0,4.769-1.96,8.932,8.932,0,0,0,1.5-3.3Z" transform="translate(-980.097 -822.345)" fill="#202a5e"/>
        </g>
      </g>
      <g id="Grupo_138568" data-name="Grupo 138568" transform="translate(3.528 160.868)">
        <g id="Grupo_138565" data-name="Grupo 138565" transform="translate(35.413)">
          <path id="Trazado_192625" data-name="Trazado 192625" d="M907.331,671.7c-4.021.35-7.832-.95-11.821-.52,1.687-18.5-.274-11.148,6.778-28.9,4.127,1.667,8.76,1.731,12.741,3.684C908.688,663.691,908.941,651.921,907.331,671.7Z" transform="translate(-895.51 -642.281)" fill="#202a5e"/>
        </g>
        <g id="Grupo_138566" data-name="Grupo 138566" transform="translate(25.149 28.384)">
          <path id="Trazado_192626" data-name="Trazado 192626" d="M909.964,712.271v9.1a10.239,10.239,0,0,1-3.9,8.039,17.454,17.454,0,0,0-3.155,3.233c-.233.32-.466.657-.674.994a15.176,15.176,0,0,0-2.144,5.515q-1.763,10.088-3.518,20.167H874.056v-47.05a10.658,10.658,0,0,1,10.658-10.658h14.592a1.066,1.066,0,0,1,.164.008,9.718,9.718,0,0,1,1.746.165A10.659,10.659,0,0,1,909.964,712.271Z" transform="translate(-874.056 -701.613)" fill="#bfddff"/>
          <path id="Trazado_192627" data-name="Trazado 192627" d="M897.435,752.406q1.277-7.347,2.565-14.691l.456-2.613a18.587,18.587,0,0,1,2.627-6.767c.211-.344.481-.742.8-1.184a20.974,20.974,0,0,1,3.806-3.909,6.763,6.763,0,0,0,2.583-5.326v-9.1a7.187,7.187,0,0,0-5.9-7.083,6.283,6.283,0,0,0-1.131-.109h-.28l-.052-.008H888.484a7.208,7.208,0,0,0-7.2,7.2v43.592Z" transform="translate(-877.826 -701.613)" fill="#bfddff"/>
          <path id="Trazado_192628" data-name="Trazado 192628" d="M911.336,732.655c-.233.32-.466.657-.674.994-9.362-7.884-20.444-17.2-20.452-17.219l17.686-14.8a9.715,9.715,0,0,1,1.746.165q-8.545,7.378-17.107,14.712Q901.935,724.573,911.336,732.655Z" transform="translate(-882.482 -701.622)" fill="#202a5e"/>
        </g>
        <g id="Grupo_138567" data-name="Grupo 138567" transform="translate(0 86.083)">
          <path id="Trazado_192629" data-name="Trazado 192629" d="M845.156,822.23l24.165.151-.033,2.211.552,22.912-41.692.352a4.856,4.856,0,0,1-4.77-1.96c-1.964-2.54-2.493-7.12-1.141-11.154a35.618,35.618,0,0,1,7.985-7.839A24.763,24.763,0,0,1,845.156,822.23Z" transform="translate(-821.486 -822.223)" fill="#bfddff"/>
          <path id="Trazado_192630" data-name="Trazado 192630" d="M862.817,842.38l-.48-19.923,7.413.047-.034,2.21.552,22.912-41.691.352a4.856,4.856,0,0,1-4.77-1.96,8.935,8.935,0,0,1-1.5-3.3Z" transform="translate(-821.915 -822.345)" fill="#202a5e"/>
        </g>
      </g>
      <g id="Grupo_138570" data-name="Grupo 138570" transform="translate(31.129 131.426)">
        <rect id="Rectángulo_41434" data-name="Rectángulo 41434" width="25.77" height="10.121" transform="translate(21.77)" fill="#0e3044"/>
        <path id="Rectángulo_41435" data-name="Rectángulo 41435" d="M6.851,0H62.46a6.85,6.85,0,0,1,6.85,6.85V19.191A24.971,24.971,0,0,1,44.339,44.162H24.971A24.971,24.971,0,0,1,0,19.191V6.851A6.851,6.851,0,0,1,6.851,0Z" transform="translate(0 7.29)" fill="#bfddff"/>
        <g id="Grupo_138569" data-name="Grupo 138569" transform="translate(8.894 16.184)">
          <path id="Rectángulo_41436" data-name="Rectángulo 41436" d="M0,0H7.812A18.562,18.562,0,0,1,26.375,18.562v14.4A18.563,18.563,0,0,1,7.812,51.523H0a0,0,0,0,1,0,0V0A0,0,0,0,1,0,0Z" transform="translate(51.523 0) rotate(90)" fill="#6cc0ff"/>
        </g>
      </g>
      <g id="Grupo_138573" data-name="Grupo 138573" transform="translate(25.829 47.891)">
        <path id="Trazado_192631" data-name="Trazado 192631" d="M946.194,439.628v39.043A19.826,19.826,0,0,1,935.8,496.109c-.344.182-.687.354-1.041.515-.13.067-.266.125-.4.187-.354.156-.713.3-1.082.437a19.8,19.8,0,0,1-6.9,1.233H887.913a19.638,19.638,0,0,1-6.088-.958c-.224-.073-.447-.145-.666-.229-.073-.021-.141-.052-.213-.078-.2-.073-.4-.151-.6-.234-.213-.089-.427-.182-.635-.281l-.208-.094a19.8,19.8,0,0,1-11.4-17.937V439.628a19.811,19.811,0,0,1,19.81-19.81h38.471a19.8,19.8,0,0,1,17.115,9.83,19.582,19.582,0,0,1,2.258,5.818A19.933,19.933,0,0,1,946.194,439.628Z" transform="translate(-868.103 -413.266)" fill="#bfddff"/>
        <rect id="Rectángulo_41437" data-name="Rectángulo 41437" width="19.601" height="7.698" transform="translate(29.242)" fill="#0e3044"/>
        <path id="Rectángulo_41438" data-name="Rectángulo 41438" d="M0,0H26.628a0,0,0,0,1,0,0V.482a8.677,8.677,0,0,1-8.677,8.677H8.677A8.677,8.677,0,0,1,0,.482V0A0,0,0,0,1,0,0Z" transform="translate(25.729 6.55)" fill="#0e3044"/>
        <path id="Trazado_192632" data-name="Trazado 192632" d="M946.111,558.411a10.547,10.547,0,0,0-10.532-10.361H903.857a10.545,10.545,0,0,0-10.532,10.355l-1.145,5.183c.208.1.422.192.635.281.2.083.4.161.6.234.073.026.141.057.214.078.218.083.442.156.666.229a19.63,19.63,0,0,0,6.088.958h38.471a19.8,19.8,0,0,0,6.895-1.233c.369-.135.729-.281,1.083-.437.135-.062.27-.12.4-.187Z" transform="translate(-880.662 -480.153)" fill="#202a5e"/>
        <path id="Trazado_192633" data-name="Trazado 192633" d="M947.362,565.837a19.8,19.8,0,0,1-6.895,1.233H902a19.634,19.634,0,0,1-6.088-.958c-.224-.073-.448-.146-.666-.229q.616-2.8,1.233-5.6a8.973,8.973,0,0,1,8.976-8.971h31.721a8.972,8.972,0,0,1,8.971,8.971C946.55,562.132,946.957,563.99,947.362,565.837Z" transform="translate(-882.259 -481.855)" fill="#bfddff"/>
        <rect id="Rectángulo_41439" data-name="Rectángulo 41439" width="23.637" height="4.414" rx="2.091" transform="translate(27.225 71.811)" fill="#6cc0ff"/>
        <rect id="Rectángulo_41440" data-name="Rectángulo 41440" width="23.637" height="4.414" rx="2.091" transform="translate(27.225 78.701)" fill="#6cc0ff"/>
        <rect id="Rectángulo_41441" data-name="Rectángulo 41441" width="1.543" height="17.944" transform="translate(38.272 50.44)" fill="#202a5e"/>
        <g id="Grupo_138571" data-name="Grupo 138571" transform="translate(14.73 31.616)">
          <rect id="Rectángulo_41442" data-name="Rectángulo 41442" width="48.627" height="19.777" transform="translate(0 0)" fill="#6cc0ff"/>
          <path id="Trazado_192634" data-name="Trazado 192634" d="M900.987,489.892V472.21h-2.094v19.777H947.52v-2.094Z" transform="translate(-898.893 -472.21)" fill="#56a7d8"/>
        </g>
        <g id="Grupo_138572" data-name="Grupo 138572" transform="translate(32.785 19.097)">
          <circle id="Elipse_4934" data-name="Elipse 4934" cx="5.455" cy="5.455" r="5.455" transform="matrix(0.16, -0.987, 0.987, 0.16, 0, 10.769)" fill="#202a5e"/>
          <path id="Trazado_192635" data-name="Trazado 192635" d="M946.038,458.818a3.373,3.373,0,1,1,3.373-3.374A3.377,3.377,0,0,1,946.038,458.818Z" transform="translate(-939.78 -449.186)" fill="#6cc0ff"/>
        </g>
      </g>
      <g id="Grupo_138586" data-name="Grupo 138586" transform="translate(0 56.63)">
        <g id="Grupo_138578" data-name="Grupo 138578" transform="translate(101.225)">
          <path id="Trazado_192636" data-name="Trazado 192636" d="M1035.039,440.29v5.817h-7.077a19.581,19.581,0,0,0-2.258-5.817Z" transform="translate(-1025.704 -432.684)" fill="#202a5e"/>
          <g id="Grupo_138574" data-name="Grupo 138574" transform="translate(11.359 17.911)">
            <path id="Trazado_192637" data-name="Trazado 192637" d="M1055.075,523.588c-1.83-.315-3.689-.419-5.522-.713,3.242-25.32,3.693-34.9-.1-60.255,1.827-.353,3.685-.485,5.519-.791C1058.69,487.522,1058.4,497.9,1055.075,523.588Z" transform="translate(-1049.448 -461.829)" fill="#202a5e"/>
          </g>
          <g id="Grupo_138575" data-name="Grupo 138575" transform="translate(7.026)">
            <path id="Trazado_192638" data-name="Trazado 192638" d="M1075.929,434.725a10.211,10.211,0,0,1-8.7,10.1V424.619A10.222,10.222,0,0,1,1075.929,434.725Z" transform="translate(-1054.389 -424.509)" fill="#bfddff"/>
            <path id="Trazado_192639" data-name="Trazado 192639" d="M1053.253,424.5v20.206a11.038,11.038,0,0,1-1.515.11h-11.347V424.39h11.347A11.038,11.038,0,0,1,1053.253,424.5Z" transform="translate(-1040.391 -424.39)" fill="#bfddff"/>
            <path id="Trazado_192640" data-name="Trazado 192640" d="M1072.732,427.95c.214-.192,1.074.452,1.56.816,3.2,2.4,4.2,6.683,3.688,6.951C1077.233,436.109,1072.1,428.515,1072.732,427.95Z" transform="translate(-1057.233 -426.228)" fill="#6cc0ff"/>
          </g>
          <g id="Grupo_138576" data-name="Grupo 138576" transform="translate(11 32.155)">
            <rect id="Rectángulo_41443" data-name="Rectángulo 41443" width="11.135" height="18.661" rx="5.274" fill="#bfddff"/>
            <rect id="Rectángulo_41444" data-name="Rectángulo 41444" width="14.924" height="7.397" rx="3.504" transform="translate(9.266 1.869) rotate(90)" fill="#6cc0ff"/>
          </g>
          <g id="Grupo_138577" data-name="Grupo 138577" transform="translate(5.937 63.764)">
            <path id="Trazado_192641" data-name="Trazado 192641" d="M1049.285,557.851h0a6.607,6.607,0,0,0-7.933,4.938l-2.766,11.884a6.607,6.607,0,0,0,4.938,7.933h0a6.607,6.607,0,0,0,7.933-4.937l2.766-11.883A6.607,6.607,0,0,0,1049.285,557.851Z" transform="translate(-1038.27 -557.677)" fill="#bfddff"/>
            <path id="Trazado_192642" data-name="Trazado 192642" d="M1044.779,584.241l-1.387-.323a5.9,5.9,0,0,1-4.406-7.078l2.457-10.556c-.029.1-.062.2-.086.3l-3.089,13.27a5.9,5.9,0,0,0,4.406,7.078l1.387.322a5.9,5.9,0,0,0,7.078-4.4l.632-2.715A5.891,5.891,0,0,1,1044.779,584.241Z" transform="translate(-1038.114 -562.167)" fill="#202a5e"/>
          </g>
        </g>
        <g id="Grupo_138583" data-name="Grupo 138583">
          <path id="Trazado_192643" data-name="Trazado 192643" d="M854.309,440.29v5.817h7.077a19.577,19.577,0,0,1,2.258-5.817Z" transform="translate(-835.079 -432.684)" fill="#202a5e"/>
          <g id="Grupo_138579" data-name="Grupo 138579" transform="translate(8.99 17.911)">
            <path id="Trazado_192644" data-name="Trazado 192644" d="M835.492,523.588c1.83-.315,3.689-.419,5.523-.713-3.243-25.32-3.693-34.9.1-60.255-1.827-.353-3.685-.485-5.519-.791C831.877,487.522,832.167,497.9,835.492,523.588Z" transform="translate(-832.903 -461.829)" fill="#202a5e"/>
          </g>
          <g id="Grupo_138580" data-name="Grupo 138580">
            <path id="Trazado_192645" data-name="Trazado 192645" d="M814.111,434.725a10.21,10.21,0,0,0,8.7,10.1V424.619A10.221,10.221,0,0,0,814.111,434.725Z" transform="translate(-814.111 -424.509)" fill="#bfddff"/>
            <path id="Trazado_192646" data-name="Trazado 192646" d="M832.249,424.5v20.206a11.044,11.044,0,0,0,1.515.11h11.347V424.39H833.764A11.044,11.044,0,0,0,832.249,424.5Z" transform="translate(-823.572 -424.39)" fill="#bfddff"/>
            <path id="Trazado_192647" data-name="Trazado 192647" d="M820.875,427.95c-.214-.192-1.074.452-1.561.816-3.2,2.4-4.2,6.683-3.688,6.951C816.374,436.109,821.5,428.515,820.875,427.95Z" transform="translate(-814.836 -426.228)" fill="#6cc0ff"/>
          </g>
          <g id="Grupo_138581" data-name="Grupo 138581" transform="translate(6.43 32.155)">
            <rect id="Rectángulo_41445" data-name="Rectángulo 41445" width="11.135" height="18.661" rx="5.274" transform="translate(11.135 18.661) rotate(180)" fill="#bfddff"/>
            <rect id="Rectángulo_41446" data-name="Rectángulo 41446" width="14.924" height="7.397" rx="3.504" transform="translate(9.266 1.869) rotate(90)" fill="#6cc0ff"/>
          </g>
          <g id="Grupo_138582" data-name="Grupo 138582" transform="translate(6.503 63.764)">
            <path id="Trazado_192648" data-name="Trazado 192648" d="M832.815,557.851h0a6.607,6.607,0,0,1,7.933,4.938l2.766,11.884a6.607,6.607,0,0,1-4.937,7.933h0a6.607,6.607,0,0,1-7.933-4.937l-2.766-11.883A6.607,6.607,0,0,1,832.815,557.851Z" transform="translate(-827.703 -557.677)" fill="#bfddff"/>
            <path id="Trazado_192649" data-name="Trazado 192649" d="M839.857,584.241l1.386-.323a5.9,5.9,0,0,0,4.406-7.078l-2.457-10.556c.029.1.062.2.086.3l3.089,13.27a5.9,5.9,0,0,1-4.406,7.078l-1.387.322a5.9,5.9,0,0,1-7.078-4.4l-.632-2.715A5.891,5.891,0,0,0,839.857,584.241Z" transform="translate(-830.395 -562.167)" fill="#202a5e"/>
          </g>
        </g>
        <g id="Grupo_138584" data-name="Grupo 138584" transform="translate(10.114 66.283)">
          <path id="Trazado_192650" data-name="Trazado 192650" d="M841.5,566.066a3.122,3.122,0,1,1-3.122-3.122A3.122,3.122,0,0,1,841.5,566.066Z" transform="translate(-835.252 -562.944)" fill="#202a5e"/>
          <path id="Trazado_192651" data-name="Trazado 192651" d="M839.509,569.282a2.081,2.081,0,1,1,2.081-2.081A2.084,2.084,0,0,1,839.509,569.282Z" transform="translate(-836.386 -564.079)" fill="#6cc0ff"/>
        </g>
        <g id="Grupo_138585" data-name="Grupo 138585" transform="translate(113.468 66.283)">
          <path id="Trazado_192652" data-name="Trazado 192652" d="M1057.542,566.066a3.122,3.122,0,1,1-3.123-3.122A3.122,3.122,0,0,1,1057.542,566.066Z" transform="translate(-1051.297 -562.944)" fill="#202a5e"/>
          <circle id="Elipse_4935" data-name="Elipse 4935" cx="2.081" cy="2.081" r="2.081" transform="translate(1.041 1.041)" fill="#6cc0ff"/>
        </g>
      </g>
      <path id="Rectángulo_41447" data-name="Rectángulo 41447" d="M15.6,0H26.622A23.082,23.082,0,0,1,49.7,23.082v2.566A23.082,23.082,0,0,1,26.622,48.73H15.6A15.6,15.6,0,0,1,0,33.132V15.6A15.6,15.6,0,0,1,15.6,0Z" transform="translate(89.186 0) rotate(90)" fill="#bfddff"/>
      <path id="Trazado_192653" data-name="Trazado 192653" d="M925.825,379.4h-5.566a21.607,21.607,0,0,1-21.582-21.582v3.337a21.607,21.607,0,0,0,21.582,21.582h5.566a21.606,21.606,0,0,0,21.582-21.582v-3.337A21.607,21.607,0,0,1,925.825,379.4Z" transform="translate(-858.221 -333.038)" fill="#bfddff"/>
      <path id="Rectángulo_41448" data-name="Rectángulo 41448" d="M8.8,0H26.4a8.8,8.8,0,0,1,8.8,8.8V19.5A16.674,16.674,0,0,1,18.527,36.174H16.674A16.674,16.674,0,0,1,0,19.5V8.8A8.8,8.8,0,0,1,8.8,0Z" transform="translate(47.221 6.765)" fill="#0e3044"/>
      <g id="Grupo_138587" data-name="Grupo 138587" transform="translate(53.003 14.415)">
        <rect id="Rectángulo_41449" data-name="Rectángulo 41449" width="23.637" height="6.155" rx="2.915" fill="#6cc0ff"/>
        <circle id="Elipse_4936" data-name="Elipse 4936" cx="1.615" cy="1.615" r="1.615" transform="translate(2.939 1.462)" fill="#fff"/>
        <circle id="Elipse_4937" data-name="Elipse 4937" cx="1.615" cy="1.615" r="1.615" transform="translate(17.15 1.462)" fill="#fff"/>
      </g>
      <path id="Trazado_192654" data-name="Trazado 192654" d="M949.033,370.6c0,3.188-2.933,5.778-6.546,5.778s-6.546-2.59-6.546-5.778Z" transform="translate(-877.658 -339.705)" fill="#6cc0ff"/>
    </g>
    <g id="Grupo_138598" data-name="Grupo 138598" transform="translate(343.89 1861.371)">
      <path id="Trazado_192655" data-name="Trazado 192655" d="M578.322,526.84a6.925,6.925,0,0,0-3.855-3.411c-2.5-.882-5.1-.633-7.678-.3-.108.014-.113.185,0,.174a18.557,18.557,0,0,1,6.491.112,6.11,6.11,0,0,1,4.2,3.4,9.407,9.407,0,0,1,.543,4.71,17.18,17.18,0,0,1-1.831,4.995c-.951,1.952-2.723,3.5-4.167,5.088a.056.056,0,0,0,.078.078q1.184-1.093,2.279-2.273c.726-.781,1.37-1.633,2.094-2.412a9.547,9.547,0,0,0,2.493-5.1A8.385,8.385,0,0,0,578.322,526.84Z" transform="translate(-482.804 -502.337)" fill="#353640"/>
      <g id="Grupo_138597" data-name="Grupo 138597" transform="translate(0 141.972)">
        <g id="Grupo_138589" data-name="Grupo 138589" transform="translate(14.545)">
          <path id="Trazado_192656" data-name="Trazado 192656" d="M456.854,778.953c.385-1.812-26.614-.381-35.124,5.167-.52.338,61.723,28.048,61.723,28.048l59.615-28.006a214.731,214.731,0,0,0-28.8-7.395Z" transform="translate(-421.727 -776.767)" fill="#091942"/>
        </g>
        <g id="Grupo_138592" data-name="Grupo 138592" transform="translate(0 6.503)">
          <g id="Grupo_138590" data-name="Grupo 138590" transform="translate(5.986 0.57)">
            <path id="Trazado_192657" data-name="Trazado 192657" d="M459.581,829.5c-.159,0-.318,0-.47.006h-.29c-7.987.092-13.2-.107-13.2-.107s-.383.086-1.082.23c-6.829,1.417-43.648,8.431-40.51-5.442,2.75-12.181,24.84-10.667,33.7-9.55a.449.449,0,0,1,.088.011c2.211.282,3.573.532,3.573.532s4.4-1.89,11.332-4.581c.286-.114.579-.232.872-.343,22.851-8.868,70.909-25.678,83.35-15.575l0,.007c.137.1.271.222.4.339.008-.006.02,0,.024.018.132.125.257.254.382.384a2.851,2.851,0,0,1,.312.354,1,1,0,0,1,.117.134c.136.174.271.354.392.537a.006.006,0,0,0,.005.008q.2.3.368.616a6.26,6.26,0,0,1,.291.619,7.674,7.674,0,0,1,.469,1.457c.112.52.206,1.029.267,1.532a15.022,15.022,0,0,1,.12,2.626C539.082,825.718,485.619,829.155,459.581,829.5Z" transform="translate(-403.836 -791.551)" fill="#ffc0b8"/>
          </g>
          <path id="Trazado_192658" data-name="Trazado 192658" d="M581.9,809.68c-8.513,13.565-46.942,17.969-72.094,19.6-8.069.522-14.77.762-18.68.924a6.19,6.19,0,0,1-4.207-1.425l-.005-.005a6.3,6.3,0,0,1-1.712-2.244,26.41,26.41,0,0,1-2.338-10.616,6.216,6.216,0,0,1,4.029-5.924c1.843-.694,3.852-1.419,5.992-2.166,8.706-3.043,19.608-6.425,30.684-9.4,2.813-.757,5.632-1.482,8.429-2.172a223.839,223.839,0,0,1,28.909-5.49c6.968-.715,12.38-.538,15.115.955A17.311,17.311,0,0,1,582.1,797.9C584.275,802.446,583.993,806.345,581.9,809.68Z" transform="translate(-439.071 -790.36)" fill="#636363"/>
          <g id="Grupo_138591" data-name="Grupo 138591" transform="translate(0 22.384)">
            <path id="Trazado_192659" data-name="Trazado 192659" d="M439.026,853.267c-.48.135-4.243,1.179-9.468,2.291-14.311,3.038-39.583,6.54-38.179-7.062a9.558,9.558,0,0,1,3.81-6.785c9.99-7.824,36.075-3.34,39.322-2.745-2.051-.334-12.876-1.671-13.674,7.735C419.955,857.114,437.941,853.492,439.026,853.267Z" transform="translate(-391.324 -837.151)" fill="#353640"/>
          </g>
          <path id="Trazado_192660" data-name="Trazado 192660" d="M429.559,860.532c-14.311,3.038-39.583,6.54-38.179-7.062a9.558,9.558,0,0,1,3.81-6.785s-2.881,8.215.438,10.564,7.093-.1,10.616,2.552S429.559,860.532,429.559,860.532Z" transform="translate(-391.324 -819.739)" fill="#24252b"/>
        </g>
        <g id="Grupo_138596" data-name="Grupo 138596" transform="translate(6.433 4.443)">
          <g id="Grupo_138593" data-name="Grupo 138593" transform="translate(1.382 1.484)">
            <path id="Trazado_192661" data-name="Trazado 192661" d="M546.427,821.389c3.3,14.1-34.246,7.267-41.214,5.881-.713-.141-1.1-.224-1.1-.224s-5.442.254-13.741.22h-.485c-12.05-.062-29.874-.721-45.845-3.571-19.594-3.49-36.41-10.26-36.38-23.239a.336.336,0,0,0,0-.07,15.117,15.117,0,0,1,.1-1.613.052.052,0,0,0,0-.028c.068-.564.162-1.133.282-1.715a7.881,7.881,0,0,1,.465-1.487,6.487,6.487,0,0,1,.291-.633q.173-.323.37-.63s.007,0,.005-.008c.121-.188.257-.373.395-.551a1,1,0,0,1,.117-.138,2.956,2.956,0,0,1,.315-.364c.126-.133.252-.266.387-.393,0-.015.015-.025.023-.019a13.2,13.2,0,0,1,6.243-2.948c17.913-3.985,58.571,9.955,79.18,17.757.3.112.6.229.891.342,7.086,2.683,11.58,4.571,11.58,4.571s1.385-.266,3.635-.572c.026-.006.055,0,.089-.012C521.039,810.733,543.518,809.007,546.427,821.389Z" transform="translate(-407.658 -789.157)" fill="#ffc0b8"/>
          </g>
          <g id="Grupo_138594" data-name="Grupo 138594">
            <path id="Trazado_192662" data-name="Trazado 192662" d="M504.12,822.221c-.078.2-.156.407-.245.61-1.362,3.2-3.784,5.59-7.808,5.632-12.871-.287-36.368-1.482-49.3-3.878-21.185-4.15-45.836-13.664-41.493-27.411a15.432,15.432,0,0,1,2.391-4.51c3.836-5.177,10.684-6.9,19.186-6.571,16.681.642,39.708,9.186,58.763,15.011,5.23,1.6,10.162,2.99,14.578,3.956a7.425,7.425,0,0,1,5.131,6.727A25.623,25.623,0,0,1,504.12,822.221Z" transform="translate(-404.77 -786.054)" fill="#636363"/>
          </g>
          <g id="Grupo_138595" data-name="Grupo 138595" transform="translate(97.847 22.72)">
            <path id="Trazado_192663" data-name="Trazado 192663" d="M652.491,844.983c-.13,15.282-26.947,9.734-38.252,6.717-3.022-.809-4.937-1.435-4.937-1.435s17.85,3.549,17.495-7.422c-.245-7.61-13.3-7.1-13.3-7.1,2.015-.851,17.375-3.654,28.205-1.242l0,.005C647.856,835.875,652.543,838.929,652.491,844.983Z" transform="translate(-609.301 -833.546)" fill="#353640"/>
          </g>
          <path id="Trazado_192664" data-name="Trazado 192664" d="M657.874,846.032c-.131,15.282-26.947,9.734-38.252,6.717,7,.428,18.578,3.36,22.39-.182,4.037-3.75,12.525-1.962,13.751-7.14,1.211-5.1-8.427-9.7-8.678-9.87C653.239,836.924,657.926,839.978,657.874,846.032Z" transform="translate(-516.838 -811.875)" fill="#24252b"/>
        </g>
      </g>
      <path id="Trazado_192665" data-name="Trazado 192665" d="M499.391,487.443c-4.37-5.633-12.234-9.3-18.765-6.456-1.835.8-3.464,2.064-5.382,2.64a25.631,25.631,0,0,1-4.352.638,21.786,21.786,0,0,0-19.073,23.149,5.429,5.429,0,0,1-.084,2.033,4.7,4.7,0,0,1-1.126,1.664c-5.083,5.545-11.24,11.121-11.961,18.611-.273,2.843.286,5.787-.546,8.52-1.681,5.545-8.084,7.9-12.2,11.979a17.524,17.524,0,0,0-4.678,15.944c.378,1.694,1.131,3.468,2.658,4.291,1.765.951,3.912.334,5.875-.04a17.116,17.116,0,0,1,2.284-.29,11.565,11.565,0,0,1,3.719.348,8.074,8.074,0,0,1,2.1.893c3.221,1.967,4.7,6.122,7.614,8.331a7.007,7.007,0,0,0,1.593.933,7.426,7.426,0,0,0,5.3.053c.127-.039.255-.083.378-.132a15.466,15.466,0,0,0,4.053-2.336c.22-.167.44-.344.656-.524.528-.445,1.034-.907,1.509-1.377a51,51,0,0,0,7.332-9.149c1.619-2.575,3.067-5.365,5.457-7.253,3.349-2.645,7.9-3.028,12.168-3.3a40.6,40.6,0,0,0,11.13-20.244c.009-.048.018-.092.031-.141v0a39.418,39.418,0,0,0,.44-13.132,60.708,60.708,0,0,1,5.038-13.462c1.989-3.838,3.261-4.7,3.5-7.306A21.524,21.524,0,0,0,499.391,487.443Zm-52.15,29.516c6.39-7.517,6.452-7.305,7.042-8.375,2.671-4.862-.145-6.39,2.306-11.534,2.478-5.2,7.332-7.79,9.347-8.863,3.895-2.077,7.565-2.658,7.649-2.429.114.321-6.821,1.5-12.019,7.164a19.016,19.016,0,0,0-4.493,7.649c-1.232,4.251.044,6.156-1.822,9.589-.308.572-.634,1.056-4.489,4.859-3.811,3.753-6.843,6.742-7.041,6.553C443.558,521.421,445.27,519.278,447.242,516.959ZM425.387,555.11a14.319,14.319,0,0,0-2.064,8.075,14.737,14.737,0,0,0,1.641,5.431,11.842,11.842,0,0,1-2.368-6.645c-.2-4.3,2.1-7.406,3.367-9.105,3.441-4.634,8.1-6.43,8.194-6.284C434.268,546.744,428.705,549.147,425.387,555.11Z" transform="translate(-406.714 -480)" fill="#353640"/>
      <path id="Trazado_192666" data-name="Trazado 192666" d="M538.031,627.393c-7.995,11.228-.844,41.96-.844,41.96H483.513c1.483-2.1,5.662-28.591-3.751-43.194-15.19-23.555,1.176-41.871,1.176-41.871l22.322-4.058,1.425-7.107.978-4.895.23-1.137h10.04l.364,2.134.786,4.652,1.163,6.863,20.52,4.454S556.339,601.671,538.031,627.393Z" transform="translate(-434.084 -525.428)" fill="#ffc0b8"/>
      <path id="Trazado_192667" data-name="Trazado 192667" d="M538.023,641.718c-8,11.226-.836,41.953-.836,41.953H483.51c1.262-1.79,4.475-21.278-.411-36.025a31.572,31.572,0,0,0-3.346-7.175c-15.188-23.552,1.174-41.865,1.174-41.865l22.334-4.065c-1.644,11.329,14.5,13.779,14.982.514l20.515,4.461S556.337,615.98,538.023,641.718Z" transform="translate(-434.08 -539.745)" fill="#feca2e"/>
      <path id="Trazado_192668" data-name="Trazado 192668" d="M494.2,741.329c1.262-1.79,4.475-21.278-.411-36.025,10.584-3.076,8.8,26.3,26.428,36.025Z" transform="translate(-444.77 -597.403)" fill="#c4626e"/>
      <path id="Trazado_192669" data-name="Trazado 192669" d="M616.083,670.516c-.558,3.477-3.008,7.249-6.633,10.976-9.273,9.523-28.161,9.1-41.119,12.561l-1.352-6.9s23.131-6.523,28.1-14.638a7.789,7.789,0,0,0,1.042-2.392c1.687-8.085-7.674-18.2-7.674-18.2l-1-46.943S618.9,652.834,616.083,670.516Z" transform="translate(-482.946 -545.191)" fill="#ffc0b8"/>
      <path id="Trazado_192670" data-name="Trazado 192670" d="M633.268,670.194a23.527,23.527,0,0,1-5.828,10.966,1.052,1.052,0,0,1-1.342.166l-3.975-2.582L611.7,671.99a7.536,7.536,0,0,0,.946-2.454c1.687-8.084-13.311-20.59-13.311-20.59l3.6-44.574c4.831-.218,12.768,10.806,19.357,24.322,0,0,.007.019.02.051C629.447,643.366,634.981,660.883,633.268,670.194Z" transform="translate(-499.824 -544.871)" fill="#feca2e"/>
      <path id="Trazado_192671" data-name="Trazado 192671" d="M480.327,686.292l.235,4.591a.435.435,0,0,0-.049-.835c-11.548-2.386-30.526.915-39.766-6.932-5.694-4.842-8.8-10.8-9.537-15.4-2.817-17.682,27.854-64.6,27.854-64.6L457.93,650s-9.361,10.111-7.674,18.2a13.106,13.106,0,0,0,3.1,5.151C460.278,681.472,480.327,686.292,480.327,686.292Z" transform="translate(-412.033 -544.217)" fill="#ffc0b8"/>
      <path id="Trazado_192672" data-name="Trazado 192672" d="M448.779,667.936c.294,1.438,2.256,2.7,3.911,4.633l-9.682,8.052-3.892,3.234a33.289,33.289,0,0,1-10.289-15.522c-1.937-6.9.818-18.68,5.464-30.381.019-.064.032-.1.032-.1,7.01-17.657,18.29-35.091,24.182-35.231l3.4,47.571S447.092,659.852,448.779,667.936Z" transform="translate(-410.559 -543.962)" fill="#feca2e"/>
      <rect id="Rectángulo_41450" data-name="Rectángulo 41450" width="76.092" height="52.645" rx="8.977" transform="translate(37.702 98.214)" fill="#fff"/>
      <circle id="Elipse_4938" data-name="Elipse 4938" cx="6.722" cy="6.722" r="6.722" transform="translate(69.026 117.814)" fill="#d7e0fa"/>
      <path id="Trazado_192673" data-name="Trazado 192673" d="M551.3,575.118c-1.349.748-2.893,2.066-5.136,2.123-3.228.077-7.262-2.878-7.262-2.878l.978-4.9h3.5l6.052.358,1.08.639Z" transform="translate(-468.301 -526.667)" fill="#ccc" style="mix-blend-mode: multiply;isolation: isolate"/>
      <path id="Trazado_192674" data-name="Trazado 192674" d="M546.225,689.594V733.65a4.3,4.3,0,0,1-4.294,4.295h-67.5a4.3,4.3,0,0,1-4.295-4.295c68.271,3.134,76.092-6.878,71.8-48.351A4.3,4.3,0,0,1,546.225,689.594Z" transform="translate(-432.431 -587.085)" fill="#d7e0fa"/>
      <path id="Trazado_192675" data-name="Trazado 192675" d="M443.008,719.138l-3.892,3.234a33.289,33.289,0,0,1-10.289-15.522c-1.937-6.9.818-18.68,5.464-30.381-.466,1.374-6.477,18.256-2.214,28.583C435.854,714.21,441.621,717.81,443.008,719.138Z" transform="translate(-410.559 -582.479)" fill="#ccc" style="mix-blend-mode: multiply;isolation: isolate"/>
      <path id="Trazado_192676" data-name="Trazado 192676" d="M658.115,696.772a23.529,23.529,0,0,1-5.828,10.966,1.052,1.052,0,0,1-1.342.166l-3.975-2.582c2.09-3.623,5.172-6.5,6.62-12.107,3.875-15.014-5.9-36.595-6.427-37.892C654.294,669.945,659.828,687.461,658.115,696.772Z" transform="translate(-524.67 -571.449)" fill="#ccc" style="mix-blend-mode: multiply;isolation: isolate"/>
      <path id="Trazado_192677" data-name="Trazado 192677" d="M544.115,531.008c-1.76,8.709-6.747,12.453-11.668,12.172-6.6-.37-12.911-12.878-12.911-12.878s-5.985-2.977-4.741-5.6c1.592-3.373,2.758-1.944,6.848-1.921,6.21.045,11.2-11.286,11.242-14.032,2.578,6.2,6.287,10.445,11.768,11.612A40.484,40.484,0,0,1,544.115,531.008Z" transform="translate(-455.639 -494.996)" fill="#ffc0b8"/>
    </g>
  </g>
</svg>
