<svg xmlns="http://www.w3.org/2000/svg" width="349.065" height="307.667" viewBox="0 0 349.065 307.667">
  <g id="Grupo_148542" data-name="Grupo 148542" transform="translate(-930.602 -7963.168)">
    <g id="telephone" transform="translate(930.602 7970.542)">
      <g id="Grupo_141277" data-name="Grupo 141277" transform="translate(29.574 8.52)">
        <rect id="background" width="82.627" height="159.329" rx="1.77" transform="translate(82.627 159.329) rotate(-180)" fill="#fff"/>
        <g id="Grupo_141271" data-name="Grupo 141271" transform="translate(3.823 110.424)">
          <rect id="Rectángulo_42218" data-name="Rectángulo 42218" width="74.573" height="58.621" rx="1.825" transform="translate(74.573 58.621) rotate(-180)" fill="#feca2e"/>
          <g id="Grupo_141258" data-name="Grupo 141258" transform="translate(41.39 8.682)">
            <path id="Trazado_197457" data-name="Trazado 197457" d="M7148.845,2553.73a.916.916,0,0,0,.574-.2c.014,0,1.272-.7,7.131-1.258,6.447-.605,19.243,0,19.373.005a.936.936,0,0,0,.958-.872.916.916,0,0,0-.869-.959c-.529-.024-13.055-.617-19.633,0-6.37.6-7.817,1.416-8.109,1.653a.917.917,0,0,0,.575,1.629Z" transform="translate(-7147.929 -2550.165)" fill="#fff"/>
          </g>
          <g id="Grupo_141259" data-name="Grupo 141259" transform="translate(42.192 9.248)">
            <path id="Trazado_197458" data-name="Trazado 197458" d="M7150.5,2557.256c4.57,0,8.92-3.118,8.92-3.118a2.613,2.613,0,0,0,.493-2.736l-10.582,1.528Z" transform="translate(-7148.11 -2550.185)" fill="#fff"/>
            <path id="Trazado_197459" data-name="Trazado 197459" d="M7149.7,2557.948l-1.169-4.325a1.225,1.225,0,0,1,1.006-1.529l10.582-1.528a1.253,1.253,0,0,1,1.289.712,3.8,3.8,0,0,1-.714,4.064,1.149,1.149,0,0,1-.186.162c-.188.137-4.722,3.345-9.629,3.345A1.22,1.22,0,0,1,7149.7,2557.948Zm9.5-4.783-7.956,1.15.554,2.049a17.361,17.361,0,0,0,7.177-2.769A1.275,1.275,0,0,0,7159.2,2553.164Z" transform="translate(-7148.484 -2550.558)" fill="#fff"/>
          </g>
          <g id="Grupo_141260" data-name="Grupo 141260" transform="translate(19.065 9.248)">
            <path id="Trazado_197460" data-name="Trazado 197460" d="M7142.9,2557.256c-4.571,0-8.92-3.118-8.92-3.118a2.613,2.613,0,0,1-.493-2.736l10.582,1.528Z" transform="translate(-7132.073 -2550.184)" fill="#fff"/>
            <path id="Trazado_197461" data-name="Trazado 197461" d="M7133.462,2555.344a3.8,3.8,0,0,1-.716-4.067,1.245,1.245,0,0,1,1.288-.712l10.584,1.528a1.227,1.227,0,0,1,1.006,1.526l-1.169,4.325a1.221,1.221,0,0,1-1.18.9C7138.368,2558.849,7133.836,2555.64,7133.462,2555.344Zm1.486-2.18a1.3,1.3,0,0,0,.228.43,17.355,17.355,0,0,0,7.178,2.769l.552-2.049Z" transform="translate(-7132.448 -2550.558)" fill="#fff"/>
          </g>
          <g id="Grupo_141261" data-name="Grupo 141261" transform="translate(44.624 17.271)">
            <path id="Trazado_197462" data-name="Trazado 197462" d="M7157.375,2564.116a12.215,12.215,0,0,0,4.394-.623c3.145-1.318,6.783-5.685,6.937-5.87a.916.916,0,1,0-1.41-1.168c-.035.043-3.506,4.207-6.234,5.35-2.235.942-7.848.274-9.82-.059a.929.929,0,0,0-1.056.751.915.915,0,0,0,.75,1.055A43.82,43.82,0,0,0,7157.375,2564.116Z" transform="translate(-7150.171 -2556.122)" fill="#fff"/>
          </g>
          <g id="Grupo_141262" data-name="Grupo 141262" transform="translate(45.535 27.04)">
            <path id="Trazado_197463" data-name="Trazado 197463" d="M7160.588,2570.15c2.268,0,4.291-.2,5.164-.808a46.1,46.1,0,0,0,5.338-4.906.916.916,0,0,0-1.336-1.253,45.067,45.067,0,0,1-5.051,4.656c-1.12.788-7.424.537-12.867-.157a.916.916,0,1,0-.232,1.817A80.269,80.269,0,0,0,7160.588,2570.15Z" transform="translate(-7150.803 -2562.895)" fill="#fff"/>
          </g>
          <g id="Grupo_141263" data-name="Grupo 141263" transform="translate(46.456 37.638)">
            <path id="Trazado_197464" data-name="Trazado 197464" d="M7163.542,2577.107a6.252,6.252,0,0,0,2.14-.31c3.538-1.328,6.238-4.938,6.352-5.093a.915.915,0,0,0-1.471-1.089c-.024.033-2.5,3.333-5.524,4.466-2.448.923-9.753-1.412-12.358-2.386a.914.914,0,1,0-.645,1.711C7152.891,2574.727,7159.367,2577.107,7163.542,2577.107Z" transform="translate(-7151.441 -2570.245)" fill="#fff"/>
          </g>
          <g id="Grupo_141264" data-name="Grupo 141264" transform="translate(4.116 8.68)">
            <path id="Trazado_197465" data-name="Trazado 197465" d="M7150.146,2553.762a.921.921,0,0,0,.715-.352.947.947,0,0,0-.168-1.309c-.291-.237-1.739-1.048-8.107-1.653-6.58-.625-19.1-.03-19.632,0a.917.917,0,0,0,.088,1.832c.128-.006,12.921-.611,19.373-.006,5.91.561,7.138,1.269,7.188,1.3A.864.864,0,0,0,7150.146,2553.762Z" transform="translate(-7122.082 -2550.164)" fill="#fff"/>
          </g>
          <g id="Grupo_141265" data-name="Grupo 141265" transform="translate(19.737 11.978)">
            <path id="Trazado_197466" data-name="Trazado 197466" d="M7143.055,2558.012a1.22,1.22,0,0,0,.4-2.372l-8.921-3.117a1.221,1.221,0,0,0-1.115,2.144C7133.613,2554.8,7138.146,2558.012,7143.055,2558.012Z" transform="translate(-7132.914 -2552.451)" fill="#fff"/>
          </g>
          <g id="Grupo_141266" data-name="Grupo 141266" transform="translate(11.09 17.271)">
            <path id="Trazado_197467" data-name="Trazado 197467" d="M7138.46,2564.116a43.82,43.82,0,0,0,6.441-.564.917.917,0,0,0,.75-1.055.93.93,0,0,0-1.057-.752c-1.976.336-7.586.994-9.821.06-2.732-1.147-6.2-5.307-6.236-5.351a.916.916,0,1,0-1.41,1.168c.154.186,3.794,4.552,6.938,5.871A12.235,12.235,0,0,0,7138.46,2564.116Z" transform="translate(-7126.917 -2556.121)" fill="#fff"/>
          </g>
          <g id="Grupo_141267" data-name="Grupo 141267" transform="translate(8.389 27.04)">
            <path id="Trazado_197468" data-name="Trazado 197468" d="M7135.793,2570.15a80.274,80.274,0,0,0,8.986-.65.918.918,0,0,0,.792-1.022.9.9,0,0,0-1.024-.794c-5.445.69-11.745.944-12.866.157a45.39,45.39,0,0,1-5.054-4.656.916.916,0,0,0-1.335,1.253,46.262,46.262,0,0,0,5.34,4.906C7131.5,2569.953,7133.527,2570.15,7135.793,2570.15Z" transform="translate(-7125.044 -2562.895)" fill="#fff"/>
          </g>
          <g id="Grupo_141268" data-name="Grupo 141268" transform="translate(7.231 37.638)">
            <path id="Trazado_197469" data-name="Trazado 197469" d="M7132.913,2577.107c4.177,0,10.651-2.38,11.5-2.7a.914.914,0,1,0-.643-1.711c-2.6.978-9.893,3.311-12.359,2.386-3.024-1.133-5.5-4.433-5.523-4.466a.915.915,0,0,0-1.471,1.089c.112.156,2.813,3.765,6.352,5.093A6.252,6.252,0,0,0,7132.913,2577.107Z" transform="translate(-7124.241 -2570.245)" fill="#fff"/>
          </g>
          <g id="Grupo_141269" data-name="Grupo 141269" transform="translate(33.999 19.882)">
            <path id="Trazado_197470" data-name="Trazado 197470" d="M7146.831,2590.567c.311-.778,1.105-26.184,1.176-29.145s-3.98-4.052-4.294,0,.624,30.962.624,30.962Z" transform="translate(-7142.43 -2557.557)" fill="#fff"/>
            <path id="Trazado_197471" data-name="Trazado 197471" d="M7144.177,2593.855a1.218,1.218,0,0,1-.687-1.053c-.04-1.1-.936-27.023-.622-31.1.208-2.713,1.9-3.851,3.42-3.77a3.645,3.645,0,0,1,3.313,3.892c-.008.281-.8,28.4-1.263,29.567a1.236,1.236,0,0,1-.416.534l-2.493,1.817a1.218,1.218,0,0,1-.719.233A1.2,1.2,0,0,1,7144.177,2593.855Zm2.982-32.085a1.248,1.248,0,0,0-.992-1.4c-.616,0-.8.769-.862,1.519-.252,3.25.332,21.93.549,28.523l.216-.157C7146.385,2586.856,7147.066,2565.627,7147.16,2561.77Z" transform="translate(-7142.802 -2557.931)" fill="#fff"/>
          </g>
          <g id="Grupo_141270" data-name="Grupo 141270" transform="translate(29.994 10.777)">
            <path id="Trazado_197472" data-name="Trazado 197472" d="M7149.028,2561.569c1.99-2.185,4.785-2.913,3.859-6.341s-3.562-2.7-5.833-2.7-5.066-.639-6.012,2.7c-.778,2.753,1.247,4.546,3.833,6.511A2.994,2.994,0,0,0,7149.028,2561.569Z" transform="translate(-7139.652 -2551.245)" fill="#fff"/>
            <path id="Trazado_197473" data-name="Trazado 197473" d="M7144.514,2563.084c-2.252-1.712-5.336-4.054-4.27-7.816,1.079-3.81,4.218-3.7,6.275-3.614.644.023,1.252.019,1.883-.007,1.985-.083,5-.233,6.041,3.636.882,3.269-1.034,4.823-2.571,6.075a14.257,14.257,0,0,0-1.564,1.4,4.235,4.235,0,0,1-3.031,1.338A4.524,4.524,0,0,1,7144.514,2563.084Zm5.817-3.621c1.583-1.285,2.205-1.875,1.755-3.546-.51-1.9-1.466-1.934-3.571-1.832-.7.033-1.374.033-2.086.01-2.223-.093-3.3-.039-3.835,1.836-.521,1.838.68,3.145,3.4,5.207a1.757,1.757,0,0,0,2.518-.023A15.957,15.957,0,0,1,7150.331,2559.463Z" transform="translate(-7140.027 -2551.618)" fill="#fff"/>
          </g>
        </g>
        <g id="Grupo_141276" data-name="Grupo 141276" transform="translate(3.823 13.788)">
          <rect id="Rectángulo_42219" data-name="Rectángulo 42219" width="74.573" height="58.621" rx="1.825" transform="translate(74.573 58.621) rotate(-180)" fill="#4dd0e1"/>
          <path id="Trazado_197474" data-name="Trazado 197474" d="M7147.42,2489.831c-.12,2.283-1.032,27.8,1.045,30.92s7.372,6.485,13.4,6.277,9.515-3.426,9.246-9.767c-.389-9.221-1.247-12.572-7.689-19.222s-9.246-8.727-11.636-10.079S7147.566,2487.029,7147.42,2489.831Z" transform="translate(-7106.897 -2472.675)" fill="#fff"/>
          <path id="Trazado_197475" data-name="Trazado 197475" d="M7147.68,2489.831c.119,2.283,1.031,27.8-1.047,30.92s-7.37,6.485-13.4,6.277-9.516-3.426-9.248-9.767c.39-9.221,1.247-12.572,7.688-19.222s9.249-8.727,11.638-10.079S7147.533,2487.029,7147.68,2489.831Z" transform="translate(-7117.129 -2472.675)" fill="#fff"/>
          <g id="Grupo_141272" data-name="Grupo 141272" transform="translate(34.574 3.561)">
            <path id="Trazado_197476" data-name="Trazado 197476" d="M7160.044,2515.5a.917.917,0,0,0,.6-1.605c-5.646-4.958-13.526-9.1-15.615-10.158v-23.221a.916.916,0,1,0-1.831,0V2504.3a.912.912,0,0,0,.515.822c.092.046,9.488,4.671,15.723,10.149A.919.919,0,0,0,7160.044,2515.5Z" transform="translate(-7143.202 -2479.603)" fill="#121e30"/>
          </g>
          <g id="Grupo_141273" data-name="Grupo 141273" transform="translate(44.353 31.878)">
            <path id="Trazado_197477" data-name="Trazado 197477" d="M7151.087,2509.07a.921.921,0,0,0,.916-.94l-.152-6.106,4.372-.975a.917.917,0,0,0-.4-1.79l-5.843,1.3.189,7.613A.917.917,0,0,0,7151.087,2509.07Z" transform="translate(-7149.982 -2499.239)" fill="#121e30"/>
          </g>
          <g id="Grupo_141274" data-name="Grupo 141274" transform="translate(18.648 3.561)">
            <path id="Trazado_197478" data-name="Trazado 197478" d="M7133.074,2515.5a.923.923,0,0,0,.605-.227c6.241-5.483,15.631-10.1,15.723-10.149a.913.913,0,0,0,.514-.822v-23.786a.916.916,0,1,0-1.831,0v23.221c-2.091,1.058-9.967,5.2-15.614,10.158a.917.917,0,0,0,.6,1.605Z" transform="translate(-7132.159 -2479.603)" fill="#121e30"/>
          </g>
          <g id="Grupo_141275" data-name="Grupo 141275" transform="translate(19.672 31.878)">
            <path id="Trazado_197479" data-name="Trazado 197479" d="M7138.721,2509.07a.92.92,0,0,0,.916-.893l.188-7.613-5.841-1.3a.93.93,0,0,0-1.094.7.919.919,0,0,0,.7,1.094l4.371.975-.152,6.106a.917.917,0,0,0,.894.94Z" transform="translate(-7132.868 -2499.239)" fill="#121e30"/>
          </g>
        </g>
      </g>
      <g id="Grupo_141278" data-name="Grupo 141278" transform="translate(24.164)">
        <path id="Trazado_197480" data-name="Trazado 197480" d="M7112.825,2467.525v168.43a5.862,5.862,0,0,0,5.861,5.859h81.723a5.861,5.861,0,0,0,5.859-5.859v-168.43a5.862,5.862,0,0,0-5.859-5.861h-81.723A5.863,5.863,0,0,0,7112.825,2467.525Zm5.421,7.838a5.177,5.177,0,0,1,5.175-5.176h28.252a7.874,7.874,0,0,0,15.748,0h28.251a5.2,5.2,0,0,1,5.2,5.176v148.969a5.2,5.2,0,0,1-5.2,5.177h-72.251a5.178,5.178,0,0,1-5.175-5.177Z" transform="translate(-7112.825 -2461.664)" fill="#969aa8"/>
        <path id="Trazado_197481" data-name="Trazado 197481" d="M7143.633,2468.276a2.3,2.3,0,1,0,2.294-2.3A2.3,2.3,0,0,0,7143.633,2468.276Z" transform="translate(-7099.206 -2459.756)" fill="#121e30"/>
      </g>
      <g id="Grupo_141282" data-name="Grupo 141282" transform="translate(0 86.048)">
        <path id="Trazado_197482" data-name="Trazado 197482" d="M7147.083,2548.894h51.612a5.343,5.343,0,0,0,5.343-5.343v-16.875a5.343,5.343,0,0,0-5.343-5.343h-97.283a5.344,5.344,0,0,0-5.343,5.343v16.875a5.344,5.344,0,0,0,5.343,5.343h45.67Z" transform="translate(-7096.069 -2521.333)" fill="#fff"/>
        <g id="Grupo_141279" data-name="Grupo 141279" transform="translate(8.017 13.996)">
          <path id="Trazado_197483" data-name="Trazado 197483" d="M7196.089,2531.673h0Z" transform="translate(-7101.627 -2530.758)" fill="#fff"/>
          <rect id="Rectángulo_42220" data-name="Rectángulo 42220" width="94.461" height="1.831" fill="#969aa8"/>
        </g>
        <g id="Grupo_141280" data-name="Grupo 141280" transform="translate(8.017 20.823)">
          <path id="Trazado_197484" data-name="Trazado 197484" d="M7196.089,2536.407h0Z" transform="translate(-7101.627 -2535.492)" fill="#fff"/>
          <rect id="Rectángulo_42221" data-name="Rectángulo 42221" width="94.461" height="1.831" fill="#969aa8"/>
        </g>
        <rect id="Rectángulo_42222" data-name="Rectángulo 42222" width="31.852" height="4.824" transform="translate(102.478 9.575) rotate(-180)" fill="#969aa8"/>
        <g id="Grupo_141281" data-name="Grupo 141281" transform="translate(50.098 26.645)">
          <path id="Trazado_197485" data-name="Trazado 197485" d="M7131.724,2541.642h44.653a.916.916,0,1,0,0-1.832h-44.653a.916.916,0,0,0,0,1.832Z" transform="translate(-7130.81 -2539.81)" fill="#969aa8"/>
        </g>
      </g>
    </g>
    <g id="_14" data-name="14" transform="translate(1048.979 7963.168)">
      <g id="window_3" data-name="window 3" transform="translate(119.075 138.681)">
        <path id="Trazado_197486" data-name="Trazado 197486" d="M7220.955,2609.633h44.413a4.936,4.936,0,0,0,4.936-4.936V2546.08a4.936,4.936,0,0,0-4.936-4.936h-44.413a4.936,4.936,0,0,0-4.936,4.936V2604.7A4.936,4.936,0,0,0,7220.955,2609.633Z" transform="translate(-7216.019 -2541.144)" fill="#fff"/>
        <circle id="Elipse_5077" data-name="Elipse 5077" cx="10.894" cy="10.894" r="10.894" transform="translate(16.269 7.832)" fill="#969aa8"/>
        <path id="Trazado_197487" data-name="Trazado 197487" d="M7244.675,2565.475a10.9,10.9,0,0,1-13.219.045,7.85,7.85,0,0,1,5.392-4.285v-1.692a4.692,4.692,0,0,1-3.226-4.556,4.432,4.432,0,1,1,8.843,0,4.734,4.734,0,0,1-3.159,4.556v1.692A7.859,7.859,0,0,1,7244.675,2565.475Z" transform="translate(-7210.89 -2538.12)" fill="#fff"/>
        <g id="Grupo_141283" data-name="Grupo 141283" transform="translate(7.521 43.915)">
          <path id="Trazado_197488" data-name="Trazado 197488" d="M7221.665,2574.743h0Z" transform="translate(-7221.664 -2573.898)" fill="#fff"/>
          <rect id="Rectángulo_42223" data-name="Rectángulo 42223" width="40.185" height="1.692" fill="#969aa8"/>
        </g>
        <g id="Grupo_141284" data-name="Grupo 141284" transform="translate(7.521 50.22)">
          <path id="Trazado_197489" data-name="Trazado 197489" d="M7221.665,2579.476h0Z" transform="translate(-7221.664 -2578.63)" fill="#fff"/>
          <rect id="Rectángulo_42224" data-name="Rectángulo 42224" width="40.185" height="1.692" fill="#969aa8"/>
        </g>
        <rect id="Rectángulo_42225" data-name="Rectángulo 42225" width="40.184" height="4.456" transform="translate(7.522 35.374)" fill="#969aa8"/>
        <path id="Trazado_197490" data-name="Trazado 197490" d="M7233.366,2586.391a2.181,2.181,0,1,1-2.182-2.181A2.182,2.182,0,0,1,7233.366,2586.391Z" transform="translate(-7211.705 -2526.838)" fill="#94c1fc"/>
        <path id="Trazado_197491" data-name="Trazado 197491" d="M7239.18,2586.391a2.182,2.182,0,1,1-2.182-2.181A2.183,2.183,0,0,1,7239.18,2586.391Z" transform="translate(-7209.774 -2526.838)" fill="#0f2771"/>
        <path id="Trazado_197492" data-name="Trazado 197492" d="M7244.872,2586.391a2.182,2.182,0,1,1-2.182-2.181A2.183,2.183,0,0,1,7244.872,2586.391Z" transform="translate(-7207.884 -2526.838)" fill="#d7d9dd"/>
      </g>
      <g id="window_2" data-name="window 2" transform="translate(175.092 138.682)">
        <rect id="Rectángulo_42226" data-name="Rectángulo 42226" width="55.595" height="42.748" rx="2.705" transform="translate(55.595 42.748) rotate(180)" fill="#fff"/>
        <g id="Grupo_141285" data-name="Grupo 141285" transform="translate(12.959 8.297)">
          <rect id="Rectángulo_42227" data-name="Rectángulo 42227" width="22.748" height="24.092" fill="#0f2771"/>
        </g>
        <g id="Grupo_141286" data-name="Grupo 141286" transform="translate(35.707 13.096)">
          <path id="Trazado_197493" data-name="Trazado 197493" d="M7279.431,2560.85h8.4l6.191,7.461v11.832h-14.589Z" transform="translate(-7279.431 -2560.85)" fill="#0f2771"/>
        </g>
        <g id="Grupo_141287" data-name="Grupo 141287" transform="translate(40.986 16.551)">
          <path id="Trazado_197494" data-name="Trazado 197494" d="M7292.7,2567.449h-9.311v-4.005h5.988Z" transform="translate(-7283.393 -2563.444)" fill="#fff"/>
        </g>
        <g id="Grupo_141288" data-name="Grupo 141288" transform="translate(5.682 13.115)">
          <path id="Trazado_197495" data-name="Trazado 197495" d="M7272.808,2562.556h-15.069a.846.846,0,0,1,0-1.692h15.069a.846.846,0,1,1,0,1.692Z" transform="translate(-7256.894 -2560.864)" fill="#0f2771"/>
        </g>
        <g id="Grupo_141289" data-name="Grupo 141289" transform="translate(5.682 18.058)">
          <path id="Trazado_197496" data-name="Trazado 197496" d="M7272.808,2566.267h-15.069a.846.846,0,0,1,0-1.692h15.069a.846.846,0,1,1,0,1.692Z" transform="translate(-7256.894 -2564.575)" fill="#0f2771"/>
        </g>
        <g id="Grupo_141290" data-name="Grupo 141290" transform="translate(5.682 23.001)">
          <path id="Trazado_197497" data-name="Trazado 197497" d="M7272.808,2569.977h-15.069a.846.846,0,0,1,0-1.692h15.069a.846.846,0,1,1,0,1.692Z" transform="translate(-7256.894 -2568.285)" fill="#0f2771"/>
        </g>
        <g id="Grupo_141291" data-name="Grupo 141291" transform="translate(17.865 28.088)">
          <path id="Trazado_197498" data-name="Trazado 197498" d="M7274.638,2576.4a4.3,4.3,0,1,0-4.3,4.3A4.3,4.3,0,0,0,7274.638,2576.4Z" transform="translate(-7266.038 -2572.104)" fill="#fff"/>
          <path id="Trazado_197499" data-name="Trazado 197499" d="M7270.126,2572.74a3.454,3.454,0,1,0,3.455,3.453A3.456,3.456,0,0,0,7270.126,2572.74Z" transform="translate(-7265.827 -2571.893)" fill="#0f2771"/>
        </g>
        <g id="Grupo_141292" data-name="Grupo 141292" transform="translate(38.702 28.088)">
          <path id="Trazado_197500" data-name="Trazado 197500" d="M7290.278,2576.4a4.3,4.3,0,1,0-4.3,4.3A4.3,4.3,0,0,0,7290.278,2576.4Z" transform="translate(-7281.679 -2572.104)" fill="#fff"/>
          <path id="Trazado_197501" data-name="Trazado 197501" d="M7285.768,2572.74a3.454,3.454,0,1,0,3.454,3.453A3.457,3.457,0,0,0,7285.768,2572.74Z" transform="translate(-7281.467 -2571.893)" fill="#0f2771"/>
        </g>
      </g>
      <g id="window_1" data-name="window 1" transform="translate(24.389 8.288)">
        <path id="Trazado_197502" data-name="Trazado 197502" d="M7234.705,2456.118h-32.379a5.782,5.782,0,0,0-5.781,5.782v22.223a5.782,5.782,0,0,0,5.781,5.782h4.913s4.063.2,6.3,1.807a11.678,11.678,0,0,1,3.387,4.336l.027-6.143h17.748a5.781,5.781,0,0,0,5.78-5.782V2461.9A5.781,5.781,0,0,0,7234.705,2456.118Z" transform="translate(-7196.545 -2456.118)" fill="#fff"/>
        <g id="Grupo_141293" data-name="Grupo 141293" transform="translate(8.335 7.298)">
          <path id="Trazado_197503" data-name="Trazado 197503" d="M7230.07,2461.6l-11.786,14.462-3.78,4.713c-.042,0-3.821-4.713-3.821-4.713l-7.881-9.808h7.619l4.068,5.069,7.93-9.723Z" transform="translate(-7202.802 -2461.596)" fill="#94c1fc"/>
        </g>
      </g>
      <g id="hand" transform="translate(7.041 0)">
        <path id="hand-2" data-name="hand" d="M7232.737,2536.526s1.067,5.173,2.792,6.884,5.531,2.1,6.834-.128a11.271,11.271,0,0,0,1.491-4.177s3.047,2.675,5.179,2.433a4.335,4.335,0,0,0,3.817-3.423,9.132,9.132,0,0,0-.26-3.214s2.781,2.074,5.364,1.3,3.23-3.347,2.586-5.525-2.21-18.32-7.2-22.582-21.037-17.42-29.3-13.756-21.926,16.295-17.062,27.046,9.119,3.83,16.551,6.593S7232.737,2536.526,7232.737,2536.526Z" transform="translate(-7176.072 -2435.347)" fill="#d87360"/>
        <g id="Grupo_141326" data-name="Grupo 141326" transform="translate(63.206)">
          <g id="Grupo_141294" data-name="Grupo 141294" transform="translate(2.195 0)">
            <rect id="Rectángulo_42228" data-name="Rectángulo 42228" width="72.313" height="95.577" rx="1.825" transform="translate(7.579 0) rotate(4.548)" fill="#fff"/>
          </g>
          <path id="Trazado_197504" data-name="Trazado 197504" d="M7289.781,2508.423l-.827,10.4-8.329-.662-.668,8.4-10.394-.826.667-8.4-8.337-.663.828-10.4,8.337.664.656-8.257,10.4.827-.657,8.257Z" transform="translate(-7220.696 -2433.693)" fill="#94c1fc"/>
          <g id="Grupo_141295" data-name="Grupo 141295" transform="translate(15.232 15.577)">
            <path id="Trazado_197505" data-name="Trazado 197505" d="M7242.452,2462.223l44.526,3.542Z" transform="translate(-7242.386 -2461.379)" fill="#fff"/>
            <path id="Trazado_197506" data-name="Trazado 197506" d="M7286.929,2466.82l-44.526-3.542.132-1.688,44.527,3.542Z" transform="translate(-7242.403 -2461.59)" fill="#969aa8"/>
          </g>
          <g id="Grupo_141296" data-name="Grupo 141296" transform="translate(14.232 28.149)">
            <path id="Trazado_197507" data-name="Trazado 197507" d="M7241.7,2471.659l58.055,4.618Z" transform="translate(-7241.636 -2470.816)" fill="#fff"/>
            <path id="Trazado_197508" data-name="Trazado 197508" d="M7299.709,2477.331l-58.057-4.617.132-1.687,58.057,4.617Z" transform="translate(-7241.652 -2471.026)" fill="#969aa8"/>
          </g>
          <g id="Grupo_141297" data-name="Grupo 141297" transform="translate(14.733 21.862)">
            <path id="Trazado_197509" data-name="Trazado 197509" d="M7242.078,2466.941l58.057,4.617Z" transform="translate(-7242.012 -2466.097)" fill="#fff"/>
            <path id="Trazado_197510" data-name="Trazado 197510" d="M7300.083,2472.614l-58.056-4.619.132-1.687,58.056,4.619Z" transform="translate(-7242.028 -2466.308)" fill="#969aa8"/>
          </g>
          <g id="Grupo_141298" data-name="Grupo 141298" transform="translate(13.737 34.394)">
            <path id="Trazado_197511" data-name="Trazado 197511" d="M7241.33,2476.348l55.208,4.391Z" transform="translate(-7241.264 -2475.504)" fill="#fff"/>
            <path id="Trazado_197512" data-name="Trazado 197512" d="M7296.488,2481.794l-55.207-4.392.132-1.687,55.207,4.392Z" transform="translate(-7241.281 -2475.714)" fill="#969aa8"/>
          </g>
          <g id="Grupo_141299" data-name="Grupo 141299" transform="translate(13.232 40.722)">
            <path id="Trazado_197513" data-name="Trazado 197513" d="M7240.952,2481.1l44.525,3.542Z" transform="translate(-7240.885 -2480.254)" fill="#fff"/>
            <path id="Trazado_197514" data-name="Trazado 197514" d="M7285.429,2485.694l-44.528-3.542.133-1.687,44.526,3.542Z" transform="translate(-7240.901 -2480.465)" fill="#969aa8"/>
          </g>
          <g id="Grupo_141300" data-name="Grupo 141300" transform="translate(12.732 47.006)">
            <path id="Trazado_197515" data-name="Trazado 197515" d="M7240.577,2485.816l58.055,4.619Z" transform="translate(-7240.51 -2484.971)" fill="#fff"/>
            <path id="Trazado_197516" data-name="Trazado 197516" d="M7298.583,2491.489l-58.057-4.619.132-1.687,58.057,4.619Z" transform="translate(-7240.527 -2485.182)" fill="#969aa8"/>
          </g>
          <g id="Grupo_141301" data-name="Grupo 141301" transform="translate(9.117 78.823)">
            <path id="Trazado_197517" data-name="Trazado 197517" d="M7238.659,2509.91l25.213,2Z" transform="translate(-7237.531 -2508.784)" fill="#fff"/>
            <path id="Trazado_197518" data-name="Trazado 197518" d="M7264.156,2513.323c-.091,0-25.3-2.009-25.3-2.009a1.125,1.125,0,0,1-1.038-1.123,1.162,1.162,0,0,1,1.22-1.123l25.212,2a1.128,1.128,0,0,1,1.038,1.124A1.147,1.147,0,0,1,7264.156,2513.323Z" transform="translate(-7237.813 -2509.064)" fill="#969aa8"/>
          </g>
          <g id="Grupo_141302" data-name="Grupo 141302" transform="translate(9.618 72.538)">
            <path id="Trazado_197519" data-name="Trazado 197519" d="M7239.036,2505.192l25.211,2Z" transform="translate(-7237.907 -2504.066)" fill="#fff"/>
            <path id="Trazado_197520" data-name="Trazado 197520" d="M7264.53,2508.606c-.091,0-25.3-2.012-25.3-2.012a1.124,1.124,0,0,1-1.037-1.123,1.155,1.155,0,0,1,1.218-1.123l25.212,2.006a1.127,1.127,0,0,1,1.038,1.123A1.148,1.148,0,0,1,7264.53,2508.606Z" transform="translate(-7238.188 -2504.347)" fill="#969aa8"/>
          </g>
          <g id="Grupo_141303" data-name="Grupo 141303" transform="translate(8.621 85.071)">
            <path id="Trazado_197521" data-name="Trazado 197521" d="M7238.287,2514.6l25.212,2.005Z" transform="translate(-7237.16 -2513.474)" fill="#fff"/>
            <path id="Trazado_197522" data-name="Trazado 197522" d="M7263.782,2518.013c-.091-.005-25.3-2.009-25.3-2.009a1.128,1.128,0,0,1-1.038-1.125,1.161,1.161,0,0,1,1.219-1.123l25.21,2a1.125,1.125,0,0,1,1.038,1.123A1.148,1.148,0,0,1,7263.782,2518.013Z" transform="translate(-7237.441 -2513.755)" fill="#969aa8"/>
          </g>
          <rect id="Rectángulo_42229" data-name="Rectángulo 42229" width="58.24" height="4.456" transform="translate(16.043 7.063) rotate(4.548)" fill="#969aa8"/>
          <g id="Grupo_141304" data-name="Grupo 141304" transform="translate(0.291)">
            <rect id="Rectángulo_42230" data-name="Rectángulo 42230" width="72.313" height="95.577" rx="1.825" transform="translate(33.123 0) rotate(20.277)" fill="#fff"/>
          </g>
          <path id="Trazado_197523" data-name="Trazado 197523" d="M7290.95,2519.521l-3.618,9.79-7.836-2.9-2.92,7.9-9.781-3.614,2.92-7.9-7.846-2.9,3.617-9.789,7.846,2.9,2.87-7.769,9.782,3.614-2.871,7.77Z" transform="translate(-7220.704 -2431.512)" fill="#94c1fc"/>
          <g id="Grupo_141305" data-name="Grupo 141305" transform="translate(33.988 16.509)">
            <path id="Trazado_197524" data-name="Trazado 197524" d="M7256.7,2462.885l41.9,15.48Z" transform="translate(-7256.409 -2462.091)" fill="#fff"/>
            <rect id="Rectángulo_42231" data-name="Rectángulo 42231" width="1.691" height="44.667" transform="translate(0 1.586) rotate(-69.721)" fill="#969aa8"/>
          </g>
          <g id="Grupo_141306" data-name="Grupo 141306" transform="translate(29.618 28.338)">
            <path id="Trazado_197525" data-name="Trazado 197525" d="M7253.422,2471.764l54.631,20.184Z" transform="translate(-7253.129 -2470.971)" fill="#fff"/>
            <rect id="Rectángulo_42232" data-name="Rectángulo 42232" width="1.691" height="58.24" transform="matrix(0.347, -0.938, 0.938, 0.347, 0, 1.586)" fill="#969aa8"/>
          </g>
          <g id="Grupo_141307" data-name="Grupo 141307" transform="translate(31.803 22.424)">
            <path id="Trazado_197526" data-name="Trazado 197526" d="M7255.062,2467.325l54.63,20.183Z" transform="translate(-7254.769 -2466.531)" fill="#fff"/>
            <rect id="Rectángulo_42233" data-name="Rectángulo 42233" width="1.691" height="58.24" transform="translate(0 1.586) rotate(-69.723)" fill="#969aa8"/>
          </g>
          <g id="Grupo_141308" data-name="Grupo 141308" transform="translate(27.446 34.218)">
            <path id="Trazado_197527" data-name="Trazado 197527" d="M7251.792,2476.177l51.951,19.193Z" transform="translate(-7251.499 -2475.385)" fill="#fff"/>
            <rect id="Rectángulo_42234" data-name="Rectángulo 42234" width="1.691" height="55.384" transform="matrix(0.347, -0.938, 0.938, 0.347, 0, 1.586)" fill="#969aa8"/>
          </g>
          <g id="Grupo_141309" data-name="Grupo 141309" transform="translate(25.246 40.172)">
            <path id="Trazado_197528" data-name="Trazado 197528" d="M7250.14,2480.647l41.9,15.479Z" transform="translate(-7249.847 -2479.854)" fill="#fff"/>
            <rect id="Rectángulo_42235" data-name="Rectángulo 42235" width="1.691" height="44.669" transform="translate(0 1.586) rotate(-69.725)" fill="#969aa8"/>
          </g>
          <g id="Grupo_141310" data-name="Grupo 141310" transform="translate(20.875 52)">
            <path id="Trazado_197529" data-name="Trazado 197529" d="M7246.859,2489.526l47.45,17.531Z" transform="translate(-7246.565 -2488.732)" fill="#fff"/>
            <rect id="Rectángulo_42236" data-name="Rectángulo 42236" width="1.691" height="50.584" transform="translate(0 1.586) rotate(-69.724)" fill="#969aa8"/>
          </g>
          <g id="Grupo_141311" data-name="Grupo 141311" transform="translate(23.061 46.086)">
            <path id="Trazado_197530" data-name="Trazado 197530" d="M7248.5,2485.086l54.63,20.185Z" transform="translate(-7248.206 -2484.293)" fill="#fff"/>
            <rect id="Rectángulo_42237" data-name="Rectángulo 42237" width="1.691" height="58.24" transform="translate(0 1.586) rotate(-69.723)" fill="#969aa8"/>
          </g>
          <g id="Grupo_141312" data-name="Grupo 141312" transform="translate(11.068 75.954)">
            <path id="Trazado_197531" data-name="Trazado 197531" d="M7240.124,2507.758l23.725,8.765Z" transform="translate(-7238.997 -2506.63)" fill="#fff"/>
            <path id="Trazado_197532" data-name="Trazado 197532" d="M7264.13,2517.934a1.113,1.113,0,0,1-.39-.071l-23.724-8.766a1.124,1.124,0,0,1-.738-1.056,1.093,1.093,0,0,1,.07-.39,1.126,1.126,0,0,1,1.447-.667l23.724,8.765a1.124,1.124,0,0,1,.738,1.056,1.072,1.072,0,0,1-.071.391A1.128,1.128,0,0,1,7264.13,2517.934Z" transform="translate(-7239.278 -2506.911)" fill="#969aa8"/>
          </g>
          <g id="Grupo_141313" data-name="Grupo 141313" transform="translate(13.253 70.038)">
            <path id="Trazado_197533" data-name="Trazado 197533" d="M7241.764,2503.319l23.724,8.766Z" transform="translate(-7240.636 -2502.189)" fill="#fff"/>
            <path id="Trazado_197534" data-name="Trazado 197534" d="M7265.769,2513.494a1.073,1.073,0,0,1-.389-.071l-23.724-8.767a1.124,1.124,0,0,1-.738-1.056,1.112,1.112,0,0,1,.071-.391,1.125,1.125,0,0,1,1.447-.667l23.725,8.767a1.125,1.125,0,0,1,.736,1.058,1.1,1.1,0,0,1-.068.389A1.128,1.128,0,0,1,7265.769,2513.494Z" transform="translate(-7240.917 -2502.47)" fill="#969aa8"/>
          </g>
          <g id="Grupo_141314" data-name="Grupo 141314" transform="translate(8.896 81.831)">
            <path id="Trazado_197535" data-name="Trazado 197535" d="M7238.493,2512.171l23.724,8.765Z" transform="translate(-7237.365 -2511.041)" fill="#fff"/>
            <path id="Trazado_197536" data-name="Trazado 197536" d="M7262.5,2522.344a1.073,1.073,0,0,1-.39-.071l-23.725-8.764a1.129,1.129,0,0,1-.738-1.057,1.13,1.13,0,0,1,1.519-1.057l23.724,8.765a1.128,1.128,0,0,1,.738,1.057,1.109,1.109,0,0,1-.07.389A1.126,1.126,0,0,1,7262.5,2522.344Z" transform="translate(-7237.646 -2511.323)" fill="#969aa8"/>
          </g>
          <rect id="Rectángulo_42238" data-name="Rectángulo 42238" width="58.24" height="4.456" transform="translate(37.534 8.498) rotate(20.277)" fill="#969aa8"/>
          <rect id="Rectángulo_42239" data-name="Rectángulo 42239" width="72.313" height="95.577" rx="1.825" transform="matrix(0.769, 0.639, -0.639, 0.769, 61.044, 8.234)" fill="#fff"/>
          <g id="Grupo_141315" data-name="Grupo 141315" transform="translate(38.97 85.113)">
            <path id="Trazado_197537" data-name="Trazado 197537" d="M7287.774,2532.156l-6.666,8.031-6.43-5.336-5.381,6.483-8.023-6.66,5.382-6.483-6.436-5.342,6.665-8.031,6.436,5.342,5.29-6.373,8.024,6.66-5.291,6.373Z" transform="translate(-7260.221 -2513.787)" fill="#94c1fc"/>
          </g>
          <g id="Grupo_141316" data-name="Grupo 141316" transform="translate(55.571 24.191)">
            <path id="Trazado_197538" data-name="Trazado 197538" d="M7273.087,2468.544l34.369,28.529Z" transform="translate(-7272.549 -2467.893)" fill="#fff"/>
            <rect id="Rectángulo_42240" data-name="Rectángulo 42240" width="1.689" height="44.668" transform="translate(0 1.3) rotate(-50.304)" fill="#969aa8"/>
          </g>
          <g id="Grupo_141317" data-name="Grupo 141317" transform="translate(47.516 33.896)">
            <path id="Trazado_197539" data-name="Trazado 197539" d="M7267.042,2475.828l44.814,37.2Z" transform="translate(-7266.502 -2475.179)" fill="#fff"/>
            <rect id="Rectángulo_42241" data-name="Rectángulo 42241" width="1.689" height="58.239" transform="translate(0 1.3) rotate(-50.307)" fill="#969aa8"/>
          </g>
          <g id="Grupo_141318" data-name="Grupo 141318" transform="translate(51.543 29.043)">
            <path id="Trazado_197540" data-name="Trazado 197540" d="M7270.065,2472.186l44.813,37.2Z" transform="translate(-7269.525 -2471.535)" fill="#fff"/>
            <rect id="Rectángulo_42242" data-name="Rectángulo 42242" width="1.69" height="58.242" transform="matrix(0.639, -0.769, 0.769, 0.639, 0, 1.3)" fill="#969aa8"/>
          </g>
          <g id="Grupo_141319" data-name="Grupo 141319" transform="translate(43.513 38.718)">
            <path id="Trazado_197541" data-name="Trazado 197541" d="M7264.038,2479.447l42.615,35.373Z" transform="translate(-7263.497 -2478.798)" fill="#fff"/>
            <rect id="Rectángulo_42243" data-name="Rectángulo 42243" width="1.689" height="55.382" transform="translate(0 1.3) rotate(-50.306)" fill="#969aa8"/>
          </g>
          <g id="Grupo_141320" data-name="Grupo 141320" transform="translate(39.459 43.601)">
            <path id="Trazado_197542" data-name="Trazado 197542" d="M7260.994,2483.113l34.371,28.529Z" transform="translate(-7260.455 -2482.464)" fill="#fff"/>
            <rect id="Rectángulo_42244" data-name="Rectángulo 42244" width="1.69" height="44.667" transform="matrix(0.639, -0.769, 0.769, 0.639, 0, 1.3)" fill="#969aa8"/>
          </g>
          <g id="Grupo_141321" data-name="Grupo 141321" transform="translate(31.404 53.304)">
            <path id="Trazado_197543" data-name="Trazado 197543" d="M7254.949,2490.4l38.921,32.307Z" transform="translate(-7254.408 -2489.748)" fill="#fff"/>
            <rect id="Rectángulo_42245" data-name="Rectángulo 42245" width="1.69" height="50.585" transform="matrix(0.639, -0.769, 0.769, 0.639, 0, 1.3)" fill="#969aa8"/>
          </g>
          <g id="Grupo_141322" data-name="Grupo 141322" transform="translate(35.431 48.452)">
            <path id="Trazado_197544" data-name="Trazado 197544" d="M7257.971,2486.755l44.814,37.2Z" transform="translate(-7257.43 -2486.104)" fill="#fff"/>
            <rect id="Rectángulo_42246" data-name="Rectángulo 42246" width="1.689" height="58.242" transform="matrix(0.639, -0.769, 0.769, 0.639, 0, 1.3)" fill="#969aa8"/>
          </g>
          <g id="Grupo_141323" data-name="Grupo 141323" transform="translate(14.866 73.228)">
            <path id="Trazado_197545" data-name="Trazado 197545" d="M7242.534,2505.353,7262,2521.507Z" transform="translate(-7241.993 -2504.703)" fill="#fff"/>
            <rect id="Rectángulo_42247" data-name="Rectángulo 42247" width="1.689" height="25.292" transform="translate(0 1.3) rotate(-50.308)" fill="#969aa8"/>
          </g>
          <g id="Grupo_141324" data-name="Grupo 141324" transform="translate(18.895 68.376)">
            <path id="Trazado_197546" data-name="Trazado 197546" d="M7245.557,2501.711l19.462,16.154Z" transform="translate(-7245.018 -2501.06)" fill="#fff"/>
            <rect id="Rectángulo_42248" data-name="Rectángulo 42248" width="1.689" height="25.293" transform="matrix(0.639, -0.769, 0.769, 0.639, 0, 1.3)" fill="#969aa8"/>
          </g>
          <g id="Grupo_141325" data-name="Grupo 141325" transform="translate(10.866 78.051)">
            <path id="Trazado_197547" data-name="Trazado 197547" d="M7239.529,2508.973l19.461,16.153Z" transform="translate(-7238.991 -2508.323)" fill="#fff"/>
            <rect id="Rectángulo_42249" data-name="Rectángulo 42249" width="1.689" height="25.29" transform="translate(0 1.3) rotate(-50.304)" fill="#969aa8"/>
          </g>
          <rect id="Rectángulo_42250" data-name="Rectángulo 42250" width="58.24" height="4.456" transform="translate(62.105 17.619) rotate(39.694)" fill="#969aa8"/>
        </g>
        <path id="hand-3" data-name="hand" d="M7269.039,2518.545c-2.638,3.134-6.157,6.36-8.028,8.91-4.06,5.458-31.963,23.661-37.06,26.1-7.511,3.587-27.067,6.5-27.067,6.5l-9.586-26.3s15.541-19.15,17.842-22.625c2.3-3.451,7.832-14.458,10.375-15.925,6.375-3.673,30.107-6.362,36.009-7.3l-1.221,14.971c-3.97,1.579-13.359,3.249-14.058,5.166-.768,2.144-2.685,11.346-.97,12.88,1.735,1.535,9.609-1.984,13.06-3.112,2.233-.722,4.242-2.481,6.09-4.105a33.319,33.319,0,0,1,2.841-2.369c2.483-1.736,11.1-4.69,14.167-1.736C7273.732,2511.845,7271.905,2515.138,7269.039,2518.545Z" transform="translate(-7182.271 -2437.274)" fill="#f9c0b9"/>
        <g id="sleeve" transform="translate(0 92.117)">
          <path id="Trazado_197548" data-name="Trazado 197548" d="M7186.764,2519.891l25.634,38.2-28.028,16.135v-54.337Z" transform="translate(-7183.242 -2518.763)" fill="#fff"/>
          <path id="Trazado_197549" data-name="Trazado 197549" d="M7184.651,2575.638a1.127,1.127,0,0,1-1.127-1.128v-54.339a1.127,1.127,0,0,1,1.127-1.127h2.395a1.125,1.125,0,0,1,.936.5l25.634,38.2a1.127,1.127,0,0,1-.375,1.605l-28.028,16.135A1.126,1.126,0,0,1,7184.651,2575.638Zm1.127-54.338v51.259L7211.069,2558l-24.626-36.7Z" transform="translate(-7183.523 -2519.044)" fill="#fff"/>
        </g>
      </g>
      <rect id="telephone-2" data-name="telephone" width="10.498" height="170.368" rx="1.825" transform="translate(0 14.119)" fill="#969aa8"/>
      <g id="bubbles" transform="translate(22.183 61.558)">
        <path id="Trazado_197550" data-name="Trazado 197550" d="M7203.314,2571.8a2.884,2.884,0,1,1-2.882-2.883A2.883,2.883,0,0,1,7203.314,2571.8Z" transform="translate(-7194.006 -2471.917)" fill="#fff"/>
        <path id="Trazado_197551" data-name="Trazado 197551" d="M7206.275,2565.18a1.736,1.736,0,1,1-1.737-1.736A1.736,1.736,0,0,1,7206.275,2565.18Z" transform="translate(-7192.261 -2473.736)" fill="#fff"/>
        <path id="Trazado_197552" data-name="Trazado 197552" d="M7299.658,2539.375a1.815,1.815,0,1,1-1.815-1.816A1.816,1.816,0,0,1,7299.658,2539.375Z" transform="translate(-7161.294 -2482.335)" fill="#fff"/>
        <path id="Trazado_197553" data-name="Trazado 197553" d="M7198.43,2497.876a1.77,1.77,0,1,1-1.771-1.771A1.77,1.77,0,0,1,7198.43,2497.876Z" transform="translate(-7194.889 -2496.105)" fill="#fff"/>
      </g>
    </g>
    <g id="doctor" transform="translate(1060.015 8093.164)">
      <path id="Trazado_197554" data-name="Trazado 197554" d="M7215.164,2555.771c-1.174-.09-6.049,1.173-8.127,4.334a27.291,27.291,0,0,0-3.893,10.249c-.441,3.024-1.706,6.456-.531,8.714s6.032,5.418,6.032,5.418v5.147h6.519v-6.863s9.595-6.863,9.538-12.371-.959-14.1-4.3-14.633A13.205,13.205,0,0,0,7215.164,2555.771Z" transform="translate(-7183.223 -2553.139)" fill="#f9c0b9"/>
      <path id="Trazado_197555" data-name="Trazado 197555" d="M7206.491,2569.979s4.784-1.354,4.424,1.988-4.063,3.563-4.063,3.563,0,6.008,2.8,7.814,7.134,1.265,8.308.722,11.647-10.293,10.655-18.24-7.675-13-13.726-12.1-6.771,2.438-7.766,8.4S7206.491,2569.979,7206.491,2569.979Z" transform="translate(-7182.134 -2553.622)" fill="#682f2c"/>
      <path id="Trazado_197556" data-name="Trazado 197556" d="M7200.395,2585.167s5.6-5.329,11.2-5.239,9.661,2.258,11.648,6.955S7200.395,2585.167,7200.395,2585.167Z" transform="translate(-7183.662 -2546.96)" fill="#0f2771"/>
      <path id="Trazado_197557" data-name="Trazado 197557" d="M7195.147,2695.281c-.714,1.286.994,1.445.994,1.445h17.517s.181,0,.9-.722l.722-.723a.691.691,0,0,0,.09.723,2.273,2.273,0,0,0,.994.722h5.869a1.855,1.855,0,0,0,1.174-.722c.451-.633.993-4.787.5-5.553s-18.015,0-18.015,0S7195.6,2694.469,7195.147,2695.281Z" transform="translate(-7185.035 -2519.055)" fill="#121e30"/>
      <path id="Trazado_197558" data-name="Trazado 197558" d="M7198.607,2654.717c0,.406,6.365,44.7,6.365,44.7h18.015l2.989-44.7Z" transform="translate(-7184.115 -2528.018)" fill="#969aa8"/>
      <g id="Grupo_141327" data-name="Grupo 141327" transform="translate(29.137 126.765)">
        <path id="Trazado_197559" data-name="Trazado 197559" d="M7211.9,2700.2a.8.8,0,0,1-.8-.781l-.812-43.835a.8.8,0,1,1,1.591-.027l.813,43.834a.8.8,0,0,1-.781.81Z" transform="translate(-7210.293 -2654.77)" fill="#121e30"/>
      </g>
      <g id="Grupo_141328" data-name="Grupo 141328" transform="translate(37.124 126.332)">
        <path id="Trazado_197560" data-name="Trazado 197560" d="M7217.461,2700.716a.805.805,0,0,1-.794-.85l2.989-44.7a.776.776,0,0,1,.848-.74.793.793,0,0,1,.74.847l-2.991,44.7A.793.793,0,0,1,7217.461,2700.716Z" transform="translate(-7216.665 -2654.425)" fill="#121e30"/>
      </g>
      <g id="Grupo_141329" data-name="Grupo 141329" transform="translate(0 36.685)">
        <path id="Trazado_197561" data-name="Trazado 197561" d="M7194.741,2587.378s10.724-4.425,19.663-4.484,19.569,7.526,19.569,7.526,10.5,25.384,9.416,32.061-12.19,19.259-12.19,19.259l.271,34.694-36.729.876v-41.95s-7.7-9.8-7.7-12.879S7194.741,2587.378,7194.741,2587.378Z" transform="translate(-7187.043 -2582.894)" fill="#fff"/>
      </g>
      <path id="Trazado_197562" data-name="Trazado 197562" d="M7206.924,2621.811a8.84,8.84,0,0,1,3.973.632,3.5,3.5,0,0,0,5.6,0c1.444-.361,5.508.166,5.508.166l1.175,10.4s-3.161,2.077-5.6,2.257-5.51-1.445-5.51-1.445a6.082,6.082,0,0,1-2.528.453c-1.625,0-7.584-5.736-7.584-5.736l2.167-7.719Z" transform="translate(-7183.266 -2536.604)" fill="#f9c0b9"/>
    </g>
  </g>
</svg>
