<svg xmlns="http://www.w3.org/2000/svg" width="40.321" height="44.135" viewBox="0 0 40.321 44.135">
  <g id="Grupo_148552" data-name="Grupo 148552" transform="translate(-1281 -8626.168)">
    <path id="Trazado_197589" data-name="Trazado 197589" d="M3489.181,5168.459a.694.694,0,0,0,0-1.389,7.522,7.522,0,1,1,3.048-14.4,3.557,3.557,0,0,1,1.268,1.06.694.694,0,0,0,1.191-.713,4.534,4.534,0,0,0-1.5-1.4,6.937,6.937,0,1,1,13.738.413,4.006,4.006,0,0,0-.916.985.7.7,0,0,0,.6,1.052.688.688,0,0,0,.594-.338,3.532,3.532,0,0,1,1.242-1.046,7.522,7.522,0,1,1,3.074,14.386.694.694,0,0,0,0,1.389,8.911,8.911,0,1,0-3.112-17.262c0-.1.006-.2.006-.305a8.327,8.327,0,0,0-16.655,0c0,.041,0,.082,0,.122a8.912,8.912,0,1,0-2.573,17.445Z" transform="translate(-2199.103 3483.604)" fill="#0f2771"/>
    <path id="Trazado_197590" data-name="Trazado 197590" d="M3536.872,5181.853c-1.641-.679-1.641-.914-1.641-1.086,0-.4.529-.46.844-.46a3.445,3.445,0,0,1,1.825.5,1.187,1.187,0,0,0,1.7-.61l.479-1.264a1.14,1.14,0,0,0-.422-1.444,6.5,6.5,0,0,0-1.816-.688v-.815a1.23,1.23,0,0,0-1.361-1.088h-1.187a1.008,1.008,0,0,0-1.062,1.088v1.006a4.06,4.06,0,0,0-2.954,4.011,3.754,3.754,0,0,0,1.181,2.85,7.964,7.964,0,0,0,2.673,1.563c1.416.574,1.416.967,1.416,1.179,0,.509-.591.69-1.1.69a3.879,3.879,0,0,1-2.1-.624,1.2,1.2,0,0,0-1.032-.139,1.178,1.178,0,0,0-.745.726l-.46,1.283a1.153,1.153,0,0,0,.371,1.366,6.608,6.608,0,0,0,2.377.933v.878a1.229,1.229,0,0,0,1.3,1.148h1.206a1.162,1.162,0,0,0,1.2-1.148v-1.077a4.373,4.373,0,0,0,3.02-4.17C3540.581,5185.128,3540.2,5183.209,3536.872,5181.853Zm-.173,7.583a.694.694,0,0,0-.527.673v1.351h-.926v-1.229a.694.694,0,0,0-.615-.689,6.333,6.333,0,0,1-2.172-.672l.332-.926a5.333,5.333,0,0,0,2.656.722,2.207,2.207,0,0,0,2.484-2.079c0-1.08-.682-1.818-2.289-2.469a6.7,6.7,0,0,1-2.226-1.274,2.4,2.4,0,0,1-.754-1.848,2.759,2.759,0,0,1,2.414-2.807.694.694,0,0,0,.54-.677v-1.233h.833v1.1a.694.694,0,0,0,.605.688,5.643,5.643,0,0,1,1.675.5l-.348.919a4.858,4.858,0,0,0-2.307-.563c-1.542,0-2.232.929-2.232,1.849,0,.886.387,1.5,2.5,2.37h0c2.846,1.161,2.846,2.617,2.846,3.316A3.044,3.044,0,0,1,3536.7,5189.436Z" transform="translate(-2234.825 3460.852)" fill="#0f2771"/>
    <path id="Trazado_197591" data-name="Trazado 197591" d="M3577.318,5240.962a17.714,17.714,0,0,1-.49-1.727.694.694,0,1,0-1.353.311,19.06,19.06,0,0,0,.528,1.863.694.694,0,1,0,1.314-.447Z" transform="translate(-2266.095 3415.947)" fill="#0f2771"/>
    <path id="Trazado_197592" data-name="Trazado 197592" d="M3574.677,5226.976h-.012a.694.694,0,0,0-.694.682c0,.013,0,.3.029.795a.694.694,0,0,0,.692.646h.048a.7.7,0,0,0,.645-.74c-.029-.421-.026-.669-.026-.677A.694.694,0,0,0,3574.677,5226.976Z" transform="translate(-2265.049 3424.195)" fill="#0f2771"/>
    <path id="Trazado_197593" data-name="Trazado 197593" d="M3545.654,5244.029a.694.694,0,0,0,.694-.694v-.093a.694.694,0,1,0-1.388,0v.093A.694.694,0,0,0,3545.654,5244.029Z" transform="translate(-2244.631 3413.236)" fill="#0f2771"/>
    <path id="Trazado_197594" data-name="Trazado 197594" d="M3543.055,5258.746v-7.378a.694.694,0,0,0-1.389,0v7.378a2.081,2.081,0,1,0,1.389,0Zm-.694,2.65a.692.692,0,1,1,.692-.692A.692.692,0,0,1,3542.36,5261.4Z" transform="translate(-2241.337 3407.518)" fill="#0f2771"/>
    <path id="Trazado_197595" data-name="Trazado 197595" d="M3588.4,5257.523a2.074,2.074,0,0,0-1.537.684,13.744,13.744,0,0,1-5.288-5.708.694.694,0,1,0-1.239.626,15.11,15.11,0,0,0,5.989,6.377c0,.034-.005.067-.005.1a2.081,2.081,0,1,0,2.081-2.081Zm0,2.773a.692.692,0,1,1,.692-.692A.693.693,0,0,1,3588.4,5260.3Z" transform="translate(-2269.476 3406.502)" fill="#0f2771"/>
    <path id="Trazado_197596" data-name="Trazado 197596" d="M3562.585,5244.874a39.962,39.962,0,0,1-1.49-8.678.694.694,0,0,0-1.387.064,40.527,40.527,0,0,0,1.565,9.07,1.878,1.878,0,1,0,1.312-.457Zm-.083,2.365a.491.491,0,1,1,.491-.491A.491.491,0,0,1,3562.5,5247.239Z" transform="translate(-2255.01 3418.172)" fill="#0f2771"/>
    <path id="Trazado_197597" data-name="Trazado 197597" d="M3489.544,5252.192a.7.7,0,0,0-.933.306,13.746,13.746,0,0,1-5.288,5.709,2.077,2.077,0,1,0,.543,1.4c0-.035,0-.068-.005-.1a15.107,15.107,0,0,0,5.989-6.377A.7.7,0,0,0,3489.544,5252.192Zm-7.758,8.1a.692.692,0,1,1,.692-.692A.692.692,0,0,1,3481.787,5260.3Z" transform="translate(-2198.706 3406.501)" fill="#0f2771"/>
    <path id="Trazado_197598" data-name="Trazado 197598" d="M3513.962,5238.714a.694.694,0,0,0-.832.521,17.783,17.783,0,0,1-.49,1.727.694.694,0,1,0,1.314.447,18.992,18.992,0,0,0,.528-1.863A.694.694,0,0,0,3513.962,5238.714Z" transform="translate(-2221.859 3415.947)" fill="#0f2771"/>
    <path id="Trazado_197599" data-name="Trazado 197599" d="M3516.362,5229.1h.048a.694.694,0,0,0,.692-.647c.033-.491.03-.782.029-.794a.694.694,0,0,0-.694-.682h-.011a.694.694,0,0,0-.684.7s0,.251-.026.677A.7.7,0,0,0,3516.362,5229.1Z" transform="translate(-2224.049 3424.195)" fill="#0f2771"/>
    <path id="Trazado_197600" data-name="Trazado 197600" d="M3522.994,5235.535a.693.693,0,0,0-.726.661,39.944,39.944,0,0,1-1.49,8.677,1.88,1.88,0,1,0,1.312.457,40.537,40.537,0,0,0,1.565-9.069A.694.694,0,0,0,3522.994,5235.535Zm-2.133,11.7a.49.49,0,1,1,.49-.491A.491.491,0,0,1,3520.861,5247.239Z" transform="translate(-2226.348 3418.172)" fill="#0f2771"/>
  </g>
</svg>
