<svg xmlns="http://www.w3.org/2000/svg" width="299.079" height="166.139" viewBox="0 0 299.079 166.139">
  <g id="Grupo_148527" data-name="Grupo 148527" transform="translate(-918 -1693.863)">
    <rect id="Rectángulo_41766" data-name="Rectángulo 41766" width="299.079" height="166.139" rx="17.313" transform="translate(918 1693.863)" fill="#4dd0e1"/>
    <g id="Grupo_139047" data-name="Grupo 139047" transform="translate(960.5 1698)">
      <g id="Grupo_138858" data-name="Grupo 138858" transform="translate(0 152.057)">
        <path id="Trazado_193409" data-name="Trazado 193409" d="M5496.75,2686.937c62.7,0,113.534,2.226,113.534,4.973s-50.83,4.972-113.534,4.972-113.536-2.226-113.536-4.972S5434.045,2686.937,5496.75,2686.937Z" transform="translate(-5383.214 -2686.937)" fill="#feca2e" fill-rule="evenodd"/>
      </g>
      <g id="Grupo_138859" data-name="Grupo 138859" transform="translate(11.984)">
        <path id="Trazado_193410" data-name="Trazado 193410" d="M5512.456,2487.664c26.408,0,50.712.394,70,1.056,47.2-26.978,30.854-79.564,13.908-109.31-23.585-41.4-79.318-56.276-102.37-23.246-31.29,44.832-61.475,29.187-77.773,63.236s8.454,66.689,26.237,69.32c19.286-.662,43.59-1.056,70-1.056Zm-41.356-114.8c-12.081,9.194-32.062,16.319-38.7,6.544-4.957-7.3,1.15-21.005,13.109-31.394s27.965-16.666,36.692-9.021C5492.56,2348.063,5480.4,2365.783,5471.1,2372.864Z" transform="translate(-5410.904 -2335.606)" fill="#fff" fill-rule="evenodd"/>
      </g>
      <g id="Grupo_138860" data-name="Grupo 138860" transform="translate(71.67 4.238)">
        <path id="Trazado_193411" data-name="Trazado 193411" d="M5627.288,2355.959c28.355,6.317,46.4,32.4,48.168,44.985.725,5.166-.62-6.924-15.084-17.932-12.929-9.839-22.992-11.661-38.373-12.85-10.869-.84-22.25-2.176-21.441-8.658.639-5.12,8.422-9.623,26.73-5.544Zm-74.147-10.548c4.882.293,7.853,4.3,8.058,8.924.087,1.967-1.458-3.175-6.869-3.891-3.357-.443-3.862.545-5.064-.84S5549.2,2345.175,5553.141,2345.411Z" transform="translate(-5548.81 -2345.398)" fill="#fff" fill-rule="evenodd"/>
      </g>
      <g id="Grupo_138869" data-name="Grupo 138869" transform="translate(182.035 103.031)">
        <path id="Trazado_193420" data-name="Trazado 193420" d="M5804.152,2577.062a17.2,17.2,0,0,0,.067,7.2c1.248,6.945,4.824,16.129,7.127,15.715s2.952-11.781,1.705-18.726c-1.229-6.854-3.632-7.892-5.909-7.521h0l-.091.015A11.658,11.658,0,0,1,5804.152,2577.062Z" transform="translate(-5803.809 -2573.66)" fill="#6998d0" fill-rule="evenodd"/>
      </g>
      <g id="Grupo_138870" data-name="Grupo 138870" transform="translate(184.544 103.031)">
        <path id="Trazado_193421" data-name="Trazado 193421" d="M5816.38,2581.475c-.013-.078-.025-.154-.04-.229-1.229-6.854-3.633-7.892-5.91-7.521h0l-.091.015q-.374.573-.731,1.06Q5813.9,2574.4,5816.38,2581.475Z" transform="translate(-5809.607 -2573.66)" fill="#406fb5" fill-rule="evenodd"/>
      </g>
      <g id="Grupo_138871" data-name="Grupo 138871" transform="translate(188.889 128.939)">
        <path id="Trazado_193422" data-name="Trazado 193422" d="M5820.983,2633.607c-1.673.405-1.613,2.6-.709,9.421s1.145,14.764,2.818,14.358,4.31-9.754,3.405-16.571S5822.657,2633.2,5820.983,2633.607Z" transform="translate(-5819.646 -2633.521)" fill="#6998d0" fill-rule="evenodd"/>
      </g>
      <g id="Grupo_138872" data-name="Grupo 138872" transform="translate(177.647 128.922)">
        <path id="Trazado_193423" data-name="Trazado 193423" d="M5795.323,2633.511c-1.641.229-1.792,2.339-1.572,8.949s-.3,14.24,1.335,14.01,5.051-8.926,4.831-15.537S5796.963,2633.281,5795.323,2633.511Z" transform="translate(-5793.671 -2633.482)" fill="#6998d0" fill-rule="evenodd"/>
      </g>
      <g id="Grupo_138873" data-name="Grupo 138873" transform="translate(176.136 104.571)">
        <path id="Trazado_193424" data-name="Trazado 193424" d="M5792.164,2577.22c-.862,1.261-1.513,3.406-1.813,6.875-.61,7.03.445,16.829,2.777,17.031,1.632.142,3.456-4.448,4.614-9.624a50.861,50.861,0,0,1-1.252-5.226,17.216,17.216,0,0,1-.068-7.2C5794.892,2580.092,5793.554,2579.521,5792.164,2577.22Z" transform="translate(-5790.181 -2577.22)" fill="#6998d0" fill-rule="evenodd"/>
      </g>
      <g id="Grupo_138874" data-name="Grupo 138874" transform="translate(171.207 152.417)">
        <path id="Trazado_193425" data-name="Trazado 193425" d="M5778.793,2690.739a89.987,89.987,0,0,0,10,.161q-.135-2.638-1.865-3.108-1.277-.211-3.865,1.378Q5778.663,2688.822,5778.793,2690.739Z" transform="translate(-5778.79 -2687.767)" fill="#6998d0" fill-rule="evenodd"/>
      </g>
      <g id="Grupo_138875" data-name="Grupo 138875" transform="translate(184.933 153.125)">
        <path id="Trazado_193426" data-name="Trazado 193426" d="M5810.51,2692.376a90.381,90.381,0,0,0,10,.162q-.138-2.638-1.866-3.109-1.276-.209-3.866,1.379Q5810.38,2690.461,5810.51,2692.376Z" transform="translate(-5810.506 -2689.405)" fill="#6998d0" fill-rule="evenodd"/>
      </g>
      <g id="Grupo_138876" data-name="Grupo 138876" transform="translate(188.466 127.33)">
        <path id="Trazado_193427" data-name="Trazado 193427" d="M5820.387,2629.8a1.717,1.717,0,1,0,1.716,1.717A1.717,1.717,0,0,0,5820.387,2629.8Z" transform="translate(-5818.669 -2629.803)" fill="#0f3d86" fill-rule="evenodd"/>
      </g>
      <g id="Grupo_138877" data-name="Grupo 138877" transform="translate(177.829 127.073)">
        <path id="Trazado_193428" data-name="Trazado 193428" d="M5795.808,2629.21a1.717,1.717,0,1,0,1.716,1.717A1.718,1.718,0,0,0,5795.808,2629.21Z" transform="translate(-5794.091 -2629.21)" fill="#0f3d86" fill-rule="evenodd"/>
      </g>
      <g id="Grupo_138878" data-name="Grupo 138878" transform="translate(191.932 151.819)">
        <path id="Trazado_193429" data-name="Trazado 193429" d="M5827.8,2686.386a1.122,1.122,0,1,0,1.122,1.122A1.122,1.122,0,0,0,5827.8,2686.386Z" transform="translate(-5826.677 -2686.386)" fill="#0f3d86" fill-rule="evenodd"/>
      </g>
      <g id="Grupo_138879" data-name="Grupo 138879" transform="translate(178.038 150.88)">
        <path id="Trazado_193430" data-name="Trazado 193430" d="M5795.7,2684.216a1.121,1.121,0,1,0,1.122,1.121A1.122,1.122,0,0,0,5795.7,2684.216Z" transform="translate(-5794.574 -2684.216)" fill="#0f3d86" fill-rule="evenodd"/>
      </g>
      <g id="Grupo_138880" data-name="Grupo 138880" transform="translate(173.448 83.039)">
        <path id="Trazado_193431" data-name="Trazado 193431" d="M5799.675,2529.7q-.666-2.273-5.233-2.227c.036.215.067.406.088.569q-1.768,3.1-4.108,2.974-1.1-.678.4-2.784a1.2,1.2,0,0,0,.3-.493q-1.256.169-2.694.448-7.173,4.668-2.811,11.245,3.667,1.749,10.6-.54Q5800.647,2536.426,5799.675,2529.7Z" transform="translate(-5783.968 -2527.469)" fill="#6998d0" fill-rule="evenodd"/>
      </g>
      <g id="Grupo_138881" data-name="Grupo 138881" transform="translate(175.071 94.372)">
        <path id="Trazado_193432" data-name="Trazado 193432" d="M5790.768,2563.854c-.857-3.5-2.852-6.619-3.05-9.612l.027.039q3.668,1.749,10.6-.54l.151-.086a16.255,16.255,0,0,0-.477,8.724c-.03,0-.075-.011-.093.015C5795.03,2566.806,5792.961,2567.489,5790.768,2563.854Z" transform="translate(-5787.718 -2553.654)" fill="#6998d0" fill-rule="evenodd"/>
      </g>
      <g id="Grupo_138882" data-name="Grupo 138882" transform="translate(180.58 106.433)">
        <path id="Trazado_193433" data-name="Trazado 193433" d="M5801.754,2595.9a28.09,28.09,0,0,1-.759-13.909,2.626,2.626,0,0,0,1.25-.474,17.208,17.208,0,0,0,.068,7.2,50.882,50.882,0,0,0,1.251,5.225,29.182,29.182,0,0,1-2.9,8.263Q5802.547,2598.3,5801.754,2595.9Z" transform="translate(-5800.448 -2581.52)" fill="#406fb5" fill-rule="evenodd"/>
      </g>
      <g id="Grupo_138883" data-name="Grupo 138883" transform="translate(180.496 129.31)">
        <path id="Trazado_193434" data-name="Trazado 193434" d="M5803.15,2646.994q-.4-8.808-2.9-11.705a1.719,1.719,0,0,0,.685-.91c1.308.736,2.565,2.669,2.711,7.062A25.632,25.632,0,0,1,5803.15,2646.994Z" transform="translate(-5800.253 -2634.379)" fill="#406fb5" fill-rule="evenodd"/>
      </g>
      <g id="Grupo_138884" data-name="Grupo 138884" transform="translate(191.422 129.086)">
        <path id="Trazado_193435" data-name="Trazado 193435" d="M5829.982,2645q-1.1-7.328-4.484-9.994a1.708,1.708,0,0,0,.477-1.149c1.516.485,3.2,2.285,3.841,7.148A24.049,24.049,0,0,1,5829.982,2645Z" transform="translate(-5825.499 -2633.86)" fill="#406fb5" fill-rule="evenodd"/>
      </g>
      <g id="Grupo_138885" data-name="Grupo 138885" transform="translate(186.517 84.08)">
        <path id="Trazado_193436" data-name="Trazado 193436" d="M5816.436,2529.875a2.809,2.809,0,1,0,2.271,2.756A2.549,2.549,0,0,0,5816.436,2529.875Z" transform="translate(-5814.166 -2529.875)" fill="#0f3d86" fill-rule="evenodd"/>
      </g>
      <g id="Grupo_138886" data-name="Grupo 138886" transform="translate(187.642 85.293)">
        <path id="Trazado_193437" data-name="Trazado 193437" d="M5817.044,2533.291c-.775.8.02,1.984,2.877,5.4s5.742,7.687,6.518,6.885-1.021-6.834-3.877-10.253S5817.82,2532.488,5817.044,2533.291Z" transform="translate(-5816.764 -2532.676)" fill="#6998d0" fill-rule="evenodd"/>
      </g>
      <g id="Grupo_138887" data-name="Grupo 138887" transform="translate(167.885 85.437)">
        <path id="Trazado_193438" data-name="Trazado 193438" d="M5778.991,2533.01c-.83.155-2,.88-3.558,2.617-2.425,2.7-4.921,6.037-4.185,6.57.555.4,3.337-.719,5.712-2.451A6.374,6.374,0,0,1,5778.991,2533.01Z" transform="translate(-5771.117 -2533.01)" fill="#6998d0" fill-rule="evenodd"/>
      </g>
      <g id="Grupo_138888" data-name="Grupo 138888" transform="translate(191.449 98.638)">
        <path id="Trazado_193439" data-name="Trazado 193439" d="M5831.205,2563.566c-.715-.293-1.272.523-2.738,3.244s-3.473,5.677-2.755,5.97,4.137-2.417,5.6-5.137S5831.922,2563.86,5831.205,2563.566Z" transform="translate(-5825.562 -2563.51)" fill="#6998d0" fill-rule="evenodd"/>
      </g>
      <g id="Grupo_138889" data-name="Grupo 138889" transform="translate(159.703 86.503)">
        <path id="Trazado_193440" data-name="Trazado 193440" d="M5759.834,2543.185c.462-.62-.188-1.364-2.457-3.463s-4.631-4.779-5.093-4.159,1.306,4.61,3.574,6.708S5759.371,2543.8,5759.834,2543.185Z" transform="translate(-5752.21 -2535.473)" fill="#6998d0" fill-rule="evenodd"/>
      </g>
      <g id="Grupo_138890" data-name="Grupo 138890" transform="translate(196.249 97.38)">
        <path id="Trazado_193441" data-name="Trazado 193441" d="M5837.651,2560.6a1,1,0,1,0,1,1A1,1,0,0,0,5837.651,2560.6Z" transform="translate(-5836.652 -2560.604)" fill="#0f3970" fill-rule="evenodd"/>
      </g>
      <g id="Grupo_138891" data-name="Grupo 138891" transform="translate(166.59 93.444)">
        <path id="Trazado_193442" data-name="Trazado 193442" d="M5770.094,2552.759a1,1,0,1,0-1.219.72A1,1,0,0,0,5770.094,2552.759Z" transform="translate(-5768.125 -2551.509)" fill="#0f3970" fill-rule="evenodd"/>
      </g>
      <g id="Grupo_138892" data-name="Grupo 138892" transform="translate(188.313 107.364)">
        <path id="Trazado_193443" data-name="Trazado 193443" d="M5821.878,2585.02a.305.305,0,0,0-.519-.321,5.943,5.943,0,0,0-.692,1.558,4.965,4.965,0,0,0-.174,1.6.307.307,0,0,0,.612-.033,4.312,4.312,0,0,1,.15-1.407,5.377,5.377,0,0,1,.622-1.4Zm-.585-.652a.3.3,0,0,1-.134.382,5.56,5.56,0,0,0-1.67,1.325,2.425,2.425,0,0,0-.564,1.433.305.305,0,1,1-.61-.021,3.017,3.017,0,0,1,.7-1.793,5.907,5.907,0,0,1,1.665-1.371,1.318,1.318,0,0,0-.68.009.8.8,0,0,0-.481.533.307.307,0,1,1-.578-.207,1.377,1.377,0,0,1,.862-.906,2.239,2.239,0,0,1,1.4.079.306.306,0,0,1,.089.536Z" transform="translate(-5818.314 -2583.673)" fill="#0f3970" fill-rule="evenodd"/>
      </g>
      <g id="Grupo_138893" data-name="Grupo 138893" transform="translate(156.16 82.582)">
        <path id="Trazado_193444" data-name="Trazado 193444" d="M5746.794,2530.491a.3.3,0,1,0,.439-.423,5.922,5.922,0,0,0-1.335-1.059,4.949,4.949,0,0,0-1.507-.567.306.306,0,1,0-.119.6,4.4,4.4,0,0,1,1.324.5,5.418,5.418,0,0,1,1.2.951Zm.778-.4a.307.307,0,0,1-.338-.227,5.54,5.54,0,0,0-.864-1.948,2.424,2.424,0,0,0-1.248-.905.306.306,0,0,1,.174-.586,3.034,3.034,0,0,1,1.563,1.123,5.926,5.926,0,0,1,.911,1.955,1.32,1.32,0,0,0,.161-.66.8.8,0,0,0-.4-.6.306.306,0,1,1,.344-.507,1.376,1.376,0,0,1,.663,1.061,2.253,2.253,0,0,1-.428,1.339.306.306,0,0,1-.541-.046Z" transform="translate(-5744.026 -2526.412)" fill="#0f3970" fill-rule="evenodd"/>
      </g>
      <g id="Grupo_138894" data-name="Grupo 138894" transform="translate(190.842 107.151)">
        <path id="Trazado_193445" data-name="Trazado 193445" d="M5824.916,2583.181a.757.757,0,1,0,.756.757A.757.757,0,0,0,5824.916,2583.181Z" transform="translate(-5824.157 -2583.181)" fill="#0f3970" fill-rule="evenodd"/>
      </g>
      <g id="Grupo_138895" data-name="Grupo 138895" transform="translate(159.019 85.836)">
        <path id="Trazado_193446" data-name="Trazado 193446" d="M5752.122,2534.878a.757.757,0,1,0-.923.544A.757.757,0,0,0,5752.122,2534.878Z" transform="translate(-5750.632 -2533.932)" fill="#0f3970" fill-rule="evenodd"/>
      </g>
      <g id="Grupo_138896" data-name="Grupo 138896" transform="translate(174.132 83.565)">
        <path id="Trazado_193447" data-name="Trazado 193447" d="M5787.948,2528.685c-1.325,0-2.4,1.716-2.4,3.833,0,.052,0,.105,0,.157a10.275,10.275,0,0,1,3.46-3.592A1.7,1.7,0,0,0,5787.948,2528.685Z" transform="translate(-5785.55 -2528.685)" fill="#0f3d86" fill-rule="evenodd"/>
      </g>
      <g id="Grupo_138897" data-name="Grupo 138897" transform="translate(184.793 89.386)">
        <path id="Trazado_193448" data-name="Trazado 193448" d="M5810.182,2547.49q3.075-2.948,3.126-5.357a1.927,1.927,0,0,0,.869.208,1.955,1.955,0,0,0,.366-.035,6.732,6.732,0,0,1-3.309,4.813l-.151.086Q5810.625,2547.356,5810.182,2547.49Z" transform="translate(-5810.182 -2542.133)" fill="#406fb5" fill-rule="evenodd"/>
      </g>
      <g id="Grupo_138898" data-name="Grupo 138898" transform="translate(177.648 99.135)">
        <path id="Trazado_193449" data-name="Trazado 193449" d="M5793.674,2568.491q2.626,2.358,7.34-3.832a14.661,14.661,0,0,0,.38,3.961c-.031,0-.076-.011-.093.015q-.374.573-.731,1.06a9.242,9.242,0,0,1-2.167,2.261,2.63,2.63,0,0,1-1.251.474c-1.036.078-2.008-.681-3.006-2.335C5794.013,2569.551,5793.852,2569.017,5793.674,2568.491Z" transform="translate(-5793.674 -2564.659)" fill="#0f3d86" fill-rule="evenodd"/>
      </g>
      <g id="Grupo_138899" data-name="Grupo 138899" transform="translate(179.437 80.009)">
        <path id="Trazado_193450" data-name="Trazado 193450" d="M5799.144,2522.585a2.38,2.38,0,0,1-.468,1.673q-1.5,2.107-.405,2.784,2.34.123,4.109-2.974a28.409,28.409,0,0,1-.441-3.6C5800.568,2521.266,5799.949,2522.16,5799.144,2522.585Z" transform="translate(-5797.807 -2520.468)" fill="#0f3970" fill-rule="evenodd"/>
      </g>
      <g id="Grupo_138900" data-name="Grupo 138900" transform="translate(168.936 86.753)">
        <path id="Trazado_193451" data-name="Trazado 193451" d="M5777.429,2540.9a8.107,8.107,0,0,1,1.344-4.845,6.186,6.186,0,0,0-.033.645l0,.157a5.986,5.986,0,0,0-.4,4.618,15.548,15.548,0,0,1-4.794,2.454A5.8,5.8,0,0,0,5777.429,2540.9Z" transform="translate(-5773.543 -2536.051)" fill="#406fb5" fill-rule="evenodd"/>
      </g>
      <g id="Grupo_138901" data-name="Grupo 138901" transform="translate(175.898 69.611)">
        <path id="Trazado_193452" data-name="Trazado 193452" d="M5801.6,2501.668c-.136,4.074-1.7,4.373-3.553,4.787-2.688,1.23-2.954,2.964-4.893,2.73q-2.219-.493-3.189-3.677a8.662,8.662,0,0,1,.485-6.1C5793.04,2494.146,5801.5,2496.506,5801.6,2501.668Z" transform="translate(-5789.63 -2496.443)" fill="#6998d0" fill-rule="evenodd"/>
      </g>
      <g id="Grupo_138902" data-name="Grupo 138902" transform="translate(182.274 73.217)">
        <path id="Trazado_193453" data-name="Trazado 193453" d="M5806.118,2504.776c-.97,0-1.756,1.089-1.756,2.432s.786,2.433,1.756,2.433,1.758-1.089,1.758-2.433S5807.09,2504.776,5806.118,2504.776Z" transform="translate(-5804.362 -2504.776)" fill="#fff" fill-rule="evenodd"/>
      </g>
      <g id="Grupo_138903" data-name="Grupo 138903" transform="translate(183.467 74.292)">
        <path id="Trazado_193454" data-name="Trazado 193454" d="M5808.128,2507.258c-.558,0-1.01.627-1.01,1.4s.452,1.4,1.01,1.4,1.01-.626,1.01-1.4S5808.686,2507.258,5808.128,2507.258Z" transform="translate(-5807.118 -2507.258)" fill="#406fb5" fill-rule="evenodd"/>
      </g>
      <g id="Grupo_138904" data-name="Grupo 138904" transform="translate(175.897 75.192)">
        <path id="Trazado_193455" data-name="Trazado 193455" d="M5789.631,2510.059a8.683,8.683,0,0,0,6.405-.721,3.207,3.207,0,0,0-.031.458,3.244,3.244,0,0,0,.131.925q-3.781,3.29-6.26,1.744A10.08,10.08,0,0,1,5789.631,2510.059Z" transform="translate(-5789.628 -2509.338)" fill="#0f3d86" fill-rule="evenodd"/>
      </g>
      <g id="Grupo_138905" data-name="Grupo 138905" transform="translate(175.077 87.32)">
        <path id="Trazado_193456" data-name="Trazado 193456" d="M5789.8,2544.16c-.344.875-1.239.932-2.064.929a12.268,12.268,0,0,0,7.338.3,15.165,15.165,0,0,1-3.045-.234c-1.724-.521-2.089-3.454.176-7.8A11.068,11.068,0,0,0,5789.8,2544.16Z" transform="translate(-5787.734 -2537.36)" fill="#406fb5" fill-rule="evenodd"/>
      </g>
      <g id="Grupo_138906" data-name="Grupo 138906" transform="translate(132.716 87.228)">
        <path id="Trazado_193457" data-name="Trazado 193457" d="M5695.98,2544.823c-.38,5.217-1.149,5.936-6.122,6.337,4.973.4,5.742,1.122,6.122,6.338.379-5.216,1.15-5.936,6.122-6.338-4.972-.4-5.743-1.12-6.122-6.337Zm20.215,13.757c-.2,2.785-.615,3.168-3.269,3.382,2.654.215,3.065.6,3.269,3.384.2-2.785.614-3.169,3.269-3.384-2.655-.214-3.066-.6-3.269-3.382Zm-8.854-21.433c-.206,2.82-.622,3.209-3.311,3.427,2.689.218,3.1.607,3.311,3.427.206-2.82.622-3.209,3.311-3.427C5707.963,2540.356,5707.547,2539.967,5707.342,2537.147Z" transform="translate(-5689.858 -2537.147)" fill="#fff" fill-rule="evenodd"/>
      </g>
      <g id="Grupo_138907" data-name="Grupo 138907" transform="translate(91.039 38.364)">
        <path id="Trazado_193458" data-name="Trazado 193458" d="M5617.045,2444.768c.38-5.216,1.149-5.936,6.123-6.337-4.973-.4-5.742-1.121-6.123-6.338-.38,5.216-1.149,5.936-6.123,6.338,4.974.4,5.743,1.121,6.123,6.337Zm-20.215-13.757c.2-2.784.613-3.168,3.269-3.384-2.656-.214-3.066-.6-3.269-3.383-.2,2.784-.613,3.168-3.269,3.383,2.655.215,3.065.6,3.269,3.384Zm8.854,21.433c.2-2.82.622-3.21,3.311-3.427-2.689-.217-3.106-.606-3.311-3.427-.205,2.821-.622,3.21-3.312,3.427C5605.062,2449.235,5605.478,2449.625,5605.683,2452.445Z" transform="translate(-5593.561 -2424.245)" fill="#fff" fill-rule="evenodd"/>
      </g>
      <g id="Grupo_138908" data-name="Grupo 138908" transform="translate(144.444 20.341)">
        <path id="Trazado_193459" data-name="Trazado 193459" d="M5736.3,2409.071a7.125,7.125,0,1,1,7.125-7.126,7.127,7.127,0,0,1-7.125,7.126Zm15.415-7.126a5.423,5.423,0,0,1,3.928-5.223,19.767,19.767,0,0,0-1.983-4.766,5.431,5.431,0,0,1-6.426-.881l-.038-.039-.039-.051h-.013c-.168-.168-.348-.34-.516-.5.137.129.294.269.439.41a5.389,5.389,0,0,1-.789-6.308,19.619,19.619,0,0,0-4.758-1.98,5.435,5.435,0,0,1-10.44,0,19.976,19.976,0,0,0-4.768,1.98,5.389,5.389,0,0,1-.828,6.362l.438-.417c-.166.17-.348.339-.519.507l-.086.093a5.439,5.439,0,0,1-6.377.827,19.8,19.8,0,0,0-1.982,4.766,5.426,5.426,0,0,1,0,10.43,19.788,19.788,0,0,0,1.982,4.769,5.44,5.44,0,0,1,6.417.867l.035.054.04.025a5.41,5.41,0,0,1,.88,6.423,19.891,19.891,0,0,0,4.768,1.98,5.46,5.46,0,0,1,5.015-3.922h.413a5.457,5.457,0,0,1,5.012,3.922,19.6,19.6,0,0,0,4.758-1.98,5.437,5.437,0,0,1,.853-6.385l.013-.013.117-.115a5.425,5.425,0,0,1,6.4-.856,20.19,20.19,0,0,0,1.983-4.769A5.414,5.414,0,0,1,5751.712,2401.945Z" transform="translate(-5716.955 -2382.604)" fill="#d0d9ee" fill-rule="evenodd"/>
      </g>
      <g id="Grupo_138909" data-name="Grupo 138909" transform="translate(156.663 32.558)">
        <path id="Trazado_193460" data-name="Trazado 193460" d="M5752.311,2423.382a5.429,5.429,0,1,1,5.427-5.426,5.424,5.424,0,0,1-5.427,5.426Zm0-12.55a7.125,7.125,0,1,0,7.125,7.124A7.116,7.116,0,0,0,5752.311,2410.832Z" transform="translate(-5745.188 -2410.832)" fill="#f2f2f3" fill-rule="evenodd"/>
      </g>
      <g id="Grupo_138910" data-name="Grupo 138910" transform="translate(152.803 28.218)">
        <path id="Trazado_193461" data-name="Trazado 193461" d="M5736.343,2401.358l-.074.093.086-.093Zm.094-.09.437-.417c-.167.17-.348.339-.519.507l.083-.09Zm10.609,26.4.206.009.207-.009Zm10.972-26.456c-.145-.141-.3-.281-.439-.41.169.164.347.335.516.5Z" transform="translate(-5736.269 -2400.804)" fill="#bac1c2" fill-rule="evenodd"/>
      </g>
      <g id="Grupo_138911" data-name="Grupo 138911" transform="translate(148.371 24.267)">
        <path id="Trazado_193462" data-name="Trazado 193462" d="M5741.445,2418.373a11.288,11.288,0,1,1,11.29-11.283,11.281,11.281,0,0,1-11.29,11.283Zm10.932-22.153-.034-.031-.045-.053a15.418,15.418,0,0,0-21.8,21.806l.047.038.034.033a15.405,15.405,0,0,0,21.7.037l.012-.016.052-.054.055-.047.011-.008a15.427,15.427,0,0,0-.031-21.705Z" transform="translate(-5726.029 -2391.675)" fill="#bcc9e7" fill-rule="evenodd"/>
      </g>
      <g id="Grupo_138912" data-name="Grupo 138912" transform="translate(156.663 32.558)">
        <path id="Trazado_193463" data-name="Trazado 193463" d="M5752.311,2423.382a5.429,5.429,0,1,1,5.427-5.426,5.424,5.424,0,0,1-5.427,5.426Zm0-12.55a7.125,7.125,0,1,0,7.125,7.124A7.116,7.116,0,0,0,5752.311,2410.832Z" transform="translate(-5745.188 -2410.832)" fill="#fff" fill-rule="evenodd"/>
      </g>
      <g id="Grupo_138913" data-name="Grupo 138913" transform="translate(112.355 17.794)">
        <path id="Trazado_193464" data-name="Trazado 193464" d="M5656,2394.758a4.856,4.856,0,1,1,4.855-4.857,4.858,4.858,0,0,1-4.855,4.857Zm10.5-4.857a3.7,3.7,0,0,1,2.676-3.559,13.382,13.382,0,0,0-1.351-3.249,3.7,3.7,0,0,1-4.379-.6l-.027-.027-.024-.034h-.009c-.116-.115-.238-.233-.353-.344.095.087.2.184.3.28a3.673,3.673,0,0,1-.539-4.3,13.322,13.322,0,0,0-3.242-1.349,3.7,3.7,0,0,1-7.115,0,13.548,13.548,0,0,0-3.249,1.349,3.673,3.673,0,0,1-.565,4.336l.3-.285c-.114.116-.237.231-.353.346l-.059.063a3.706,3.706,0,0,1-4.347.564,13.52,13.52,0,0,0-1.351,3.249,3.7,3.7,0,0,1,0,7.107,13.52,13.52,0,0,0,1.351,3.251,3.706,3.706,0,0,1,4.373.591l.024.036.027.018a3.688,3.688,0,0,1,.6,4.377,13.528,13.528,0,0,0,3.249,1.349,3.722,3.722,0,0,1,3.418-2.673h.281a3.72,3.72,0,0,1,3.416,2.673,13.321,13.321,0,0,0,3.242-1.349,3.707,3.707,0,0,1,.583-4.352l.009-.008.079-.079a3.7,3.7,0,0,1,4.36-.583,13.7,13.7,0,0,0,1.351-3.251A3.69,3.69,0,0,1,5666.5,2389.9Z" transform="translate(-5642.813 -2376.72)" fill="#d0d9ee" fill-rule="evenodd"/>
      </g>
      <g id="Grupo_138914" data-name="Grupo 138914" transform="translate(120.683 26.122)">
        <path id="Trazado_193465" data-name="Trazado 193465" d="M5666.91,2404.512a3.7,3.7,0,1,1,3.7-3.7,3.7,3.7,0,0,1-3.7,3.7Zm0-8.552a4.856,4.856,0,1,0,4.855,4.854A4.849,4.849,0,0,0,5666.91,2395.96Z" transform="translate(-5662.054 -2395.96)" fill="#f2f2f3" fill-rule="evenodd"/>
      </g>
      <g id="Grupo_138915" data-name="Grupo 138915" transform="translate(118.053 23.163)">
        <path id="Trazado_193466" data-name="Trazado 193466" d="M5656.028,2389.5l-.05.063.06-.063Zm.064-.061.3-.285c-.113.116-.237.232-.353.346l.055-.061Zm7.231,17.994.14.007.141-.007Zm7.478-18.031c-.1-.1-.205-.192-.3-.28.115.111.236.229.353.344Z" transform="translate(-5655.978 -2389.123)" fill="#bac1c2" fill-rule="evenodd"/>
      </g>
      <g id="Grupo_138916" data-name="Grupo 138916" transform="translate(115.031 20.471)">
        <path id="Trazado_193467" data-name="Trazado 193467" d="M5659.5,2401.1a7.694,7.694,0,1,1,7.694-7.689,7.688,7.688,0,0,1-7.694,7.689Zm7.451-15.1-.024-.022-.029-.035a10.509,10.509,0,0,0-14.861,14.861l.032.026.023.023a10.5,10.5,0,0,0,14.792.024l.009-.011.033-.036.038-.032.008-.006a10.513,10.513,0,0,0-.021-14.792Z" transform="translate(-5648.995 -2382.903)" fill="#bcc9e7" fill-rule="evenodd"/>
      </g>
      <g id="Grupo_138917" data-name="Grupo 138917" transform="translate(120.683 26.122)">
        <path id="Trazado_193468" data-name="Trazado 193468" d="M5666.91,2404.512a3.7,3.7,0,1,1,3.7-3.7,3.7,3.7,0,0,1-3.7,3.7Zm0-8.552a4.856,4.856,0,1,0,4.855,4.854A4.849,4.849,0,0,0,5666.91,2395.96Z" transform="translate(-5662.054 -2395.96)" fill="#fff" fill-rule="evenodd"/>
      </g>
      <g id="Grupo_138918" data-name="Grupo 138918" transform="translate(34.616 28.374)">
        <path id="Trazado_193469" data-name="Trazado 193469" d="M5476.376,2419.2a4.855,4.855,0,1,1,4.856-4.857,4.857,4.857,0,0,1-4.856,4.857Zm10.506-4.857a3.7,3.7,0,0,1,2.675-3.56,13.389,13.389,0,0,0-1.351-3.248,3.7,3.7,0,0,1-4.38-.6l-.025-.027-.026-.034h-.008c-.116-.114-.238-.232-.352-.342.093.086.2.182.3.278a3.671,3.671,0,0,1-.538-4.3,13.352,13.352,0,0,0-3.243-1.351,3.7,3.7,0,0,1-7.116,0,13.582,13.582,0,0,0-3.249,1.351,3.671,3.671,0,0,1-.563,4.335l.3-.284c-.113.115-.237.231-.353.345l-.06.064a3.706,3.706,0,0,1-4.346.563,13.5,13.5,0,0,0-1.35,3.248,3.7,3.7,0,0,1,0,7.109,13.5,13.5,0,0,0,1.35,3.25,3.709,3.709,0,0,1,4.374.59l.024.037.026.017a3.686,3.686,0,0,1,.6,4.377,13.561,13.561,0,0,0,3.249,1.35,3.723,3.723,0,0,1,3.419-2.673h.281a3.717,3.717,0,0,1,3.416,2.673,13.332,13.332,0,0,0,3.243-1.35,3.7,3.7,0,0,1,.582-4.351l.009-.009.08-.079a3.7,3.7,0,0,1,4.36-.583,13.723,13.723,0,0,0,1.351-3.25A3.688,3.688,0,0,1,5486.882,2414.345Z" transform="translate(-5463.194 -2401.163)" fill="#d0d9ee" fill-rule="evenodd"/>
      </g>
      <g id="Grupo_138919" data-name="Grupo 138919" transform="translate(42.944 36.701)">
        <path id="Trazado_193470" data-name="Trazado 193470" d="M5487.29,2428.956a3.7,3.7,0,1,1,3.7-3.7,3.7,3.7,0,0,1-3.7,3.7Zm0-8.553a4.856,4.856,0,1,0,4.856,4.854A4.848,4.848,0,0,0,5487.29,2420.4Z" transform="translate(-5482.436 -2420.403)" fill="#f2f2f3" fill-rule="evenodd"/>
      </g>
      <g id="Grupo_138920" data-name="Grupo 138920" transform="translate(40.313 33.743)">
        <path id="Trazado_193471" data-name="Trazado 193471" d="M5476.409,2413.946l-.052.064.06-.064Zm.063-.061.3-.284c-.114.115-.237.231-.353.345l.055-.061Zm7.232,17.994.139.006.141-.006Zm7.477-18.031c-.1-.1-.206-.193-.3-.279.115.11.237.228.352.343Z" transform="translate(-5476.357 -2413.569)" fill="#bac1c2" fill-rule="evenodd"/>
      </g>
      <g id="Grupo_138921" data-name="Grupo 138921" transform="translate(37.292 31.05)">
        <path id="Trazado_193472" data-name="Trazado 193472" d="M5479.883,2425.542a7.693,7.693,0,1,1,7.7-7.69,7.688,7.688,0,0,1-7.7,7.69Zm7.452-15.1-.023-.021-.029-.036a10.509,10.509,0,0,0-14.861,14.862l.032.025.022.023a10.5,10.5,0,0,0,14.793.025l.008-.011.035-.037.036-.033.009,0a10.517,10.517,0,0,0-.022-14.793Z" transform="translate(-5469.377 -2407.347)" fill="#bcc9e7" fill-rule="evenodd"/>
      </g>
      <g id="Grupo_138922" data-name="Grupo 138922" transform="translate(42.944 36.701)">
        <path id="Trazado_193473" data-name="Trazado 193473" d="M5487.29,2428.956a3.7,3.7,0,1,1,3.7-3.7,3.7,3.7,0,0,1-3.7,3.7Zm0-8.553a4.856,4.856,0,1,0,4.856,4.854A4.848,4.848,0,0,0,5487.29,2420.4Z" transform="translate(-5482.436 -2420.403)" fill="#fff" fill-rule="evenodd"/>
      </g>
      <g id="Grupo_138923" data-name="Grupo 138923" transform="translate(121.514 47.186)">
        <path id="Trazado_193474" data-name="Trazado 193474" d="M5674.953,2459.65a4.044,4.044,0,1,1,4.043-4.044,4.045,4.045,0,0,1-4.043,4.044Zm8.748-4.044a3.077,3.077,0,0,1,2.229-2.964,11.171,11.171,0,0,0-1.125-2.705,3.081,3.081,0,0,1-3.647-.5l-.021-.022-.021-.029h-.008c-.1-.1-.2-.193-.292-.286.079.073.167.152.248.232a3.057,3.057,0,0,1-.447-3.579,11.132,11.132,0,0,0-2.7-1.125,3.084,3.084,0,0,1-5.926,0,11.327,11.327,0,0,0-2.705,1.125,3.059,3.059,0,0,1-.469,3.61l.247-.236c-.094.1-.2.192-.294.287l-.048.053a3.089,3.089,0,0,1-3.622.469,11.3,11.3,0,0,0-1.124,2.705,3.079,3.079,0,0,1,0,5.919,11.286,11.286,0,0,0,1.124,2.707,3.089,3.089,0,0,1,3.643.491l.02.031.022.014a3.071,3.071,0,0,1,.5,3.646,11.274,11.274,0,0,0,2.705,1.124,3.1,3.1,0,0,1,2.847-2.225h.234a3.1,3.1,0,0,1,2.845,2.225,11.057,11.057,0,0,0,2.7-1.124,3.084,3.084,0,0,1,.485-3.623l.006-.007.067-.066a3.078,3.078,0,0,1,3.63-.486,11.431,11.431,0,0,0,1.125-2.707A3.073,3.073,0,0,1,5683.7,2455.606Z" transform="translate(-5663.975 -2444.629)" fill="#d0d9ee" fill-rule="evenodd"/>
      </g>
      <g id="Grupo_138924" data-name="Grupo 138924" transform="translate(128.449 54.12)">
        <path id="Trazado_193475" data-name="Trazado 193475" d="M5684.041,2467.774a3.081,3.081,0,1,1,3.08-3.08,3.079,3.079,0,0,1-3.08,3.08Zm0-7.124a4.044,4.044,0,1,0,4.043,4.043A4.039,4.039,0,0,0,5684.041,2460.65Z" transform="translate(-5679.997 -2460.65)" fill="#f2f2f3" fill-rule="evenodd"/>
      </g>
      <g id="Grupo_138925" data-name="Grupo 138925" transform="translate(126.259 51.657)">
        <path id="Trazado_193476" data-name="Trazado 193476" d="M5674.979,2455.275l-.042.053.049-.053Zm.054-.051.247-.236c-.094.1-.2.192-.293.288l.047-.051Zm6.02,14.984.117,0,.118,0Zm6.228-15.015c-.081-.08-.17-.16-.249-.233.1.092.2.19.293.286Z" transform="translate(-5674.937 -2454.96)" fill="#bac1c2" fill-rule="evenodd"/>
      </g>
      <g id="Grupo_138926" data-name="Grupo 138926" transform="translate(123.743 49.415)">
        <path id="Trazado_193477" data-name="Trazado 193477" d="M5677.874,2464.931a6.406,6.406,0,1,1,6.407-6.4,6.4,6.4,0,0,1-6.407,6.4Zm6.2-12.572-.019-.018-.025-.029a8.751,8.751,0,0,0-12.375,12.376l.027.021.019.019a8.745,8.745,0,0,0,12.319.021l.007-.009.029-.031.03-.027.007,0a8.756,8.756,0,0,0-.018-12.319Z" transform="translate(-5669.125 -2449.78)" fill="#bcc9e7" fill-rule="evenodd"/>
      </g>
      <g id="Grupo_138927" data-name="Grupo 138927" transform="translate(128.449 54.12)">
        <path id="Trazado_193478" data-name="Trazado 193478" d="M5684.041,2467.774a3.081,3.081,0,1,1,3.08-3.08,3.079,3.079,0,0,1-3.08,3.08Zm0-7.124a4.044,4.044,0,1,0,4.043,4.043A4.039,4.039,0,0,0,5684.041,2460.65Z" transform="translate(-5679.997 -2460.65)" fill="#fff" fill-rule="evenodd"/>
      </g>
      <g id="Grupo_138928" data-name="Grupo 138928" transform="translate(29.599 54.789)">
        <path id="Trazado_193479" data-name="Trazado 193479" d="M5460.384,2465.209c-.146-.823-.529-.364-.615.24s-.969,4.586-4.138,1.714c-3.22-2.815.633-4.152,1.222-4.308s1-.589.167-.638a5.182,5.182,0,0,0-4.752,1.954c-1.667,2.171.209,4.483,1.228,5.39s3.532,2.5,5.5.6A5.186,5.186,0,0,0,5460.384,2465.209Z" transform="translate(-5451.604 -2462.197)" fill="#d0d9ee" fill-rule="evenodd"/>
      </g>
      <g id="Grupo_138929" data-name="Grupo 138929" transform="translate(13.752 72.703)">
        <path id="Trazado_193480" data-name="Trazado 193480" d="M5418.484,2512.423c-.834-.051-.424-.483.166-.637s4.446-1.494,1.224-4.309c-3.169-2.873-4.051,1.11-4.137,1.714s-.469,1.062-.614.24a5.185,5.185,0,0,1,1.388-4.947c1.966-1.909,4.479-.311,5.5.6s2.9,3.218,1.23,5.39A5.181,5.181,0,0,1,5418.484,2512.423Z" transform="translate(-5414.988 -2503.588)" fill="#d0d9ee" fill-rule="evenodd"/>
      </g>
      <g id="Grupo_138930" data-name="Grupo 138930" transform="translate(19.14 60.631)">
        <rect id="Rectángulo_41978" data-name="Rectángulo 41978" width="17.064" height="1.761" transform="translate(0 12.741) rotate(-48.302)" fill="#d0d9ee"/>
      </g>
      <g id="Grupo_138931" data-name="Grupo 138931" transform="translate(20.459 61.799)">
        <rect id="Rectángulo_41979" data-name="Rectángulo 41979" width="17.065" height="1.763" transform="translate(0 12.749) rotate(-48.339)" fill="#bcc9e7"/>
      </g>
      <g id="Grupo_138932" data-name="Grupo 138932" transform="translate(16.776 74.196)">
        <path id="Trazado_193481" data-name="Trazado 193481" d="M5422.613,2513.741c-.591.155-1,.586-.166.637a5.182,5.182,0,0,0,4.753-1.953c1.667-2.173-.212-4.484-1.23-5.39l-2.132,2.4C5427.058,2512.248,5423.2,2513.586,5422.613,2513.741Z" transform="translate(-5421.974 -2507.036)" fill="#bcc9e7" fill-rule="evenodd"/>
      </g>
      <g id="Grupo_138933" data-name="Grupo 138933" transform="translate(31.491 57.356)">
        <path id="Trazado_193482" data-name="Trazado 193482" d="M5461.473,2473.52a5.185,5.185,0,0,0,1.391-4.948c-.146-.823-.529-.364-.615.24s-.97,4.586-4.138,1.714l-2.135,2.4C5456.994,2473.828,5459.507,2475.428,5461.473,2473.52Z" transform="translate(-5455.976 -2468.127)" fill="#bcc9e7" fill-rule="evenodd"/>
      </g>
      <g id="Grupo_138934" data-name="Grupo 138934" transform="translate(15.229 57.443)">
        <rect id="Rectángulo_41980" data-name="Rectángulo 41980" width="1.362" height="15.678" transform="translate(0 1.017) rotate(-48.282)" fill="#d0d9ee"/>
      </g>
      <g id="Grupo_138935" data-name="Grupo 138935" transform="translate(14.318 58.465)">
        <rect id="Rectángulo_41981" data-name="Rectángulo 41981" width="1.363" height="15.678" transform="matrix(0.665, -0.747, 0.747, 0.665, 0, 1.018)" fill="#bcc9e7"/>
      </g>
      <g id="Grupo_138936" data-name="Grupo 138936" transform="translate(11.881 55.164)">
        <path id="Trazado_193483" data-name="Trazado 193483" d="M5415.322,2467.531s1.418-2.165.618-2.91-4.409-2.207-5.273-1.235Z" transform="translate(-5410.667 -2463.063)" fill="#d0d9ee" fill-rule="evenodd"/>
      </g>
      <g id="Grupo_138937" data-name="Grupo 138937" transform="translate(11.657 55.487)">
        <path id="Trazado_193484" data-name="Trazado 193484" d="M5415.027,2467.954s-1.984,1.661-2.819.949-2.7-4.123-1.836-5.094Z" transform="translate(-5410.147 -2463.809)" fill="#bcc9e7" fill-rule="evenodd"/>
      </g>
      <g id="Grupo_138938" data-name="Grupo 138938" transform="translate(24.181 66.16)">
        <path id="Trazado_193485" data-name="Trazado 193485" d="M5449.266,2501.186a2.521,2.521,0,1,0,3.351-3.767l-9.334-8.31a2.521,2.521,0,1,0-3.354,3.765Z" transform="translate(-5439.084 -2488.47)" fill="#aab9de" fill-rule="evenodd"/>
      </g>
      <g id="Grupo_138939" data-name="Grupo 138939" transform="translate(26.195 68.182)">
        <path id="Trazado_193486" data-name="Trazado 193486" d="M5454.322,2503.246a.48.48,0,1,0,.632-.708l-10.38-9.241a.481.481,0,1,0-.632.71Z" transform="translate(-5443.739 -2493.14)" fill="#99a9d4" fill-rule="evenodd"/>
      </g>
      <g id="Grupo_138940" data-name="Grupo 138940" transform="translate(24.679 68.809)">
        <path id="Trazado_193487" data-name="Trazado 193487" d="M5450.818,2504.694a.481.481,0,1,0,.633-.71l-10.38-9.24a.481.481,0,1,0-.631.711Z" transform="translate(-5440.235 -2494.589)" fill="#99a9d4" fill-rule="evenodd"/>
      </g>
      <g id="Grupo_138941" data-name="Grupo 138941" transform="translate(26.642 66.603)">
        <path id="Trazado_193488" data-name="Trazado 193488" d="M5455.985,2498.889a.48.48,0,1,1-.63.709l-10.379-9.24a.48.48,0,1,1,.631-.708Z" transform="translate(-5444.771 -2489.493)" fill="#99a9d4" fill-rule="evenodd"/>
      </g>
      <g id="Grupo_138942" data-name="Grupo 138942" transform="translate(23.106 65.017)">
        <path id="Trazado_193489" data-name="Trazado 193489" d="M5437.021,2491.152a1.25,1.25,0,0,0,1.766-.1l2.792-3.136a1.252,1.252,0,0,0-1.87-1.666l-2.792,3.137A1.25,1.25,0,0,0,5437.021,2491.152Z" transform="translate(-5436.602 -2485.829)" fill="#99a9d4" fill-rule="evenodd"/>
      </g>
      <g id="Grupo_138943" data-name="Grupo 138943" transform="translate(23.333 65.281)">
        <path id="Trazado_193490" data-name="Trazado 193490" d="M5437.427,2490.939a1.018,1.018,0,0,0,1.43-.159l2.383-2.678a.966.966,0,1,0-1.436-1.278l-2.386,2.68A1.014,1.014,0,0,0,5437.427,2490.939Z" transform="translate(-5437.126 -2486.439)" fill="#aab9de" fill-rule="evenodd"/>
      </g>
      <g id="Grupo_138944" data-name="Grupo 138944" transform="translate(60.454 73.703)">
        <rect id="Rectángulo_41982" data-name="Rectángulo 41982" width="48.678" height="77.616" fill="#d0d9ee"/>
      </g>
      <g id="Grupo_138945" data-name="Grupo 138945" transform="translate(71.987 80.845)">
        <rect id="Rectángulo_41983" data-name="Rectángulo 41983" width="2.065" height="2.066" fill="#99a9d4"/>
      </g>
      <g id="Grupo_138946" data-name="Grupo 138946" transform="translate(68.004 80.845)">
        <rect id="Rectángulo_41984" data-name="Rectángulo 41984" width="2.064" height="2.066" fill="#99a9d4"/>
      </g>
      <g id="Grupo_138947" data-name="Grupo 138947" transform="translate(64.021 80.845)">
        <rect id="Rectángulo_41985" data-name="Rectángulo 41985" width="2.064" height="2.066" fill="#99a9d4"/>
      </g>
      <g id="Grupo_138948" data-name="Grupo 138948" transform="translate(71.987 84.793)">
        <rect id="Rectángulo_41986" data-name="Rectángulo 41986" width="2.065" height="2.064" fill="#99a9d4"/>
      </g>
      <g id="Grupo_138949" data-name="Grupo 138949" transform="translate(68.004 84.793)">
        <rect id="Rectángulo_41987" data-name="Rectángulo 41987" width="2.064" height="2.064" fill="#99a9d4"/>
      </g>
      <g id="Grupo_138950" data-name="Grupo 138950" transform="translate(64.021 84.793)">
        <rect id="Rectángulo_41988" data-name="Rectángulo 41988" width="2.064" height="2.064" fill="#99a9d4"/>
      </g>
      <g id="Grupo_138951" data-name="Grupo 138951" transform="translate(71.987 88.74)">
        <rect id="Rectángulo_41989" data-name="Rectángulo 41989" width="2.065" height="2.064" fill="#99a9d4"/>
      </g>
      <g id="Grupo_138952" data-name="Grupo 138952" transform="translate(68.004 88.74)">
        <rect id="Rectángulo_41990" data-name="Rectángulo 41990" width="2.064" height="2.064" fill="#001918"/>
      </g>
      <g id="Grupo_138953" data-name="Grupo 138953" transform="translate(64.021 88.74)">
        <rect id="Rectángulo_41991" data-name="Rectángulo 41991" width="2.064" height="2.064" fill="#001918"/>
      </g>
      <g id="Grupo_138954" data-name="Grupo 138954" transform="translate(71.987 92.687)">
        <rect id="Rectángulo_41992" data-name="Rectángulo 41992" width="2.065" height="2.065" fill="#99a9d4"/>
      </g>
      <g id="Grupo_138955" data-name="Grupo 138955" transform="translate(68.004 92.687)">
        <rect id="Rectángulo_41993" data-name="Rectángulo 41993" width="2.064" height="2.065" fill="#99a9d4"/>
      </g>
      <g id="Grupo_138956" data-name="Grupo 138956" transform="translate(64.021 92.687)">
        <rect id="Rectángulo_41994" data-name="Rectángulo 41994" width="2.064" height="2.065" fill="#99a9d4"/>
      </g>
      <g id="Grupo_138957" data-name="Grupo 138957" transform="translate(94.677 101.57)">
        <path id="Trazado_193491" data-name="Trazado 193491" d="M5601.967,2572.866a2.581,2.581,0,1,0,2.581-2.58A2.581,2.581,0,0,0,5601.967,2572.866Z" transform="translate(-5601.967 -2570.286)" fill="#fff" fill-rule="evenodd"/>
      </g>
      <g id="Grupo_138958" data-name="Grupo 138958" transform="translate(87.154 101.57)">
        <path id="Trazado_193492" data-name="Trazado 193492" d="M5584.585,2572.866a2.58,2.58,0,1,0,2.58-2.58A2.58,2.58,0,0,0,5584.585,2572.866Z" transform="translate(-5584.585 -2570.286)" fill="#fff" fill-rule="evenodd"/>
      </g>
      <g id="Grupo_138959" data-name="Grupo 138959" transform="translate(79.631 101.57)">
        <path id="Trazado_193493" data-name="Trazado 193493" d="M5567.2,2572.866a2.581,2.581,0,1,0,2.581-2.58A2.581,2.581,0,0,0,5567.2,2572.866Z" transform="translate(-5567.202 -2570.286)" fill="#fff" fill-rule="evenodd"/>
      </g>
      <g id="Grupo_138960" data-name="Grupo 138960" transform="translate(72.108 101.57)">
        <path id="Trazado_193494" data-name="Trazado 193494" d="M5549.822,2572.866a2.58,2.58,0,1,0,2.58-2.58A2.58,2.58,0,0,0,5549.822,2572.866Z" transform="translate(-5549.822 -2570.286)" fill="#fff" fill-rule="evenodd"/>
      </g>
      <g id="Grupo_138961" data-name="Grupo 138961" transform="translate(64.585 101.57)">
        <path id="Trazado_193495" data-name="Trazado 193495" d="M5532.439,2572.866a2.581,2.581,0,1,0,2.582-2.58A2.58,2.58,0,0,0,5532.439,2572.866Z" transform="translate(-5532.439 -2570.286)" fill="#fff" fill-rule="evenodd"/>
      </g>
      <g id="Grupo_138962" data-name="Grupo 138962" transform="translate(102.418 70.951)">
        <rect id="Rectángulo_41995" data-name="Rectángulo 41995" width="6.713" height="80.367" fill="#bcc9e7"/>
      </g>
      <g id="Grupo_138963" data-name="Grupo 138963" transform="translate(104.811 73.703)">
        <rect id="Rectángulo_41996" data-name="Rectángulo 41996" width="1.926" height="74.451" fill="#99a9d4"/>
      </g>
      <g id="Grupo_138964" data-name="Grupo 138964" transform="translate(65.053 113.75)">
        <path id="Trazado_193496" data-name="Trazado 193496" d="M5533.521,2599.389h33.564v-.963h-33.564v.963Zm0,28.625h33.564v-.963h-33.564v.963Zm0-2.2h33.564v-.965h-33.564v.965Zm0-2.2h33.564v-.963h-33.564v.963Zm0-2.2h33.564v-.962h-33.564v.962Zm0-2.2h33.564v-.964h-33.564v.964Zm0-2.2h33.564v-.962h-33.564V2617Zm0-2.2h33.564v-.963h-33.564v.963Zm0-2.2h33.564v-.963h-33.564v.963Zm0-2.2h33.564v-.964h-33.564v.964Zm0-2.2h33.564v-.963h-33.564v.963Zm0-2.2h33.564v-.964h-33.564V2606Zm0-2.2h33.564v-.963h-33.564v.963Zm0-2.2h33.564v-.963h-33.564Z" transform="translate(-5533.521 -2598.426)" fill="#99a9d4" fill-rule="evenodd"/>
      </g>
      <g id="Grupo_138965" data-name="Grupo 138965" transform="translate(102.418 151.319)">
        <rect id="Rectángulo_41997" data-name="Rectángulo 41997" width="3.356" height="4.129" fill="#99a9d4"/>
      </g>
      <g id="Grupo_138966" data-name="Grupo 138966" transform="translate(63.375 151.319)">
        <rect id="Rectángulo_41998" data-name="Rectángulo 41998" width="3.356" height="4.129" fill="#99a9d4"/>
      </g>
      <g id="Grupo_138967" data-name="Grupo 138967" transform="translate(76.627 79.73)">
        <rect id="Rectángulo_41999" data-name="Rectángulo 41999" width="23.211" height="16.225" fill="#fff"/>
      </g>
      <g id="Grupo_138968" data-name="Grupo 138968" transform="translate(76.627 79.73)">
        <path id="Trazado_193497" data-name="Trazado 193497" d="M5583.474,2519.824l-20.737,2.147-2.475,14.078v-16.225Z" transform="translate(-5560.262 -2519.824)" fill="#e9eff8" fill-rule="evenodd"/>
      </g>
      <g id="Grupo_138969" data-name="Grupo 138969" transform="translate(124.542 135.736)">
        <rect id="Rectángulo_42000" data-name="Rectángulo 42000" width="14.65" height="3.161" fill="#99a9d4"/>
      </g>
      <g id="Grupo_138970" data-name="Grupo 138970" transform="translate(115.916 70.125)">
        <path id="Trazado_193498" data-name="Trazado 193498" d="M5672.875,2549.358c-.571-.1-14.031-2.611-18.98-9.855s-1.978-18.326-1.849-18.794l.07-.256.264-.025c.127-.011,12.579-1.218,17.457-5.051,2.71-2.13,4.531-6.541,6.139-10.432,1.522-3.683,2.723-6.592,4.4-7.046,3.583-.975,7.065.722,9.3,4.534,2.329,3.963,1.625,8.863,1.6,9.07l-.761-.114c.006-.048.692-4.841-1.5-8.565-2.053-3.494-5.2-5.056-8.441-4.181-1.308.354-2.56,3.388-3.886,6.6-1.644,3.978-3.506,8.488-6.375,10.744-4.7,3.7-15.673,4.985-17.588,5.184-.415,1.7-2.546,11.529,1.807,17.9,4.768,6.98,18.345,9.507,18.482,9.531Z" transform="translate(-5651.04 -2497.63)" fill="#99a9d4" fill-rule="evenodd"/>
      </g>
      <g id="Grupo_138971" data-name="Grupo 138971" transform="translate(111.456 89.304)">
        <path id="Trazado_193499" data-name="Trazado 193499" d="M5673.076,2580.3a5.312,5.312,0,0,1-4.614-.028c-2.985-1.559-6.452-8.386-7.515-10.013s-12.549-14.6-13.55-15.9-5.5-3.479-6.482-7.329a3.987,3.987,0,0,1,.876-4.035l-.019-.021s1.51-1.792,4.427-.633c3.692,1.468,5.269,6.217,6.428,7.377s12.54,14.228,14.017,15.493,7.8,5.585,8.957,8.746a5.416,5.416,0,0,1-.726,4.833A7.338,7.338,0,0,1,5673.076,2580.3Z" transform="translate(-5640.735 -2541.943)" fill="#bcc9e7" fill-rule="evenodd"/>
      </g>
      <g id="Grupo_138972" data-name="Grupo 138972" transform="translate(122.644 118.241)">
        <path id="Trazado_193500" data-name="Trazado 193500" d="M5670.081,2622.82h17.478l4.284-8.026a4.073,4.073,0,0,0-3.592-5.991h-18.17a3.5,3.5,0,0,0-3.5,3.495v7.028A3.5,3.5,0,0,0,5670.081,2622.82Z" transform="translate(-5666.586 -2608.803)" fill="#bcc9e7" fill-rule="evenodd"/>
      </g>
      <g id="Grupo_138973" data-name="Grupo 138973" transform="translate(123.593 132.258)">
        <path id="Trazado_193501" data-name="Trazado 193501" d="M5688.8,2641.19l-1.437,2.786a1.275,1.275,0,0,1-1.133.692h-16.352a1.007,1.007,0,0,1-1-.886l-.092-.759a1.636,1.636,0,0,1,1.625-1.833Z" transform="translate(-5668.779 -2641.19)" fill="#aab9de" fill-rule="evenodd"/>
      </g>
      <g id="Grupo_138974" data-name="Grupo 138974" transform="translate(121.853 70.767)">
        <rect id="Rectángulo_42001" data-name="Rectángulo 42001" width="25.663" height="5.889" transform="matrix(0.817, -0.577, 0.577, 0.817, 0, 14.812)" fill="#bcc9e7"/>
      </g>
      <g id="Grupo_138975" data-name="Grupo 138975" transform="translate(116.778 97.757)">
        <path id="Trazado_193502" data-name="Trazado 193502" d="M5660.241,2561.474a10.249,10.249,0,0,1-1.631,3.321c-.919.916-1.621,1.657,0,3.457s11.249,12.494,11.676,12.6,10.278,1.108,10.278,1.108h-12.258l-15.273-18.178Z" transform="translate(-5653.033 -2561.474)" fill="#aab9de" fill-rule="evenodd"/>
      </g>
      <g id="Grupo_138976" data-name="Grupo 138976" transform="translate(125.991 72.084)">
        <path id="Trazado_193503" data-name="Trazado 193503" d="M5674.318,2512.53a3.933,3.933,0,0,1,3.448.85c1.527,1.376,2.585,1.216,3.167.9.468-.257,6.428-4.606,9.072-6.539.642-.47-2.191-2.725-1-5.394.6-1.345,3.23,4.928,3.23,4.928l-14.508,10.255Z" transform="translate(-5674.318 -2502.158)" fill="#aab9de" fill-rule="evenodd"/>
      </g>
      <g id="Grupo_138977" data-name="Grupo 138977" transform="translate(109.774 82.279)">
        <path id="Trazado_193504" data-name="Trazado 193504" d="M5641.091,2530.337l8.678-4.159a4.708,4.708,0,0,1,6.317,6.2h0l0,.005a4.663,4.663,0,0,1-.717,1.116l-4.187,6.516,0,0a7.466,7.466,0,1,1-10.085-9.678Z" transform="translate(-5636.848 -2525.713)" fill="#bcc9e7" fill-rule="evenodd"/>
      </g>
      <g id="Grupo_138978" data-name="Grupo 138978" transform="translate(145.35 73.863)">
        <rect id="Rectángulo_42002" data-name="Rectángulo 42002" width="4.376" height="2.807" transform="translate(0 2.58) rotate(-36.133)" fill="#bcc9e7"/>
      </g>
      <g id="Grupo_138979" data-name="Grupo 138979" transform="translate(146.002 74.632)">
        <path id="Trazado_193505" data-name="Trazado 193505" d="M5720.554,2510.748l3.443-2.7a3.12,3.12,0,0,1-.706,1.74c-.53.687-.714.712-.794,1.031a.836.836,0,0,0,.075.569l-1.014.74Z" transform="translate(-5720.554 -2508.044)" fill="#aab9de" fill-rule="evenodd"/>
      </g>
      <g id="Grupo_138980" data-name="Grupo 138980" transform="translate(140.645 68.224)">
        <path id="Trazado_193506" data-name="Trazado 193506" d="M5717.092,2496.3a4.588,4.588,0,1,1-5.854-2.8A4.589,4.589,0,0,1,5717.092,2496.3Z" transform="translate(-5708.177 -2493.239)" fill="#bcc9e7" fill-rule="evenodd"/>
      </g>
      <g id="Grupo_138981" data-name="Grupo 138981" transform="translate(140.645 121.474)">
        <path id="Trazado_193507" data-name="Trazado 193507" d="M5712.049,2618.211a1.937,1.937,0,1,1-1.937-1.937A1.938,1.938,0,0,1,5712.049,2618.211Z" transform="translate(-5708.176 -2616.274)" fill="#99a9d4" fill-rule="evenodd"/>
      </g>
      <g id="Grupo_138982" data-name="Grupo 138982" transform="translate(147.633 76.588)">
        <rect id="Rectángulo_42003" data-name="Rectángulo 42003" width="2.823" height="7.835" transform="matrix(0.808, -0.59, 0.59, 0.808, 0, 1.665)" fill="#bcc9e7"/>
      </g>
      <g id="Grupo_138983" data-name="Grupo 138983" transform="translate(151.627 82.457)">
        <rect id="Rectángulo_42004" data-name="Rectángulo 42004" width="4.376" height="2.807" transform="translate(0 2.581) rotate(-36.14)" fill="#aab9de"/>
      </g>
      <g id="Grupo_138984" data-name="Grupo 138984" transform="translate(153.516 84.894)">
        <rect id="Rectángulo_42005" data-name="Rectángulo 42005" width="3.798" height="2.437" transform="matrix(0.808, -0.59, 0.59, 0.808, 0, 2.24)" fill="#bcc9e7"/>
      </g>
      <g id="Grupo_138985" data-name="Grupo 138985" transform="translate(157.798 101.61)">
        <rect id="Rectángulo_42006" data-name="Rectángulo 42006" width="1.764" height="0.744" transform="translate(0 1.627) rotate(-67.309)" fill="#aab9de"/>
      </g>
      <g id="Grupo_138986" data-name="Grupo 138986" transform="translate(157.261 89.263)">
        <path id="Trazado_193508" data-name="Trazado 193508" d="M5748.812,2553.8l-.781-.328,1.942-4.64a2.211,2.211,0,0,0-.249-2.136l-3.156-4.354.687-.5,3.156,4.353a3.061,3.061,0,0,1,.343,2.961Z" transform="translate(-5746.568 -2541.85)" fill="#99a9d4" fill-rule="evenodd"/>
      </g>
      <g id="Grupo_138987" data-name="Grupo 138987" transform="translate(158.234 98.726)">
        <rect id="Rectángulo_42007" data-name="Rectángulo 42007" width="3.016" height="1.273" transform="matrix(0.386, -0.922, 0.922, 0.386, 0, 2.783)" fill="#aab9de"/>
      </g>
      <g id="Grupo_138988" data-name="Grupo 138988" transform="translate(147.633 76.588)">
        <path id="Trazado_193509" data-name="Trazado 193509" d="M5724.322,2514.229l4.622,6.327,2.279-1.665s-1.83.938-2.182.55a63.308,63.308,0,0,1-3.776-5.212,13.525,13.525,0,0,1,1.337-1.665Z" transform="translate(-5724.322 -2512.564)" fill="#aab9de" fill-rule="evenodd"/>
      </g>
      <g id="Grupo_138989" data-name="Grupo 138989" transform="translate(155.502 87.262)">
        <rect id="Rectángulo_42008" data-name="Rectángulo 42008" width="2.44" height="3.231" transform="translate(0 1.438) rotate(-36.126)" fill="#aab9de"/>
      </g>
      <g id="Grupo_138990" data-name="Grupo 138990" transform="translate(120.103 138.897)">
        <path id="Trazado_193510" data-name="Trazado 193510" d="M5660.716,2670.441H5683.5l-2.54-13.911h-17.707Z" transform="translate(-5660.716 -2656.53)" fill="#bcc9e7" fill-rule="evenodd"/>
      </g>
      <g id="Grupo_138991" data-name="Grupo 138991" transform="translate(121.119 139.685)">
        <path id="Trazado_193511" data-name="Trazado 193511" d="M5665.537,2658.35v12.228h-2.475l2.064-12.228Z" transform="translate(-5663.062 -2658.35)" fill="#aab9de" fill-rule="evenodd"/>
      </g>
      <g id="Grupo_138992" data-name="Grupo 138992" transform="translate(139.407 139.685)">
        <path id="Trazado_193512" data-name="Trazado 193512" d="M5705.316,2658.35v12.228h2.476l-2.065-12.228Z" transform="translate(-5705.316 -2658.35)" fill="#aab9de" fill-rule="evenodd"/>
      </g>
      <g id="Grupo_138993" data-name="Grupo 138993" transform="translate(128.989 139.738)">
        <path id="Trazado_193513" data-name="Trazado 193513" d="M5683.2,2658.473V2670.7h-1.956l1.061-12.229Z" transform="translate(-5681.245 -2658.473)" fill="#aab9de" fill-rule="evenodd"/>
      </g>
      <g id="Grupo_138994" data-name="Grupo 138994" transform="translate(131.498 139.738)">
        <path id="Trazado_193514" data-name="Trazado 193514" d="M5687.042,2658.473V2670.7H5689l-1.06-12.229Z" transform="translate(-5687.042 -2658.473)" fill="#d0d9ee" fill-rule="evenodd"/>
      </g>
      <g id="Grupo_138995" data-name="Grupo 138995" transform="translate(139.817 139.685)">
        <path id="Trazado_193515" data-name="Trazado 193515" d="M5706.264,2658.35h.678l2.232,12.228h-.845Z" transform="translate(-5706.264 -2658.35)" fill="#bcc9e7" fill-rule="evenodd"/>
      </g>
      <g id="Grupo_138996" data-name="Grupo 138996" transform="translate(122.142 138.897)">
        <rect id="Rectángulo_42009" data-name="Rectángulo 42009" width="18.669" height="0.824" fill="#d0d9ee"/>
      </g>
      <g id="Grupo_138997" data-name="Grupo 138997" transform="translate(119.653 151.808)">
        <rect id="Rectángulo_42010" data-name="Rectángulo 42010" width="23.681" height="1" fill="#99a9d4"/>
      </g>
      <g id="Grupo_138998" data-name="Grupo 138998" transform="translate(67.74 58.56)">
        <path id="Trazado_193516" data-name="Trazado 193516" d="M5566.992,2486.052h-27.263l3.04-15.143h21.183Z" transform="translate(-5539.729 -2470.909)" fill="#bcc9e7" fill-rule="evenodd"/>
      </g>
      <g id="Grupo_138999" data-name="Grupo 138999" transform="translate(90.829 59.418)">
        <path id="Trazado_193517" data-name="Trazado 193517" d="M5593.078,2472.892V2486.2h2.959l-2.47-13.311Z" transform="translate(-5593.078 -2472.892)" fill="#aab9de" fill-rule="evenodd"/>
      </g>
      <g id="Grupo_139000" data-name="Grupo 139000" transform="translate(68.948 59.418)">
        <path id="Trazado_193518" data-name="Trazado 193518" d="M5545.48,2472.892v12.572l5.776.739h-8.736l2.47-13.311Z" transform="translate(-5542.52 -2472.892)" fill="#aab9de" fill-rule="evenodd"/>
      </g>
      <g id="Grupo_139001" data-name="Grupo 139001" transform="translate(82.104 59.476)">
        <path id="Trazado_193519" data-name="Trazado 193519" d="M5572.917,2473.026v13.31l8.725-.058-5.882-.739-1.77-12.514Z" transform="translate(-5572.917 -2473.026)" fill="#aab9de" fill-rule="evenodd"/>
      </g>
      <g id="Grupo_139002" data-name="Grupo 139002" transform="translate(77.683 59.476)">
        <path id="Trazado_193520" data-name="Trazado 193520" d="M5565.649,2473.026v13.31l-2.946-.058,1.875-13.252Z" transform="translate(-5562.703 -2473.026)" fill="#d0d9ee" fill-rule="evenodd"/>
      </g>
      <g id="Grupo_139003" data-name="Grupo 139003" transform="translate(71.418 59.418)">
        <path id="Trazado_193521" data-name="Trazado 193521" d="M5548.227,2472.892l8.14.058-.116.822h-7.533Z" transform="translate(-5548.227 -2472.892)" fill="#aab9de" fill-rule="evenodd"/>
      </g>
      <g id="Grupo_139004" data-name="Grupo 139004" transform="translate(70.429 58.56)">
        <rect id="Rectángulo_42011" data-name="Rectángulo 42011" width="21.88" height="0.916" fill="#d0d9ee"/>
      </g>
      <g id="Grupo_139005" data-name="Grupo 139005" transform="translate(67.522 72.786)">
        <rect id="Rectángulo_42012" data-name="Rectángulo 42012" width="27.756" height="0.916" fill="#bcc9e7"/>
      </g>
      <g id="Grupo_139006" data-name="Grupo 139006" transform="translate(82.104 59.476)">
        <rect id="Rectángulo_42013" data-name="Rectángulo 42013" width="9.151" height="0.822" fill="#aab9de"/>
      </g>
      <g id="Grupo_139007" data-name="Grupo 139007" transform="translate(79.441 59.476)">
        <path id="Trazado_193522" data-name="Trazado 193522" d="M5570.618,2473.848l-1.189-.6h-1.476l-1.188.6.117-.822h3.62Z" transform="translate(-5566.765 -2473.026)" fill="#aab9de" fill-rule="evenodd"/>
      </g>
      <g id="Grupo_139008" data-name="Grupo 139008" transform="translate(90.829 59.476)">
        <path id="Trazado_193523" data-name="Trazado 193523" d="M5593.078,2473.848l.532-.611h.819l-.045-.211h-1.306Z" transform="translate(-5593.078 -2473.026)" fill="#aab9de" fill-rule="evenodd"/>
      </g>
      <g id="Grupo_139009" data-name="Grupo 139009" transform="translate(70.557 59.476)">
        <path id="Trazado_193524" data-name="Trazado 193524" d="M5547.588,2473.848l-.531-.611h-.82l.045-.211h1.306Z" transform="translate(-5546.237 -2473.026)" fill="#aab9de" fill-rule="evenodd"/>
      </g>
      <g id="Grupo_139010" data-name="Grupo 139010" transform="translate(61.446 13.715)">
        <path id="Trazado_193525" data-name="Trazado 193525" d="M5525.187,2369.806a2.512,2.512,0,1,0,2.512-2.512A2.512,2.512,0,0,0,5525.187,2369.806Z" transform="translate(-5525.187 -2367.294)" fill="#fff" fill-rule="evenodd"/>
      </g>
      <g id="Grupo_139011" data-name="Grupo 139011" transform="translate(74.799 17.659)">
        <path id="Trazado_193526" data-name="Trazado 193526" d="M5556.038,2380.3l30.512,8.5a.983.983,0,0,0,1.213-.684l1.578-5.665a.984.984,0,0,0-.684-1.213l-16.771-4.671a4.212,4.212,0,0,0-2.234,0Z" transform="translate(-5556.038 -2376.408)" fill="#99a9d4" fill-rule="evenodd"/>
      </g>
      <g id="Grupo_139012" data-name="Grupo 139012" transform="translate(71.632 21.844)">
        <path id="Trazado_193527" data-name="Trazado 193527" d="M5580.872,2393.843a4.55,4.55,0,0,0-6.435-6.434,4.5,4.5,0,0,0-.947,1.393l-2.545,3.74-22.224,22.225,4.792,4.791,22.225-22.225,3.74-2.543A4.512,4.512,0,0,0,5580.872,2393.843Z" transform="translate(-5548.721 -2386.077)" fill="#bcc9e7" fill-rule="evenodd"/>
      </g>
      <g id="Grupo_139013" data-name="Grupo 139013" transform="translate(69.739 47.372)">
        <path id="Trazado_193528" data-name="Trazado 193528" d="M5564.384,2454.74h-15.549a4.5,4.5,0,0,1-4.488-4.489v-.7a4.5,4.5,0,0,1,4.488-4.489h15.549a3.01,3.01,0,0,1,3,3v3.679A3.009,3.009,0,0,1,5564.384,2454.74Z" transform="translate(-5544.347 -2445.06)" fill="#d0d9ee" fill-rule="evenodd"/>
      </g>
      <g id="Grupo_139014" data-name="Grupo 139014" transform="translate(76.073 16.973)">
        <path id="Trazado_193529" data-name="Trazado 193529" d="M5562.649,2383.992l10.541,2.936a2.619,2.619,0,0,0,3.226-1.82l.84-3.017a2.1,2.1,0,0,0-1.459-2.586l-16.814-4.682,1.833,7.288A2.613,2.613,0,0,0,5562.649,2383.992Z" transform="translate(-5558.981 -2374.823)" fill="#aab9de" fill-rule="evenodd"/>
      </g>
      <g id="Grupo_139015" data-name="Grupo 139015" transform="translate(64.298 13.606)">
        <path id="Trazado_193530" data-name="Trazado 193530" d="M5533.668,2373.721l20.646,5.748,1.432-5.138a1.6,1.6,0,0,0-1.112-1.969l-19.105-5.32-2.82.847-.932,3.346Z" transform="translate(-5531.775 -2367.042)" fill="#bcc9e7" fill-rule="evenodd"/>
      </g>
      <g id="Grupo_139016" data-name="Grupo 139016" transform="translate(72.24 49.615)">
        <path id="Trazado_193531" data-name="Trazado 193531" d="M5550.125,2452.841a2.6,2.6,0,1,0,2.6-2.6A2.6,2.6,0,0,0,5550.125,2452.841Z" transform="translate(-5550.125 -2450.243)" fill="#fff" fill-rule="evenodd"/>
      </g>
      <g id="Grupo_139017" data-name="Grupo 139017" transform="translate(96.845 23.44)">
        <path id="Trazado_193532" data-name="Trazado 193532" d="M5606.978,2393.005a3.243,3.243,0,1,0,3.242-3.242A3.242,3.242,0,0,0,5606.978,2393.005Z" transform="translate(-5606.978 -2389.763)" fill="#fff" fill-rule="evenodd"/>
      </g>
      <g id="Grupo_139018" data-name="Grupo 139018" transform="translate(97.775 24.37)">
        <path id="Trazado_193533" data-name="Trazado 193533" d="M5609.126,2394.224a2.313,2.313,0,1,0,2.313-2.312A2.312,2.312,0,0,0,5609.126,2394.224Z" transform="translate(-5609.126 -2391.912)" fill="#99a9d4" fill-rule="evenodd"/>
      </g>
      <g id="Grupo_139019" data-name="Grupo 139019" transform="translate(73.205 50.582)">
        <circle id="Elipse_5011" data-name="Elipse 5011" cx="1.632" cy="1.632" r="1.632" fill="#99a9d4"/>
      </g>
      <g id="Grupo_139020" data-name="Grupo 139020" transform="translate(74.837 33.101)">
        <path id="Trazado_193534" data-name="Trazado 193534" d="M5579.938,2412.087l-14.271,14.271h-9.54s6.586-1.319,9.09-2.745S5579.938,2412.087,5579.938,2412.087Z" transform="translate(-5556.126 -2412.087)" fill="#99a9d4" fill-rule="evenodd"/>
      </g>
      <g id="Grupo_139021" data-name="Grupo 139021" transform="translate(63.958 13.48)">
        <path id="Trazado_193535" data-name="Trazado 193535" d="M5531.418,2372.69h0a.534.534,0,0,0,.628-.417l.986-4.884a.533.533,0,0,0-1.045-.21l-.985,4.884A.534.534,0,0,0,5531.418,2372.69Z" transform="translate(-5530.991 -2366.751)" fill="#99a9d4" fill-rule="evenodd"/>
      </g>
      <g id="Grupo_139022" data-name="Grupo 139022" transform="translate(71.908 57.052)">
        <path id="Trazado_193536" data-name="Trazado 193536" d="M5550.112,2468.933h17.414a.756.756,0,0,0,.754-.752h0a.758.758,0,0,0-.754-.755h-17.414a.756.756,0,0,0-.753.755h0A.755.755,0,0,0,5550.112,2468.933Z" transform="translate(-5549.359 -2467.426)" fill="#99a9d4" fill-rule="evenodd"/>
      </g>
      <g id="Grupo_139023" data-name="Grupo 139023" transform="translate(61.234 14.669)">
        <path id="Trazado_193537" data-name="Trazado 193537" d="M5524.767,2370.392c-.135.545-.07,1.03.146,1.083s.5-.344.638-.888.07-1.03-.146-1.083S5524.9,2369.848,5524.767,2370.392Z" transform="translate(-5524.697 -2369.5)" fill="#99a9d4" fill-rule="evenodd"/>
      </g>
      <g id="Grupo_139024" data-name="Grupo 139024" transform="translate(29.394 108.523)">
        <path id="Trazado_193538" data-name="Trazado 193538" d="M5472.927,2586.452c1.5,1.046,2.755,8.809,2.877,23.291.161,5.432-.784,12.63-2,22.092a8.752,8.752,0,0,1-3.565.425c-1.546-11.74-1.8-19.237-.648-22.314a86.456,86.456,0,0,1-3.708-11.716,93.218,93.218,0,0,1-2.355,13.246q-3.012,7.845-8.92,20.548a6.04,6.04,0,0,1-3.474-.765c1.377-10.362,4.011-18.146,6.49-20.726-2.358-13.241-.395-20.137,2.531-24.183A39.08,39.08,0,0,0,5472.927,2586.452Z" transform="translate(-5451.13 -2586.349)" fill="#0f3970" fill-rule="evenodd"/>
      </g>
      <g id="Grupo_139025" data-name="Grupo 139025" transform="translate(33.366 83.849)">
        <path id="Trazado_193539" data-name="Trazado 193539" d="M5461.77,2550.064c-3.906-15.142.348-20.657,8.713-20.724a14.1,14.1,0,0,0,2.962,4.508,8.49,8.49,0,0,1,1.914-2.561,8.753,8.753,0,0,1,2.208,2.267,9.424,9.424,0,0,0-.443-4.062q4.515.313,14.077,4.471a122.548,122.548,0,0,1,12.835-3.5l.016.014-.034.089a4.955,4.955,0,0,1,.989,2.188c.079-.021.129-.034.188-.048l.083.237c-4.122,2.6-8.132,4.126-13.843,5.685-3.626-.03-7.292.112-10.983-1.184-.054,10.89-.82,15.418-2.321,16.669a27.371,27.371,0,0,1-5.261.471,5.135,5.135,0,0,0-.33,1.039c-.959-.3-2.014-.787-3.176-1.165l-.319-.13A24.272,24.272,0,0,1,5461.77,2550.064Z" transform="translate(-5460.306 -2529.341)" fill="#6998d0" fill-rule="evenodd"/>
      </g>
      <g id="Grupo_139026" data-name="Grupo 139026" transform="translate(28.082 154.88)">
        <path id="Trazado_193540" data-name="Trazado 193540" d="M5475.424,2696.3a30.69,30.69,0,0,1-6.264-.016c-1.133-.281-.945-.973-.376-2.1a4.349,4.349,0,0,0,3.37-.279,8.373,8.373,0,0,0,4.2,1.237c.8.517.521,1.041-.928,1.156Zm-23.229.443a16.911,16.911,0,0,1-3.674-1.207c-.8-.559-.365-1.229.444-2.076a4.352,4.352,0,0,0,3.308.711c.877,1.245,3.729.722,4.01,1.575C5456.632,2697.333,5452.955,2696.956,5452.194,2696.74Z" transform="translate(-5448.098 -2693.458)" fill="#142d4d" fill-rule="evenodd"/>
      </g>
      <g id="Grupo_139027" data-name="Grupo 139027" transform="translate(47.042 85.834)">
        <path id="Trazado_193541" data-name="Trazado 193541" d="M5491.9,2551.55c.277-4.263.612-9.452.951-15.89a2.957,2.957,0,0,1-.694-.541,6.751,6.751,0,0,1,1.074-1.191,6.857,6.857,0,0,1,1.27,1.1,3.162,3.162,0,0,1-.683.632q.472,5.941.968,16.195a3.541,3.541,0,0,1-1.437,1.774A3.819,3.819,0,0,1,5491.9,2551.55Z" transform="translate(-5491.905 -2533.927)" fill="#0f3d86" fill-rule="evenodd"/>
      </g>
      <g id="Grupo_139028" data-name="Grupo 139028" transform="translate(43.543 82.507)">
        <path id="Trazado_193542" data-name="Trazado 193542" d="M5486.783,2532.09a14.1,14.1,0,0,1-2.962-4.509,3.485,3.485,0,0,1,1.142-1.342,18.58,18.58,0,0,0,3.715,3.28l.019.01c.013-.046.026-.092.04-.139a24.629,24.629,0,0,0,.819-3.021,3.27,3.27,0,0,1,.906,1.364,9.432,9.432,0,0,1,.442,4.062,12.068,12.068,0,0,0-.938-1.164,6.919,6.919,0,0,0-1.27-1.1,6.737,6.737,0,0,0-1.076,1.19A11.213,11.213,0,0,0,5486.783,2532.09Z" transform="translate(-5483.821 -2526.239)" fill="#6998d0" fill-rule="evenodd"/>
      </g>
      <g id="Grupo_139029" data-name="Grupo 139029" transform="translate(41.024 91.986)">
        <path id="Trazado_193543" data-name="Trazado 193543" d="M5478.058,2549.255a2.768,2.768,0,0,1-.047-.818,10.194,10.194,0,0,0,3.768-.295,1.368,1.368,0,0,1,.158.723A10.707,10.707,0,0,1,5478.058,2549.255Z" transform="translate(-5478 -2548.142)" fill="#406fb5" fill-rule="evenodd"/>
      </g>
      <g id="Grupo_139030" data-name="Grupo 139030" transform="translate(43.507 73.845)">
        <path id="Trazado_193544" data-name="Trazado 193544" d="M5484.932,2514.9a4.017,4.017,0,0,0,.65-1.274c-.093-.284-.188-.643-.288-1.075q-2.717-1.932-.694-2.785a3.566,3.566,0,0,1,.973,1.415.824.824,0,0,0,.734-.473,24.237,24.237,0,0,1-.672-3.218c.936-1.326,3.056-1.472,5.852-1.05q.172,1.125.269,2.379c.486.467.385,2.159-.112,4.1q.305,1.672-2.1,1.773l-.021.339a24.644,24.644,0,0,1-.822,3.021l-.057.129A18.579,18.579,0,0,1,5484.932,2514.9Z" transform="translate(-5483.737 -2506.226)" fill="#f4ae7c" fill-rule="evenodd"/>
      </g>
      <g id="Grupo_139031" data-name="Grupo 139031" transform="translate(41.46 70.658)">
        <path id="Trazado_193545" data-name="Trazado 193545" d="M5488.8,2502.26c-2.8-.423-4.917-.277-5.852,1.05a24.134,24.134,0,0,0,.672,3.217.823.823,0,0,1-.734.473,3.563,3.563,0,0,0-.973-1.415q-2.021.854.694,2.785.148.649.287,1.075a5.086,5.086,0,0,1-3.178-2.558c-1.846-3.842.339-5.4,1.5-5.961.588-3.753,5.982-.308,8.76-2.065C5491.04,2500.388,5489.654,2502.245,5488.8,2502.26Z" transform="translate(-5479.008 -2498.861)" fill="#0f3970" fill-rule="evenodd"/>
      </g>
      <g id="Grupo_139032" data-name="Grupo 139032" transform="translate(47.203 82.046)">
        <path id="Trazado_193546" data-name="Trazado 193546" d="M5492.278,2525.174a8.993,8.993,0,0,0,2.115.262l-.022.339c-.033.2-.074.409-.12.612l-.018-.006A4.236,4.236,0,0,1,5492.278,2525.174Z" transform="translate(-5492.278 -2525.174)" fill="#ed7d5b" fill-rule="evenodd"/>
      </g>
      <g id="Grupo_139033" data-name="Grupo 139033" transform="translate(47.343 85.834)">
        <path id="Trazado_193547" data-name="Trazado 193547" d="M5494.759,2535.209a1.752,1.752,0,0,0,.187-.217,3.663,3.663,0,0,0-1.315-1.065,15.1,15.1,0,0,0-.677,1.473c-.176-.139-.3-.275-.353-.321a6.838,6.838,0,0,1,1.03-1.152A6.6,6.6,0,0,1,5494.759,2535.209Z" transform="translate(-5492.6 -2533.927)" fill="#0f3d86" fill-rule="evenodd"/>
      </g>
      <g id="Grupo_139034" data-name="Grupo 139034" transform="translate(29.259 153.65)">
        <path id="Trazado_193548" data-name="Trazado 193548" d="M5453.739,2691.187a4.1,4.1,0,0,0-.154,1.4,4.33,4.33,0,0,1-2.767-.543,5.807,5.807,0,0,0,.527-1.429,6.5,6.5,0,0,0,2.394.57Zm16.833,1.459a9.276,9.276,0,0,0,.061-1.228,9.442,9.442,0,0,0,2.4-.244,2.992,2.992,0,0,0,.447,1.221A4.311,4.311,0,0,1,5470.573,2692.646Z" transform="translate(-5450.818 -2690.617)" fill="#f5b58b" fill-rule="evenodd"/>
      </g>
      <g id="Grupo_139035" data-name="Grupo 139035" transform="translate(77.078 81.584)">
        <path id="Trazado_193549" data-name="Trazado 193549" d="M5561.3,2527.6q.552-1.475,1.347-1.7a17.7,17.7,0,0,0,3.167-1.79q.556.681-.884,1.412a3.044,3.044,0,0,0-.87.656q1.5.705,1.456,1.783-.215.828-.539.952a.447.447,0,0,1-.547-.125c-.542,1.082-1.244,1.126-1.8.92-.156.034-.207.047-.344.084A4.944,4.944,0,0,0,5561.3,2527.6Z" transform="translate(-5561.305 -2524.106)" fill="#f4ae7c" fill-rule="evenodd"/>
      </g>
      <g id="Grupo_139036" data-name="Grupo 139036" transform="translate(35.062 97.59)">
        <path id="Trazado_193550" data-name="Trazado 193550" d="M5475.6,2561.259l-6.231,5.414c1.646,1.093,3.756,2.545,6.751,4.627a3.761,3.761,0,0,0-.337.322l-.238-.1c-.129.146-.264.287-.386.437a1.757,1.757,0,0,0-.317.637,2.025,2.025,0,0,0-.023.8c-.02.079-.04.158-.06.236-.772-.24-1.608-.6-2.51-.934a29.987,29.987,0,0,1-6.254-3.1l-1.537,1.334a.7.7,0,0,0-.067.982l6.483,7.463a.7.7,0,0,0,.982.068l11.141-9.679a.7.7,0,0,0,.069-.982l-6.483-7.463A.7.7,0,0,0,5475.6,2561.259Z" transform="translate(-5464.225 -2561.09)" fill="#9d7558" fill-rule="evenodd"/>
      </g>
      <g id="Grupo_139037" data-name="Grupo 139037" transform="translate(34.067 97.225)">
        <path id="Trazado_193551" data-name="Trazado 193551" d="M5474.01,2560.385l-6.9,5.179c1.779,1.153,4.1,2.747,7.714,5.258a3.687,3.687,0,0,0-.337.322l-.238-.1c-.129.146-.264.287-.386.437a1.746,1.746,0,0,0-.316.637,2.015,2.015,0,0,0-.023.8c-.02.079-.04.158-.06.236-.773-.24-1.608-.6-2.51-.934a28.111,28.111,0,0,1-7.447-3.954l-1.3.974a.7.7,0,0,0-.139.975l5.934,7.907a.7.7,0,0,0,.975.139l11.8-8.859a.7.7,0,0,0,.14-.975l-5.935-7.906A.7.7,0,0,0,5474.01,2560.385Z" transform="translate(-5461.927 -2560.247)" fill="#c19274" fill-rule="evenodd"/>
      </g>
      <g id="Grupo_139038" data-name="Grupo 139038" transform="translate(38.408 83.849)">
        <path id="Trazado_193552" data-name="Trazado 193552" d="M5484.129,2534.216a18.477,18.477,0,0,0-1.079-1.609,1.782,1.782,0,0,0,.187-.217,12.113,12.113,0,0,1,.935,1.16c-.008.226-.022.449-.042.665Zm2.931,3.232a23.471,23.471,0,0,0-.146-2.664,6.161,6.161,0,0,0,1.577,3.1q-.713-.182-1.431-.433Zm-7.007-3.6a11.346,11.346,0,0,1,.837-1.371c.055.046.178.181.353.321-.271.662-.566,1.449-.85,2.281a20.664,20.664,0,0,1-3.3-5.739,14.084,14.084,0,0,0,2.962,4.508Zm-.575,20.741a4.559,4.559,0,0,1,1.032-1.3c-4.208-2.925-6.668-4.609-8.553-5.794a32.982,32.982,0,0,0,.886-8.85,23.015,23.015,0,0,1,.224,8.578c3.279,2.265,6.326,4.626,8.315,6.279l-.133.235a5.861,5.861,0,0,1,.88.739C5481.307,2554.547,5480.419,2554.585,5479.479,2554.589Z" transform="translate(-5471.957 -2529.341)" fill="#406fb5" fill-rule="evenodd"/>
      </g>
      <g id="Grupo_139039" data-name="Grupo 139039" transform="translate(45.632 108.023)">
        <path id="Trazado_193553" data-name="Trazado 193553" d="M5489.4,2585.2a16.16,16.16,0,0,1,2.481,1.261c.672,1.131.835,1.663.519,2.292-.7.891-1.826.886-1.93.248a.8.8,0,0,0-.13-1.143q-.8.189-1.037-.4c-.216-.063-.412-.117-.588-.165a1.831,1.831,0,0,1,.3-1.657C5489.138,2585.482,5489.272,2585.341,5489.4,2585.2Z" transform="translate(-5488.647 -2585.195)" fill="#f4ae7c" fill-rule="evenodd"/>
      </g>
      <g id="Grupo_139040" data-name="Grupo 139040" transform="translate(48.343 79.622)">
        <path id="Trazado_193554" data-name="Trazado 193554" d="M5494.982,2519.847a7.663,7.663,0,0,0,2.18-.271c.337-.08-.354,2.5-2.228.406C5494.89,2519.934,5494.915,2519.844,5494.982,2519.847Z" transform="translate(-5494.912 -2519.574)" fill="#e97850" fill-rule="evenodd"/>
      </g>
      <g id="Grupo_139041" data-name="Grupo 139041" transform="translate(45.899 75.187)">
        <path id="Trazado_193555" data-name="Trazado 193555" d="M5490.937,2509.329c.419.03.4.365.085.444C5487.718,2510.6,5489.9,2509.251,5490.937,2509.329Z" transform="translate(-5489.265 -2509.326)" fill="#0f3970" fill-rule="evenodd"/>
      </g>
      <g id="Grupo_139042" data-name="Grupo 139042" transform="translate(49.426 74.755)">
        <path id="Trazado_193556" data-name="Trazado 193556" d="M5497.66,2508.442c-.393.151-.273.465.047.451C5501.109,2508.727,5498.63,2508.065,5497.66,2508.442Z" transform="translate(-5497.413 -2508.328)" fill="#0f3970" fill-rule="evenodd"/>
      </g>
      <g id="Grupo_139043" data-name="Grupo 139043" transform="translate(49.127 76.309)">
        <path id="Trazado_193557" data-name="Trazado 193557" d="M5496.869,2514.223h.021c.365-.081.559-.13.628-.269s0-.269-.116-.527a7.172,7.172,0,0,1-.489-1.433.1.1,0,0,0-.116-.072.1.1,0,0,0-.072.118,7.468,7.468,0,0,0,.5,1.469c.077.169.141.315.119.36-.031.061-.289.119-.5.164a.1.1,0,0,0-.074.118A.1.1,0,0,0,5496.869,2514.223Z" transform="translate(-5496.723 -2511.918)" fill="#e97850" fill-rule="evenodd"/>
      </g>
      <g id="Grupo_139044" data-name="Grupo 139044" transform="translate(50.311 76.048)">
        <path id="Trazado_193558" data-name="Trazado 193558" d="M5499.867,2512.21c.239-.024.329-.955-.25-.891C5499.308,2511.352,5499.478,2512.252,5499.867,2512.21Z" transform="translate(-5499.458 -2511.316)" fill="#0f3970" fill-rule="evenodd"/>
      </g>
      <g id="Grupo_139045" data-name="Grupo 139045" transform="translate(47.044 76.459)">
        <path id="Trazado_193559" data-name="Trazado 193559" d="M5492.32,2513.16c.238-.027.329-.954-.25-.892C5491.76,2512.3,5491.929,2513.2,5492.32,2513.16Z" transform="translate(-5491.91 -2512.265)" fill="#0f3970" fill-rule="evenodd"/>
      </g>
      <g id="Grupo_139046" data-name="Grupo 139046" transform="translate(48.44 79.68)">
        <path id="Trazado_193560" data-name="Trazado 193560" d="M5495.166,2519.965c-.3.319,1.682.342,2.025.028.038-.034.158-.215.116-.269s-.271.043-.333.059A6.107,6.107,0,0,1,5495.166,2519.965Z" transform="translate(-5495.135 -2519.708)" fill="#fff" fill-rule="evenodd"/>
      </g>
    </g>
  </g>
</svg>
