<svg xmlns="http://www.w3.org/2000/svg" width="299.079" height="166.139" viewBox="0 0 299.079 166.139">
  <g id="Grupo_148529" data-name="Grupo 148529" transform="translate(-918 -2237.554)">
    <g id="Grupo_134559" data-name="Grupo 134559" transform="translate(1523.094 -761.67)">
      <rect id="Rectángulo_41830" data-name="Rectángulo 41830" width="299.079" height="166.139" rx="17.313" transform="translate(-605.094 2999.224)" fill="#4dd0e1"/>
    </g>
    <g id="Grupo_140027" data-name="Grupo 140027" transform="translate(964.784 2241.333)">
      <path id="Trazado_194036" data-name="Trazado 194036" d="M5525.521,3320.907c19.167,0,16.98,33.844,30.813,44.16,18.314,13.656,49.815,6.894,49.815,30.33,0,41.14-40.863,56.042-85.392,56.042s-82.524-22.815-69.266-63.848,29.5-66.684,74.028-66.684Zm0,0" transform="translate(-5430.994 -3299.249)" fill="#fff" fill-rule="evenodd"/>
      <path id="Trazado_194037" data-name="Trazado 194037" d="M5552.833,3478.718a29.828,29.828,0,0,1,7.707-7.38l-1.644-4.217a2.629,2.629,0,0,1,1.491-3.4l1.731-.675,3.558-1.387,1.732-.675a2.634,2.634,0,0,1,3.4,1.491l1.645,4.217a29.818,29.818,0,0,1,10.668.223l1.816-4.143a2.634,2.634,0,0,1,3.458-1.345l1.7.749,3.493,1.534,1.7.749a2.625,2.625,0,0,1,1.346,3.454l-1.818,4.139a29.9,29.9,0,0,1,7.384,7.707l4.218-1.643a2.629,2.629,0,0,1,3.393,1.495l.679,1.732,1.384,3.553.674,1.736a2.625,2.625,0,0,1-1.49,3.394l-4.214,1.644a29.843,29.843,0,0,1-.224,10.671l4.139,1.817a2.628,2.628,0,0,1,1.345,3.457l-.745,1.7-1.537,3.493-.352.806q-2.907.734-5.924,1.334l-2.066-.909q-.565.777-1.171,1.512a157.764,157.764,0,0,1-18.463,2.045,21.939,21.939,0,0,0,3.2-.972,21.718,21.718,0,1,0-11.214,1.228q-1.065.01-2.133.011a123.161,123.161,0,0,1-16.646-1.108,29.957,29.957,0,0,1-2.946-3.759l-4.213,1.644a2.635,2.635,0,0,1-3.4-1.494l-.674-1.733-1.384-3.553-.674-1.737a2.625,2.625,0,0,1,1.491-3.393l4.213-1.643a29.835,29.835,0,0,1,.224-10.671l-4.139-1.818a2.632,2.632,0,0,1-1.349-3.458l.749-1.7,1.534-3.49.749-1.7a2.628,2.628,0,0,1,3.455-1.348Zm93.013,14.8c-7.11,8.168-17.178,14.029-29,17.952a2.617,2.617,0,0,1-.149-2.9l1.307-2.165a14,14,0,0,1-2.542-4.594l-2.528-.046a2.607,2.607,0,0,1-2.555-2.652l.072-3.976a2.615,2.615,0,0,1,2.651-2.556l2.531.047a14.006,14.006,0,0,1,2.7-4.5l-1.225-2.212a2.612,2.612,0,0,1,1.019-3.538l3.479-1.925a2.61,2.61,0,0,1,3.539,1.019l1.225,2.212a13.868,13.868,0,0,1,5.247.1l1.307-2.169a2.611,2.611,0,0,1,3.574-.891l3.4,2.052a2.611,2.611,0,0,1,.891,3.574l-1.306,2.169a14.066,14.066,0,0,1,2.541,4.59l2.527.046a2.579,2.579,0,0,1,1.282.365Zm-38.416-50.482,3.833-1.062a2.617,2.617,0,0,1,3.207,1.818l.674,2.435a14,14,0,0,1,5.079,1.317l1.775-1.8a2.613,2.613,0,0,1,3.682-.028l2.837,2.787a2.612,2.612,0,0,1,.027,3.685l-1.771,1.8a13.755,13.755,0,0,1,.937,2.464,14.054,14.054,0,0,1,.462,2.591l2.45.636a2.615,2.615,0,0,1,1.867,3.177l-1,3.848a2.611,2.611,0,0,1-3.174,1.867l-2.448-.635a13.965,13.965,0,0,1-3.681,3.745l.678,2.435a2.617,2.617,0,0,1-1.818,3.206l-3.834,1.062a2.616,2.616,0,0,1-3.205-1.818l-.67-2.435a13.974,13.974,0,0,1-5.081-1.317l-1.774,1.8a2.617,2.617,0,0,1-3.686.029l-2.832-2.79a2.609,2.609,0,0,1-.033-3.681l1.775-1.8a14.175,14.175,0,0,1-1.4-5.059l-2.446-.632a2.61,2.61,0,0,1-1.866-3.177l1-3.848a2.61,2.61,0,0,1,3.173-1.867l2.45.632a13.994,13.994,0,0,1,3.678-3.741l-.675-2.436a2.611,2.611,0,0,1,1.814-3.205Zm4.479,11.168a6.412,6.412,0,1,1-3.645,8.3,6.413,6.413,0,0,1,3.645-8.3Zm14.512,37.278a6.414,6.414,0,1,1-3.646,8.306,6.415,6.415,0,0,1,3.646-8.306Zm-42.915-9.56a15.79,15.79,0,1,0,8.367,8.725,15.742,15.742,0,0,0-8.367-8.725Zm0,0" transform="translate(-5481.936 -3365.68)" fill="#cfdaee" fill-rule="evenodd"/>
      <path id="Trazado_194038" data-name="Trazado 194038" d="M5685.958,3608.294c22.777,0,41.243,2.492,41.243,5.563s-18.466,5.563-41.243,5.563-41.246-2.488-41.246-5.562,18.466-5.563,41.246-5.563Zm0,0" transform="translate(-5538.565 -3457.059)" fill="#feca2e" fill-rule="evenodd"/>
      <path id="Trazado_194039" data-name="Trazado 194039" d="M5468.406,3286.792h55.008a11.363,11.363,0,0,1,10.9,9.631l13.826,105.214a8.276,8.276,0,0,1-8.364,9.631h-55.008a11.356,11.356,0,0,1-10.9-9.631l-13.83-105.214a8.277,8.277,0,0,1,8.367-9.631Zm0,0" transform="translate(-5437.111 -3280.516)" fill="#becce7" fill-rule="evenodd"/>
      <path id="Trazado_194040" data-name="Trazado 194040" d="M5471.9,3292.484h55.009a8.339,8.339,0,0,1,7.992,7.064l13.829,105.215a6.075,6.075,0,0,1-6.138,7.064h-55.005a8.337,8.337,0,0,1-7.99-7.064l-13.831-105.215a6.075,6.075,0,0,1,6.134-7.064Zm0,0" transform="translate(-5440.269 -3283.642)" fill="#fff" fill-rule="evenodd"/>
      <path id="Trazado_194041" data-name="Trazado 194041" d="M5475.842,3298.917h11.082a4.849,4.849,0,0,0,4.271,2.836h25.045a3.5,3.5,0,0,0,3.524-2.836h11.083a4.916,4.916,0,0,1,4.713,4.164l13.831,105.215a3.589,3.589,0,0,1-3.622,4.167h-55a4.916,4.916,0,0,1-4.713-4.167l-13.831-105.215a3.581,3.581,0,0,1,3.621-4.164Zm0,0" transform="translate(-5443.827 -3287.174)" fill="#e9eef7" fill-rule="evenodd"/>
      <path id="Trazado_194042" data-name="Trazado 194042" d="M5515.45,3296.46h21.935a1.317,1.317,0,0,1,1.264,1.118.962.962,0,0,1-.973,1.122h-21.932a1.322,1.322,0,0,1-1.267-1.122.964.964,0,0,1,.973-1.118Zm0,0" transform="translate(-5467.044 -3285.825)" fill="#fff" fill-rule="evenodd"/>
      <path id="Trazado_194043" data-name="Trazado 194043" d="M5681.138,3299.665c5.942,0,10.764,3.152,10.764,7.035,0,2.095-1.4,3.976-3.625,5.265a12.962,12.962,0,0,0,4.413,2.293,18.074,18.074,0,0,1-8.417-.827,15.949,15.949,0,0,1-3.134.305c-5.943,0-10.76-3.152-10.76-7.036s4.817-7.035,10.76-7.035Zm0,0" transform="translate(-5552.659 -3287.584)" fill="#cfdaee" fill-rule="evenodd"/>
      <path id="Trazado_194044" data-name="Trazado 194044" d="M5691.1,3312.388a1.221,1.221,0,1,0,1.22,1.221,1.221,1.221,0,0,0-1.22-1.221Zm-13.086,0a1.221,1.221,0,1,0,1.222,1.221,1.22,1.22,0,0,0-1.222-1.221Zm4.363,0a1.221,1.221,0,1,0,1.222,1.221,1.221,1.221,0,0,0-1.222-1.221Zm4.359,0a1.221,1.221,0,1,0,1.222,1.221,1.221,1.221,0,0,0-1.222-1.221Zm0,0" transform="translate(-5556.183 -3294.571)" fill="#fff" fill-rule="evenodd"/>
      <path id="Trazado_194045" data-name="Trazado 194045" d="M5562.389,3462.642c.816,3.127.916,7.515-.128,13.337a91.265,91.265,0,0,1-7.388,22.925h-9c-1.505-7.395-1.544-19.819.014-28.509,2.279-12.7,6.734-14.625,10.955-13.94l.167.028c1.97,3,3.731,5.073,5.375,6.159Zm0,0" transform="translate(-5483.664 -3373.615)" fill="#cfdaee" fill-rule="evenodd"/>
      <path id="Trazado_194046" data-name="Trazado 194046" d="M5547.131,3470.821c.025-.142.05-.284.075-.426,2.278-12.7,6.734-14.625,10.954-13.94l.167.028c.465.71.917,1.363,1.356,1.967q-7.966-.751-12.553,12.371Zm0,0" transform="translate(-5484.981 -3373.615)" fill="#aabcdd" fill-rule="evenodd"/>
      <path id="Trazado_194047" data-name="Trazado 194047" d="M5588.8,3462.672c1.6,2.335,2.8,6.311,3.362,12.743.789,9.084.074,20.66-1.892,26.969H5582.7a65.417,65.417,0,0,1-4.234-13.241,94.457,94.457,0,0,0,2.318-9.684c1.043-5.822.944-10.209.127-13.337,2.833,1.871,5.314.817,7.891-3.45Zm0,0" transform="translate(-5502.189 -3377.096)" fill="#cfdaee" fill-rule="evenodd"/>
      <path id="Trazado_194048" data-name="Trazado 194048" d="M5555.634,3378.283q1.234-4.211,9.7-4.132c-.067.4-.124.76-.163,1.058q3.274,5.741,7.614,5.513,2.034-1.256-.753-5.161a2.246,2.246,0,0,1-.55-.916c1.551.21,3.216.49,4.995.831q13.3,8.653,5.211,20.844-6.8,3.237-19.641-1-8.217-4.558-6.415-17.033Zm0,0" transform="translate(-5489.473 -3328.486)" fill="#cfdaee" fill-rule="evenodd"/>
      <path id="Trazado_194049" data-name="Trazado 194049" d="M5583.953,3439.651c1.586-6.5,5.286-12.269,5.651-17.817a.859.859,0,0,0-.049.075q-6.8,3.237-19.641-1c-.1-.05-.188-.1-.281-.156a30.074,30.074,0,0,1,.884,16.166c.058.011.139-.018.17.028,5.364,8.179,9.194,9.447,13.266,2.709Zm0,0" transform="translate(-5497.337 -3354.073)" fill="#cfdaee" fill-rule="evenodd"/>
      <path id="Trazado_194050" data-name="Trazado 194050" d="M5581.822,3496.98a52.065,52.065,0,0,0,1.41-25.779,4.868,4.868,0,0,1-2.319-.877c.817,3.128.917,7.515-.127,13.337a94.441,94.441,0,0,1-2.318,9.684,65.409,65.409,0,0,0,4.234,13.241h.216q-2.348-5.825-1.1-9.606Zm0,0" transform="translate(-5502.189 -3381.297)" fill="#aabcdd" fill-rule="evenodd"/>
      <path id="Trazado_194051" data-name="Trazado 194051" d="M5552.412,3378.436c2.326,0,4.207,2.286,4.207,5.108s-1.881,5.112-4.207,5.112-4.21-2.29-4.21-5.112,1.885-5.108,4.21-5.108Zm0,0" transform="translate(-5485.569 -3330.84)" fill="#8ca3ca" fill-rule="evenodd"/>
      <path id="Trazado_194052" data-name="Trazado 194052" d="M5539.476,3384.56c1.438,1.487-.031,3.678-5.328,10.014s-10.646,14.249-12.084,12.763,1.892-12.667,7.189-19,8.789-5.261,10.223-3.773Zm0,0" transform="translate(-5471.032 -3333.576)" fill="#cfdaee" fill-rule="evenodd"/>
      <path id="Trazado_194053" data-name="Trazado 194053" d="M5611.093,3384.018c1.537.284,3.7,1.63,6.593,4.849,4.5,5,9.123,11.189,7.759,12.176-1.029.745-6.187-1.331-10.589-4.544q2.013-6.885-3.763-12.481Zm0,0" transform="translate(-5520.104 -3333.905)" fill="#cfdaee" fill-rule="evenodd"/>
      <path id="Trazado_194054" data-name="Trazado 194054" d="M5521.337,3438.382c1.328-.543,2.361.969,5.077,6.013s6.436,10.522,5.108,11.065-7.67-4.48-10.387-9.521-1.125-7.015.2-7.557Zm0,0" transform="translate(-5469.891 -3363.7)" fill="#cfdaee" fill-rule="evenodd"/>
      <path id="Trazado_194055" data-name="Trazado 194055" d="M5645.445,3402.69c-.856-1.15.351-2.528,4.554-6.418s8.583-8.857,9.439-7.71-2.421,8.548-6.624,12.435-6.51,2.844-7.369,1.694Zm0,0" transform="translate(-5538.825 -3336.308)" fill="#cfdaee" fill-rule="evenodd"/>
      <path id="Trazado_194056" data-name="Trazado 194056" d="M5520.5,3433.108a1.855,1.855,0,1,1-1.856,1.854,1.855,1.855,0,0,1,1.856-1.854Zm0,0" transform="translate(-5469.335 -3360.861)" fill="#8ca3ca" fill-rule="evenodd"/>
      <path id="Trazado_194057" data-name="Trazado 194057" d="M5640.617,3419.248a1.855,1.855,0,1,1,2.258,1.331,1.851,1.851,0,0,1-2.258-1.331Zm0,0" transform="translate(-5536.283 -3351.978)" fill="#8ca3ca" fill-rule="evenodd"/>
      <path id="Trazado_194058" data-name="Trazado 194058" d="M5544.739,3476.652a.566.566,0,1,1,.961-.6,11.086,11.086,0,0,1,1.282,2.89,9.266,9.266,0,0,1,.322,2.968.567.567,0,0,1-1.132-.063,8.112,8.112,0,0,0-.281-2.609,9.994,9.994,0,0,0-1.152-2.588Zm1.082-1.21a.542.542,0,0,1-.2-.281.567.567,0,0,1,.365-.713,4.165,4.165,0,0,1,2.6-.146,2.548,2.548,0,0,1,1.6,1.679.567.567,0,1,1-1.068.38,1.489,1.489,0,0,0-.892-.987,2.46,2.46,0,0,0-1.264-.014,10.919,10.919,0,0,1,3.089,2.542,5.593,5.593,0,0,1,1.292,3.323.567.567,0,0,1-1.133.039,4.481,4.481,0,0,0-1.047-2.659,10.266,10.266,0,0,0-3.1-2.453.569.569,0,0,1-.248-.71Zm0,0" transform="translate(-5483.621 -3383.4)" fill="#8ca3ca" fill-rule="evenodd"/>
      <path id="Trazado_194059" data-name="Trazado 194059" d="M5676.331,3379.838a.566.566,0,1,1-.816-.784,11.153,11.153,0,0,1,2.475-1.963,9.26,9.26,0,0,1,2.793-1.051.567.567,0,1,1,.225,1.111,8.067,8.067,0,0,0-2.457.923,9.992,9.992,0,0,0-2.219,1.764Zm-1.444-.745a.58.58,0,0,1-.221.262.569.569,0,0,1-.781-.177,4.161,4.161,0,0,1-.791-2.485,2.541,2.541,0,0,1,1.229-1.967.569.569,0,1,1,.635.944,1.47,1.47,0,0,0-.734,1.107,2.49,2.49,0,0,0,.3,1.225,11.013,11.013,0,0,1,1.69-3.625,5.616,5.616,0,0,1,2.9-2.08.566.566,0,0,1,.321,1.086,4.5,4.5,0,0,0-2.314,1.675,10.371,10.371,0,0,0-1.6,3.614.567.567,0,0,1-.624.419Zm0,0" transform="translate(-5554.146 -3327.457)" fill="#8ca3ca" fill-rule="evenodd"/>
      <path id="Trazado_194060" data-name="Trazado 194060" d="M5544.27,3473.276a1.4,1.4,0,1,1-1.406,1.4,1.4,1.4,0,0,1,1.406-1.4Zm0,0" transform="translate(-5482.638 -3382.918)" fill="#8ca3ca" fill-rule="evenodd"/>
      <path id="Trazado_194061" data-name="Trazado 194061" d="M5673.726,3387.41a1.4,1.4,0,1,1,1.711,1.008,1.4,1.4,0,0,1-1.711-1.008Zm0,0" transform="translate(-5554.473 -3334.805)" fill="#8ca3ca" fill-rule="evenodd"/>
      <path id="Trazado_194062" data-name="Trazado 194062" d="M5605.517,3376.318c2.457,0,4.448,3.181,4.448,7.1,0,.1,0,.2-.007.291a19.111,19.111,0,0,0-6.415-6.656,3.148,3.148,0,0,1,1.97-.739Zm0,0" transform="translate(-5515.958 -3329.677)" fill="#8ca3ca" fill-rule="evenodd"/>
      <path id="Trazado_194063" data-name="Trazado 194063" d="M5564.115,3410.174q-5.7-5.463-5.793-9.929a3.557,3.557,0,0,1-1.609.387,3.292,3.292,0,0,1-.677-.068,12.489,12.489,0,0,0,6.131,8.925l.28.16c.565.184,1.123.362,1.668.525Zm0,0" transform="translate(-5489.871 -3342.815)" fill="#aabcdd" fill-rule="evenodd"/>
      <path id="Trazado_194064" data-name="Trazado 194064" d="M5585.9,3447.423q-4.867,4.372-13.6-7.1a27.118,27.118,0,0,1-.7,7.341c.058.011.138-.017.171.028.461.71.916,1.364,1.356,1.967a17.15,17.15,0,0,0,4.018,4.192,4.908,4.908,0,0,0,2.318.877c1.92.145,3.72-1.264,5.573-4.327.244-1.008.543-2,.87-2.975Zm0,0" transform="translate(-5498.414 -3364.821)" fill="#8ca3ca" fill-rule="evenodd"/>
      <path id="Trazado_194065" data-name="Trazado 194065" d="M5583.179,3365.62c.032,1.558.319,2.6.867,3.1q2.789,3.9.752,5.161-4.339.224-7.614-5.512a53.6,53.6,0,0,0,.817-6.674c2.538,1.48,3.688,3.138,5.179,3.922Zm0,0" transform="translate(-5501.483 -3321.649)" fill="#8ca3ca" fill-rule="evenodd"/>
      <path id="Trazado_194066" data-name="Trazado 194066" d="M5620.136,3398.408a15.007,15.007,0,0,0-2.492-8.981c.039.387.063.788.063,1.192l-.007.291a11.1,11.1,0,0,1,.75,8.559,28.742,28.742,0,0,0,8.885,4.548q-5.5-1.726-7.2-5.609Zm0,0" transform="translate(-5523.702 -3336.875)" fill="#aabcdd" fill-rule="evenodd"/>
      <path id="Trazado_194067" data-name="Trazado 194067" d="M5561.334,3328.643c.253,7.547,3.153,8.1,6.585,8.871,4.98,2.279,5.475,5.492,9.067,5.062q4.115-.916,5.913-6.815a16.086,16.086,0,0,0-.9-11.31c-4.807-9.752-20.494-5.378-20.668,4.192Zm0,0" transform="translate(-5492.781 -3298.178)" fill="#cfdaee" fill-rule="evenodd"/>
      <path id="Trazado_194068" data-name="Trazado 194068" d="M5573.125,3333.779c1.8,0,3.258,2.02,3.258,4.512s-1.458,4.508-3.258,4.508-3.255-2.02-3.255-4.508,1.458-4.512,3.255-4.512Zm0,0" transform="translate(-5497.467 -3306.317)" fill="#e9eef7" fill-rule="evenodd"/>
      <path id="Trazado_194069" data-name="Trazado 194069" d="M5572.976,3338.2c1.033,0,1.874,1.161,1.874,2.595s-.841,2.591-1.874,2.591-1.871-1.161-1.871-2.591.837-2.595,1.871-2.595Zm0,0" transform="translate(-5498.146 -3308.743)" fill="#8ca3ca" fill-rule="evenodd"/>
      <path id="Trazado_194070" data-name="Trazado 194070" d="M5595.828,3343.231q-5.132,1.72-11.871-1.334a6.054,6.054,0,0,1-.184,2.563q7.007,6.1,11.605,3.234a18.472,18.472,0,0,0,.449-4.462Zm0,0" transform="translate(-5505.103 -3310.775)" fill="#8ca3ca" fill-rule="evenodd"/>
      <path id="Trazado_194071" data-name="Trazado 194071" d="M5593.507,3404.36c.639,1.619,2.3,1.725,3.826,1.725q-5.76,2.312-13.6.561a28.163,28.163,0,0,0,5.644-.433c3.2-.966,3.87-6.4-.326-14.455a20.509,20.509,0,0,1,4.456,12.6Zm0,0" transform="translate(-5505.08 -3338.155)" fill="#aabcdd" fill-rule="evenodd"/>
      <path id="Trazado_194083" data-name="Trazado 194083" d="M5626.308,3274.243a3.475,3.475,0,0,0-.757.323,3.409,3.409,0,0,0-.664.5.119.119,0,0,1-.142.018l-.9-.518h0a.228.228,0,0,0-.3.085l-.007.007-.632,1.093a.235.235,0,0,0-.021.171.214.214,0,0,0,.1.135l.006.007.891.515a.113.113,0,0,1,.057.131,3.555,3.555,0,0,0-.074.408,3.142,3.142,0,0,0-.025.416,3.215,3.215,0,0,0,.025.418,3.683,3.683,0,0,0,.074.408.119.119,0,0,1-.063.135l-.888.515a.217.217,0,0,0-.081.305l.635,1.1a.212.212,0,0,0,.136.1.233.233,0,0,0,.166-.022l.007-.007.895-.515a.112.112,0,0,1,.139.019,3.681,3.681,0,0,0,.667.5,3.509,3.509,0,0,0,.764.323.122.122,0,0,1,.084.113v1.037a.221.221,0,0,0,.068.16.224.224,0,0,0,.156.063h1.271a.222.222,0,0,0,.156-.063.219.219,0,0,0,.067-.16v-1.037a.118.118,0,0,1,.089-.113,3.438,3.438,0,0,0,.76-.323,3.571,3.571,0,0,0,.664-.5.113.113,0,0,1,.149-.015l.891.515a.219.219,0,0,0,.17.021.216.216,0,0,0,.135-.1l.007-.007.631-1.1a.193.193,0,0,0,.021-.167.2.2,0,0,0-.1-.135l-.9-.519a.117.117,0,0,1-.054-.131,3.917,3.917,0,0,0,.075-.408,4.1,4.1,0,0,0,.025-.419,3.947,3.947,0,0,0-.025-.415,3.8,3.8,0,0,0-.075-.409.116.116,0,0,1,.061-.135l.891-.515a.223.223,0,0,0,.1-.135.2.2,0,0,0-.021-.171l-.007-.007-.631-1.093a.206.206,0,0,0-.135-.1.21.21,0,0,0-.166.021l-.9.518a.118.118,0,0,1-.142-.018,3.279,3.279,0,0,0-.664-.5,3.233,3.233,0,0,0-.764-.323.128.128,0,0,1-.085-.117v-1.037a.226.226,0,0,0-.064-.156.234.234,0,0,0-.159-.064h-1.271a.22.22,0,0,0-.156.064.217.217,0,0,0-.068.156v1.037a.121.121,0,0,1-.092.117Zm-.416,1.917a1.933,1.933,0,1,1-.568,1.367,1.929,1.929,0,0,1,.568-1.367Zm0,0" transform="translate(-5526.572 -3272.872)" fill="#cfdaee" fill-rule="evenodd"/>
      <path id="Trazado_194084" data-name="Trazado 194084" d="M5642.731,3301.1a2.13,2.13,0,1,1,2.13-2.13,2.131,2.131,0,0,1-2.13,2.13Zm6.042-1v-2.215H5647.4a4.856,4.856,0,0,0-.572-1.406l.98-.983-1.565-1.565-.977.973a4.792,4.792,0,0,0-1.4-.59v-1.388h-2.216v1.377a4.845,4.845,0,0,0-1.405.572l-.984-.98-1.565,1.566.973.976a4.692,4.692,0,0,0-.585,1.4h-1.392v2.216h1.378a4.745,4.745,0,0,0,.574,1.4l-.983.983,1.565,1.566.976-.977a4.739,4.739,0,0,0,1.4.59v1.392h2.215v-1.378a4.7,4.7,0,0,0,1.406-.575l.983.983,1.565-1.565-.973-.976a4.863,4.863,0,0,0,.589-1.4Zm0,0" transform="translate(-5534.16 -3283.884)" fill="#cfdaee" fill-rule="evenodd"/>
      <path id="Trazado_194085" data-name="Trazado 194085" d="M5674.674,3358.465l7.3-1.537a.884.884,0,0,1,1.043.685l3.1,14.735a.885.885,0,0,1-.682,1.044l-7.306,1.537a.887.887,0,0,1-1.043-.682l-3.1-14.739a.883.883,0,0,1,.681-1.044Zm0,0" transform="translate(-5554.633 -3319.019)" fill="#aabcdd" fill-rule="evenodd"/>
      <path id="Trazado_194086" data-name="Trazado 194086" d="M5726.668,3360.028c1.349.778,1.76,2.056,2.673,2.528,2.652.252,5.261.454,6.5,1.317a188.007,188.007,0,0,1,11.782,15.587,6.612,6.612,0,0,1-.731,7.245,6.086,6.086,0,0,0-6.776-1.459,7.154,7.154,0,0,1,1.15-3.181,92.4,92.4,0,0,1-8.6-8.445q.623,5.037-3.65,14.334-14.856.969-17.047-.469-.724-4.158-1.146-9.07a71.639,71.639,0,0,0-5.527,5.42,7.016,7.016,0,0,1-3.44.21q-1.3-3.052-2.605-5.527a7.048,7.048,0,0,1,3.127-1.3q6.065-8.648,10.476-13.969a27.627,27.627,0,0,1,5.108-.834,5.7,5.7,0,0,1,2.137-1.459,52.929,52.929,0,0,0-.728,9.226c4.328-3.17,6.759-7.313,7.3-10.153Zm0,0" transform="translate(-5568.513 -3320.731)" fill="#699dee" fill-rule="evenodd"/>
      <path id="Trazado_194087" data-name="Trazado 194087" d="M5746.74,3447.856q3.083-19.089-5-25.989-12.545.82-16.059-.082a30.232,30.232,0,0,1-.274,3.341,307.287,307.287,0,0,0-2.961,43.738q8.856,3.109,27.732-.262a195.246,195.246,0,0,1-3.44-20.746Zm0,0" transform="translate(-5581.239 -3354.644)" fill="#22407a" fill-rule="evenodd"/>
      <path id="Trazado_194088" data-name="Trazado 194088" d="M5739.759,3363.542a13.42,13.42,0,0,0-.813,3.7q.874-.691,1.289-.951a18.246,18.246,0,0,0,.934,5.019,52.738,52.738,0,0,1,.728-9.226,5.7,5.7,0,0,0-2.137,1.459Zm0,0" transform="translate(-5590.311 -3321.86)" fill="#4a75cb" fill-rule="evenodd"/>
      <path id="Trazado_194089" data-name="Trazado 194089" d="M5751.174,3360.028c-.54,2.84-2.972,6.983-7.3,10.153a13.636,13.636,0,0,0,7.028-6.152q.405,1.517,1.019,3.546a8.92,8.92,0,0,0,1.924-5.02c-.912-.472-1.324-1.75-2.673-2.528Zm0,0" transform="translate(-5593.018 -3320.731)" fill="#4a75cb" fill-rule="evenodd"/>
      <path id="Trazado_194090" data-name="Trazado 194090" d="M5775.048,3415.26a70.477,70.477,0,0,1-5.754,9.84c-.461-.493-.909-1.565-1.562-1.977-.259-.164-.673.259-.951.131a3.746,3.746,0,0,0-3.961.085c-.295.22-.454.653-.5,1.683.05,1.413,1.235,1.683,2.879,1.019,2.2,2.4,3.671,3.184,4.874,2.343q8.158-7.322,10.8-12.141a5.9,5.9,0,0,0-5.829-.983Zm0,0" transform="translate(-5603.146 -3350.855)" fill="#ffb27d" fill-rule="evenodd"/>
      <path id="Trazado_194091" data-name="Trazado 194091" d="M5652.727,3407.053q12.224.405,17.465-.646-1.263-2.955-2.539-5.367-9.75,1.449-16.695,2.13c-1.666-1.139-3.051-1.608-4.171-1.409-.305.7.025,1.214.991,1.541a1.365,1.365,0,0,1,.312,1.015,24.864,24.864,0,0,1-6.358,1.9q-.324,3.253,4.022,4.139a17.324,17.324,0,0,0,6.973-3.3Zm0,0" transform="translate(-5536.916 -3343.252)" fill="#ffb27d" fill-rule="evenodd"/>
      <path id="Trazado_194092" data-name="Trazado 194092" d="M5777.225,3602.651c-1.52,5.668-1,8.686,1.856,9.1,3.8.272,4.832-3.483,3.341-11.223.031.423.059.81.074,1.161.423,8.1-5.868,6.291-5.431,2.56.064-.522.114-1.054.16-1.6Zm0,0" transform="translate(-5610.872 -3452.796)" fill="#22407a" fill-rule="evenodd"/>
      <path id="Trazado_194093" data-name="Trazado 194093" d="M5770.131,3563.24c-.437,3.731,5.854,5.545,5.432-2.559q-.026-.527-.074-1.161c-.255-3.3-.955-8.59-.905-11.927a78.15,78.15,0,0,0-2.269-21.746q-4.573.8-8.551,1.21,2.15,7.466,3.727,13.663c1.293,5.069,3.7,12.574,3.1,17.724-.127,1.1-.208,2.173-.3,3.2-.046.547-.1,1.079-.16,1.6Zm0,0" transform="translate(-5603.939 -3411.786)" fill="#ffb27d" fill-rule="evenodd"/>
      <path id="Trazado_194094" data-name="Trazado 194094" d="M5713.809,3602.917c2.194.117.191,1.825,1.622,2.208,3.12-1.707,4.85-6.362,6.1-8.417.656-1.079,1.132.3,1.455,1.836.692,3.3.675,7.671-.113,9.031-.568-1-1.062-4.058-1.58-5.928-3.063,2.723-2.4,5.729-4.212,6.752a98.209,98.209,0,0,1-10.022.675c-.728-2.812,5.026-1.864,6.755-6.156Zm0,0" transform="translate(-5572.763 -3450.486)" fill="#22407a" fill-rule="evenodd"/>
      <path id="Trazado_194095" data-name="Trazado 194095" d="M5724.746,3527.2c.415,16.348,1.92,30.916-.806,37.962.759.49-.373,1.694.794,2.006,3.125-1.707,4.853-6.361,6.1-8.417l.021-.031a6.363,6.363,0,0,1-.373-1.5c.053-13.56,3.444-21.924,2.786-28.985a35.106,35.106,0,0,1-8.522-1.037Zm0,0" transform="translate(-5582.071 -3412.529)" fill="#ffb27d" fill-rule="evenodd"/>
      <path id="Trazado_194096" data-name="Trazado 194096" d="M5705,3405.06q-1.64-3.127-3.291-6.547a6.122,6.122,0,0,0-2.46,1.139q1.274,2.412,2.539,5.367c.021.053.045.107.066.16a7.135,7.135,0,0,0,3.146-.12Zm0,0" transform="translate(-5568.513 -3341.864)" fill="#4a75cb" fill-rule="evenodd"/>
      <path id="Trazado_194097" data-name="Trazado 194097" d="M5790.544,3410.378a6.485,6.485,0,0,0-.649,2.275c.1-.039.2-.075.295-.11a5.892,5.892,0,0,1,5.828.983c-.008.007-.008.014-.011.021.224.174.443.358.667.564a7.807,7.807,0,0,0,1.278-2.6q-4.148-2.412-7.408-1.139Zm0,0" transform="translate(-5618.288 -3348.138)" fill="#4a75cb" fill-rule="evenodd"/>
      <path id="Trazado_194098" data-name="Trazado 194098" d="M5740.881,3343.524a3.921,3.921,0,0,1-.085,2.666,53.968,53.968,0,0,0-.578,8.332c4.127-3.028,6.531-6.937,7.212-9.759a4.9,4.9,0,0,1-.674-3.088,6.335,6.335,0,0,1,.94-3.074c2.47-.43,3.084-2.506,2.055-4.153-1.154-.408-1.778.536-2.083,2.25-.657-.1-.405-1.15-.337-1.644a5.285,5.285,0,0,0-.469-3.542c-2.966,2.083-5.513,2.151-9.567.973.121.972.206,1.913.263,2.814-1.111,2.7.585,7.306,3.322,8.225Zm0,0" transform="translate(-5589.36 -3305.073)" fill="#ffb27d" fill-rule="evenodd"/>
      <path id="Trazado_194099" data-name="Trazado 194099" d="M5727.343,3323.837c4.054,1.178,6.6,1.11,9.566-.973a5.279,5.279,0,0,1,.469,3.542c-.068.494-.32,1.544.337,1.643.305-1.714.93-2.659,2.084-2.25,1.029,1.647.415,3.724-2.055,4.153a6.343,6.343,0,0,0-.941,3.074,4.9,4.9,0,0,0,.674,3.088c.032-.131.061-.266.085-.394,1.349.778,1.761,2.056,2.673,2.528,2.652.252,5.261.454,6.5,1.317q.539.65,1.062,1.289c.849-1.984,1.292-3.44,1.143-4.086-.571-2.464-3.163-1.228-3.12-2.684.071-2.272-3.134-4.05-2.708-6.318.874-4.633-.937-6.042-.948-6.394-.107-3.511-2.208-3.6-4.3-4.785-3.71-2.1-6.937.468-7.991.536-5.365.351-2.393,2.659-4.8,4.735-1.978,1.711-1.044,3.01-.837,4.04.088.462.521,2.372-.849,3.337-2.009,1.413-.17,4.384-1.356,4.743-4.558,1.38-2.5,2.758-2.378,5.942a4.43,4.43,0,0,0,1.161,2.684c1.029-1.331,2.01-2.552,2.929-3.663a27.614,27.614,0,0,1,5.108-.835,5.7,5.7,0,0,1,2.137-1.459c-.053.29-.1.589-.148.894a3.917,3.917,0,0,0,.085-2.666c-2.737-.919-4.434-5.52-3.322-8.225-.057-.9-.143-1.843-.263-2.814Zm0,0" transform="translate(-5579.407 -3296.424)" fill="#22407a" fill-rule="evenodd"/>
      <path id="Trazado_194100" data-name="Trazado 194100" d="M5745.347,3357.623a6.663,6.663,0,0,0,3.94-.437,5.3,5.3,0,0,1-3.756,1.594,5.194,5.194,0,0,0-.184-1.157Zm0,0" transform="translate(-5593.826 -3319.171)" fill="#f08261" fill-rule="evenodd"/>
    </g>
  </g>
</svg>
