<svg xmlns="http://www.w3.org/2000/svg" width="148" height="148" viewBox="0 0 148 148">
  <g id="Grupo_148519" data-name="Grupo 148519" transform="translate(-726 -1266)">
    <g id="Grupo_109237" data-name="Grupo 109237" transform="translate(-6004.135 -2705.82)">
      <g id="Elipse_4811" data-name="Elipse 4811">
        <circle id="Elipse_4816" data-name="Elipse 4816" cx="74" cy="74" r="74" transform="translate(6730.134 3971.82)" fill="#4dcedf"/>
        <circle id="Elipse_4817" data-name="Elipse 4817" cx="73.5" cy="73.5" r="73.5" transform="translate(6730.634 3972.32)" fill="#4dcedf"/>
      </g>
    </g>
    <g id="Grupo_138506" data-name="Grupo 138506" transform="translate(752 1289)">
      <path id="Trazado_192581" data-name="Trazado 192581" d="M3000.428,1099.905l-1.95-4.914a9.68,9.68,0,1,0-2.23,2.93l1.25,3.148a12.578,12.578,0,0,1,.891,4.66v71.335a2.375,2.375,0,0,1-4.719.378l-2.152-44.2a1.577,1.577,0,0,0-3.15.154l2.156,44.272c0,.045.006.091.012.135a5.529,5.529,0,0,0,11.007-.743v-71.335A15.712,15.712,0,0,0,3000.428,1099.905Zm-10.589-2.68a6.487,6.487,0,1,1,6.486-6.487A6.494,6.494,0,0,1,2989.839,1097.226Z" transform="translate(-2905.84 -1081.099)" fill="#0f2771"/>
      <path id="Trazado_192582" data-name="Trazado 192582" d="M2951.791,1142.5h14.1a3.553,3.553,0,0,0,3.376-2.432l4.831-13.944a1.577,1.577,0,1,0-2.98-1.032l-4.833,13.953-.008.022a.4.4,0,0,1-.385.278h-14.1a4.92,4.92,0,1,0,0,9.84h19.078a4.065,4.065,0,0,0,3.794-2.57l4.006-10.025a1.577,1.577,0,0,0-2.929-1.171l-4.006,10.025a.927.927,0,0,1-.865.586h-19.078a1.766,1.766,0,0,1,0-3.533Z" transform="translate(-2889.132 -1102.619)" fill="#0f2771"/>
      <path id="Trazado_192583" data-name="Trazado 192583" d="M2944.383,1148.775a1.577,1.577,0,0,0,0,2.23,1.156,1.156,0,1,1-1.634,1.634l-1.89-1.89a4.31,4.31,0,0,0-7.357,3.047v2.673a1.156,1.156,0,1,1-2.311,0V1153.8a4.31,4.31,0,0,0-7.357-3.047l-1.889,1.89a1.156,1.156,0,1,1-1.634-1.634l1.89-1.89a4.31,4.31,0,0,0-3.047-7.357h-2.673a1.156,1.156,0,0,1,0-2.312h2.673a4.31,4.31,0,0,0,3.047-7.357l-1.89-1.889a1.156,1.156,0,1,1,1.634-1.635l1.889,1.89a4.31,4.31,0,0,0,7.357-3.048v-2.672a1.156,1.156,0,1,1,2.311,0v2.672a4.31,4.31,0,0,0,7.357,3.048l1.89-1.89a1.156,1.156,0,0,1,1.634,1.635l-1.889,1.889a1.577,1.577,0,0,0,2.23,2.23l1.89-1.89a4.31,4.31,0,1,0-6.095-6.095l-1.89,1.89a1.156,1.156,0,0,1-1.973-.817v-2.672a4.31,4.31,0,0,0-8.62,0v2.672a1.156,1.156,0,0,1-1.973.817l-1.89-1.89a4.31,4.31,0,0,0-6.095,6.095l1.89,1.89a1.156,1.156,0,0,1-.817,1.973h-2.673a4.31,4.31,0,0,0,0,8.62h2.673a1.156,1.156,0,0,1,.817,1.973l-1.89,1.89a4.31,4.31,0,0,0,6.095,6.095l1.89-1.89a1.155,1.155,0,0,1,1.973.817v2.673a4.31,4.31,0,0,0,8.62,0V1153.8a1.156,1.156,0,0,1,1.973-.817l1.89,1.89a4.31,4.31,0,0,0,6.095-6.095A1.577,1.577,0,0,0,2944.383,1148.775Z" transform="translate(-2871.736 -1100.813)" fill="#0f2771"/>
      <path id="Trazado_192584" data-name="Trazado 192584" d="M2990.308,1233.088a3.147,3.147,0,0,1-2.353-3.007l-.45-38.786a1.578,1.578,0,0,0-1.577-1.559h-.019a1.576,1.576,0,0,0-1.558,1.595l.45,38.786a6.307,6.307,0,0,0,4.716,6.024,1.577,1.577,0,0,0,.79-3.054Z" transform="translate(-2907.922 -1135.56)" fill="#0f2771"/>
      <path id="Trazado_192585" data-name="Trazado 192585" d="M2917.54,1240.416a1.838,1.838,0,0,1-1.835-1.835,1.577,1.577,0,1,0-3.154,0,4.989,4.989,0,1,0,4.989-4.989,1.577,1.577,0,1,0,0,3.154,1.835,1.835,0,1,1,0,3.67Z" transform="translate(-2871.928 -1157.544)" fill="#0f2771"/>
      <path id="Trazado_192586" data-name="Trazado 192586" d="M2901.329,1180.758h-5.393v-33.845a1.577,1.577,0,1,0-3.154,0v33.845h-9.319a20.99,20.99,0,0,0-1.4-5.427,13.517,13.517,0,0,0,4.928-21.171,1.577,1.577,0,0,0-2.4,2.046,10.365,10.365,0,0,1-13.959,15.122,1.577,1.577,0,0,0-1.849,2.555,13.484,13.484,0,0,0,10.243,2.355,17.525,17.525,0,0,1,1.257,4.52H2863.8c-.805-3.528-1.982-5.9-3.648-7.318l5.252-1.373a1.577,1.577,0,0,0,1.178-1.526,15.469,15.469,0,0,1,8.182-13.66l10.455-5.6a1.578,1.578,0,0,0,.833-1.39v-7.866a1.577,1.577,0,0,0-1.577-1.577h-7.547a10.358,10.358,0,0,1-10.346-10.346v-11.458a10.278,10.278,0,0,1,3.031-7.316l8.011-8.011a13.248,13.248,0,0,0,3.9-9.428v-9.29a1.576,1.576,0,0,0-1.567-1.576l-.373,0c-11.259,0-20.008,3.023-26.006,8.986-9.224,9.169-9.224,22.526-9.224,26.915,0,5.16-4.634,9.153-8.357,12.361-2.238,1.928-4.006,3.452-4.633,5.074a4.022,4.022,0,0,0,.117,3.191c1.012,2.208,3.882,3.781,5.609,4.559a6.314,6.314,0,0,1-1.331,2.741,2.488,2.488,0,0,0-.953,1.894c-.057,1.582,1.341,3.361,2.444,4.511-1.506,3.327-1.266,4.048-1.131,4.453.231.693.792,1.151,2.381,2.376.5.382,1.314,1.012,1.785,1.443-.625,2.076-1.268,6.55.067,9.921a7.182,7.182,0,0,0,5.222,4.547,14.324,14.324,0,0,0,6.388-.441c2.305-.513,4.3-.955,5.766,0,1.183.773,2.13,2.521,2.823,5.2h-7.517a1.577,1.577,0,1,0,0,3.154h48.292a1.577,1.577,0,1,0,0-3.154Zm-49.086-8.51a1.47,1.47,0,0,0-.166.053c-.268.057-.534.116-.8.175a11.92,11.92,0,0,1-4.989.447,3.962,3.962,0,0,1-2.8-2.177c-1.481-2.937-.446-7.755-.1-8.6a1.9,1.9,0,0,0-.191-2.079,5.452,5.452,0,0,0-.808-.882c-.554-.508-1.271-1.06-1.966-1.6-.349-.269-.819-.631-1.145-.9.139-.434.4-1.092.7-1.8l3.6,1.283a1.577,1.577,0,1,0,1.06-2.971l-4.645-1.656a10.072,10.072,0,0,1-1.971-2.485c1.681-1.637,2.34-4.938,2.46-5.616a1.577,1.577,0,0,0-1.024-1.761c-1.379-.491-4.443-1.978-5.113-3.439a.866.866,0,0,1-.042-.74c.342-.886,2.074-2.378,3.75-3.822,3.989-3.437,9.452-8.144,9.452-14.75,0-4.065,0-16.434,8.293-24.679,5.175-5.145,12.762-7.851,22.57-8.055v7.7a10.112,10.112,0,0,1-2.982,7.2l-8.01,8.01a13.415,13.415,0,0,0-3.954,9.547V1130.1a13.515,13.515,0,0,0,13.5,13.5h5.97v5.345l-9.623,5.152a18.616,18.616,0,0,0-9.807,15.212Z" transform="translate(-2831.092 -1082.063)" fill="#0f2771"/>
    </g>
  </g>
</svg>
