<svg xmlns="http://www.w3.org/2000/svg" width="148" height="148" viewBox="0 0 148 148">
  <g id="Grupo_148520" data-name="Grupo 148520" transform="translate(-1182 -1266)">
    <g id="Grupo_148517" data-name="Grupo 148517">
      <circle id="Elipse_4824" data-name="Elipse 4824" cx="74" cy="74" r="74" transform="translate(1182 1266)" fill="#4dcedf"/>
      <circle id="Elipse_4825" data-name="Elipse 4825" cx="73.5" cy="73.5" r="73.5" transform="translate(1182.5 1266.5)" fill="#4dcedf"/>
    </g>
    <g id="Grupo_138505" data-name="Grupo 138505" transform="translate(1203 1288)">
      <path id="Trazado_192575" data-name="Trazado 192575" d="M3296.271,1208.078a1.612,1.612,0,0,0-1.741,1.476,6.34,6.34,0,0,1-10.741,4.026,1.614,1.614,0,1,0-2.254,2.312,9.581,9.581,0,0,0,5.893,2.681c.266.022.528.033.79.033a9.56,9.56,0,0,0,6.991-3.055,4.488,4.488,0,0,1,2.868,3.173,1.615,1.615,0,0,0,1.575,1.264,1.639,1.639,0,0,0,.352-.039,1.614,1.614,0,0,0,1.225-1.927,7.575,7.575,0,0,0-4.234-5.213,9.529,9.529,0,0,0,.753-2.99A1.615,1.615,0,0,0,3296.271,1208.078Z" transform="translate(-3247.176 -1142.684)" fill="#0f2771"/>
      <path id="Trazado_192576" data-name="Trazado 192576" d="M3272.535,1157.03a6.345,6.345,0,0,1-4.131,1.147,1.615,1.615,0,1,0-.241,3.22q.354.026.708.026a8.73,8.73,0,0,1,12.722-4.079c.264.021.526.032.789.032.042,0,.083-.006.125-.006a6.261,6.261,0,0,1,.942,7.115,1.614,1.614,0,0,0,2.762,1.672,9.137,9.137,0,0,0,1.122-3.568,9.336,9.336,0,0,0-1.36-5.916,9.58,9.58,0,0,0,3.186-2.114,1.614,1.614,0,0,0-2.287-2.279,6.338,6.338,0,0,1-8.477.458,9.493,9.493,0,0,0-1.709-6.411,1.615,1.615,0,0,0-2.636,1.865,6.339,6.339,0,0,1-1.513,8.838Z" transform="translate(-3240.138 -1112.131)" fill="#0f2771"/>
      <path id="Trazado_192577" data-name="Trazado 192577" d="M3373,1207.233a1.616,1.616,0,0,0-1.772,1.441,10.985,10.985,0,0,1-20,5.078,1.615,1.615,0,1,0-2.666,1.822,14.244,14.244,0,0,0,15.852,5.586,13.122,13.122,0,0,1-10.8,7.065,1.614,1.614,0,0,0,.13,3.223c.044,0,.089,0,.133-.005a18.286,18.286,0,0,0,2.6-.4c.031.028.058.06.092.086.066.049,6.554,5.014,6.391,13.471a1.614,1.614,0,0,0,1.583,1.645h.032a1.614,1.614,0,0,0,1.613-1.583,20.469,20.469,0,0,0-6.233-14.831,16.239,16.239,0,0,0,6.209-5.355,19.183,19.183,0,0,0,2.66-5.548,14.191,14.191,0,0,0,5.616-9.919A1.616,1.616,0,0,0,3373,1207.233Z" transform="translate(-3280.081 -1142.269)" fill="#0f2771"/>
      <path id="Trazado_192578" data-name="Trazado 192578" d="M3279.221,1192.337c-3.581-.938-5.376-2.605-6.266-3.909h.027a32.423,32.423,0,0,0,8.061-1.018,1.614,1.614,0,0,0-.8-3.128,28.125,28.125,0,0,1-16.319-.6,1.613,1.613,0,0,0-1.929.543,1.494,1.494,0,0,0-.135.108,13.187,13.187,0,0,1-9.2,3.6c-6.773,0-12.283-4.779-12.283-10.653a9.846,9.846,0,0,1,3.2-7.163,9.6,9.6,0,0,0,7.8-6.674,27.728,27.728,0,0,0,7.043,1.639,24.476,24.476,0,0,0,11.468-1.59,7.58,7.58,0,0,1,1.828,6.593,1.615,1.615,0,1,0,3.158.677,10.638,10.638,0,0,0-2-8.7,26.6,26.6,0,0,0,4.43-3.165,1.614,1.614,0,1,0-2.129-2.427,21.019,21.019,0,0,1-16.32,5.414,23.294,23.294,0,0,1-7.932-2.149,1.615,1.615,0,0,0-2.372,1.322,6.34,6.34,0,1,1-12.655-.807,1.614,1.614,0,0,0-3.222-.206,9.495,9.495,0,0,0,1.07,5.013,6.19,6.19,0,0,1-6.292-1.353,1.614,1.614,0,0,0-2.365,2.2,9.4,9.4,0,0,0,6.587,2.73,10.218,10.218,0,0,0,4.119-.907,9.527,9.527,0,0,0,3.771,2.113,12.746,12.746,0,0,0-2.413,7.443,12.516,12.516,0,0,0,.162,1.989c-8.369.789-14.376-1.8-17.388-7.527a19.155,19.155,0,0,1-.577-15.646c.074.079.141.162.218.238a1.614,1.614,0,0,0,2.272-2.294,6.34,6.34,0,0,1,8.925-9.007,1.614,1.614,0,1,0,2.273-2.293,9.517,9.517,0,0,0-6.056-2.736,10.584,10.584,0,0,1,3.25-5.727,11.234,11.234,0,0,1,7.329-2.442c-.164.29-.25.471-.262.5a1.614,1.614,0,1,0,2.936,1.344,12.228,12.228,0,0,1,3.476-3.973,1.614,1.614,0,1,0-1.956-2.569,16.9,16.9,0,0,0-1.771,1.557c-4.977-.424-8.976.638-11.893,3.167a14.075,14.075,0,0,0-4.461,8.5,9.555,9.555,0,0,0-6.227,12.695,17.11,17.11,0,0,0-2.638,8.521,22.179,22.179,0,0,0,2.3,11.675,16.568,16.568,0,0,0,7.623,7.39,22.344,22.344,0,0,0,9.761,2.014,34.344,34.344,0,0,0,3.808-.223c2.289,5.114,7.88,8.737,14.4,8.737a16.514,16.514,0,0,0,11.037-4.129,28.859,28.859,0,0,0,5.542,1.181c.7,1.9,2.845,5.6,9.165,7.253,7.6,1.99,13.082,6.358,13.976,11.129a1.615,1.615,0,0,0,1.585,1.317,1.634,1.634,0,0,0,.3-.028,1.614,1.614,0,0,0,1.289-1.884C3294.43,1200,3288.019,1194.641,3279.221,1192.337Z" transform="translate(-3214.706 -1102.907)" fill="#0f2771"/>
      <path id="Trazado_192579" data-name="Trazado 192579" d="M3350.229,1108.972a7.6,7.6,0,0,0-9.224-5.514l-3.01.757a4.37,4.37,0,0,1-4.818-6.481l1.593-2.664a7.6,7.6,0,1,0-13.045-7.8l-1.593,2.663a4.371,4.371,0,0,1-7.99-1.175l-.757-3.009a7.6,7.6,0,1,0-14.739,3.71l.757,3.009a4.37,4.37,0,0,1-6.48,4.818l-2.664-1.593a7.6,7.6,0,1,0-7.8,13.045l2.663,1.593a1.614,1.614,0,1,0,1.657-2.771l-2.663-1.593a4.37,4.37,0,1,1,4.485-7.5l2.664,1.592a7.6,7.6,0,0,0,11.269-8.377l-.757-3.01a4.37,4.37,0,1,1,8.477-2.133l.758,3.009a7.6,7.6,0,0,0,13.892,2.044l1.592-2.664a4.37,4.37,0,1,1,7.5,4.485l-1.592,2.664a7.6,7.6,0,0,0,8.377,11.269l3.01-.757a4.37,4.37,0,1,1,2.133,8.476l-3.01.758a7.6,7.6,0,0,0-2.044,13.892l2.664,1.592a4.37,4.37,0,0,1-4.485,7.5l-2.664-1.593c-2.844-1.7-5.872-1.414-9.257.876a1.614,1.614,0,0,0,1.809,2.674c2.95-1.995,4.645-1.464,5.792-.779l2.664,1.593a7.6,7.6,0,1,0,7.8-13.045l-2.664-1.592a4.37,4.37,0,0,1,1.176-7.989l3.009-.758a7.6,7.6,0,0,0,5.515-9.225Z" transform="translate(-3245.078 -1080.005)" fill="#0f2771"/>
      <path id="Trazado_192580" data-name="Trazado 192580" d="M3342.67,1142.99a13.565,13.565,0,0,0-25.605-6.245,10.914,10.914,0,0,0-6.117-.574,1.615,1.615,0,1,0,.674,3.158c.242-.052,5.937-1.2,7.912,4.533a1.617,1.617,0,0,0,1.624,1.085c.07,0,7.167-.367,11.487,3.851,2.4,2.347,3.546,5.741,3.4,10.09a1.614,1.614,0,0,0,1.558,1.669h.057a1.615,1.615,0,0,0,1.612-1.559,20.148,20.148,0,0,0-.7-6.293A13.569,13.569,0,0,0,3342.67,1142.99Zm-7.789,3.481c-4.219-4.1-10.2-4.7-12.732-4.759a9.83,9.83,0,0,0-2.331-3.243,10.332,10.332,0,1,1,17.365,10.964A13.581,13.581,0,0,0,3334.881,1146.471Z" transform="translate(-3261.183 -1104.193)" fill="#0f2771"/>
    </g>
  </g>
</svg>
